<?xml version="1.0" encoding="UTF-8" standalone="no"?>
<!-- Created with Inkscape (http://www.inkscape.org/) -->

<svg
   xmlns:dc="http://purl.org/dc/elements/1.1/"
   xmlns:cc="http://creativecommons.org/ns#"
   xmlns:rdf="http://www.w3.org/1999/02/22-rdf-syntax-ns#"
   xmlns:svg="http://www.w3.org/2000/svg"
   xmlns="http://www.w3.org/2000/svg"
   xmlns:sodipodi="http://sodipodi.sourceforge.net/DTD/sodipodi-0.dtd"
   xmlns:inkscape="http://www.inkscape.org/namespaces/inkscape"
   width="251.91444mm"
   height="251.90022mm"
   viewBox="0 0 251.91444 251.90022"
   version="1.1"
   id="svg9067"
   inkscape:version="0.92.0 r"
   sodipodi:docname="card_mask.svg">
  <defs
     id="defs9061">
    <clipPath
       id="clipPath1594"
       clipPathUnits="userSpaceOnUse">
      <path
         inkscape:connector-curvature="0"
         id="path1592"
         d="m 363.043,6916.69 -1.191,3.86 c 11.453,3.56 17.851,15.74 14.296,27.2 -2.89,9.3 -11.484,15.29 -20.75,15.29 -2.128,0 -4.296,-0.32 -6.437,-0.98 h -0.012 l -5.965,19.19 h 0.008 c 11.469,3.55 17.863,15.74 14.309,27.19 -2.891,9.31 -11.485,15.29 -20.746,15.29 -2.133,0 -4.301,-0.31 -6.442,-0.98 h -0.011 l -1.461,4.7 v 16.48 c 8.558,4.98 12.867,15.36 9.8,25.21 -1.679,5.4 -5.269,9.68 -9.8,12.32 v 82.66 l 640.164,198.84 2.468,-7.96 c -11.453,-3.55 -17.859,-15.73 -14.304,-27.19 2.886,-9.31 11.469,-15.29 20.73,-15.29 2.137,0 4.309,0.32 6.457,0.99 l 5.965,-19.21 c -11.453,-3.55 -17.859,-15.72 -14.297,-27.19 2.891,-9.31 11.473,-15.28 20.735,-15.28 2.136,0 4.311,0.32 6.451,0.99 l 5.97,-19.21 c -2.2,-0.68 -4.21,-1.68 -6,-2.93 -2.54,3.69 -4.3,8 -5.003,12.72 l -0.047,1.01 -18.2,-2.7 0.247,-0.98 c 2.461,-16.57 -8.981,-32.01 -25.559,-34.48 -1.512,-0.22 -3.016,-0.33 -4.496,-0.33 -14.785,0 -27.734,10.83 -29.969,25.88 l -0.047,1.02 -18.218,-2.71 0.246,-0.98 c 2.461,-16.57 -8.965,-32 -25.551,-34.47 -1.508,-0.23 -3.008,-0.34 -4.488,-0.34 -14.786,0 -27.75,10.83 -29.985,25.89 l -0.039,1.01 -18.211,-2.7 0.258,-0.98 c 2.461,-16.58 -8.992,-32.01 -25.57,-34.48 -1.508,-0.22 -3.008,-0.33 -4.489,-0.33 -14.781,0 -27.742,10.82 -29.976,25.88 l -0.043,1.02 -18.211,-2.71 0.246,-0.98 c 2.461,-16.57 -8.977,-32.01 -25.551,-34.48 -1.508,-0.22 -3.008,-0.33 -4.488,-0.33 -14.785,0 -27.75,10.83 -29.984,25.89 l -0.043,1.01 -19.891,-2.96 26.18,-176.17 -329.055,-102.21" />
    </clipPath>
    <clipPath
       id="clipPath2024"
       clipPathUnits="userSpaceOnUse">
      <path
         inkscape:connector-curvature="0"
         id="path2022"
         d="m 2906.04,4967.57 h 79.4023 v 180.02 H 2906.04 Z" />
    </clipPath>
    <clipPath
       id="clipPath2036"
       clipPathUnits="userSpaceOnUse">
      <path
         inkscape:connector-curvature="0"
         id="path2034"
         d="m 2906.04,4967.57 h -273.45 v 191.03 h 99.2 v -11.01 h 174.25 v -180.02" />
    </clipPath>
    <clipPath
       id="clipPath2144"
       clipPathUnits="userSpaceOnUse">
      <path
         inkscape:connector-curvature="0"
         id="path2142"
         d="m 4520.19,4525.32 -224.07,299.52 -757.53,-90.33 v 413.08 h 981.6 v -622.27" />
    </clipPath>
    <clipPath
       id="clipPath2834"
       clipPathUnits="userSpaceOnUse">
      <path
         inkscape:connector-curvature="0"
         id="path2832"
         d="m 2731.79,5158.6 h 174.25 v 10.4805 h -174.25 z" />
    </clipPath>
    <clipPath
       id="clipPath2918"
       clipPathUnits="userSpaceOnUse">
      <path
         inkscape:connector-curvature="0"
         id="path2916"
         d="m 2985.44,5147.59 h 553.148 v 11.0117 H 2985.44 Z" />
    </clipPath>
    <clipPath
       id="clipPath2930"
       clipPathUnits="userSpaceOnUse">
      <path
         inkscape:connector-curvature="0"
         id="path2928"
         d="m 2906.04,5147.59 h 79.4023 v 11.0117 H 2906.04 Z" />
    </clipPath>
    <clipPath
       id="clipPath2942"
       clipPathUnits="userSpaceOnUse">
      <path
         inkscape:connector-curvature="0"
         id="path2940"
         d="m 2731.79,5147.59 h 174.25 v 11.0117 h -174.25 z" />
    </clipPath>
    <clipPath
       id="clipPath2954"
       clipPathUnits="userSpaceOnUse">
      <path
         inkscape:connector-curvature="0"
         id="path2952"
         d="m 3538.59,5158.6 h 981.602 v 74.3906 H 3538.59 Z" />
    </clipPath>
    <clipPath
       id="clipPath2966"
       clipPathUnits="userSpaceOnUse">
      <path
         inkscape:connector-curvature="0"
         id="path2964"
         d="m 3538.59,5147.59 h 981.602 v 11.0117 H 3538.59 Z" />
    </clipPath>
  </defs>
  <sodipodi:namedview
     id="base"
     pagecolor="#ffffff"
     bordercolor="#666666"
     borderopacity="1.0"
     inkscape:pageopacity="0.0"
     inkscape:pageshadow="2"
     inkscape:zoom="0.98994949"
     inkscape:cx="140.03987"
     inkscape:cy="686.53788"
     inkscape:document-units="mm"
     inkscape:current-layer="layer1"
     showgrid="false"
     fit-margin-top="0"
     fit-margin-left="0"
     fit-margin-right="0"
     fit-margin-bottom="0"
     inkscape:window-width="1362"
     inkscape:window-height="733"
     inkscape:window-x="0"
     inkscape:window-y="16"
     inkscape:window-maximized="0" />
  <metadata
     id="metadata9064">
    <rdf:RDF>
      <cc:Work
         rdf:about="">
        <dc:format>image/svg+xml</dc:format>
        <dc:type
           rdf:resource="http://purl.org/dc/dcmitype/StillImage" />
        <dc:title></dc:title>
      </cc:Work>
    </rdf:RDF>
  </metadata>
  <g
     inkscape:label="Layer 1"
     inkscape:groupmode="layer"
     id="layer1"
     transform="translate(-150.72135,-182.38918)">
    <path
       inkscape:connector-curvature="0"
       id="path1524"
       style="fill:#010101;fill-opacity:0.00392157;fill-rule:nonzero;stroke:none;stroke-width:0.03527778"
       d="m 221.85306,183.88107 0.009,0.0346 c 0.0868,0.5842 -0.3168,1.12924 -0.90135,1.21602 -0.58455,0.0868 -1.1296,-0.31715 -1.21603,-0.90135 l -0.002,-0.0356 -0.64206,0.0952 0.008,0.0346 c 0.0868,0.58455 -0.31715,1.12924 -0.9017,1.21602 -0.58491,0.0871 -1.12889,-0.31679 -1.21567,-0.90135 l -0.002,-0.0353 -0.64241,0.0953 0.009,0.0346 c 0.0868,0.5842 -0.31644,1.12924 -0.90134,1.21602 -0.58491,0.0871 -1.12925,-0.31714 -1.21603,-0.90134 l -0.001,-0.0356 -0.64241,0.0952 0.008,0.0346 c 0.0868,0.58455 -0.3168,1.12959 -0.901,1.21638 -0.5849,0.0868 -1.12959,-0.31715 -1.21637,-0.90135 l -0.002,-0.036 -0.64241,0.0956 0.009,0.0346 c 0.0868,0.58455 -0.31679,1.12924 -0.90134,1.21602 -0.58456,0.0868 -1.1296,-0.31679 -1.21638,-0.90134 l -0.001,-0.0356 -0.64206,0.0952 0.008,0.0346 c 0.0868,0.58455 -0.3168,1.12924 -0.90135,1.21638 -0.58526,0.0868 -1.12924,-0.31715 -1.21602,-0.90135 l -0.002,-0.0356 -0.64206,0.0952 0.009,0.0346 c 0.0868,0.58455 -0.31644,1.12924 -0.90134,1.21603 -0.58491,0.0871 -1.12925,-0.3168 -1.21603,-0.90135 l -0.002,-0.0356 -0.64241,0.0956 0.009,0.0346 c 0.0868,0.5842 -0.31715,1.12925 -0.9017,1.21603 -0.58455,0.0868 -1.12924,-0.31715 -1.21603,-0.90135 l -0.002,-0.0356 -0.64206,0.0952 0.009,0.0346 c 0.0868,0.58456 -0.31679,1.12924 -0.9017,1.21603 -0.58455,0.0871 -1.12889,-0.3168 -1.21567,-0.90135 l -0.002,-0.0356 -0.64241,0.0956 0.009,0.0346 c 0.0868,0.5842 -0.31715,1.12924 -0.9017,1.21602 -0.58491,0.0868 -1.12924,-0.31679 -1.21603,-0.90135 l -0.002,-0.0356 -0.64206,0.0952 0.008,0.0349 c 0.0868,0.5842 -0.31644,1.12889 -0.90135,1.21602 -0.5849,0.0868 -1.12959,-0.31714 -1.21637,-0.90134 l -0.001,-0.0356 -0.6424,0.0952 0.009,0.0346 c 0.0871,0.58455 -0.3168,1.12924 -0.90135,1.21602 -0.58455,0.0871 -1.1296,-0.31679 -1.21638,-0.90135 l -0.001,-0.0356 -0.64206,0.0953 0.008,0.0346 c 0.0868,0.58455 -0.31644,1.12924 -0.90135,1.21637 -0.5849,0.0868 -1.12924,-0.31714 -1.21602,-0.9017 l -10e-4,-0.0356 -0.64241,0.0956 0.008,0.0346 c 0.0871,0.58455 -0.31715,1.12924 -0.90135,1.21602 -0.58455,0.0868 -1.1296,-0.31679 -1.21638,-0.90134 l -0.001,-0.0356 -0.64276,0.0956 0.009,0.0346 c 0.0868,0.5842 -0.31609,1.12889 -0.90135,1.21603 -0.5849,0.0868 -1.12924,-0.3168 -1.21602,-0.90135 l -0.002,-0.0356 -0.64205,0.0952 0.008,0.0346 c 0.0871,0.58455 -0.31679,1.12924 -0.90134,1.21638 -0.58456,0.0868 -1.12925,-0.31715 -1.21603,-0.9017 l -0.001,-0.0356 -0.64241,0.0956 0.009,0.0346 c 0.0868,0.5842 -0.31679,1.12924 -0.9017,1.21603 -0.5849,0.0868 -1.12924,-0.31715 -1.21613,-0.90135 l -0.002,-0.0356 -0.64205,0.0952 0.009,0.0346 c 0.0868,0.58455 -0.31683,1.12924 -0.90166,1.21638 -0.58456,0.0868 -1.12918,-0.31715 -1.21585,-0.90135 l -0.002,-0.036 -0.64269,0.0956 0.009,0.0346 c 0.0868,0.58456 -0.31627,1.12889 -0.90139,1.21603 -0.58455,0.0868 -1.12945,-0.3168 -1.21613,-0.90135 l -0.001,-0.0356 -0.64245,0.0952 0.009,0.0346 c 0.0868,0.58491 -0.31722,1.12925 -0.90206,1.21638 -0.5843,0.0868 -1.12903,-0.31715 -1.21585,-0.90135 l -0.002,-0.036 -0.64245,0.0956 0.009,0.0346 c 0.0868,0.58455 -0.31669,1.12924 -0.90138,1.21637 -0.58455,0.0868 -1.12942,-0.31714 -1.2161,-0.9017 l -0.002,-0.0356 -0.70171,0.10443 9.69669,65.25259 58.62303,-8.71114 -9.69681,-65.2533 -0.75565,0.11253" />
    <g
       id="g1588"
       transform="matrix(0.03527778,0,0,-0.03527778,140.49369,446.30646)">
      <g
         clip-path="url(#clipPath1594)"
         id="g1590">
        <g
           transform="matrix(685.2,0,0,453.2,325.9,6912.9)"
           id="g1596" />
      </g>
    </g>
    <g
       id="g2018"
       transform="matrix(0.03527778,0,0,-0.03527778,140.49369,446.30646)">
      <g
         clip-path="url(#clipPath2024)"
         id="g2020">
        <g
           transform="matrix(85.2002,0,0,185.2,2902.9,4963.9)"
           id="g2026" />
      </g>
    </g>
    <g
       id="g2030"
       transform="matrix(0.03527778,0,0,-0.03527778,140.49369,446.30646)">
      <g
         clip-path="url(#clipPath2036)"
         id="g2032">
        <g
           transform="matrix(279.2,0,0,197.2,2629.9,4964.9)"
           id="g2038" />
      </g>
    </g>
    <g
       id="g2138"
       transform="matrix(0.03527778,0,0,-0.03527778,140.49369,446.30646)">
      <g
         clip-path="url(#clipPath2144)"
         id="g2140">
        <g
           transform="matrix(987.2,0,0,627.2,3535.9,4521.9)"
           id="g2146" />
      </g>
    </g>
    <g
       id="g2828"
       transform="matrix(0.03527778,0,0,-0.03527778,140.49369,446.30646)">
      <g
         clip-path="url(#clipPath2834)"
         id="g2830">
        <g
           transform="matrix(181.2,0,0,15.2002,2727.9,5156.9)"
           id="g2836" />
      </g>
    </g>
    <g
       id="g2912"
       transform="matrix(0.03527778,0,0,-0.03527778,140.49369,446.30646)">
      <g
         clip-path="url(#clipPath2918)"
         id="g2914">
        <g
           transform="matrix(558.2,0,0,17.2002,2982.9,5144.9)"
           id="g2920" />
      </g>
    </g>
    <g
       id="g2924"
       transform="matrix(0.03527778,0,0,-0.03527778,140.49369,446.30646)">
      <g
         clip-path="url(#clipPath2930)"
         id="g2926">
        <g
           transform="matrix(85.2002,0,0,17.2002,2902.9,5143.9)"
           id="g2932" />
      </g>
    </g>
    <g
       id="g2936"
       transform="matrix(0.03527778,0,0,-0.03527778,140.49369,446.30646)">
      <g
         clip-path="url(#clipPath2942)"
         id="g2938">
        <g
           transform="matrix(181.2,0,0,17.2002,2727.9,5144.9)"
           id="g2944" />
      </g>
    </g>
    <g
       id="g2948"
       transform="matrix(0.03527778,0,0,-0.03527778,140.49369,446.30646)">
      <g
         clip-path="url(#clipPath2954)"
         id="g2950">
        <g
           transform="matrix(988.2,0,0,80.2002,3534.9,5156.9)"
           id="g2956" />
      </g>
    </g>
    <g
       id="g2960"
       transform="matrix(0.03527778,0,0,-0.03527778,140.49369,446.30646)">
      <g
         clip-path="url(#clipPath2966)"
         id="g2962">
        <g
           transform="matrix(987.2,0,0,17.2002,3535.9,5143.9)"
           id="g2968" />
      </g>
    </g>
  </g>
</svg>
