<?xml version="1.0" encoding="UTF-8" standalone="no"?>
<!-- Generator: Adobe Illustrator 19.0.0, SVG Export Plug-In . SVG Version: 6.00 Build 0)  -->

<svg
   xmlns:dc="http://purl.org/dc/elements/1.1/"
   xmlns:cc="http://creativecommons.org/ns#"
   xmlns:rdf="http://www.w3.org/1999/02/22-rdf-syntax-ns#"
   xmlns:svg="http://www.w3.org/2000/svg"
   xmlns="http://www.w3.org/2000/svg"
   xmlns:sodipodi="http://sodipodi.sourceforge.net/DTD/sodipodi-0.dtd"
   xmlns:inkscape="http://www.inkscape.org/namespaces/inkscape"
   version="1.1"
   id="Layer_1"
   x="0px"
   y="0px"
   viewBox="0 0 412.59999 352.9"
   xml:space="preserve"
   inkscape:version="0.92.0 r"
   sodipodi:docname="logo_icon.svg"
   width="412.60001"
   height="352.89999"><metadata
     id="metadata4486"><rdf:RDF><cc:Work
         rdf:about=""><dc:format>image/svg+xml</dc:format><dc:type
           rdf:resource="http://purl.org/dc/dcmitype/StillImage" /><dc:title></dc:title></cc:Work></rdf:RDF></metadata><defs
     id="defs4484" /><sodipodi:namedview
     pagecolor="#ffffff"
     bordercolor="#666666"
     borderopacity="1"
     objecttolerance="10"
     gridtolerance="10"
     guidetolerance="10"
     inkscape:pageopacity="0"
     inkscape:pageshadow="2"
     inkscape:window-width="1366"
     inkscape:window-height="744"
     id="namedview4482"
     showgrid="false"
     fit-margin-top="0"
     fit-margin-left="0"
     fit-margin-right="0"
     fit-margin-bottom="0"
     inkscape:zoom="0.39642997"
     inkscape:cx="478.65927"
     inkscape:cy="256.84795"
     inkscape:window-x="0"
     inkscape:window-y="0"
     inkscape:window-maximized="1"
     inkscape:current-layer="Layer_1" /><style
     type="text/css"
     id="style4332">
 .st0{fill:#FDFEFF;}
 .st1{fill:#1E1E1E;}
 .st2{fill:#F7AF23;}
 .st3{fill:#C63A38;}
 .st4{fill:#F5B023;}
 .st5{fill:#F9F9FA;}
 .st6{fill:#2B81B7;}
</style><g
     id="XMLID_68_"
     transform="translate(-241.1,-713.3)"><g
       id="XMLID_76_"><g
         id="XMLID_89_"><g
           id="XMLID_126_"><path
             id="card_0"
             class="st2"
             d="m 293.7,837 c -0.3,0.6 -0.7,1.2 -1.2,2 -4.4,6.5 -15.4,7.4 -15.4,7.4 l -6.1,15 c 7.2,1.4 13.2,7 13.5,15 0.3,8 0.3,17.4 -4.6,17.3 -4.9,-0.1 -2.3,-9.1 -1.8,-16.4 0.5,-7.3 -11.4,-8.1 -11.4,-8.1 0,0 -3.3,4.9 -7.6,9.8 -3.9,4.4 -11.8,2.3 -15.3,-2.5 l -2.7,19.9 57.4,27.4 50,-2.4 z m -24.3,55.9 c -2.3,0 -4.2,-1.9 -4.2,-4.2 0,-2.3 1.9,-4.2 4.2,-4.2 2.3,0 4.2,1.9 4.2,4.2 0,2.3 -1.8,4.2 -4.2,4.2 z"
             inkscape:connector-curvature="0"
             style="fill:#f7af23"
             inkscape:label="#XMLID_130_" /><path
             id="card_1"
             class="st2"
             d="m 246.8,872.2 c 0,0 2.6,3.8 6.9,2.7 4.3,-1.1 12.1,-28.2 12.1,-28.2 -13.3,1.7 -12,9.1 -13.6,11.7 -1.6,2.6 -2.5,2.3 -3.6,0.8 -1.1,-1.5 -0.5,-6.2 4.7,-11.7 5.2,-5.5 20.9,-5.1 27.3,-5.9 6.4,-0.8 10.9,-7 10.9,-7 0,0 0.2,-0.1 0.5,-0.2 l -35.2,-54.2 -12.4,91.3 c 1.2,0.2 2.4,0.7 2.4,0.7 z m 26.8,-40.3 c 2.5,0 4.5,2 4.5,4.5 0,2.5 -2,4.5 -4.5,4.5 -2.5,0 -4.5,-2 -4.5,-4.5 0,-2.5 2,-4.5 4.5,-4.5 z"
             inkscape:connector-curvature="0"
             style="fill:#f7af23"
             inkscape:label="#XMLID_127_" /></g><g
           id="XMLID_119_"><path
             id="XMLID_125_"
             class="st2"
             d="m 298.5,778.7 -3.8,6.4 c 0,0 5.8,1.4 6.8,0.5 1,-0.8 1.5,-5.2 -3,-6.9 z"
             inkscape:connector-curvature="0"
             style="fill:#f7af23" /><path
             id="card_2"
             class="st2"
             d="m 349.8,818.4 c -0.8,0.8 -2,1.3 -3.4,0.9 -0.9,-0.6 -2,-1.8 -2.3,-3.9 -0.2,-2.6 0.9,-4.3 2.2,-5 l -28.8,-66.1 c -1.4,0.5 -3.3,0.9 -5.4,0.9 -4.2,0 -7.6,-1.3 -7.6,-3 0,-1.6 3.4,-3 7.6,-3 1.2,0 2.3,0.1 3.3,0.3 L 304,713.3 253.7,743 276,792 c 5.5,-1.7 17,-6.7 17.8,-19.2 1.1,-16.5 -10.1,-15 -10.1,-15 0,0 -14,-0.6 -15.9,-7.9 -1.9,-7.3 3.6,-10.7 7.8,-9.8 4.2,0.9 5.5,4.2 5.5,4.2 0,0 1.2,5.3 -4.3,6.6 0,0 -2.9,0.5 -4.5,-1 0,0 3.3,4.4 12.4,4 9.1,-0.4 13.8,1 15.4,5 1.6,4 2,11.4 0.6,13.9 0,0 9.7,6.2 8,12.9 -1.6,6.7 -16.5,2.1 -16.5,2.1 l -14.4,8.3 9.5,20.9 29.7,45.9 c -1.5,-20 6.6,-32.5 6.6,-32.5 -4.2,-6.3 -7.1,-8 -8.9,-10 -1.8,-2 -5.6,-2.3 -5.9,-4.3 -0.3,-2 1.9,-1.5 1.9,-1.5 5.3,1.1 10.9,7.1 13.6,10.7 2.7,3.6 6.8,8.4 13.3,12.8 6.6,4.3 9,-1 8.6,-4.8 -0.4,-3.8 0.8,-4 0.8,-4 l -0.1,-8.8 1.1,0.1 0.4,8.8 c 1.5,0 2.1,2.8 2.1,2.8 0.5,6.3 -2.4,10.2 -7.4,11.2 -5,1 -11.3,-4.4 -11.3,-4.4 -2.7,3.7 -4.4,5.4 -4.4,15.8 0,10.4 8.2,14.9 11,16 2.9,1.2 3.5,8.4 -7,1 -10.5,-7.4 -7.9,-18.4 -8.3,-20.2 -0.4,-1.8 -1,0.1 -1,0.1 -1.8,10.5 1.4,19.8 2.5,22.8 l 27.4,42.2 33.7,-16.1 z m -48.6,-67.7 c -1.2,2.1 -3.9,2.9 -6.1,1.6 -2.1,-1.2 -2.9,-3.9 -1.6,-6.1 1.2,-2.1 3.9,-2.9 6.1,-1.6 2.1,1.2 2.8,4 1.6,6.1 z m 25.7,57.2 c -1.5,2 -11.4,1.5 -11.4,1.5 l 9.1,-2 -6.9,-6.1 c 0,0 10.7,4.6 9.2,6.6 z m 11,22.5 c -2.4,1.9 -6.1,1.3 -7.1,-1.8 -0.3,-0.6 -0.6,-2.8 1.8,-4.6 1.8,-1.6 4.9,-1.3 6.1,0.5 1.6,1.9 1.4,4.6 -0.8,5.9 z"
             inkscape:connector-curvature="0"
             style="fill:#f7af23"
             inkscape:label="#XMLID_120_" /></g><g
           id="XMLID_114_"><path
             id="card_3"
             class="st2"
             d="m 364.5,785.5 c -2.7,-5.4 0.6,10.2 -7.4,15.8 -4.2,3 -6.5,4.1 -7.7,4.6 l 45,108.9 -21.9,-158.6 c -2.3,4.1 -5.5,8.4 -7.2,9.7 0,0 9.6,20.2 -0.7,43.5 0,0 -0.8,2.2 -2.9,1.5 -2.3,-0.8 5.5,-20 2.8,-25.4 z"
             inkscape:connector-curvature="0"
             style="fill:#f7af23"
             inkscape:label="#XMLID_118_" /><path
             id="card_4"
             class="st2"
             d="m 348.4,801.9 c 4,-3 18.5,-9.3 7.9,-29.3 0,0 -10.1,6.4 -13.1,0 -3,-6.4 0.9,-12 0.9,-12 0,0 5.7,-3.4 3.8,2.1 -1.9,5.4 -3.4,8.9 1.3,8.6 4.4,-0.3 16.6,-8.4 22.4,-20.6 l -0.8,-5.4 -6.4,2.7 c 0.9,0.5 1.6,1.3 1.9,2.3 0.6,2 -0.6,4 -2.6,4.6 -2,0.6 -4,-0.6 -4.6,-2.6 -0.2,-0.7 -0.2,-1.4 0,-2.1 l -28,11.8 16.7,40.4 c 0.2,-0.2 0.4,-0.4 0.6,-0.5 z m 6.5,-44.1 c 2,-0.6 4,0.6 4.6,2.6 0.6,2 -0.6,4 -2.6,4.6 -2,0.6 -4,-0.6 -4.6,-2.6 -0.5,-2 0.6,-4 2.6,-4.6 z"
             inkscape:connector-curvature="0"
             style="fill:#f7af23"
             inkscape:label="#XMLID_115_" /></g><g
           id="XMLID_103_"><path
             id="card_8"
             class="st2"
             d="m 402.6,742.5 c 0,0 -5.5,4.5 -1.3,17.8 0,0 -7.4,6.1 0.9,9.2 0,0 8.9,2.1 22.3,0.2 0,0 1.3,-0.1 2.4,-0.1 l 1.6,-10 -25.8,-17.6 c 0,0.3 -0.1,0.5 -0.1,0.5 z m 2.8,12.7 c 1.8,0 3.3,1.5 3.3,3.3 0,1.8 -1.5,3.3 -3.3,3.3 -1.8,0 -3.3,-1.5 -3.3,-3.3 0,-1.9 1.5,-3.3 3.3,-3.3 z"
             inkscape:connector-curvature="0"
             style="fill:#f7af23"
             inkscape:label="#XMLID_111_" /><path
             id="card_6"
             class="st2"
             d="m 425.4,772.5 c -2.1,-0.2 -19.2,4.4 -26.1,2 0,0 -7.9,9.5 -11.8,20.1 0,0 -1.1,0.5 -1.8,0.1 l 3,30.7 c 0.3,-5.4 2.5,-9.4 2.5,-9.4 0,0 2.7,-3.4 6.2,-2.2 3.5,1.2 2.6,1.2 2.6,1.2 0,0 0.7,5 3.3,5.5 2.6,0.6 1.2,0.8 2.9,-4.2 0,-0.1 0.1,-0.2 0.1,-0.3 l -1.7,-1.9 c -0.1,0 -0.2,0.1 -0.3,0.1 -0.7,0 -1.3,-0.6 -1.3,-1.3 0,-0.7 0.6,-1.3 1.3,-1.3 0.7,0 1.3,0.6 1.3,1.3 0,0.1 0,0.2 0,0.3 l 1.3,1.4 c 1.2,-2.9 1.6,-1.8 1.6,-1.8 0,0 2.6,0.2 1.2,3.9 -0.1,0.2 -0.2,0.5 -0.3,0.7 l 1.5,1.6 c 0,0 0,0.1 0,0.1 l -0.8,0.8 c 0,0 -0.1,0 -0.1,0 l -1,-1.1 c -1.1,3.4 -2.5,7 -5.9,5.9 -4.2,-1.4 -5.4,-4.7 -5.4,-4.7 0,0 -5.2,8.1 -0.7,11.2 4.5,3 15.4,5 16.9,19 l 12.6,-77.7 c -0.3,0.1 -0.7,0.1 -1.1,0 z m -26.7,40.1 c -1.7,0 -3.1,-1.4 -3.1,-3.1 0,-1.7 1.4,-3.1 3.1,-3.1 1.7,0 3.1,1.4 3.1,3.1 0,1.8 -1.4,3.1 -3.1,3.1 z"
             inkscape:connector-curvature="0"
             style="fill:#f7af23"
             inkscape:label="#XMLID_108_" /><path
             id="XMLID_107_"
             class="st2"
             d="m 391,836.3 c -0.8,-1.4 -1.3,-2.8 -1.7,-4.2 l 1.5,15.8 c 2.1,-1.9 4.4,-4 0.2,-11.6 z"
             inkscape:connector-curvature="0"
             style="fill:#f7af23" /><path
             id="card_7"
             class="st2"
             d="m 394.5,771.9 c 0,0 -3.7,-2.6 -2.2,-7.7 l -9.2,4.2 2.2,22.8 c 1.5,-4.9 7.4,-18.3 9.2,-19.3 z"
             inkscape:connector-curvature="0"
             style="fill:#f7af23"
             inkscape:label="#XMLID_106_" /><path
             id="card_5"
             class="st2"
             d="m 412.7,854.4 c -2.7,0.3 -3.4,-0.3 -4.3,-5 -1,-4.7 -2.3,-9.8 -10.9,-11.9 0,0 3.2,8.5 -5.1,15.1 0,0 -0.4,0 -1,0 l 3.9,40.3 12,-1.6 6,-37.1 c -0.2,0.2 -0.4,0.2 -0.6,0.2 z"
             inkscape:connector-curvature="0"
             style="fill:#f7af23"
             inkscape:label="#XMLID_105_" /><path
             id="card_9"
             class="st2"
             d="m 383.6,764.4 c 0,0 8.9,-3 13.8,-6.6 0,0 -2.6,-10.8 1.5,-16 0.5,-0.7 1,-1.1 1.3,-1.5 L 379,726 l 3.8,39.1 c 0.2,-0.2 0.5,-0.5 0.8,-0.7 z"
             inkscape:connector-curvature="0"
             style="fill:#f7af23"
             inkscape:label="#XMLID_104_" /></g><g
           id="XMLID_95_"><path
             id="XMLID_102_"
             class="st2"
             d="m 445,833.5 2.5,-1.6 c -0.5,-0.1 -0.9,-0.2 -1.4,-0.3 0,0.1 -0.5,0.8 -1.1,1.9 z"
             inkscape:connector-curvature="0"
             style="fill:#f7af23" /><path
             id="XMLID_101_"
             class="st2"
             d="m 436.3,836.1 c 0.2,-0.9 0.5,-1.8 0.8,-2.6 l -1.5,-0.2 c 0,0 -1,1.7 -0.6,3.2 0.5,-0.1 0.9,-0.2 1.3,-0.4 z"
             inkscape:connector-curvature="0"
             style="fill:#f7af23" /><path
             id="card_10"
             class="st2"
             d="m 438.5,765.3 c 1.7,3.6 4.7,8.6 9.4,14.2 0,0 2.8,-2 27.3,2.1 0,0 5.5,2.3 0,3 -5.5,0.7 -18.7,-3.6 -26.2,1.1 0,0 -4.2,3.5 -0.4,6.6 3.8,3.1 -0.7,1.4 0,12.8 0,0 1,4.9 2.5,7 1.5,2.1 -1.1,3.6 -3,1.6 -1.9,-2 -4.4,-9.7 -2,-17.7 0,0 -9.9,-3.6 -3.1,-13.7 0,0 -4.4,-7.3 -7.3,-14.2 l -28.5,135.3 47.1,3.9 30.1,-134.2 z m 17,29.1 c 1.9,0 3.4,1.5 3.4,3.4 0,1.9 -1.5,3.4 -3.4,3.4 -1.9,0 -3.4,-1.5 -3.4,-3.4 0,-1.8 1.5,-3.4 3.4,-3.4 z m -11,26.5 c 1.7,0 3,1.4 3,3 0,1.7 -1.4,3 -3,3 -1.7,0 -3,-1.4 -3,-3 0,-1.7 1.4,-3 3,-3 z m 15.3,9.8 c 0,0 -3.6,1.6 -9,1.5 l -6.3,4.3 c 0,0 0.2,0.8 3.6,1.6 3.5,0.8 -2.3,3.2 -3.5,3.8 4.4,2.1 11.2,5.5 12.9,10.6 1.7,5.2 -0.4,5 -1.8,5.3 -1.4,0.3 -0.3,-7.6 -9.9,-10.5 0,0 4.5,7.3 -8.2,11.9 0,0 -4.5,2.1 -5.5,-0.5 -1,-2.6 4.1,-0.4 7.8,-4.4 3.3,-3.5 2.7,-4.3 -0.9,-9 -0.2,0.2 -0.5,0.4 -0.7,0.6 -3.5,2.9 -5.8,1.2 -6.9,0 -1.2,-1.2 1.6,-2.5 -1.9,-5 -3,-2.1 0.7,-3.8 3.6,-4.4 -0.2,-1.2 -0.2,-3 1,-5.1 1.1,-1.9 3,-1.7 4.7,-0.9 1.2,-1.8 2.6,-2.9 3.5,-2.8 2.4,0.3 2.4,0.3 2.4,0.3 0,0 2.9,1.4 7.8,0.8 l 4,-2.5 -0.5,-1 3.3,-2.5 1.5,3.4 c 0.1,0 0.2,-0.1 0.3,-0.1 0,0 1.6,-1 1.8,1.4 -0.1,2.5 -3.1,3.2 -3.1,3.2 z"
             inkscape:connector-curvature="0"
             style="fill:#f7af23"
             inkscape:label="#XMLID_96_" /></g><path
           id="card_11"
           class="st2"
           d="m 521.1,844.3 -2.4,2.4 c -0.1,0.1 -0.3,0.1 -0.4,0 v 0 c -0.1,-0.1 -0.1,-0.3 0,-0.4 l 2.6,-2.6 v -4.4 l -2.6,1.2 -3.4,-7.8 7.8,-3.4 3.4,7.8 -4.6,2 v 4.7 l 1.1,1.1 17,-29.7 -49.4,-39.5 -33.2,131.6 44,-24.9 21.3,-37.1 z M 504,806.4 c 2.5,0 4.5,2 4.5,4.5 0,2.5 -2,4.5 -4.5,4.5 -2.5,0 -4.5,-2 -4.5,-4.5 0,-2.5 2,-4.5 4.5,-4.5 z m -14.8,40.4 -0.1,0.1 c -0.1,0.1 -0.3,0.1 -0.4,0 l -2.8,-2.8 -2.8,2.8 c -0.1,0.1 -0.3,0.1 -0.4,0 l -0.1,-0.1 c -0.1,-0.1 -0.1,-0.3 0,-0.4 l 3,-3 c 0,0 0,0 0,0 v -3.9 l -5.6,-2.5 3.4,-7.8 7.8,3.4 -3.4,7.8 -1.6,-0.7 v 3.7 c 0,0 0,0 0,0 l 3,3 c 0.1,0.1 0.1,0.3 0,0.4 z m 27.7,-0.1 v 0 c -0.2,0.2 -0.4,0.2 -0.5,0 l -2.4,-2.4 -2.4,2.4 c -0.1,0.1 -0.3,0.1 -0.4,0 v 0 c -0.1,-0.1 -0.1,-0.3 0,-0.4 l 2.6,-2.6 v -1.9 c -1.8,3.1 -5.2,5.2 -9,5.2 -5.7,0 -10.4,-4.7 -10.4,-10.4 0,-2.1 0.6,-4.1 1.7,-5.8 l -3,-1.3 v 13.1 l 3,3 c 0.1,0.1 0.1,0.3 0,0.4 l -0.1,0.1 c -0.1,0.1 -0.3,0.1 -0.4,0 l -2.8,-2.8 -2.8,2.8 c -0.1,0.1 -0.3,0.1 -0.4,0 l -0.1,-0.1 c -0.1,-0.1 -0.1,-0.3 0,-0.4 l 3,-3 v -13.4 l -6.6,-2.9 3.4,-7.8 10.7,4.7 -2.6,6 c 0.9,-0.9 1.9,-1.6 3,-2.1 L 501,819 c 0,0 -9.1,-3.1 -10.2,-8.5 l -1.3,1.1 c 0,0 0,0 0,0 l -0.3,-0.4 c 0,0 0,0 0,0 l 1.6,-1.3 c -0.1,-0.8 0,-1.6 0.4,-2.5 0,0 2,-1.8 2.9,-0.2 l 4.8,-4 c 0,0 0,0 0,0 l 0.3,0.4 c 0,0 0,0 0,0 l -4.9,4 c 0,0 0,0.1 0.1,0.1 0,0 1,8.3 10,7.9 7.5,-0.3 9.5,-5.8 10,-7.7 l -5.4,-4.4 c 0,0 0,0 0,0 l 0.3,-0.4 c 0,0 0,0 0,0 l 5.2,4.2 c 0,0 0,0 0,0 0,0 1.5,-2.5 3.4,0 0.4,0.6 0.2,1.4 -0.5,2.4 l 1.6,1.3 c 0,0 0,0 0,0 l -0.3,0.4 c 0,0 0,0 0,0 l -1.6,-1.3 c -2.5,3.2 -8.5,7.6 -9.1,8.7 -0.3,0.5 -0.2,3.7 0.1,7.6 2.5,0.8 4.5,2.5 5.8,4.7 v -4 c -2,0.5 -3.7,0.1 -4.2,-0.9 -0.6,-1.4 1,-3.4 3.7,-4.6 2.6,-1.2 5.2,-1 5.9,0.4 0.7,1.4 -1,3.4 -3.7,4.6 -0.4,0.2 -0.7,0.3 -1.1,0.4 v 5.3 c 0.5,1.2 0.8,2.6 0.8,4 0,1.4 -0.3,2.8 -0.8,4 v 3 l 2.6,2.6 c -0.1,0.4 -0.1,0.6 -0.2,0.8 z"
           inkscape:connector-curvature="0"
           style="fill:#f7af23"
           inkscape:label="#XMLID_90_" /></g><g
         id="XMLID_77_"><path
           id="mask_0"
           class="st3"
           d="m 500.6,910.4 c 1.4,-7.5 2.5,-20.5 2.2,-24.7 -0.5,-8.3 -5.3,-20.2 -16,-23.8 -9.2,-3.1 -22.2,28.9 -30.6,32 -8.6,3.2 -16.4,-1.9 -15.7,-11.6 0.9,-12.9 6.6,-16.6 10.8,-14.7 5.3,2.3 2.5,11 2.5,11 -1.6,-0.9 -2.5,-0.6 -3.6,0.5 -1.5,1.9 -0.6,3.8 0.8,4.6 1.1,0.4 1.2,0.4 2.6,0.3 5.5,-2.6 4.2,-20.8 -3.9,-20.2 -13.9,1.1 -13.4,16.2 -28.4,21.9 -22.5,8.5 -35.3,-19.6 -35.3,-19.6 v 0 c -4,32.6 -25.8,33 -33.3,29.8 -4.1,-1.8 -17.3,-17 -26.8,-8.7 -9,7.9 2.3,18.3 2.3,18.3 v 0 c 1.4,1.4 3.6,1.9 5.4,1.1 0.4,-0.1 0.7,-0.3 0.9,-0.5 0,0 0,0 0,0 1.7,-2.4 0.1,-5.5 -2.2,-5.5 -1.3,0 -2.5,0.7 -3,1.8 v 0 c -1.8,-0.5 -7.9,-6.7 -2.7,-12.8 6.2,-7.2 22,20.9 8.4,28.6 -14.7,8.3 -33.5,-29.6 -48,-16.1 -14.5,13.5 9.1,49.9 9.1,49.9 v 0 0 c 5.1,9.4 12.7,18.4 24.1,25.1 38.2,22.5 61.1,-4.8 84.3,-9.3 v 0 c 23.2,-4.2 54.3,12.4 81.4,-22.4 5.7,-7.4 9.4,-14.8 11.7,-21.9 v 0 0 0 c 1.6,-4.6 2.5,-8.9 3,-13.1 z m -145.4,55 c -22.9,1 -38.9,-28.3 -38.9,-28.3 0,0 10.9,6.2 31.5,5.6 20.7,-0.6 32.1,13.4 32.1,13.4 0,0 -10.1,8.7 -24.7,9.3 z m 94.4,-18.1 c -13.8,4.8 -26.5,0.5 -26.5,0.5 0,0 5.5,-17.3 24.9,-24.3 19.4,-7.1 27.2,-16.9 27.2,-16.9 0,0 -4,33.2 -25.6,40.7 z"
           inkscape:connector-curvature="0"
           style="fill:#c63a38"
           inkscape:label="#XMLID_85_" /><g
           id="XMLID_78_"><g
             id="XMLID_82_"><path
               id="mask_2"
               class="st2"
               d="m 289,923.7 c 0,0 9.9,10.9 25.4,16.7 0,0 5.1,8.4 10.7,12.9 0.1,0 -20.4,-10.8 -36.1,-29.6 z"
               inkscape:connector-curvature="0"
               style="fill:#f7af23"
               inkscape:label="#XMLID_84_" /><path
               id="mask_1"
               class="st2"
               d="m 294.9,936.3 c 0,0 9.9,13.7 35.6,21.2 0,0 5.5,5.6 14.7,9.9 -0.1,0 -35.9,-9.4 -50.3,-31.1 z"
               inkscape:connector-curvature="0"
               style="fill:#f7af23"
               inkscape:label="#XMLID_83_" /></g><g
             id="XMLID_79_"><path
               id="mask_4"
               class="st2"
               d="m 496.3,878.7 c 0,0 -4.5,14.1 -16.2,25.8 0,0 -1.1,9.7 -4.4,16.2 0,0 14.1,-18.3 20.6,-42 z"
               inkscape:connector-curvature="0"
               style="fill:#f7af23"
               inkscape:label="#XMLID_81_" /><path
               id="mask_3"
               class="st2"
               d="m 496.2,892.6 c 0,0 -3.3,16.6 -23.6,34 0,0 -2.7,7.4 -9.2,15.1 0,0.1 28.6,-23.3 32.8,-49.1 z"
               inkscape:connector-curvature="0"
               style="fill:#f7af23"
               inkscape:label="#XMLID_80_" /></g></g></g></g><g
       id="XMLID_69_"><g
         id="XMLID_75_"><path
           id="fest_0"
           class="st4"
           d="m 444.8,1027.1 c 0,0.2 -0.2,0.5 -0.5,0.9 -0.3,0.4 -0.6,0.7 -0.7,1 -0.3,0.4 -0.7,0.8 -1.2,1 -0.2,0.1 -0.5,0.2 -1,0.4 -0.5,0.2 -1.1,0.4 -1.8,0.6 -0.6,0.2 -1.3,0.4 -1.9,0.6 -0.7,0.2 -1.2,0.2 -1.6,0.2 H 433 c -0.2,0 -0.7,-0.2 -1.3,-0.5 -0.7,-0.3 -1.2,-0.5 -1.7,-0.7 -1.2,-0.3 -2.4,-0.9 -3.6,-1.8 -1.2,-0.9 -2.4,-1.9 -3.5,-3.1 -1.1,-1.2 -2.1,-2.4 -3,-3.6 -0.9,-1.2 -1.6,-2.3 -2.1,-3.3 -0.4,-0.7 -0.9,-1.4 -1.7,-2.4 -0.8,-1 -1.4,-1.7 -2.2,-2.4 -0.3,0 -0.4,0.2 -0.5,0.3 -0.1,0.2 -0.1,0.4 -0.2,0.7 0,0.3 0,0.5 0,0.8 0,0.3 0,0.5 -0.1,0.7 -0.2,0.7 -0.4,1.6 -0.6,2.5 -0.2,0.9 -0.3,1.8 -0.5,2.7 -0.1,0.9 -0.2,1.6 -0.3,2.3 -0.1,0.7 -0.1,1 -0.1,1.1 0,0.1 0,0.3 0.1,0.7 0.1,0.4 0.2,0.8 0.3,1.2 0.1,0.4 0.2,0.8 0.3,1.2 0.1,0.4 0.1,0.6 0.1,0.7 0,0.1 0,0.2 -0.1,0.5 0,0.2 -0.1,0.4 -0.2,0.6 -0.1,0.2 -0.2,0.4 -0.4,0.6 -0.1,0.2 -0.3,0.3 -0.4,0.3 -1,0 -1.8,-0.2 -2.5,-0.7 -0.7,-0.5 -1.2,-1 -1.7,-1.7 -0.4,-0.7 -0.7,-1.4 -0.9,-2.2 -0.2,-0.8 -0.3,-1.5 -0.3,-2.1 0,-1 0.1,-2.2 0.3,-3.6 0.2,-1.3 0.4,-2.7 0.7,-4.2 0.3,-1.5 0.6,-2.9 0.9,-4.5 0.3,-1.5 0.7,-3 1,-4.5 0.1,-0.3 0.1,-0.8 0,-1.2 -0.1,-0.5 -0.3,-0.9 -0.4,-1.3 0.2,-0.2 0.5,-0.4 0.7,-0.6 0.3,-0.2 0.4,-0.4 0.5,-0.8 0.8,-2.5 1.4,-4.9 1.9,-7.4 0.5,-2.5 1,-4.9 1.7,-7.4 -0.1,-0.1 -0.1,-0.2 -0.1,-0.2 0,-0.1 -0.1,-0.1 -0.3,-0.1 -0.2,0 -0.5,0.1 -0.7,0.3 -0.3,0.2 -0.6,0.4 -0.9,0.6 -0.3,0.2 -0.7,0.4 -1.1,0.6 -0.4,0.2 -0.7,0.3 -1,0.3 -0.3,0 -0.7,-0.1 -1.1,-0.4 -0.4,-0.3 -0.8,-0.6 -1.1,-0.9 -0.4,-0.3 -0.7,-0.7 -0.9,-1 -0.3,-0.3 -0.4,-0.5 -0.5,-0.6 -0.1,-0.3 -0.2,-0.7 -0.3,-1.1 -0.1,-0.5 -0.2,-0.9 -0.3,-1.3 1,-0.8 1.9,-1.4 2.9,-1.7 0.9,-0.3 1.9,-0.6 3.1,-0.8 0.6,-0.1 1.3,-0.2 2.2,-0.3 0.8,-0.1 1.7,-0.1 2.4,-0.2 0.8,0 1.5,-0.1 2.1,-0.1 0.6,0 1,0 1.1,0 0.2,0 0.4,0 0.6,0.1 0.2,0.1 0.3,0.2 0.6,0.3 0.1,0.1 0.2,0.1 0.5,0 0.2,-0.1 0.4,-0.1 0.6,0 1.4,0.2 3,0.5 4.6,1 1.6,0.5 3.1,1.2 4.5,2 1.4,0.9 2.5,1.9 3.4,3.1 0.9,1.2 1.4,2.6 1.4,4.1 0,0.2 0,0.4 -0.1,0.5 -0.1,0.1 -0.1,0.3 -0.2,0.5 -0.2,1.5 -0.7,2.9 -1.5,4.4 -0.8,1.5 -1.9,3 -3.4,4.5 -0.4,0.4 -1,0.9 -1.8,1.5 -0.8,0.6 -1.7,1.2 -2.7,1.8 -1,0.6 -2,1.2 -3,1.7 -1,0.5 -1.9,1 -2.6,1.3 -0.2,0.1 -0.5,0.3 -0.7,0.5 -0.3,0.3 -0.6,0.6 -0.9,0.9 1,1.3 1.9,2.7 2.9,4.3 1,1.6 1.9,3.1 2.9,4.5 1,1.4 1.9,2.7 2.8,3.8 0.9,1.1 1.8,1.8 2.7,2.2 0.3,0.1 0.6,0.3 0.9,0.6 0.3,0.3 0.7,0.5 1,0.6 0.3,0.1 0.7,0.2 1.1,0.3 0.4,0.1 0.8,0.2 1.2,0.2 0.4,0.1 0.7,0.1 1,0.2 0.3,0 0.5,0.1 0.6,0.1 h 4.4 c 0.1,0 0.4,-0.1 0.8,-0.2 0.4,-0.1 0.9,-0.3 1.4,-0.4 0.5,-0.1 0.9,-0.3 1.4,-0.4 0.4,-0.1 0.7,-0.2 0.8,-0.2 0.2,0 0.4,0.1 0.6,0.4 0.2,0.6 0.3,0.9 0.3,1.1 z m -16,-36.8 c 0,-0.2 -0.1,-0.4 -0.3,-0.6 -0.2,-0.2 -0.4,-0.5 -0.6,-0.6 -0.2,-0.2 -0.5,-0.4 -0.7,-0.5 -0.3,-0.1 -0.5,-0.2 -0.7,-0.2 -0.2,0 -0.3,0 -0.2,0.1 0.1,0 0,0.1 -0.2,0.1 -0.1,0 -0.3,0 -0.6,-0.1 -0.2,-0.1 -0.5,-0.2 -0.7,-0.3 -0.3,-0.1 -0.5,-0.2 -0.8,-0.3 -0.3,-0.1 -0.5,-0.1 -0.6,-0.1 -0.2,0 -0.4,0 -0.6,0.1 -0.2,0.1 -0.4,0.1 -0.6,0.1 -0.2,0 -0.4,-0.1 -0.6,-0.2 -0.2,-0.1 -0.4,-0.2 -0.6,-0.2 -0.3,0 -0.6,0.2 -0.9,0.7 -0.2,0.5 -0.4,1 -0.6,1.5 -0.2,0.5 -0.3,1.1 -0.4,1.5 -0.1,0.5 -0.2,0.7 -0.2,0.8 -0.1,0.7 -0.2,1.5 -0.5,2.2 -0.2,0.8 -0.4,1.4 -0.5,2 -0.2,0.5 -0.3,1.1 -0.5,1.6 -0.1,0.5 -0.2,1.1 -0.3,1.5 -0.2,0.6 -0.3,1.1 -0.5,1.7 -0.1,0.6 -0.1,1.1 0,1.6 0.9,-0.5 1.9,-1 2.9,-1.7 1,-0.6 2,-1.3 3,-2 1,-0.7 1.9,-1.5 2.7,-2.4 0.8,-0.9 1.5,-1.8 2,-2.7 0.1,-0.3 0.3,-0.6 0.4,-0.9 0.1,-0.3 0.3,-0.7 0.4,-1.1 0.1,-0.4 0.2,-0.7 0.3,-1 0.4,-0.4 0.5,-0.6 0.5,-0.6 z"
           inkscape:connector-curvature="0"
           style="fill:#f5b023"
           inkscape:label="#XMLID_267_" /><path
           id="fest_1"
           class="st4"
           d="m 463.6,1020.4 c -0.2,0.5 -0.6,1.1 -1.2,1.9 -0.6,0.7 -1.5,1.6 -2.6,2.7 -1.1,1.1 -2,1.9 -2.7,2.5 -0.7,0.5 -1.1,0.8 -1.2,0.9 -1,0.9 -1.9,1.5 -2.6,1.8 -0.7,0.3 -1.6,0.6 -2.6,1 -0.3,0.1 -0.7,0.2 -1.2,0.2 -0.5,0 -0.9,0 -1.2,0 -1.5,0 -2.8,-0.3 -3.9,-0.8 -1.1,-0.5 -2,-1.2 -2.7,-2.1 -0.7,-0.8 -1.3,-1.9 -1.6,-3.2 -0.4,-1.3 -0.6,-2.5 -0.6,-3.6 0,-0.3 0.1,-0.7 0.2,-1.4 0.1,-0.7 0.2,-1.3 0.3,-1.8 0.3,-1.3 0.6,-2.5 1.1,-3.8 0.5,-1.3 1,-2.6 1.6,-3.8 0.6,-1.3 1.2,-2.4 2,-3.5 0.7,-1.1 1.4,-2 2.2,-2.8 0.1,-0.2 0.2,-0.4 0.5,-0.7 0.2,-0.3 0.4,-0.5 0.5,-0.7 0.2,-0.3 0.4,-0.6 0.8,-0.9 0.3,-0.3 0.7,-0.6 1.2,-0.9 0.5,-0.3 0.9,-0.6 1.3,-0.8 0.4,-0.2 0.8,-0.3 1,-0.3 0.2,0 0.5,0.1 1,0.3 0.4,0.2 0.8,0.3 1.2,0.4 1.6,0.7 2.7,1.6 3.3,2.8 0.6,1.2 0.8,2.4 0.8,3.5 0,0.6 -0.2,1.5 -0.7,2.5 -0.5,1.1 -1,2.1 -1.6,3.1 -0.6,1 -1.2,1.9 -1.7,2.6 -0.5,0.8 -0.8,1.2 -0.9,1.3 -0.6,0.6 -1.2,1.3 -1.8,2.1 -0.6,0.8 -1.2,1.5 -1.7,2.1 -0.6,0.7 -1.2,1.2 -1.9,1.7 -0.7,0.5 -1.5,0.9 -2.4,1.2 -0.3,0.1 -0.6,0.3 -0.7,0.4 0.3,1.1 0.6,1.8 0.9,2.2 0.3,0.4 0.9,0.6 1.8,0.6 1.2,0 2.5,-0.3 3.9,-0.9 1.4,-0.6 2.8,-1.3 4,-2 1.3,-0.8 2.6,-1.6 3.8,-2.5 1.3,-0.9 2,-1.3 2.2,-1.3 l 1.5,-0.6 c 0.1,0.1 0.2,0.1 0.4,0.2 0.2,-0.1 0.2,0.1 0,0.4 z m -10.8,-13.8 v -1 c -1.5,1.5 -2.8,3.1 -3.9,5 -1.1,1.9 -1.9,3.7 -2.4,5.7 0.2,-0.1 0.6,-0.5 1.3,-1.4 0.7,-0.8 1.4,-1.8 2.1,-2.8 0.7,-1 1.4,-2.1 2,-3.1 0.6,-1 0.9,-1.8 0.9,-2.4 z"
           inkscape:connector-curvature="0"
           style="fill:#f5b023"
           inkscape:label="#XMLID_270_" /><path
           id="fest_2"
           class="st4"
           d="m 487.8,1000.6 c 0,0.1 -0.1,0.3 -0.2,0.6 -0.2,0.3 -0.3,0.6 -0.5,0.9 -0.2,0.3 -0.4,0.7 -0.6,1 -0.2,0.3 -0.4,0.7 -0.6,1 -0.5,0.8 -1,1.6 -1.6,2.4 -0.5,0.8 -1,1.6 -1.4,2.3 -0.7,1.1 -1.2,2.1 -1.7,3.1 -0.5,0.9 -1,1.8 -1.4,2.6 -0.4,0.8 -0.8,1.7 -1.3,2.5 -0.4,0.8 -0.9,1.8 -1.4,2.8 -0.1,0.3 -0.2,0.6 -0.3,1.1 -0.1,0.5 -0.2,0.9 -0.4,1.3 -0.1,0.3 -0.3,0.5 -0.5,0.8 -0.2,0.3 -0.4,0.6 -0.5,0.8 -0.2,0.5 -0.4,1.1 -0.7,1.7 -0.2,0.6 -0.4,1.2 -0.5,1.8 -0.1,0.3 -0.1,0.7 -0.1,1.1 0,0.4 0,0.8 -0.1,1.2 0,0.2 -0.2,0.4 -0.5,0.7 -0.3,0.2 -0.6,0.5 -1,0.7 -0.4,0.2 -0.8,0.4 -1.1,0.5 -0.4,0.1 -0.7,0.2 -0.9,0.2 -0.3,0 -0.7,0 -1.1,-0.1 -0.4,-0.1 -0.7,-0.3 -0.9,-0.7 -0.9,-1.4 -1.6,-3 -2.1,-4.7 -0.5,-1.7 -0.9,-3.4 -1.2,-5.1 -0.3,-1.7 -0.5,-3.3 -0.7,-4.8 -0.2,-1.5 -0.3,-2.7 -0.4,-3.7 -0.1,-0.6 -0.2,-1.3 -0.3,-2.1 -0.1,-0.9 -0.3,-1.7 -0.4,-2.6 -0.2,-0.9 -0.3,-1.6 -0.4,-2.3 -0.1,-0.6 -0.2,-1 -0.2,-1.2 0,-0.7 0.2,-1.2 0.6,-1.5 0.4,-0.3 0.9,-0.4 1.4,-0.4 0.2,0 0.5,0 0.8,0.1 0.4,0.1 0.8,0.2 1.2,0.3 0.4,0.1 0.8,0.2 1.1,0.4 0.3,0.2 0.5,0.3 0.6,0.4 0,0.1 0.1,0.2 0.2,0.4 0.1,0.2 0.1,0.4 0.1,0.6 0.1,1.1 0.3,2.3 0.4,3.6 0.1,1.3 0.3,2.7 0.4,4.1 0.2,1.4 0.3,2.7 0.5,4.1 0.2,1.3 0.4,2.5 0.6,3.6 h 0.1 c 0.6,-1 1.2,-2.1 1.9,-3.3 0.7,-1.2 1.4,-2.4 2.1,-3.5 0.7,-1.2 1.5,-2.4 2.2,-3.5 0.7,-1.2 1.5,-2.3 2.2,-3.3 0.1,-0.2 0.5,-0.7 1.2,-1.4 0.7,-0.8 1.4,-1.6 2.2,-2.4 0.8,-0.8 1.6,-1.6 2.4,-2.2 0.8,-0.7 1.4,-1 1.8,-1 0.2,0 0.4,0.1 0.5,0.2 0.1,0.1 0.2,0.2 0.4,0.3 0.1,-0.1 0.1,0.2 0.1,0.6 z"
           inkscape:connector-curvature="0"
           style="fill:#f5b023"
           inkscape:label="#XMLID_273_" /><path
           id="fest_3"
           class="st4"
           d="m 508.7,1020.4 c -0.2,0.5 -0.6,1.1 -1.2,1.9 -0.6,0.7 -1.5,1.6 -2.6,2.7 -1.1,1.1 -2,1.9 -2.7,2.5 -0.7,0.5 -1.1,0.8 -1.2,0.9 -1,0.9 -1.9,1.5 -2.6,1.8 -0.7,0.3 -1.6,0.6 -2.6,1 -0.3,0.1 -0.7,0.2 -1.2,0.2 -0.5,0 -0.9,0 -1.2,0 -1.5,0 -2.8,-0.3 -3.9,-0.8 -1.1,-0.5 -2,-1.2 -2.7,-2.1 -0.7,-0.8 -1.3,-1.9 -1.6,-3.2 -0.4,-1.3 -0.6,-2.5 -0.6,-3.6 0,-0.3 0.1,-0.7 0.2,-1.4 0.1,-0.7 0.2,-1.3 0.3,-1.8 0.3,-1.3 0.6,-2.5 1.1,-3.8 0.5,-1.3 1,-2.6 1.6,-3.8 0.6,-1.3 1.2,-2.4 2,-3.5 0.7,-1.1 1.4,-2 2.2,-2.8 0.1,-0.2 0.2,-0.4 0.5,-0.7 0.2,-0.3 0.4,-0.5 0.5,-0.7 0.2,-0.3 0.4,-0.6 0.8,-0.9 0.3,-0.3 0.7,-0.6 1.2,-0.9 0.5,-0.3 0.9,-0.6 1.3,-0.8 0.4,-0.2 0.8,-0.3 1,-0.3 0.2,0 0.5,0.1 1,0.3 0.4,0.2 0.8,0.3 1.2,0.4 1.6,0.7 2.7,1.6 3.3,2.8 0.6,1.2 0.8,2.4 0.8,3.5 0,0.6 -0.2,1.5 -0.7,2.5 -0.5,1.1 -1,2.1 -1.6,3.1 -0.6,1 -1.2,1.9 -1.7,2.6 -0.5,0.8 -0.8,1.2 -0.9,1.3 -0.6,0.6 -1.2,1.3 -1.8,2.1 -0.6,0.8 -1.2,1.5 -1.7,2.1 -0.6,0.7 -1.2,1.2 -1.9,1.7 -0.7,0.5 -1.5,0.9 -2.4,1.2 -0.3,0.1 -0.6,0.3 -0.7,0.4 0.3,1.1 0.6,1.8 0.9,2.2 0.3,0.4 0.9,0.6 1.8,0.6 1.2,0 2.5,-0.3 3.9,-0.9 1.4,-0.6 2.8,-1.3 4,-2 1.3,-0.8 2.6,-1.6 3.8,-2.5 1.3,-0.9 2,-1.3 2.2,-1.3 l 1.5,-0.6 c 0.1,0.1 0.2,0.1 0.4,0.2 0.2,-0.1 0.2,0.1 0,0.4 z m -10.8,-13.8 v -1 c -1.5,1.5 -2.8,3.1 -3.9,5 -1.1,1.9 -1.9,3.7 -2.4,5.7 0.2,-0.1 0.6,-0.5 1.3,-1.4 0.7,-0.8 1.4,-1.8 2.1,-2.8 0.7,-1 1.4,-2.1 2,-3.1 0.6,-1 0.9,-1.8 0.9,-2.4 z"
           inkscape:connector-curvature="0"
           style="fill:#f5b023"
           inkscape:label="#XMLID_275_" /><path
           id="fest_4"
           class="st4"
           d="m 526.4,1025.9 c -0.5,0.7 -1.1,1.3 -1.8,2 -0.7,0.7 -1.4,1.3 -2.2,1.9 -0.8,0.6 -1.6,1.1 -2.5,1.4 -0.9,0.4 -1.7,0.6 -2.5,0.6 h -1 c -0.5,0 -1,-0.1 -1.6,-0.2 -0.6,-0.2 -1.1,-0.3 -1.7,-0.6 -0.5,-0.2 -1,-0.5 -1.5,-0.8 -0.5,-0.3 -0.8,-0.6 -1.1,-0.8 -0.7,-0.8 -1.3,-1.7 -1.7,-2.7 -0.4,-1 -0.8,-2 -1,-3.1 -0.2,-1.1 -0.4,-2.1 -0.5,-3.2 -0.1,-1.1 -0.1,-2.1 -0.1,-3.1 0,-1.3 0.1,-2.7 0.4,-4.3 0.3,-1.6 0.5,-3.2 0.8,-4.7 0.3,-1.6 0.7,-3 1.1,-4.4 0.4,-1.4 0.7,-2.5 1,-3.4 0,0 0.2,-0.5 0.5,-1.4 0.3,-0.9 0.7,-2 1.2,-3.3 0.5,-1.3 1,-2.8 1.7,-4.3 0.7,-1.5 1.3,-3 2,-4.3 0.7,-1.3 1.4,-2.4 2.1,-3.3 0.7,-0.9 1.4,-1.3 2,-1.3 0.2,0 0.5,0.1 0.9,0.3 0.4,0.2 0.8,0.4 1.2,0.6 0.4,0.2 0.8,0.5 1.1,0.7 0.3,0.3 0.5,0.5 0.6,0.6 0.2,0.3 0.4,0.8 0.5,1.5 0.1,0.7 0.2,1.1 0.2,1.3 0,0.1 -0.1,0.4 -0.2,0.8 -0.1,0.5 -0.2,1 -0.4,1.7 -0.2,0.6 -0.3,1.3 -0.5,2 -0.2,0.7 -0.3,1.3 -0.4,1.9 -0.1,0.5 -0.2,1 -0.3,1.5 -0.1,0.5 -0.2,1 -0.4,1.5 -0.3,1 -0.6,2.1 -1,3.3 -0.4,1.3 -0.9,2.5 -1.4,3.5 -0.1,0.1 -0.1,0.4 -0.1,0.7 0,0.3 -0.1,0.6 -0.2,0.9 -0.6,1.3 -1.3,2.5 -2,3.7 -0.7,1.2 -1.3,2.5 -2,3.8 -0.1,0.3 -0.4,0.8 -0.7,1.5 -0.4,0.7 -0.7,1.4 -1.1,2.1 -0.4,0.8 -0.7,1.5 -1,2.2 -0.3,0.7 -0.4,1.3 -0.4,1.7 0,0.6 0.1,1.3 0.2,2.2 0.2,0.9 0.4,1.9 0.8,2.8 0.4,0.9 1,1.7 1.7,2.3 0.7,0.7 1.6,1 2.8,1 1.5,0 3,-0.3 4.3,-1 1.4,-0.7 2.5,-1.6 3.3,-2.7 h 0.7 v 0.9 z m -7.5,-32.2 c -0.5,0.9 -0.9,1.9 -1.4,3 -0.4,1.1 -0.8,2.2 -1.2,3.2 -0.4,1.1 -0.7,2.1 -1,3.1 -0.3,1 -0.6,1.9 -0.8,2.8 1,-1.8 1.9,-3.8 2.6,-5.9 0.7,-2.1 1.3,-4.1 1.8,-6.2 z"
           inkscape:connector-curvature="0"
           style="fill:#f5b023"
           inkscape:label="#XMLID_278_" /><path
           id="fest_5"
           class="st4"
           d="m 542.7,1005.7 c 0,1 -0.3,1.7 -0.6,2.3 -0.4,0.6 -1.1,0.9 -2.2,0.9 h -1.3 c -0.2,0 -0.5,-0.1 -0.9,-0.3 -0.4,-0.2 -0.7,-0.3 -0.9,-0.5 -0.3,-0.2 -0.5,-0.4 -0.6,-0.8 -0.1,-0.4 0,-0.8 0,-1.2 0,-0.4 0.1,-0.7 0.1,-1 0,-0.3 -0.2,-0.4 -0.5,-0.4 -0.4,0 -0.7,0.1 -0.9,0.3 -0.2,0.2 -0.4,0.4 -0.5,0.7 -0.1,0.3 -0.2,0.5 -0.2,0.6 0,0.1 -0.1,0.3 -0.1,0.4 0,0.9 0.4,2.1 1.2,3.5 0.8,1.5 1.7,3 2.7,4.7 1,1.7 1.9,3.3 2.6,5 0.8,1.7 1.1,3.2 1.1,4.6 0,1.3 -0.4,2.4 -1,3.3 -0.6,1 -1.4,1.7 -2.4,2.4 -1,0.6 -2,1.1 -3.1,1.4 -1.1,0.3 -2.1,0.5 -3.1,0.5 -0.3,0 -0.6,-0.1 -1.1,-0.2 -0.5,-0.1 -1,-0.2 -1.6,-0.4 -0.6,-0.2 -1.1,-0.4 -1.6,-0.7 -0.5,-0.3 -0.9,-0.6 -1.1,-0.9 -0.3,-0.3 -0.7,-0.9 -1,-1.6 -0.4,-0.7 -0.7,-1.5 -1.1,-2.3 -0.3,-0.8 -0.6,-1.7 -0.8,-2.5 -0.2,-0.8 -0.3,-1.5 -0.3,-2.1 0,-0.1 0,-0.4 0.1,-0.7 0.1,-0.3 0.1,-0.7 0.2,-1 0.1,-0.3 0.2,-0.7 0.4,-1 0.2,-0.3 0.3,-0.6 0.4,-0.7 h 0.1 c 0,0 0.1,0 0.1,0 0,0 0.1,0 0.2,0 0.1,0.1 0.2,0.2 0.3,0.4 0.1,0.2 0.2,0.3 0.2,0.6 0.2,0.1 0.3,0.2 0.5,0.3 0.2,0 0.4,0.1 0.6,0.2 0.3,0.2 0.6,0.6 0.6,1 0.1,0.5 0.1,0.9 0.2,1.3 0.1,0.3 0.3,0.6 0.5,1 0.2,0.4 0.4,0.8 0.6,1.1 0.2,0.3 0.5,0.6 0.8,1.1 0.3,0.5 0.7,1 1.1,1.5 0.4,0.5 0.8,0.9 1.2,1.3 0.4,0.4 0.9,0.6 1.4,0.6 0.5,0 0.9,-0.1 1.2,-0.4 0.3,-0.3 0.6,-0.6 0.9,-0.9 0.2,-0.3 0.4,-0.7 0.5,-1 0.1,-0.3 0.2,-0.6 0.2,-0.8 0,-0.6 -0.1,-1.3 -0.5,-2.3 -0.4,-1 -0.8,-2 -1.4,-2.9 -0.5,-1 -1,-1.8 -1.5,-2.6 -0.5,-0.8 -0.7,-1.2 -0.8,-1.4 -0.6,-1 -1.2,-2 -1.7,-2.8 -0.5,-0.8 -1,-1.6 -1.4,-2.4 -0.4,-0.8 -0.7,-1.5 -0.9,-2.3 -0.2,-0.8 -0.3,-1.7 -0.3,-2.7 0,-1.3 0.4,-2.4 1.1,-3.2 0.7,-0.8 1.5,-1.4 2.4,-1.8 0.9,-0.4 1.9,-0.7 2.9,-0.8 1,-0.1 1.9,-0.2 2.6,-0.2 0.3,0 0.7,0.1 1.2,0.2 0.5,0.2 1,0.3 1.5,0.6 0.5,0.2 1,0.5 1.4,0.7 0.4,0.3 0.8,0.5 1,0.7 0.3,0.5 0.6,0.9 0.8,1.2 0.2,0.3 0.3,0.6 0.3,0.8 0,0.2 0.1,0.5 0,0.8 0.2,0.1 0.2,0.4 0.2,0.8 z"
           inkscape:connector-curvature="0"
           style="fill:#f5b023"
           inkscape:label="#XMLID_281_" /><path
           id="fest_6"
           class="st4"
           d="m 553.2,992.1 c 0,-1.8 7.2,-7.1 8.6,-7.1 2.8,0 -3.1,6.7 -3.1,9.2 0,1.7 -5.5,-0.8 -5.5,-2.1 z"
           inkscape:connector-curvature="0"
           style="fill:#f5b023"
           inkscape:label="#XMLID_283_" /><path
           id="fest_7"
           class="st4"
           d="m 584.9,997.1 c 0,0.2 -0.1,0.6 -0.4,1.1 -0.3,0.5 -0.4,1 -0.5,1.5 -0.3,1 -0.4,2.1 -0.6,3.2 -0.1,1.1 -0.3,2.1 -0.4,3.2 0,0.7 -0.1,1.5 -0.3,2.4 -0.1,0.8 -0.3,1.6 -0.6,2.2 -0.1,0.3 -0.1,0.8 -0.1,1.4 0,0.6 -0.1,1.2 -0.2,1.7 -0.1,1 -0.3,2 -0.6,3.1 -0.3,1.1 -0.6,2 -0.8,2.8 -0.1,0.2 -0.2,0.6 -0.2,1.2 0,0.6 0,1.1 0,1.6 0,0 -0.1,0 -0.1,-0.1 0,0 -0.1,0 -0.1,-0.1 0,0 -0.1,-0.1 -0.2,-0.1 -0.1,0.4 -0.2,0.9 -0.3,1.4 -0.1,0.5 -0.2,0.9 -0.2,1.1 0,0.1 0,0.4 0.1,0.8 0,0.4 0.1,0.9 0.2,1.5 0.1,0.6 0.2,1.1 0.3,1.8 0.1,0.6 0.2,1.1 0.3,1.6 -0.2,0.2 -0.4,0.3 -0.7,0.4 -0.3,0 -0.6,0.1 -0.9,0.1 -0.3,0 -0.5,-0.1 -0.6,-0.4 -0.2,0 -0.4,-0.1 -0.6,-0.2 -0.2,-0.1 -0.4,-0.2 -0.6,-0.2 0,0.2 -0.1,0.3 -0.4,0.3 -0.2,0 -0.4,-0.1 -0.8,-0.2 -0.3,-0.2 -0.6,-0.3 -0.9,-0.4 -0.1,0 -0.2,-0.2 -0.3,-0.5 -0.1,-0.3 -0.2,-0.6 -0.3,-0.9 -0.1,-0.3 -0.2,-0.7 -0.2,-0.9 0,-0.3 -0.1,-0.4 -0.1,-0.5 0,-0.1 0.1,-0.5 0.2,-1.1 0.1,-0.7 0.3,-1.5 0.4,-2.4 0.2,-1 0.3,-1.9 0.5,-2.9 0.2,-1 0.4,-1.9 0.5,-2.7 0.2,-1.2 0.4,-2.6 0.6,-4.2 0.2,-1.6 0.4,-3.2 0.6,-4.6 0.2,-1.5 0.3,-2.8 0.3,-3.9 0.1,-1.1 0.1,-1.7 0.1,-1.9 v -0.5 -1.5 c -0.7,0.5 -1.2,0.9 -1.5,1.1 -0.3,0.2 -0.9,0.6 -1.5,1.1 -0.6,0.5 -1.5,1 -2.5,1.5 -1,0.6 -1.5,0.8 -1.6,0.8 -0.3,0 -0.4,-0.1 -0.4,-0.2 0,-0.1 -0.2,-0.2 -0.4,-0.2 h -0.8 c -0.1,0 -0.2,-0.1 -0.4,-0.3 -0.2,-0.2 -0.3,-0.3 -0.4,-0.2 -0.1,0 -0.3,-0.1 -0.6,-0.4 -0.3,-0.3 -0.6,-0.5 -0.8,-0.7 0,-0.3 0,-0.6 -0.1,-1 -0.1,-0.4 -0.1,-0.8 -0.1,-1.1 0.8,-0.4 1.5,-0.8 2.1,-1.2 0.6,-0.4 1.4,-0.8 2.3,-1.4 0.4,-0.3 1.2,-0.8 2.3,-1.7 1.1,-0.8 2.1,-1.5 2.8,-2.1 0.7,-0.6 1.6,-1.2 2.6,-1.9 1,-0.7 1.7,-1.1 2,-1.1 h 0.4 c 0.4,0 0.9,0.2 1.5,0.5 0.6,0.3 1.1,0.7 1.5,1.2 0.4,0.5 0.8,1 1,1.6 0.4,0.6 0.5,1.1 0.5,1.5 z"
           inkscape:connector-curvature="0"
           style="fill:#f5b023"
           inkscape:label="#XMLID_285_" /><path
           id="fest_8"
           class="st4"
           d="m 617.5,1013.7 c -0.4,0.1 -0.9,0.2 -1.3,0.3 -0.5,0.1 -0.8,0.2 -1.1,0.2 -0.2,0 -0.5,-0.1 -0.7,-0.2 -0.3,-0.1 -0.5,-0.2 -0.8,-0.2 -0.3,0 -0.5,0.1 -0.7,0.2 -0.2,0.1 -0.5,0.2 -0.7,0.2 0,-0.3 -0.2,-0.4 -0.5,-0.4 0,0.3 -0.2,0.4 -0.5,0.4 -0.4,0 -0.7,0 -0.8,0 -0.2,0 -0.3,0 -0.3,0 0,0 -0.3,0 -0.7,0 -0.4,0 -0.8,0.2 -1,0.4 -0.3,0.2 -0.5,0.3 -0.8,0.4 -0.1,0.1 -0.2,0.3 -0.5,0.5 -0.6,2 -1.2,4 -2,5.9 -0.7,2 -1.5,4.1 -2.3,6.3 0,0.1 -0.1,0.2 -0.2,0.4 -0.1,0.2 -0.3,0.3 -0.4,0.4 0,0.1 0,0.2 0.1,0.3 0.1,0.1 0.1,0.3 0.1,0.5 0,0.2 0,0.5 -0.1,0.7 -0.1,0.3 -0.1,0.5 0.1,0.7 0.1,0.3 0.1,0.6 0.1,1 0,0.4 -0.2,0.8 -0.5,1.3 -0.3,-0.1 -0.5,-0.3 -0.7,-0.4 -0.2,-0.2 -0.4,-0.3 -0.6,-0.3 -0.8,-0.3 -1.4,-0.5 -1.9,-0.7 -0.4,-0.2 -0.7,-0.3 -0.8,-0.5 -0.2,-0.2 -0.2,-0.4 -0.2,-0.6 0,-0.2 0,-0.6 0,-0.9 0,-0.3 0,-0.6 0,-1.1 0,-0.5 0.1,-0.9 0.2,-1.2 0.5,-1.6 1,-3.1 1.5,-4.7 0.5,-1.6 1.1,-3.1 1.6,-4.7 0.1,-0.3 0.3,-0.6 0.6,-1.1 0.3,-0.5 0.4,-0.8 0.4,-1.1 0,-0.3 0,-0.3 0,-0.3 0,0 -0.1,0.1 -0.2,-0.1 -0.6,0.1 -1.2,0.3 -2,0.4 -0.8,0.1 -1.5,0.2 -2.2,0.3 -0.7,0.1 -1.3,0.2 -1.9,0.3 -0.5,0.1 -0.9,0.1 -1,0.1 -0.3,0 -0.6,-0.1 -1,-0.4 -0.4,-0.3 -0.8,-0.4 -1,-0.4 -0.1,-0.3 -0.3,-0.6 -0.4,-0.8 -0.2,-0.2 -0.4,-0.5 -0.6,-0.7 -0.1,-0.1 -0.3,-0.2 -0.6,-0.3 -0.3,-0.1 -0.5,-0.3 -0.7,-0.6 0,-0.1 -0.1,-0.2 -0.2,-0.3 -0.1,-0.1 -0.1,-0.3 -0.1,-0.5 v -1 c 0.4,-0.2 0.9,-0.3 1.5,-0.3 0.1,0 0.4,0 0.9,0 0.5,0 1,0 1.6,0 0.6,0 1.1,0 1.6,0 0.5,0 0.8,0 1,0 0.2,0 0.6,-0.1 1.2,-0.2 0.6,-0.1 1.1,-0.2 1.7,-0.3 0.4,-0.1 0.8,-0.1 1.2,-0.1 0.4,0 0.8,0.1 1.2,0.1 0.4,0 0.7,0 1.1,-0.1 0.3,-0.1 0.5,-0.3 0.6,-0.5 0.2,-0.6 0.4,-1.3 0.6,-2.1 0.2,-0.8 0.4,-1.6 0.6,-2.4 0.2,-0.8 0.3,-1.5 0.4,-2 0.1,-0.5 0.1,-0.9 0.1,-1.1 0,-0.2 -0.1,-0.8 -0.2,-1.8 -0.1,-1 -0.3,-1.9 -0.4,-2.6 -0.1,-0.1 -0.4,-0.3 -0.9,-0.5 -0.5,-0.2 -0.9,-0.3 -1.1,-0.3 -0.7,0 -1.7,0.2 -2.9,0.7 -1.3,0.5 -2.5,1 -3.8,1.7 -1.3,0.7 -2.5,1.5 -3.5,2.3 -1.1,0.8 -1.7,1.7 -2,2.5 -0.3,-0.1 -0.7,-0.3 -0.9,-0.5 -0.3,-0.2 -0.5,-0.4 -0.8,-0.6 0.1,-0.1 0.1,-0.2 0,-0.4 -0.4,-0.4 -0.9,-0.9 -1.4,-1.4 -0.5,-0.5 -0.8,-0.9 -0.8,-1.3 0,-0.6 0.3,-1.2 0.9,-1.8 0.6,-0.6 1.3,-1.2 2.1,-1.7 0.8,-0.5 1.5,-0.9 2.2,-1.2 0.7,-0.3 1.1,-0.5 1.1,-0.5 0.3,-0.2 0.6,-0.4 1,-0.7 0.4,-0.2 0.7,-0.4 1,-0.5 0.3,-0.1 0.5,-0.3 0.7,-0.5 0.2,-0.2 0.5,-0.3 0.8,-0.4 1.6,-0.5 3.1,-0.7 4.7,-0.7 0.5,0 0.9,0 1.2,0 0.3,0 0.7,0 1.1,0.1 0.4,0.1 0.8,0.2 1.3,0.5 0.5,0.2 1.1,0.6 1.9,1.1 0.2,0.1 0.4,0.4 0.7,0.8 0.3,0.5 0.5,0.8 0.7,1.1 1.3,1.3 2,2.6 2.2,3.7 0.2,1.1 0.3,2.3 0.3,3.4 0,0.7 0,1.1 0,1.5 0,0.4 0,0.7 -0.1,1 0,0.4 -0.1,0.8 -0.3,1.4 -0.2,0.6 -0.3,1.4 -0.6,2.6 1.3,0.1 2.1,0.1 2.6,0.1 0.5,0 1.4,0 2.8,0.2 0.1,0 0.3,0.1 0.6,0.4 0.3,0.3 0.6,0.6 0.9,0.9 0.3,0.3 0.6,0.7 0.8,1 0.2,0.3 0.4,0.5 0.4,0.6 v 1.1 z"
           inkscape:connector-curvature="0"
           style="fill:#f5b023"
           inkscape:label="#XMLID_287_" /></g><g
         id="XMLID_74_"><path
           id="th_9"
           class="st5"
           d="m 533.4,1050.8 c -0.4,0.1 -0.7,0.2 -1.1,0.3 -0.3,0 -1.1,0.1 -1.8,0.2 -0.2,0.1 -0.7,0.1 -0.7,0.2 -0.1,0.3 -0.4,1 -0.5,1.3 -0.3,1.3 -0.3,1.8 -0.3,2.9 0,0.8 0.2,2.4 1.2,2.4 0.7,0 1.5,-0.5 1.6,-0.6 0.7,-0.5 1.7,-1.5 1.9,-1.5 h 0.3 c 0,0.1 0.1,0.1 0.1,0.2 0,0.1 -0.1,0.2 -0.1,0.2 0,0.1 0,0.2 0,0.3 -0.4,0.8 -1.5,1.8 -2.4,2.2 -0.3,0.1 -0.9,0.2 -1.1,0.2 -2.3,0 -2.7,-2.3 -2.7,-3.7 0,-0.1 0,-0.8 0.1,-1.1 0.2,-0.8 0.5,-2.4 0.5,-2.5 0,-0.2 -0.3,0 -0.5,0 -0.5,0 -0.8,-0.2 -0.8,-0.7 0,-0.1 0.1,-0.3 0.2,-0.4 0.5,-0.2 0.9,-0.2 1.4,-0.3 0.1,0 0.2,-0.7 0.3,-0.9 0.1,-0.3 0.2,-0.8 0.3,-1.1 0.5,-1.4 0.5,-2.3 1.1,-3.2 0.1,-0.2 0.5,-0.2 0.7,-0.2 0.2,0 0.7,0.5 0.7,0.6 0,0.1 -0.2,0.6 -0.4,1 -0.6,1.4 -1,2.3 -1.1,3.5 0.9,0 2.8,-0.2 3,-0.2 0.1,0 0.6,0 0.6,0.3 -0.3,0.3 -0.5,0.5 -0.5,0.6 z"
           inkscape:connector-curvature="0"
           style="fill:#f9f9fa"
           inkscape:label="#XMLID_232_" /><path
           id="th_10"
           class="st5"
           d="m 542.7,1057.3 c -1,1.4 -1.9,1.9 -3.1,1.9 -2.5,0 -2.1,-3.1 -2,-4.5 0,-0.1 0,-2.7 0,-2.7 -0.4,0.4 -0.9,1.1 -1.2,1.6 -0.3,0.6 -0.7,1.5 -1,2.1 -0.1,0.3 -0.3,0.7 -0.4,1.2 -0.1,0.4 -0.1,0.9 -0.2,1.3 0,0.1 0,0.4 0,0.5 -0.1,0.2 -0.4,0.5 -0.6,0.5 -0.4,0 -1,-0.1 -1,-0.8 0,-0.1 0.2,-1.3 0.3,-1.8 0.1,-0.3 0.2,-0.8 0.3,-1.2 0.1,-0.7 0.2,-1.3 0.5,-2.2 0.1,-0.3 0.5,-2.2 0.7,-3.4 0.1,-0.3 0.1,-0.8 0.2,-1.2 0.2,-1.1 0.4,-2.8 0.7,-4.3 0,-0.2 0.8,-0.4 0.9,-0.4 0.1,0 0.3,0.2 0.5,0.3 0,0.3 0,0.8 -0.1,1.1 -0.5,2.4 -1,4.6 -1.5,7.1 0.8,-1 1.2,-2.1 2.3,-2.1 0.2,0 0.6,0.1 0.8,0.3 0.3,0.2 0.3,0.8 0.3,1.2 0.1,2.1 -0.1,4 -0.1,4.2 0,0.4 0.2,2.4 0.9,2.4 1,0 2.6,-2.2 3.1,-2.2 0.2,0 0.4,0 0.4,0.2 0,0 -0.5,0.6 -0.7,0.9 z"
           inkscape:connector-curvature="0"
           style="fill:#f9f9fa"
           inkscape:label="#XMLID_234_" /><path
           id="th_11"
           class="st5"
           d="m 548.6,1056.1 c 0,0.6 -2.4,2.5 -2.4,2.5 -0.3,0.2 -0.7,0.4 -0.9,0.5 -0.4,0.1 -1.1,0.2 -1.3,0.2 -1.1,0 -2.4,-1.1 -2.4,-2.5 0,-1.3 0.3,-2.6 0.9,-3.9 0.7,-1.3 1.9,-2.9 3,-2.9 0.9,0 1.4,0.5 1.4,1.3 0,2 -2.5,4.5 -4,6.1 0,0.3 0.6,0.7 0.9,0.7 0.9,0 1,0 1.5,-0.2 0.3,-0.1 1,-0.6 1.3,-0.8 0.1,-0.1 1.4,-1.3 1.7,-1.3 0.1,0 0.1,0.1 0.2,0.1 z m -5.9,-0.1 c 1.4,-1.6 3,-3.9 3,-5.2 -1.4,1 -2.7,3.3 -3,5.2 z"
           inkscape:connector-curvature="0"
           style="fill:#f9f9fa"
           inkscape:label="#XMLID_236_" /><path
           id="th_12"
           class="st5"
           d="m 559.1,1052.1 c 0,0.2 -0.1,0.4 -0.2,0.7 -0.1,0.1 -0.1,0.2 -0.3,0.4 h -0.3 c -0.1,-0.1 -0.3,-0.2 -0.3,-0.4 -0.1,-0.7 -0.1,-1 -0.4,-1.7 -0.6,0.2 -1.1,1.1 -1.3,1.5 -0.6,1.1 -1,2 -1.2,3.1 -0.1,0.3 -0.2,1 -0.4,1.6 -0.2,0.8 0.1,1.8 -0.7,1.8 -0.4,0 -0.9,-0.1 -0.9,-0.6 0,-1.1 0.9,-3.6 0.9,-6 v -1.6 c 0,-0.3 -0.3,-0.9 0.2,-1.1 0.1,-0.1 0.4,-0.1 0.6,-0.1 1,0 0.5,1.3 0.5,1.6 v 0.6 c 0.5,-1.2 1.2,-1.9 2.3,-1.9 0.5,0 0.9,0.2 1.1,0.5 0.2,0.3 0.3,0.7 0.4,1 0,0 0,0.3 0,0.6 z"
           inkscape:connector-curvature="0"
           style="fill:#f9f9fa"
           inkscape:label="#XMLID_239_" /><path
           id="th_13"
           class="st5"
           d="m 568.6,1057.3 c -1,1.4 -1.9,1.9 -3.1,1.9 -2.5,0 -2.1,-3.1 -2,-4.5 0,-0.1 0,-2.7 0,-2.7 -0.4,0.4 -0.9,1.1 -1.2,1.6 -0.3,0.6 -0.7,1.5 -1,2.1 -0.1,0.3 -0.3,0.7 -0.4,1.2 -0.1,0.4 -0.1,0.9 -0.2,1.3 0,0.1 0,0.4 0,0.5 -0.1,0.2 -0.4,0.5 -0.6,0.5 -0.4,0 -1,-0.1 -1,-0.8 0,-0.1 0.2,-1.3 0.3,-1.8 0.1,-0.3 0.2,-0.8 0.3,-1.2 0.1,-0.7 0.2,-1.3 0.5,-2.2 0.1,-0.3 0.5,-2.2 0.7,-3.4 0.1,-0.3 0.1,-0.8 0.2,-1.2 0.2,-1.1 0.4,-2.8 0.7,-4.3 0,-0.2 0.8,-0.4 0.9,-0.4 0.1,0 0.3,0.2 0.5,0.3 0,0.3 0,0.8 -0.1,1.1 -0.5,2.4 -1,4.6 -1.5,7.1 0.8,-1 1.2,-2.1 2.3,-2.1 0.2,0 0.6,0.1 0.8,0.3 0.3,0.2 0.3,0.8 0.3,1.2 0.1,2.1 -0.1,4 -0.1,4.2 0,0.4 0.2,2.4 0.9,2.4 1,0 2.6,-2.2 3.1,-2.2 0.2,0 0.4,0 0.4,0.2 -0.1,0 -0.5,0.6 -0.7,0.9 z"
           inkscape:connector-curvature="0"
           style="fill:#f9f9fa"
           inkscape:label="#XMLID_241_" /><path
           id="th_14"
           class="st5"
           d="m 575.1,1051.8 c 0,0.2 -0.2,0.4 -0.2,0.6 -0.3,1.5 -0.5,3.1 -0.7,4.6 -0.1,0.7 -0.4,2.1 -0.6,3 -0.1,0.6 -1.1,6.2 -3.6,6.2 -0.1,0 -0.5,-0.1 -0.8,-0.2 -1.1,-0.5 -1.4,-1.4 -1.4,-2.4 0,-0.2 0.1,-0.9 0.6,-0.9 0.2,0 0.3,0.9 0.4,1.1 0,0.1 0.4,1.3 1.1,1.3 1.6,-0.1 2.3,-3.8 2.5,-4.6 0.3,-1.5 0.5,-3.2 0.8,-4.6 v -0.3 c -1,1.1 -2.3,3.1 -3.8,3.1 -1,0 -1.4,-0.5 -1.4,-1.4 0,-0.1 0.3,-2.1 0.5,-2.8 0.1,-0.5 0.4,-1.5 0.6,-2.2 0.6,-1.9 -0.2,-2.1 1.1,-2.1 0.4,0 0.7,0.3 0.7,0.6 0,0.2 -0.5,1.6 -0.8,2.5 -0.1,0.5 -0.9,3.2 -0.9,3.8 0,0.2 0,0.3 0.1,0.3 0.6,0 2.5,-2.3 2.7,-2.7 0.5,-0.9 1.3,-1.9 1.5,-2.8 0.1,-0.6 0,-1.4 0.1,-2.1 0.1,-0.2 0.5,-0.3 0.7,-0.3 0.3,0 0.9,0 0.9,0.6 0.1,0.5 0,1.2 -0.1,1.7 z"
           inkscape:connector-curvature="0"
           style="fill:#f9f9fa"
           inkscape:label="#XMLID_243_" /><path
           id="th_15"
           class="st5"
           d="m 582.5,1050.8 c -0.4,0.1 -0.7,0.2 -1.1,0.3 -0.3,0 -1.1,0.1 -1.8,0.2 -0.2,0.1 -0.7,0.1 -0.7,0.2 -0.1,0.3 -0.4,1 -0.5,1.3 -0.3,1.3 -0.3,1.8 -0.3,2.9 0,0.8 0.2,2.4 1.2,2.4 0.7,0 1.5,-0.5 1.6,-0.6 0.7,-0.5 1.7,-1.5 1.9,-1.5 h 0.3 c 0,0.1 0.1,0.1 0.1,0.2 0,0.1 -0.1,0.2 -0.1,0.2 0,0.1 0,0.2 0,0.3 -0.4,0.8 -1.5,1.8 -2.4,2.2 -0.3,0.1 -0.9,0.2 -1.1,0.2 -2.3,0 -2.7,-2.3 -2.7,-3.7 0,-0.1 0,-0.8 0.1,-1.1 0.2,-0.8 0.5,-2.4 0.5,-2.5 0,-0.2 -0.3,0 -0.5,0 -0.5,0 -0.8,-0.2 -0.8,-0.7 0,-0.1 0.1,-0.3 0.2,-0.4 0.5,-0.2 0.9,-0.2 1.4,-0.3 0.1,0 0.2,-0.7 0.3,-0.9 0.1,-0.3 0.2,-0.8 0.3,-1.1 0.5,-1.4 0.5,-2.3 1.1,-3.2 0.1,-0.2 0.5,-0.2 0.7,-0.2 0.2,0 0.7,0.5 0.7,0.6 0,0.1 -0.2,0.6 -0.4,1 -0.6,1.4 -1,2.3 -1.1,3.5 0.9,0 2.8,-0.2 3,-0.2 0.1,0 0.6,0 0.6,0.3 -0.3,0.3 -0.5,0.5 -0.5,0.6 z"
           inkscape:connector-curvature="0"
           style="fill:#f9f9fa"
           inkscape:label="#XMLID_245_" /><path
           id="th_16"
           class="st5"
           d="m 591.8,1057.3 c -1,1.4 -1.9,1.9 -3.1,1.9 -2.5,0 -2.1,-3.1 -2,-4.5 0,-0.1 0,-2.7 0,-2.7 -0.4,0.4 -0.9,1.1 -1.2,1.6 -0.3,0.6 -0.7,1.5 -1,2.1 -0.1,0.3 -0.3,0.7 -0.4,1.2 -0.1,0.4 -0.1,0.9 -0.2,1.3 0,0.1 0,0.4 0,0.5 -0.1,0.2 -0.4,0.5 -0.6,0.5 -0.4,0 -1,-0.1 -1,-0.8 0,-0.1 0.2,-1.3 0.3,-1.8 0.1,-0.3 0.2,-0.8 0.3,-1.2 0.1,-0.7 0.2,-1.3 0.5,-2.2 0.1,-0.3 0.5,-2.2 0.7,-3.4 0.1,-0.3 0.1,-0.8 0.2,-1.2 0.2,-1.1 0.4,-2.8 0.7,-4.3 0,-0.2 0.8,-0.4 0.9,-0.4 0.1,0 0.3,0.2 0.5,0.3 0,0.3 0,0.8 -0.1,1.1 -0.5,2.4 -1,4.6 -1.5,7.1 0.8,-1 1.2,-2.1 2.3,-2.1 0.2,0 0.6,0.1 0.8,0.3 0.3,0.2 0.3,0.8 0.3,1.2 0.1,2.1 -0.1,4 -0.1,4.2 0,0.4 0.2,2.4 0.9,2.4 1,0 2.6,-2.2 3.1,-2.2 0.2,0 0.4,0 0.4,0.2 0,0 -0.5,0.6 -0.7,0.9 z"
           inkscape:connector-curvature="0"
           style="fill:#f9f9fa"
           inkscape:label="#XMLID_247_" /><path
           id="th_17"
           class="st5"
           d="m 603.2,1058.7 c -0.1,0.1 -0.3,0.2 -0.4,0.3 -0.2,0 -0.4,0.1 -0.5,0.2 -0.2,0.1 -0.6,0.1 -0.7,0.1 -1.5,0 -2.7,-1 -2.7,-2.5 0,-0.7 0.6,-2.6 0.6,-3 0,-0.2 0.1,-0.4 0.1,-0.6 -0.4,0.6 -1,1.4 -1.4,2.6 -0.1,0.4 -0.3,1 -0.5,1.4 0,0 -0.7,1.9 -1.5,1.9 -0.7,0 -0.9,-0.6 -1,-1.1 0,-0.1 0,-0.4 0,-0.8 0,-0.4 0.1,-0.8 0.2,-1.2 0.1,-1.3 0.3,-2.5 0.6,-3.7 0,0 0,0 -0.1,0 -0.5,0.7 -1.2,1.9 -1.7,3 -0.2,0.3 -0.4,1 -0.6,1.5 -0.3,0.7 -0.7,1.6 -1,2.3 -0.1,0.1 -0.3,0.2 -0.5,0.2 -0.6,0 -0.8,-0.4 -0.8,-0.8 0,-0.1 0,-1.2 0.1,-1.8 0,-0.6 0.3,-2 0.5,-3.1 0.3,-1.6 0.4,-2 0.8,-3 0.1,-0.2 0.4,-0.8 0.6,-0.8 0.2,0 0.3,0.1 0.5,0.2 0,0.2 0,0.5 0,0.6 -0.3,1.1 -0.6,2.1 -0.8,3.2 -0.2,1.2 -0.4,1.6 -0.4,2.3 0.1,0 0.1,-0.1 0.1,-0.1 0.3,-0.6 0.7,-1.3 1,-1.9 0.6,-1.2 1.5,-3.2 2.6,-4 0.1,-0.1 0.2,0 0.4,0 0.7,0 0.8,0.4 0.8,0.8 0,0.1 -0.3,1.4 -0.4,1.9 -0.5,1.6 -0.6,2.9 -0.8,4.2 v 0.2 c 0,0 0.1,0 0.1,-0.1 0.4,-0.8 1,-2.4 1.6,-3.5 0.1,-0.2 1.4,-2.9 2.1,-2.9 0.2,0 0.8,0.1 0.9,0.4 0.1,2.1 -0.8,3.6 -0.8,5.9 0,0.8 0.4,1.3 1.2,1.3 0.7,0 2.3,-0.7 2.9,-1.4 h 0.4 c 0.1,0.1 0.1,0.1 0.1,0.3 -0.2,0.2 -1.5,1.4 -1.6,1.5 z"
           inkscape:connector-curvature="0"
           style="fill:#f9f9fa"
           inkscape:label="#XMLID_249_" /><path
           id="th_18"
           class="st5"
           d="m 613,1056.6 c -0.7,1.4 -1.9,2.6 -2.9,2.6 -1.6,0 -1.8,-1.4 -1.8,-2.4 0,-0.4 0,-0.7 0.3,-1.5 0.1,-0.4 0.1,-0.6 0.2,-1 0.1,-0.2 0,-0.6 0.1,-0.9 0.5,-1.1 0.7,-2.6 2.1,-3.7 0.1,-0.1 0.8,-0.3 1,-0.3 0.5,0 0.4,0.3 0.7,0.7 0.1,0.1 0.3,0.2 0.5,0.3 0.6,0.4 1,1.7 1,2.3 0,1.2 -0.5,2.6 -1.2,3.9 z m -0.8,-5.4 c -0.2,0 -0.3,0.3 -0.4,0.4 -0.2,0.2 -0.5,0.1 -0.7,0.2 -0.7,1.3 -1.5,3.4 -1.5,5.1 0,0.3 0,1 0.4,1.2 0.6,-0.2 1.4,-1.1 2,-2.2 0.6,-1.1 1,-2.2 1,-3.1 0,-0.2 -0.3,-1.6 -0.8,-1.6 z"
           inkscape:connector-curvature="0"
           style="fill:#f9f9fa"
           inkscape:label="#XMLID_251_" /><path
           id="XMLID_254_"
           class="st5"
           d="m 623.6,1053.2 c -0.4,0.1 -0.8,0.2 -1.3,0.2 -1.4,0.2 -2.9,0.2 -4.4,0.3 -0.1,0.3 -0.2,0.7 -0.3,1 -0.2,1.1 -0.4,3.4 -0.4,3.5 0,1.4 0.2,3.2 0.6,4 0.2,0.5 0.8,1.4 0.8,1.5 0,0.4 -0.4,0.5 -0.6,0.5 -0.6,0 -1.3,-0.9 -1.5,-1.5 -0.1,-0.3 -0.3,-0.8 -0.3,-1.2 -0.2,-1 -0.3,-2.7 -0.3,-2.9 0,-1.2 0.2,-3.8 0.5,-5 -0.4,-0.1 -1,0 -1.2,0 -0.5,0 -0.8,-0.5 -0.8,-0.8 0,-0.6 0.7,-0.5 0.9,-0.5 0.1,0 1,0.1 1.1,0.1 0.1,0 0.3,0 0.3,-0.1 0.9,-2.9 2.2,-6.7 4.4,-8.2 0.1,-0.1 0.7,-0.1 0.9,-0.1 0.1,0 0.7,0.2 1,0.4 0.5,0.3 0.6,1.1 0.6,1.5 0,0.4 -0.2,2 -1,2 -0.5,0 -0.9,-0.3 -0.9,-0.7 0,-0.5 0.1,-0.1 0.4,-0.7 0.1,-0.3 0.1,-0.9 0.1,-1 0,-0.1 -0.1,-0.2 -0.1,-0.3 -1.6,1.2 -2.2,2.9 -2.7,4 -0.7,1.4 -0.8,1.9 -1.2,3.1 0.5,0.2 3.3,-0.1 5,-0.1 0.3,0 0.7,-0.1 0.7,0.4 -0.1,0.3 -0.2,0.5 -0.3,0.6 z"
           inkscape:connector-curvature="0"
           style="fill:#f9f9fa" /><path
           id="th_19"
           class="st5"
           d="m 634.2,1057.3 c -1.1,1.3 -2.5,2 -3.8,2 -0.9,0 -1.7,-0.6 -1.8,-1.9 -0.1,-1.2 0,-1.2 0,-2 0.1,-1.6 0.2,-2.5 0.5,-4.1 0,-0.1 0.2,-0.4 0.2,-0.6 0.1,-0.5 0.3,-1.3 0.6,-2 0.1,-0.1 0.1,-0.3 0.1,-0.5 0.1,-0.3 0.3,-0.7 0.4,-1 0.1,-0.2 0.2,-0.4 0.4,-0.7 0.1,-0.1 0.2,-0.4 0.3,-0.5 0.5,-0.9 0.9,-1.9 1.7,-1.8 0.7,0 0.7,0.6 0.7,1.1 -0.1,1.4 -0.6,3.3 -1.1,4.8 -0.4,1.2 -1.2,2.9 -1.8,4 -0.3,0.5 -0.4,0.7 -0.8,1.4 -0.2,0.4 -0.2,0.9 -0.2,1.3 0,0.4 0.3,1.4 0.8,1.4 1,0 1.7,-0.4 2.1,-0.6 0.4,-0.2 1.6,-1.1 2,-1.4 0.1,0 0.3,0.1 0.3,0.3 0.1,0.3 -0.3,0.5 -0.6,0.8 z m -4.5,-3.4 c 1.2,-2.9 2.2,-5.5 2.9,-8.3 -1.5,3 -2.4,5.6 -2.9,8.3 z"
           inkscape:connector-curvature="0"
           style="fill:#f9f9fa"
           inkscape:label="#XMLID_256_" /><path
           id="th_20"
           class="st5"
           d="m 639.8,1056.9 c 0,0.1 -0.2,0.3 -0.3,0.5 -0.1,0.1 -0.1,0.3 -0.3,0.5 -0.5,0.6 -1,1 -2,1.3 -0.1,0 -0.3,0.1 -0.4,0.1 -0.4,0 -1.2,-0.3 -1.8,-1.2 -0.3,-0.5 -0.4,-1.8 -0.4,-2.6 0.1,-1.7 0.7,-4 1.5,-5.3 0.1,-0.1 0.5,-0.2 0.6,-0.2 0.3,0 0.7,0.3 0.6,0.5 0,0.1 -0.6,1.3 -0.8,1.9 -0.3,0.9 -0.6,2.4 -0.7,3.2 0,0.5 -0.1,2.5 1,2.6 0.9,0.1 1.9,-1.1 2.1,-1.2 0.1,-0.1 0.3,-0.3 0.5,-0.4 h 0.3 z m -1.9,-8.1 c -0.5,0 -1,-0.5 -0.9,-1.2 0.2,-0.1 0.6,-0.1 0.7,-0.1 0.5,0 0.9,0 0.8,0.7 0.1,0.5 -0.3,0.6 -0.6,0.6 z"
           inkscape:connector-curvature="0"
           style="fill:#f9f9fa"
           inkscape:label="#XMLID_259_" /><path
           id="th_21"
           class="st5"
           d="m 648.2,1053.2 c -0.4,0.1 -0.8,0.2 -1.3,0.2 -1.4,0.2 -2.9,0.2 -4.4,0.3 -0.1,0.3 -0.2,0.7 -0.3,1 -0.2,1.1 -0.4,3.4 -0.4,3.5 0,1.4 0.2,3.2 0.6,4 0.2,0.5 0.8,1.4 0.8,1.5 0,0.4 -0.4,0.5 -0.6,0.5 -0.6,0 -1.3,-0.9 -1.5,-1.5 -0.1,-0.3 -0.3,-0.8 -0.3,-1.2 -0.2,-1 -0.3,-2.7 -0.3,-2.9 0,-1.2 0.2,-3.8 0.5,-5 -0.4,-0.1 -1,0 -1.2,0 -0.5,0 -0.8,-0.5 -0.8,-0.8 0,-0.6 0.7,-0.5 0.9,-0.5 0.1,0 1,0.1 1.1,0.1 0.1,0 0.3,0 0.3,-0.1 0.9,-2.9 2.2,-6.7 4.4,-8.2 0.1,-0.1 0.7,-0.1 0.9,-0.1 0.1,0 0.7,0.2 1,0.4 0.5,0.3 0.6,1.1 0.6,1.5 0,0.4 -0.2,2 -1,2 -0.5,0 -0.9,-0.3 -0.9,-0.7 0,-0.5 0.1,-0.1 0.4,-0.7 0.1,-0.3 0.1,-0.9 0.1,-1 0,-0.1 -0.1,-0.2 -0.1,-0.3 -1.6,1.2 -2.2,2.9 -2.7,4 -0.7,1.4 -0.8,1.9 -1.2,3.1 0.5,0.2 3.3,-0.1 5,-0.1 0.3,0 0.7,-0.1 0.7,0.4 -0.1,0.3 -0.2,0.5 -0.3,0.6 z"
           inkscape:connector-curvature="0"
           style="fill:#f9f9fa"
           inkscape:label="#XMLID_262_" /><path
           id="th_22"
           class="st5"
           d="m 653.7,1056.1 c 0,0.6 -2.4,2.5 -2.4,2.5 -0.3,0.2 -0.7,0.4 -0.9,0.5 -0.4,0.1 -1.1,0.2 -1.3,0.2 -1.1,0 -2.4,-1.1 -2.4,-2.5 0,-1.3 0.3,-2.6 0.9,-3.9 0.7,-1.3 1.9,-2.9 3,-2.9 0.9,0 1.4,0.5 1.4,1.3 0,2 -2.5,4.5 -4,6.1 0,0.3 0.6,0.7 0.9,0.7 0.9,0 1,0 1.5,-0.2 0.3,-0.1 1,-0.6 1.3,-0.8 0.1,-0.1 1.4,-1.3 1.7,-1.3 0.1,0 0.1,0.1 0.2,0.1 z m -5.8,-0.1 c 1.4,-1.6 3,-3.9 3,-5.2 -1.4,1 -2.8,3.3 -3,5.2 z"
           inkscape:connector-curvature="0"
           style="fill:#f9f9fa"
           inkscape:label="#XMLID_264_" /></g><g
         id="XMLID_73_"><path
           id="th_0"
           class="st5"
           d="m 449.3,1055.1 c -2,1.9 -3.8,3 -5.7,3.8 -0.5,0.3 -1.2,0.4 -2.1,0.4 -3.9,0 -4.5,-4.1 -4.5,-6.2 0,-0.2 0.1,-0.5 0.1,-0.8 0.5,-4.6 2.4,-8.3 5.1,-10.8 0.3,-0.3 0.8,-0.9 1.4,-1.2 0.4,-0.3 1.3,-0.5 1.5,-0.5 0.2,0 0.3,0.1 0.4,0.2 0.2,0 0.6,0.1 1,0.3 0.9,0.4 1.2,2.2 1.2,3.2 0,0.2 -0.2,1.3 -0.4,1.8 0,0.2 -0.4,0.6 -0.5,0.9 -0.3,0.5 -0.5,1.3 -1.2,1.3 -0.6,0 -1.1,-0.7 -1.1,-1.1 0,-0.2 0,-0.2 0,-0.3 1.1,-0.6 1.5,-2.6 1.5,-3.4 0,-0.7 -0.2,-1 -0.7,-1 -1.6,0 -4.3,4.5 -4.5,4.8 -1.1,2 -1.3,3.3 -1.8,5.3 0,0.9 -0.1,1.4 -0.1,2.3 0,1.4 0.5,3.8 2.4,3.8 2.8,0 5.9,-2.5 8.3,-4.2 h 0.3 c 0.1,0 0.1,0 0.1,0.3 0.1,0 -0.5,0.9 -0.7,1.1 z"
           inkscape:connector-curvature="0"
           style="fill:#f9f9fa"
           inkscape:label="#XMLID_212_" /><path
           id="th_1"
           class="st5"
           d="m 456.7,1058.9 c -0.3,0 -0.6,0.1 -0.8,0.1 -0.6,0 -1.7,-0.5 -1.9,-1.2 -0.3,-0.6 -0.2,-1.3 -0.3,-2.1 -1,1.2 -2.1,3.6 -3.7,3.6 -0.9,0 -1.7,-0.8 -1.7,-1.4 -0.1,-2.4 3.7,-8.9 5,-10 0.2,-0.1 0.6,-0.2 0.8,-0.2 0.7,0 0.7,0.2 1.2,0.6 0.2,0.1 0.8,0 1,0.4 0.1,0.1 0.1,0.3 0.1,0.5 0,0.2 -0.1,1.1 -0.3,1.4 -0.8,2 -0.8,2.9 -0.8,4.3 0,0.3 -0.1,0.7 -0.1,0.9 0,0.2 0.1,1 0.3,1.5 0,0 0.1,0.2 0.3,0.3 1,-0.2 2.2,-0.8 3.2,-1.5 0,0 0,0 0.2,0 0.3,0 0.5,0.1 0.5,0.3 -0.2,1.1 -2.9,2.5 -3,2.5 z m -3,-9.1 c -0.5,0.6 -1.6,2 -2,2.8 -0.3,0.4 -2.1,4 -2,4.9 v 0.4 c 1.7,-1 3.3,-4 3.9,-5.1 0.3,-0.6 0.4,-2 0.4,-2.1 0,-0.2 -0.3,-0.6 -0.3,-0.9 z"
           inkscape:connector-curvature="0"
           style="fill:#f9f9fa"
           inkscape:label="#XMLID_214_" /><path
           id="th_2"
           class="st5"
           d="m 466.1,1050.3 c 0,0.3 -0.1,0.5 -0.2,0.8 -0.1,0.1 -0.2,0.3 -0.4,0.5 h -0.4 c -0.2,-0.1 -0.3,-0.3 -0.3,-0.5 -0.1,-0.8 -0.1,-1.3 -0.5,-2.1 -0.7,0.2 -1.4,1.4 -1.6,1.8 -0.7,1.4 -1.2,2.5 -1.5,3.8 -0.1,0.4 -0.3,1.3 -0.5,2 -0.2,1 0.2,2.3 -0.9,2.3 -0.5,0 -1.1,-0.1 -1.1,-0.8 0,-1.4 1.1,-4.5 1.1,-7.5 v -2 c 0,-0.4 -0.3,-1.1 0.2,-1.4 0.1,-0.1 0.5,-0.1 0.7,-0.1 1.3,0 0.6,1.7 0.6,2 v 0.8 c 0.7,-1.5 1.5,-2.3 2.9,-2.3 0.7,0 1.1,0.2 1.4,0.6 0.3,0.4 0.4,0.8 0.4,1.2 0.1,0.2 0.1,0.6 0.1,0.9 z"
           inkscape:connector-curvature="0"
           style="fill:#f9f9fa"
           inkscape:label="#XMLID_217_" /><path
           id="th_3"
           class="st5"
           d="m 476.1,1059.1 c -0.3,0.1 -1,0.3 -1.2,0.3 -0.9,0 -1.8,-0.3 -2.5,-1.8 -0.2,-0.3 -0.2,-1.6 -0.2,-1.7 0,-1.4 0.5,-4.9 0.7,-5.3 v -0.2 c -1,0.6 -1.6,2 -2.3,3 -0.2,0.5 -0.9,2.1 -1.3,2.9 -0.7,1.4 -0.5,2.8 -1.8,2.8 -1,0 -1.1,-0.7 -1.1,-1.2 0,-0.8 0.9,-4.9 1.1,-5.6 0.1,-0.5 0.4,-1.3 0.5,-1.9 0.2,-0.8 0,-1.5 0.1,-2.1 0.3,-0.8 0.4,-1.2 1,-1.2 0.1,0 0.4,0.1 0.7,0.1 0,0 0.2,0.2 0.3,0.3 0,0.4 0,0.8 0,1.1 -0.3,1.5 -1.1,4.5 -1.1,4.6 l -0.1,0.3 c 0,-0.2 0.3,-0.1 0.4,-0.3 0.5,-0.9 1,-2.1 1.8,-3.1 1,-1.3 1.4,-1.9 2.3,-1.9 1.2,0 1.1,0.9 1.1,1.4 0,0.2 -0.8,5.8 -0.8,6 0,0.5 0.2,2.3 1.1,2.3 0.6,0 2.4,-1.1 2.8,-1.4 l 0.5,-0.3 c 0.1,0 0.1,0.1 0.1,0.3 0,1.1 -1.7,2.4 -2.1,2.6 z"
           inkscape:connector-curvature="0"
           style="fill:#f9f9fa"
           inkscape:label="#XMLID_219_" /><path
           id="th_4"
           class="st5"
           d="m 485.4,1058.9 c -0.3,0 -0.6,0.1 -0.8,0.1 -0.6,0 -1.7,-0.5 -1.9,-1.2 -0.3,-0.6 -0.2,-1.3 -0.3,-2.1 -1,1.2 -2.1,3.6 -3.7,3.6 -0.9,0 -1.7,-0.8 -1.7,-1.4 -0.1,-2.4 3.7,-8.9 5,-10 0.2,-0.1 0.6,-0.2 0.8,-0.2 0.7,0 0.7,0.2 1.2,0.6 0.2,0.1 0.8,0 1,0.4 0.1,0.1 0.1,0.3 0.1,0.5 0,0.2 -0.1,1.1 -0.3,1.4 -0.8,2 -0.8,2.9 -0.8,4.3 0,0.3 -0.1,0.7 -0.1,0.9 0,0.2 0.1,1 0.3,1.5 0,0 0.1,0.2 0.3,0.3 1,-0.2 2.2,-0.8 3.2,-1.5 0,0 0,0 0.2,0 0.3,0 0.5,0.1 0.5,0.3 -0.1,1.1 -2.9,2.5 -3,2.5 z m -3,-9.1 c -0.5,0.6 -1.6,2 -2,2.8 -0.3,0.4 -2.1,4 -2,4.9 v 0.4 c 1.7,-1 3.3,-4 3.9,-5.1 0.3,-0.6 0.4,-2 0.4,-2.1 0,-0.2 -0.3,-0.6 -0.3,-0.9 z"
           inkscape:connector-curvature="0"
           style="fill:#f9f9fa"
           inkscape:label="#XMLID_221_" /><path
           id="th_5"
           class="st5"
           d="m 495.4,1048.9 c -0.2,0.3 -0.1,0.4 -0.4,0.8 -0.7,1 -1.3,1.8 -2,3.2 -0.4,0.7 -0.7,1.4 -1.1,2.2 -0.4,0.8 -0.6,1.4 -0.6,2 0,0.2 -0.2,0.4 -0.2,0.6 0,0.4 0.2,0.8 0,1.3 -0.1,0.2 -0.6,0.4 -0.8,0.4 -0.2,0 -0.8,0 -1,-0.3 -0.3,-0.3 -0.5,-0.8 -0.6,-1.2 -0.4,-1.1 -0.6,-2.1 -0.6,-3.8 -0.1,-0.7 -0.1,-1.5 -0.1,-2.2 -0.1,-0.6 -0.1,-1.1 -0.1,-1.9 0,-0.8 0.1,-1.5 0.1,-1.5 0,-0.6 0,-1.1 0.9,-1.1 0.3,0 1,0 0.8,0.9 -0.1,0.5 -0.2,1.3 -0.2,2 0,1.3 0.2,3.2 0.3,5.6 0.2,-0.6 0.5,-1.3 0.6,-1.6 0.1,-0.3 0.2,-0.5 0.5,-0.8 0.2,-0.2 0.3,-0.7 0.5,-1 0.3,-0.5 0.5,-0.8 0.9,-1.3 0,0 0.1,-0.2 0.2,-0.4 l 0.3,-0.5 0.5,-0.7 0.7,-1 c 0.4,-0.5 1.1,-1.1 1.6,-1.1 0.4,0 0.3,0.7 0.3,0.7 -0.2,0.2 -0.3,0.4 -0.5,0.7 z"
           inkscape:connector-curvature="0"
           style="fill:#f9f9fa"
           inkscape:label="#XMLID_224_" /><path
           id="th_6"
           class="st5"
           d="m 502.8,1058.9 c -0.3,0 -0.6,0.1 -0.8,0.1 -0.6,0 -1.7,-0.5 -1.9,-1.2 -0.3,-0.6 -0.2,-1.3 -0.3,-2.1 -1,1.2 -2.1,3.6 -3.7,3.6 -0.9,0 -1.7,-0.8 -1.7,-1.4 -0.1,-2.4 3.7,-8.9 5,-10 0.2,-0.1 0.6,-0.2 0.8,-0.2 0.7,0 0.7,0.2 1.2,0.6 0.2,0.1 0.8,0 1,0.4 0.1,0.1 0.1,0.3 0.1,0.5 0,0.2 -0.1,1.1 -0.3,1.4 -0.8,2 -0.8,2.9 -0.8,4.3 0,0.3 -0.1,0.7 -0.1,0.9 0,0.2 0.1,1 0.3,1.5 0,0 0.1,0.2 0.3,0.3 1,-0.2 2.2,-0.8 3.2,-1.5 0,0 0,0 0.2,0 0.3,0 0.5,0.1 0.5,0.3 -0.1,1.1 -2.8,2.5 -3,2.5 z m -3,-9.1 c -0.5,0.6 -1.6,2 -2,2.8 -0.3,0.4 -2.1,4 -2,4.9 v 0.4 c 1.7,-1 3.3,-4 3.9,-5.1 0.3,-0.6 0.4,-2 0.4,-2.1 0,-0.2 -0.3,-0.6 -0.3,-0.9 z"
           inkscape:connector-curvature="0"
           style="fill:#f9f9fa"
           inkscape:label="#XMLID_226_" /><path
           id="th_7"
           class="st5"
           d="m 512.5,1056.9 c -1.4,1.6 -3.1,2.5 -4.8,2.5 -1.1,0 -2.1,-0.7 -2.3,-2.4 -0.1,-1.5 0,-1.5 0,-2.4 0.1,-2 0.3,-3.1 0.7,-5.1 0,-0.2 0.2,-0.5 0.3,-0.8 0.1,-0.6 0.3,-1.6 0.8,-2.5 0.1,-0.1 0.1,-0.4 0.2,-0.6 0.1,-0.3 0.4,-0.8 0.5,-1.3 0.1,-0.2 0.3,-0.5 0.4,-0.8 0.1,-0.1 0.2,-0.5 0.4,-0.7 0.7,-1.1 1.1,-2.3 2.1,-2.3 0.9,0.1 0.9,0.8 0.9,1.3 -0.1,1.7 -0.7,4.2 -1.4,6 -0.5,1.4 -1.5,3.6 -2.3,4.9 -0.4,0.7 -0.5,0.9 -0.9,1.8 -0.3,0.5 -0.3,1.1 -0.3,1.6 0,0.5 0.3,1.7 1,1.7 1.3,0 2.1,-0.5 2.6,-0.8 0.5,-0.3 2,-1.4 2.5,-1.8 0.1,0 0.3,0.1 0.3,0.3 0.2,0.7 -0.4,1 -0.7,1.4 z m -5.7,-4.3 c 1.5,-3.7 2.7,-6.9 3.6,-10.3 -1.7,3.7 -2.9,6.9 -3.6,10.3 z"
           inkscape:connector-curvature="0"
           style="fill:#f9f9fa"
           inkscape:label="#XMLID_229_" /></g><rect
         id="th_8"
         x="519.29999"
         y="1038.5"
         class="st4"
         width="1.4"
         height="22.700001"
         style="fill:#f5b023"
         inkscape:label="#XMLID_70_" /></g></g><g
     id="XMLID_1_"
     transform="translate(-241.1,-713.3)" /><g
     id="XMLID_289_"
     transform="translate(-241.1,-713.3)" /><g
     id="XMLID_290_"
     transform="translate(-241.1,-713.3)" /><g
     id="XMLID_291_"
     transform="translate(-241.1,-713.3)" /><g
     id="XMLID_292_"
     transform="translate(-241.1,-713.3)" /><g
     id="XMLID_293_"
     transform="translate(-241.1,-713.3)" /></svg>