<?xml version="1.0" encoding="UTF-8" standalone="no"?>
<!-- Created with Inkscape (http://www.inkscape.org/) -->

<svg
   xmlns:dc="http://purl.org/dc/elements/1.1/"
   xmlns:cc="http://creativecommons.org/ns#"
   xmlns:rdf="http://www.w3.org/1999/02/22-rdf-syntax-ns#"
   xmlns:svg="http://www.w3.org/2000/svg"
   xmlns="http://www.w3.org/2000/svg"
   xmlns:sodipodi="http://sodipodi.sourceforge.net/DTD/sodipodi-0.dtd"
   xmlns:inkscape="http://www.inkscape.org/namespaces/inkscape"
   version="1.1"
   id="svg7341"
   xml:space="preserve"
   width="2149.3428"
   height="1074.6714"
   viewBox="0 0 2149.3428 1074.6714"
   sodipodi:docname="back.svg"
   inkscape:version="0.92.0 r"><metadata
     id="metadata7347"><rdf:RDF><cc:Work
         rdf:about=""><dc:format>image/svg+xml</dc:format><dc:type
           rdf:resource="http://purl.org/dc/dcmitype/StillImage" /><dc:title></dc:title></cc:Work></rdf:RDF></metadata><defs
     id="defs7345"><clipPath
       clipPathUnits="userSpaceOnUse"
       id="clipPath7441"><path
         d="M 0,828.346 H 828.346 V 0 H 0 Z"
         id="path7439"
         inkscape:connector-curvature="0" /></clipPath><clipPath
       clipPathUnits="userSpaceOnUse"
       id="clipPath7453"><path
         d="M 0,828.346 H 828.346 V 0 H 0 Z"
         id="path7451"
         inkscape:connector-curvature="0" /></clipPath><clipPath
       clipPathUnits="userSpaceOnUse"
       id="clipPath7461"><path
         d="M 245.423,782.842 H 700.516 V 64.582 H 245.423 Z"
         id="path7459"
         inkscape:connector-curvature="0" /></clipPath><clipPath
       clipPathUnits="userSpaceOnUse"
       id="clipPath7481"><path
         d="M 0,828.346 H 828.346 V 0 H 0 Z"
         id="path7479"
         inkscape:connector-curvature="0" /></clipPath></defs><sodipodi:namedview
     pagecolor="#ffffff"
     bordercolor="#666666"
     borderopacity="1"
     objecttolerance="10"
     gridtolerance="10"
     guidetolerance="10"
     inkscape:pageopacity="0"
     inkscape:pageshadow="2"
     inkscape:window-width="1366"
     inkscape:window-height="744"
     id="namedview7343"
     showgrid="false"
     fit-margin-top="0"
     fit-margin-left="0"
     fit-margin-right="0"
     fit-margin-bottom="0"
     inkscape:zoom="0.3021875"
     inkscape:cx="766.3028"
     inkscape:cy="238.59232"
     inkscape:window-x="0"
     inkscape:window-y="0"
     inkscape:window-maximized="1"
     inkscape:current-layer="g7349"
     showguides="true"
     inkscape:guide-bbox="true"
     inkscape:pagecheckerboard="true"><sodipodi:guide
       position="0,0"
       orientation="0,1067.8053"
       id="guide8230"
       inkscape:locked="false" /><sodipodi:guide
       position="1067.8053,0"
       orientation="-1074.6714,0"
       id="guide8232"
       inkscape:locked="false" /><sodipodi:guide
       position="1067.8053,1074.6714"
       orientation="0,-1067.8053"
       id="guide8234"
       inkscape:locked="false" /><sodipodi:guide
       position="0,1074.6714"
       orientation="1074.6714,0"
       id="guide8236"
       inkscape:locked="false" /><sodipodi:guide
       position="432.89268,0"
       orientation="0,2149.3428"
       id="guide8257"
       inkscape:locked="false" /><sodipodi:guide
       position="2149.3428,0"
       orientation="-1074.6714,0"
       id="guide8259"
       inkscape:locked="false" /><sodipodi:guide
       position="0,1074.6714"
       orientation="1074.6714,0"
       id="guide8263"
       inkscape:locked="false" /><sodipodi:guide
       position="-86.039298,537.33601"
       orientation="0,1"
       id="guide8265"
       inkscape:locked="false"
       inkscape:label=""
       inkscape:color="rgb(0,0,255)" /></sodipodi:namedview><g
     id="g7349"
     inkscape:groupmode="layer"
     inkscape:label="09"
     transform="matrix(1.3333333,0,0,-1.3333333,-18.3232,1088.2306)"
     style="display:inline"><g
       id="g7351"
       transform="translate(414.65489,69.314423)"><path
         d="m -400.50001,0 1.4997,365.0451 L 237.4786,67.579977 503.6593,42.9351 532.47071,660.6562 229.8297,648.4002 233.21369,365.0451 h -632.214 l -1.91218,381.81345 H 1211.0946 L 1211,0"
         style="fill:#e6ce71;fill-opacity:1;fill-rule:nonzero;stroke:none"
         id="path7353"
         inkscape:connector-curvature="0"
         sodipodi:nodetypes="ccccccccccc" /></g><path
       d="M 1625.6549,69.314423 H 14.15488 l 1.4997,365.045097 h 632.214 l 4.26491,-297.46512 266.1807,-24.6449 15.53001,323.06824 691.8104,-0.95822 z"
       style="fill:#c63a38;fill-opacity:1;fill-rule:nonzero;stroke:none"
       id="path7355"
       inkscape:connector-curvature="0"
       sodipodi:nodetypes="ccccccccc" /><g
       id="g7435"
       transform="translate(400.48159,-0.85847728)"><g
         id="g7437"
         clip-path="url(#clipPath7441)"><g
           id="g7443"
           transform="translate(814.5894,94.2344)"><path
             d="m 13.17852,13.434441 -828.40971,1.210015 0.69759,-97.850969 H 13.17852 Z"
             style="fill:#333333;fill-opacity:1;fill-rule:nonzero;stroke:none"
             id="path7445"
             inkscape:connector-curvature="0"
             sodipodi:nodetypes="ccccc" /></g></g></g><g
       id="g7447"
       transform="translate(400.48159,-0.85847728)"><g
         id="g7449"
         clip-path="url(#clipPath7453)"><g
           id="g7455"><g
             id="g7457" /><g
             id="g7469"><g
               clip-path="url(#clipPath7461)"
               id="g7467"
               style="opacity:0.5"><g
                 transform="translate(251.6519,137.7529)"
                 id="g7465"><path
                   d="M 266.1807,-24.6449 294.99211,593.0762 -5.594584,579.38748 -6.229,645.089 308.033,620.911 328.5,520.366 421.926,472.318 369.521,-30.58 448.864,-55.653 339.375,-73.171 288.459,-24.179 Z"
                   style="fill:#1d1d1b;fill-opacity:1;fill-rule:nonzero;stroke:none"
                   id="path7463"
                   inkscape:connector-curvature="0"
                   sodipodi:nodetypes="cccccccccccc" /></g></g></g></g></g></g><g
       id="g7471"
       transform="translate(931.64419,101.86122)" /><g
       id="g7475"
       transform="translate(400.48159,-0.85847728)"><g
         id="g7477"
         clip-path="url(#clipPath7481)"><g
           id="g7483"
           transform="translate(533.6626,102.7197)"><path
             d="m 0,0 c 1.314,23.229 2.63,46.458 3.944,69.688 l 9.384,165.779 c 3.716,65.647 7.433,131.295 11.149,196.943 3.079,54.394 6.157,108.788 9.236,163.182 1.22,21.541 2.438,43.082 3.658,64.623 0.075,1.322 -1.194,2.553 -2.5,2.5 -36.769,-1.495 -73.538,-2.989 -110.308,-4.485 -63.015,-2.561 -126.031,-5.123 -189.047,-7.685 -21.818,-0.886 -43.637,-1.774 -65.454,-2.66 -1.298,-0.053 -2.585,-1.099 -2.5,-2.5 1.438,-23.854 2.876,-47.708 4.314,-71.561 3.389,-56.19 6.777,-112.38 10.165,-168.571 3.948,-65.47 7.896,-130.94 11.844,-196.41 3.117,-51.695 6.234,-103.388 9.351,-155.082 l 2.884,-47.83 c 0.084,-1.382 1.075,-2.471 2.5,-2.5 42.501,-0.872 85.001,-1.745 127.502,-2.618 52.112,-1.07 104.225,-2.139 156.337,-3.209 1.681,-0.035 3.36,-0.07 5.041,-0.104 3.227,-0.066 3.22,4.934 0,5 -42.5,0.872 -85.001,1.745 -127.501,2.617 -52.113,1.07 -104.226,2.141 -156.338,3.21 -1.68,0.034 -3.361,0.069 -5.041,0.104 0.834,-0.833 1.667,-1.667 2.5,-2.5 -1.438,23.853 -2.877,47.707 -4.315,71.56 -3.388,56.191 -6.776,112.381 -10.164,168.571 -3.949,65.47 -7.896,130.94 -11.844,196.411 -3.117,51.694 -6.234,103.388 -9.351,155.082 l -2.884,47.83 -2.5,-2.5 c 36.769,1.494 73.538,2.989 110.307,4.484 63.016,2.562 126.032,5.123 189.048,7.685 21.818,0.887 43.636,1.774 65.454,2.661 -0.833,0.833 -1.667,1.666 -2.5,2.5 -1.314,-23.229 -2.63,-46.459 -3.944,-69.688 C 25.299,535.268 22.171,480.008 19.043,424.749 15.327,359.101 11.61,293.453 7.895,227.805 4.815,173.411 1.737,119.017 -1.342,64.623 -2.562,43.082 -3.78,21.541 -5,0 -5.183,-3.223 -0.182,-3.205 0,0"
             style="fill:#f7eced;fill-opacity:1;fill-rule:nonzero;stroke:none"
             id="path7485"
             inkscape:connector-curvature="0" /></g><g
           id="g7487"
           transform="translate(546.644,730.8291)"><path
             d="m 0,0 -28.8114,-617.7211 -253.65,6.793 -20.1796,598.6721 z"
             style="fill:none;fill-opacity:1;fill-rule:nonzero;stroke:none"
             id="path7489"
             inkscape:connector-curvature="0"
             sodipodi:nodetypes="ccccc" /></g><g
           id="g7491"
           transform="translate(378.1733,353.1729)" /><g
           id="g7495"
           transform="translate(316.2988,310.5049)" /><g
           id="g7499"
           transform="translate(268.5786,242.415)" /><g
           id="g7503"
           transform="translate(403.1196,239.6055)" /><g
           id="g7507"
           transform="translate(449.6665,245.458)" /><g
           id="g7511"
           transform="translate(435.8208,398.0459)" /><g
           id="g7515"
           transform="translate(374.5063,381.084)" /><g
           id="g7519"
           transform="translate(564.7495,764.3936)"><path
             d="M 0,0 47.289,16.19 9.918,-707.632 -38.13,-664.203 Z"
             style="fill:#cbbba0;fill-opacity:1;fill-rule:nonzero;stroke:none"
             id="path7521"
             inkscape:connector-curvature="0" /></g><g
           id="g7523"
           transform="translate(612.0386,780.5835)"><path
             d="m 0,0 h 19.575 l -40.929,-723.221 -16.907,-0.453 z"
             style="fill:#7b6a58;fill-opacity:1;fill-rule:nonzero;stroke:none"
             id="path7525"
             inkscape:connector-curvature="0" /></g><g
           id="g7527"
           transform="translate(404.54,55.3564)" /><g
           id="g7531"
           transform="translate(417.02,45.6895)" /><g
           id="g7535"
           transform="translate(427.0903,49.1729)" /><g
           id="g7539"
           transform="translate(442.9565,49.1729)" /><g
           id="g7543"
           transform="translate(466.2476,48.0098)" /><g
           id="g7547"
           transform="translate(475.8071,53.5322)" /><g
           id="g7551"
           transform="translate(488.1011,41.9268)" /><g
           id="g7555"
           transform="translate(496.3872,40.1855)" /><g
           id="g7559"
           transform="translate(515.356,44.9111)" /><g
           id="g7563"
           transform="translate(527.9839,47.9365)" /><g
           id="g7567"
           transform="translate(546.3599,47.6582)" /><g
           id="g7571"
           transform="translate(378.1265,38.8525)" /><g
           id="g7575"
           transform="translate(390.1216,51.9072)" /><g
           id="g7579"
           transform="translate(392.0122,58.1543)" /><g
           id="g7583"
           transform="translate(395.979,57.1006)" /><g
           id="g7587"
           transform="translate(372.8081,56.167)" /><g
           id="g7591"
           transform="translate(369.623,54.2383)" /><g
           id="g7595"
           transform="translate(381.1143,62.2998)" /><g
           id="g7599"
           transform="translate(382.1792,63.7607)" /><g
           id="g7603"
           transform="translate(397.8242,60.4697)" /><g
           id="g7607"
           transform="translate(366.6313,57.0352)" /><g
           id="g7611"
           transform="translate(382.6118,66.0215)" /><g
           id="g7615"
           transform="translate(264.3799,48.54)" /><g
           id="g7619"
           transform="translate(276.9858,46.7324)" /><g
           id="g7623"
           transform="translate(286.2046,47.877)" /><g
           id="g7627"
           transform="translate(288.4419,49.3896)" /><g
           id="g7631"
           transform="translate(296.936,48.54)" /><g
           id="g7635"
           transform="translate(303.2129,49.3896)" /><g
           id="g7639"
           transform="translate(319.8379,46.7324)" /><g
           id="g7643"
           transform="translate(327.7949,48.54)" /><g
           id="g7647"
           transform="translate(343.7861,43.1328)" /><g
           id="g7651"
           transform="translate(348.9897,49.0469)" /><g
           id="g7655"
           transform="translate(334.0132,603.917)" /><g
           id="g7659"
           transform="translate(388.4448,601.6851)" /><g
           id="g7663"
           transform="translate(331.9253,538.957)" /><g
           id="g7667"
           transform="translate(354.605,503.3169)" /><g
           id="g7671"
           transform="translate(371.5962,494.8931)" /><g
           id="g7675"
           transform="translate(402.6284,494.8931)" /><g
           id="g7679"
           transform="translate(452.9565,503.3887)" /><g
           id="g7683"
           transform="translate(475.9233,520.2368)" /></g></g><path
       style="fill:#333333;fill-opacity:1;fill-rule:evenodd;stroke:#808080;stroke-width:0;stroke-linecap:butt;stroke-linejoin:miter;stroke-miterlimit:4;stroke-dasharray:none;stroke-opacity:1"
       d="M 402.03739,10.169399 401.3398,108.02038 H 13.7424 V 10.169399 Z"
       id="path8286"
       inkscape:connector-curvature="0"
       sodipodi:nodetypes="ccccc" /><path
       style="fill:#333333;fill-rule:evenodd;stroke:#000000;stroke-width:0;stroke-linecap:butt;stroke-linejoin:miter;stroke-miterlimit:4;stroke-dasharray:none;stroke-opacity:1"
       d="m 1226.7495,10.169399 v 96.640961 h 399 V 10.169399 Z"
       id="path8288"
       inkscape:connector-curvature="0"
       sodipodi:nodetypes="ccccc" /><path
       id="path4792"
       style="display:inline;fill:#f9f9f9;fill-rule:evenodd;stroke:#000000;stroke-width:0.75px;stroke-linecap:butt;stroke-linejoin:miter;stroke-opacity:0"
       d="m 644.48459,717.71462 7.6489,-580.82022 266.1807,-24.6449 28.81141,617.72112 z m 287.1596,-615.8534 37.371,660.215 -364.809,-14.83 38.558,-639.454 z" /></g></svg>