<?xml version="1.0" encoding="UTF-8" standalone="no"?>
<!-- Created with Inkscape (http://www.inkscape.org/) -->

<svg
   xmlns:dc="http://purl.org/dc/elements/1.1/"
   xmlns:cc="http://creativecommons.org/ns#"
   xmlns:rdf="http://www.w3.org/1999/02/22-rdf-syntax-ns#"
   xmlns:svg="http://www.w3.org/2000/svg"
   xmlns="http://www.w3.org/2000/svg"
   xmlns:sodipodi="http://sodipodi.sourceforge.net/DTD/sodipodi-0.dtd"
   xmlns:inkscape="http://www.inkscape.org/namespaces/inkscape"
   version="1.1"
   id="svg2"
   xml:space="preserve"
   width="1000"
   height="1000"
   viewBox="0 0 999.99995 999.99995"
   sodipodi:docname="floor.svg"
   inkscape:version="0.92.0 r"><metadata
     id="metadata8"><rdf:RDF><cc:Work
         rdf:about=""><dc:format>image/svg+xml</dc:format><dc:type
           rdf:resource="http://purl.org/dc/dcmitype/StillImage" /><dc:title></dc:title></cc:Work></rdf:RDF></metadata><defs
     id="defs6" /><sodipodi:namedview
     pagecolor="#ffffff"
     bordercolor="#666666"
     borderopacity="1"
     objecttolerance="10"
     gridtolerance="10"
     guidetolerance="10"
     inkscape:pageopacity="0"
     inkscape:pageshadow="2"
     inkscape:window-width="1362"
     inkscape:window-height="733"
     id="namedview4"
     showgrid="false"
     inkscape:zoom="1.7699999"
     inkscape:cx="515.78365"
     inkscape:cy="433.69253"
     inkscape:window-x="0"
     inkscape:window-y="16"
     inkscape:window-maximized="0"
     inkscape:current-layer="layer1"
     showguides="true"
     inkscape:guide-bbox="true"><sodipodi:guide
       position="0,0"
       orientation="0,2000"
       id="guide4767"
       inkscape:locked="false" /><sodipodi:guide
       position="499.99998,452.03993"
       orientation="1,0"
       id="guide4769"
       inkscape:locked="false"
       inkscape:label=""
       inkscape:color="rgb(0,0,255)" /><sodipodi:guide
       position="1999.9999,999.99995"
       orientation="0,-2000"
       id="guide4771"
       inkscape:locked="false" /><sodipodi:guide
       position="0,999.99995"
       orientation="1000,0"
       id="guide4773"
       inkscape:locked="false" /><sodipodi:guide
       position="-994.35029,499.99998"
       orientation="0,1"
       id="guide4775"
       inkscape:locked="false"
       inkscape:label=""
       inkscape:color="rgb(0,0,255)" /><sodipodi:guide
       position="999.99995,480.99198"
       orientation="1,0"
       id="guide4777"
       inkscape:locked="false"
       inkscape:label=""
       inkscape:color="rgb(0,0,255)" /></sodipodi:namedview><g
     id="g10"
     inkscape:groupmode="layer"
     inkscape:label="ink_ext_XXXXXX"
     transform="matrix(1.3333333,0,0,-1.3333333,0,999.99995)"
     style="opacity:0.95"><path
       style="fill:#333333;fill-rule:evenodd;stroke:#000000;stroke-width:0.75px;stroke-linecap:butt;stroke-linejoin:miter;stroke-opacity:1"
       d="M 0,749.99998 H 750.00002 V -3.7500001e-5 L 0,-4e-5 Z"
       id="path5119"
       inkscape:connector-curvature="0"
       sodipodi:nodetypes="ccccc" /></g><g
     inkscape:groupmode="layer"
     id="layer1"
     inkscape:label="ink_ext_XXXXXX 1"
     style="display:inline"><g
       id="g12"
       transform="matrix(0.40499999,0,0,-0.40499999,-2106.1919,4574.4786)"><g
         id="g1790"
         transform="scale(10)" /><g
         id="g1796"
         transform="scale(10)" /><path
         d="m 7322.89,10055.27 c 0,-487.86 -395.49,-883.35 -883.35,-883.35 -487.86,0 -883.35,395.49 -883.35,883.35 0,487.85 395.49,883.34 883.35,883.34 487.86,0 883.35,-395.49 883.35,-883.34 z"
         style="fill:none;stroke:#ba9e5c;stroke-width:80;stroke-linecap:butt;stroke-linejoin:miter;stroke-miterlimit:10;stroke-dasharray:none;stroke-opacity:1"
         id="path2460"
         inkscape:connector-curvature="0" /><path
         d="m 7045.56,9447.11 -54.63,12.68 c -47.59,11.04 -97.62,1.95 -138.29,-25.12 -40.67,-27.07 -68.37,-69.73 -76.55,-117.89 l -9.39,-55.29 -45.62,32.62 c -39.74,28.41 -89.45,39.16 -137.38,29.71 -47.93,-9.44 -89.84,-38.25 -115.83,-79.62 l -29.84,-47.49 -29.66,47.59 c -25.85,41.46 -67.66,70.42 -115.56,80.03 -47.89,9.62 -97.64,-0.96 -137.48,-29.23 l -45.74,-32.46 -9.19,55.32 c -8.01,48.2 -35.56,90.95 -76.13,118.16 -40.58,27.22 -90.58,36.48 -138.21,25.61 l -54.67,-12.49 12.67,54.63 c 11.04,47.59 1.95,97.63 -25.12,138.3 -27.07,40.67 -69.72,68.36 -117.89,76.54 l -55.29,9.39 32.62,45.62 c 28.41,39.75 39.17,89.45 29.72,137.39 -9.45,47.93 -38.26,89.84 -79.63,115.83 l -47.48,29.83 47.59,29.67 c 41.46,25.84 70.41,67.65 80.03,115.55 9.61,47.9 -0.96,97.64 -29.24,137.49 l -32.45,45.73 55.32,9.2 c 48.19,8.01 90.94,35.55 118.16,76.13 27.21,40.57 36.47,90.58 25.6,138.21 l -12.48,54.67 54.63,-12.67 c 47.59,-11.05 97.63,-1.96 138.29,25.11 40.67,27.07 68.37,69.73 76.55,117.89 l 9.39,55.29 45.62,-32.61 c 39.74,-28.42 89.45,-39.17 137.38,-29.72 47.93,9.45 89.84,38.25 115.83,79.62 l 29.84,47.49 29.66,-47.59 c 25.85,-41.46 67.66,-70.42 115.56,-80.03 47.89,-9.62 97.64,0.96 137.48,29.23 l 45.73,32.46 9.2,-55.32 c 8.01,-48.2 35.56,-90.95 76.13,-118.16 40.58,-27.21 90.58,-36.48 138.21,-25.6 l 54.67,12.48 -12.67,-54.63 c -11.04,-47.59 -1.95,-97.63 25.12,-138.3 27.07,-40.67 69.72,-68.36 117.89,-76.54 l 55.28,-9.39 -32.61,-45.62 c -28.41,-39.74 -39.17,-89.45 -29.72,-137.39 9.45,-47.93 38.26,-89.84 79.63,-115.83 l 47.48,-29.83 -47.59,-29.67 c -41.46,-25.84 -70.41,-67.65 -80.03,-115.55 -9.61,-47.9 0.96,-97.64 29.24,-137.48 l 32.45,-45.74 -55.32,-9.2 c -48.19,-8.01 -90.94,-35.55 -118.16,-76.13 -27.21,-40.57 -36.47,-90.57 -25.6,-138.2 l 12.48,-54.68"
         style="fill:#e3534e;fill-opacity:1;fill-rule:nonzero;stroke:none"
         id="path2462"
         inkscape:connector-curvature="0" /><path
         d="m 6482.85,10938.61 c 0,-23.92 -19.39,-43.31 -43.31,-43.31 -23.92,0 -43.31,19.39 -43.31,43.31 0,23.92 19.39,43.31 43.31,43.31 23.92,0 43.31,-19.39 43.31,-43.31"
         style="fill:#1c2948;fill-opacity:1;fill-rule:nonzero;stroke:none"
         id="path2464"
         inkscape:connector-curvature="0" /><path
         d="m 6482.85,9173.38 c 0,-23.92 -19.39,-43.31 -43.31,-43.31 -23.92,0 -43.31,19.39 -43.31,43.31 0,23.92 19.39,43.31 43.31,43.31 23.92,0 43.31,-19.39 43.31,-43.31"
         style="fill:#1c2948;fill-opacity:1;fill-rule:nonzero;stroke:none"
         id="path2466"
         inkscape:connector-curvature="0" /><path
         d="m 7322.16,10012.69 c -23.92,0 -43.31,19.39 -43.31,43.31 0,23.92 19.39,43.31 43.31,43.31 23.91,0 43.3,-19.39 43.3,-43.31 0,-23.92 -19.39,-43.31 -43.3,-43.31"
         style="fill:#1c2948;fill-opacity:1;fill-rule:nonzero;stroke:none"
         id="path2468"
         inkscape:connector-curvature="0" /><path
         d="m 5556.93,10012.69 c -23.92,0 -43.31,19.39 -43.31,43.31 0,23.92 19.39,43.31 43.31,43.31 23.91,0 43.3,-19.39 43.3,-43.31 0,-23.92 -19.39,-43.31 -43.3,-43.31"
         style="fill:#1c2948;fill-opacity:1;fill-rule:nonzero;stroke:none"
         id="path2470"
         inkscape:connector-curvature="0" /><path
         d="m 7271.18,10354.77 c -22.09,-9.18 -47.44,1.28 -56.62,23.37 -9.18,22.08 1.28,47.43 23.37,56.61 22.09,9.18 47.44,-1.28 56.62,-23.37 9.18,-22.08 -1.29,-47.43 -23.37,-56.61"
         style="fill:#1c2948;fill-opacity:1;fill-rule:nonzero;stroke:none"
         id="path2472"
         inkscape:connector-curvature="0" /><path
         d="m 5641.15,9677.24 c -22.09,-9.18 -47.43,1.29 -56.62,23.37 -9.18,22.09 1.29,47.44 23.37,56.62 22.09,9.18 47.44,-1.28 56.62,-23.37 9.18,-22.09 -1.28,-47.44 -23.37,-56.62"
         style="fill:#1c2948;fill-opacity:1;fill-rule:nonzero;stroke:none"
         id="path2474"
         inkscape:connector-curvature="0" /><path
         d="m 7093.64,10650.17 c -16.9,-16.93 -44.32,-16.96 -61.25,-0.07 -16.93,16.9 -16.96,44.32 -0.06,61.25 16.89,16.93 44.31,16.96 61.25,0.07 16.93,-16.9 16.96,-44.32 0.06,-61.25"
         style="fill:#1c2948;fill-opacity:1;fill-rule:nonzero;stroke:none"
         id="path2476"
         inkscape:connector-curvature="0" /><path
         d="m 5846.75,9400.64 c -16.89,-16.93 -44.31,-16.96 -61.25,-0.06 -16.93,16.9 -16.96,44.32 -0.06,61.25 16.9,16.93 44.32,16.96 61.25,0.06 16.93,-16.89 16.96,-44.31 0.06,-61.25"
         style="fill:#1c2948;fill-opacity:1;fill-rule:nonzero;stroke:none"
         id="path2478"
         inkscape:connector-curvature="0" /><path
         d="m 6816.61,10855.19 c -9.13,-22.11 -34.46,-32.63 -56.56,-23.49 -22.11,9.13 -32.63,34.46 -23.49,56.56 9.13,22.11 34.46,32.62 56.56,23.49 22.11,-9.13 32.63,-34.46 23.49,-56.56"
         style="fill:#1c2948;fill-opacity:1;fill-rule:nonzero;stroke:none"
         id="path2480"
         inkscape:connector-curvature="0" /><path
         d="m 6142.52,9223.73 c -9.13,-22.1 -34.45,-32.62 -56.56,-23.49 -22.11,9.14 -32.62,34.46 -23.49,56.57 9.13,22.11 34.46,32.62 56.57,23.49 22.1,-9.14 32.62,-34.46 23.48,-56.57"
         style="fill:#1c2948;fill-opacity:1;fill-rule:nonzero;stroke:none"
         id="path2482"
         inkscape:connector-curvature="0" /><path
         d="m 6143.81,10888.72 c 9.1,-22.12 -1.45,-47.43 -23.57,-56.53 -22.12,-9.1 -47.43,1.46 -56.53,23.58 -9.1,22.12 1.45,47.43 23.57,56.53 22.12,9.1 47.43,-1.46 56.53,-23.58"
         style="fill:#1c2948;fill-opacity:1;fill-rule:nonzero;stroke:none"
         id="path2484"
         inkscape:connector-curvature="0" /><path
         d="m 6815.37,9256.23 c 9.1,-22.12 -1.45,-47.43 -23.57,-56.53 -22.12,-9.1 -47.43,1.45 -56.53,23.57 -9.1,22.12 1.45,47.43 23.57,56.53 22.12,9.1 47.43,-1.45 56.53,-23.57"
         style="fill:#1c2948;fill-opacity:1;fill-rule:nonzero;stroke:none"
         id="path2486"
         inkscape:connector-curvature="0" /><path
         d="m 5845.42,10710.14 c 16.93,-16.89 16.96,-44.32 0.06,-61.25 -16.89,-16.93 -44.32,-16.95 -61.25,-0.06 -16.93,16.9 -16.95,44.32 -0.06,61.25 16.9,16.93 44.32,16.96 61.25,0.06"
         style="fill:#1c2948;fill-opacity:1;fill-rule:nonzero;stroke:none"
         id="path2488"
         inkscape:connector-curvature="0" /><path
         d="m 7094.85,9463.16 c 16.93,-16.9 16.95,-44.32 0.06,-61.25 -16.9,-16.93 -44.32,-16.95 -61.25,-0.06 -16.93,16.9 -16.96,44.32 -0.06,61.25 16.9,16.93 44.32,16.96 61.25,0.06"
         style="fill:#1c2948;fill-opacity:1;fill-rule:nonzero;stroke:none"
         id="path2490"
         inkscape:connector-curvature="0" /><path
         d="m 5640.56,10433.51 c 22.1,-9.15 32.6,-34.48 23.46,-56.58 -9.15,-22.1 -34.48,-32.61 -56.58,-23.46 -22.1,9.14 -32.61,34.48 -23.46,56.58 9.15,22.1 34.48,32.6 56.58,23.46"
         style="fill:#1c2948;fill-opacity:1;fill-rule:nonzero;stroke:none"
         id="path2492"
         inkscape:connector-curvature="0" /><path
         d="m 7271.64,9758.53 c 22.1,-9.15 32.61,-34.48 23.46,-56.58 -9.14,-22.1 -34.48,-32.61 -56.58,-23.46 -22.1,9.15 -32.6,34.48 -23.46,56.58 9.15,22.1 34.48,32.6 56.58,23.46"
         style="fill:#1c2948;fill-opacity:1;fill-rule:nonzero;stroke:none"
         id="path2494"
         inkscape:connector-curvature="0" /><path
         d="m 6439.54,10752.77 -185.84,185.84 185.84,185.84 185.84,-185.84 z"
         style="fill:none;stroke:#1c2948;stroke-width:40;stroke-linecap:butt;stroke-linejoin:round;stroke-miterlimit:10;stroke-dasharray:none;stroke-opacity:1"
         id="path2496"
         inkscape:connector-curvature="0" /><path
         d="m 6439.54,11047.1 -64.95,64.95 64.95,64.94 64.94,-64.94 -64.94,-64.95"
         style="fill:#b4de45;fill-opacity:1;fill-rule:nonzero;stroke:none"
         id="path2498"
         inkscape:connector-curvature="0" /><path
         d="m 6439.54,10706.6 -64.95,64.95 64.95,64.94 64.94,-64.94 -64.94,-64.95"
         style="fill:#b4de45;fill-opacity:1;fill-rule:nonzero;stroke:none"
         id="path2500"
         inkscape:connector-curvature="0" /><path
         d="m 6544.85,10941.8 64.94,64.94 64.94,-64.94 -64.94,-64.95 -64.94,64.95"
         style="fill:#b4de45;fill-opacity:1;fill-rule:nonzero;stroke:none"
         id="path2502"
         inkscape:connector-curvature="0" /><path
         d="m 6204.34,10941.8 64.95,64.94 64.94,-64.94 -64.94,-64.95 -64.95,64.95"
         style="fill:#b4de45;fill-opacity:1;fill-rule:nonzero;stroke:none"
         id="path2504"
         inkscape:connector-curvature="0" /><path
         d="m 7038.39,10055.27 c 0,-330.74 -268.11,-598.85 -598.85,-598.85 -330.74,0 -598.85,268.11 -598.85,598.85 0,330.73 268.11,598.85 598.85,598.85 330.74,0 598.85,-268.12 598.85,-598.85"
         style="fill:#d6403b;fill-opacity:1;fill-rule:nonzero;stroke:none"
         id="path2506"
         inkscape:connector-curvature="0" /><path
         d="m 6957.1,10055.27 c 0,-285.85 -231.72,-517.57 -517.56,-517.57 -285.84,0 -517.56,231.72 -517.56,517.57 0,285.84 231.72,517.56 517.56,517.56 285.84,0 517.56,-231.72 517.56,-517.56 z"
         style="fill:none;stroke:#1c2948;stroke-width:30;stroke-linecap:round;stroke-linejoin:round;stroke-miterlimit:10;stroke-dasharray:none;stroke-opacity:1"
         id="path2508"
         inkscape:connector-curvature="0" /><path
         d="m 6466.3444,11110.991 c 0,-14.85 -12.03,-26.88 -26.88,-26.88 -14.85,0 -26.88,12.03 -26.88,26.88 0,14.84 12.03,26.88 26.88,26.88 14.85,0 26.88,-12.04 26.88,-26.88"
         style="fill:#e3534e;fill-opacity:1;fill-rule:nonzero;stroke:none"
         id="path2510"
         inkscape:connector-curvature="0" /><path
         d="m 6466.42,10771.55 c 0,-14.85 -12.03,-26.88 -26.88,-26.88 -14.85,0 -26.88,12.03 -26.88,26.88 0,14.84 12.03,26.88 26.88,26.88 14.85,0 26.88,-12.04 26.88,-26.88"
         style="fill:#e3534e;fill-opacity:1;fill-rule:nonzero;stroke:none"
         id="path2512"
         inkscape:connector-curvature="0" /><path
         d="m 6466.42,10699.86 c 0,-14.84 -12.03,-26.88 -26.88,-26.88 -14.85,0 -26.88,12.04 -26.88,26.88 0,14.85 12.03,26.88 26.88,26.88 14.85,0 26.88,-12.03 26.88,-26.88"
         style="fill:#b4de45;fill-opacity:1;fill-rule:nonzero;stroke:none"
         id="path2514"
         inkscape:connector-curvature="0" /><path
         d="m 6609.79,10914.92 c -14.85,0 -26.88,12.03 -26.88,26.88 0,14.84 12.03,26.88 26.88,26.88 14.85,0 26.88,-12.04 26.88,-26.88 0,-14.85 -12.03,-26.88 -26.88,-26.88"
         style="fill:#e3534e;fill-opacity:1;fill-rule:nonzero;stroke:none"
         id="path2516"
         inkscape:connector-curvature="0" /><path
         d="m 6269.29,10914.92 c -14.85,0 -26.88,12.03 -26.88,26.88 0,14.84 12.03,26.88 26.88,26.88 14.85,0 26.88,-12.04 26.88,-26.88 0,-14.85 -12.03,-26.88 -26.88,-26.88"
         style="fill:#e3534e;fill-opacity:1;fill-rule:nonzero;stroke:none"
         id="path2518"
         inkscape:connector-curvature="0" /><path
         d="m 6439.54,11093.01 v -309.14"
         style="fill:none;stroke:#1c2948;stroke-width:30;stroke-linecap:round;stroke-linejoin:round;stroke-miterlimit:10;stroke-dasharray:none;stroke-opacity:1"
         id="path2520"
         inkscape:connector-curvature="0" /><path
         d="M 6594.11,10938.44 H 6284.97"
         style="fill:none;stroke:#1c2948;stroke-width:30;stroke-linecap:round;stroke-linejoin:round;stroke-miterlimit:10;stroke-dasharray:none;stroke-opacity:1"
         id="path2522"
         inkscape:connector-curvature="0" /><path
         d="m 6484.31,10628.49 c -0.17,24.6 -20.13,44.49 -44.77,44.49 -24.64,0 -44.6,-19.89 -44.77,-44.49 h 89.54"
         style="fill:#1c2948;fill-opacity:1;fill-rule:nonzero;stroke:none"
         id="path2524"
         inkscape:connector-curvature="0" /><path
         d="m 6416.31,10612.95 23.23,23.23 23.23,-23.23 -23.23,-23.23 -23.23,23.23"
         style="fill:#1c2948;fill-opacity:1;fill-rule:nonzero;stroke:none"
         id="path2526"
         inkscape:connector-curvature="0" /><path
         d="m 6439.54,9356.24 -185.84,-185.85 185.84,-185.84 185.84,185.84 z"
         style="fill:none;stroke:#1c2948;stroke-width:40;stroke-linecap:butt;stroke-linejoin:round;stroke-miterlimit:10;stroke-dasharray:none;stroke-opacity:1"
         id="path2528"
         inkscape:connector-curvature="0" /><path
         d="m 6439.54,9061.9 -64.95,-64.94 64.95,-64.95 64.94,64.95 -64.94,64.94"
         style="fill:#b4de45;fill-opacity:1;fill-rule:nonzero;stroke:none"
         id="path2530"
         inkscape:connector-curvature="0" /><path
         d="m 6439.54,9402.4 -64.95,-64.94 64.95,-64.95 64.94,64.95 -64.94,64.94"
         style="fill:#b4de45;fill-opacity:1;fill-rule:nonzero;stroke:none"
         id="path2532"
         inkscape:connector-curvature="0" /><path
         d="m 6544.85,9167.21 64.94,-64.95 64.94,64.95 -64.94,64.94 -64.94,-64.94"
         style="fill:#b4de45;fill-opacity:1;fill-rule:nonzero;stroke:none"
         id="path2534"
         inkscape:connector-curvature="0" /><path
         d="m 6204.34,9167.21 64.95,-64.95 64.94,64.95 -64.94,64.94 -64.95,-64.94"
         style="fill:#b4de45;fill-opacity:1;fill-rule:nonzero;stroke:none"
         id="path2536"
         inkscape:connector-curvature="0" /><path
         d="m 6466.42,8996.96 c 0,14.84 -12.03,26.88 -26.88,26.88 -14.85,0 -26.88,-12.04 -26.88,-26.88 0,-14.85 12.03,-26.88 26.88,-26.88 14.85,0 26.88,12.03 26.88,26.88"
         style="fill:#e3534e;fill-opacity:1;fill-rule:nonzero;stroke:none"
         id="path2538"
         inkscape:connector-curvature="0" /><path
         d="m 6466.42,9337.46 c 0,14.84 -12.03,26.88 -26.88,26.88 -14.85,0 -26.88,-12.04 -26.88,-26.88 0,-14.85 12.03,-26.88 26.88,-26.88 14.85,0 26.88,12.03 26.88,26.88"
         style="fill:#e3534e;fill-opacity:1;fill-rule:nonzero;stroke:none"
         id="path2540"
         inkscape:connector-curvature="0" /><path
         d="m 6466.42,9409.14 c 0,14.85 -12.03,26.88 -26.88,26.88 -14.85,0 -26.88,-12.03 -26.88,-26.88 0,-14.84 12.03,-26.88 26.88,-26.88 14.85,0 26.88,12.04 26.88,26.88"
         style="fill:#b4de45;fill-opacity:1;fill-rule:nonzero;stroke:none"
         id="path2542"
         inkscape:connector-curvature="0" /><path
         d="m 6609.79,9197.6935 c -14.85,0 -26.88,-12.04 -26.88,-26.88 0,-14.85 12.03,-26.88 26.88,-26.88 14.85,0 26.88,12.03 26.88,26.88 0,14.84 -12.03,26.88 -26.88,26.88"
         style="fill:#e3534e;fill-opacity:1;fill-rule:nonzero;stroke:none"
         id="path2544"
         inkscape:connector-curvature="0" /><path
         d="m 6269.29,9194.09 c -14.85,0 -26.88,-12.04 -26.88,-26.88 0,-14.85 12.03,-26.88 26.88,-26.88 14.85,0 26.88,12.03 26.88,26.88 0,14.84 -12.03,26.88 -26.88,26.88"
         style="fill:#e3534e;fill-opacity:1;fill-rule:nonzero;stroke:none"
         id="path2546"
         inkscape:connector-curvature="0" /><path
         d="m 6439.54,9016 v 309.14"
         style="fill:none;stroke:#1c2948;stroke-width:30;stroke-linecap:round;stroke-linejoin:round;stroke-miterlimit:10;stroke-dasharray:none;stroke-opacity:1"
         id="path2548"
         inkscape:connector-curvature="0" /><path
         d="M 6594.11,9170.57 H 6284.97"
         style="fill:none;stroke:#1c2948;stroke-width:30;stroke-linecap:round;stroke-linejoin:round;stroke-miterlimit:10;stroke-dasharray:none;stroke-opacity:1"
         id="path2550"
         inkscape:connector-curvature="0" /><path
         d="m 6484.31,9480.52 c -0.17,-24.6 -20.13,-44.5 -44.77,-44.5 -24.64,0 -44.6,19.9 -44.77,44.5 h 89.54"
         style="fill:#1c2948;fill-opacity:1;fill-rule:nonzero;stroke:none"
         id="path2552"
         inkscape:connector-curvature="0" /><path
         d="m 6416.31,9496.06 23.23,-23.23 23.23,23.23 -23.23,23.23 -23.23,-23.23"
         style="fill:#1c2948;fill-opacity:1;fill-rule:nonzero;stroke:none"
         id="path2554"
         inkscape:connector-curvature="0" /><path
         d="m 5745.75,10058.98 -185.84,185.85 -185.84,-185.85 185.84,-185.84 z"
         style="fill:none;stroke:#1c2948;stroke-width:40;stroke-linecap:butt;stroke-linejoin:round;stroke-miterlimit:10;stroke-dasharray:none;stroke-opacity:1"
         id="path2556"
         inkscape:connector-curvature="0" /><path
         d="m 5451.42,10058.98 -64.94,64.95 -64.95,-64.95 64.95,-64.94 64.94,64.94"
         style="fill:#b4de45;fill-opacity:1;fill-rule:nonzero;stroke:none"
         id="path2558"
         inkscape:connector-curvature="0" /><path
         d="m 5791.92,10058.98 -64.94,64.95 -64.95,-64.95 64.95,-64.94 64.94,64.94"
         style="fill:#b4de45;fill-opacity:1;fill-rule:nonzero;stroke:none"
         id="path2560"
         inkscape:connector-curvature="0" /><path
         d="m 5556.73,9953.68 -64.95,-64.95 64.95,-64.94 64.94,64.94 -64.94,64.95"
         style="fill:#b4de45;fill-opacity:1;fill-rule:nonzero;stroke:none"
         id="path2562"
         inkscape:connector-curvature="0" /><path
         d="m 5556.73,10294.18 -64.95,-64.95 64.95,-64.94 64.94,64.94 -64.94,64.95"
         style="fill:#b4de45;fill-opacity:1;fill-rule:nonzero;stroke:none"
         id="path2564"
         inkscape:connector-curvature="0" /><path
         d="m 5386.48,10032.1 c 14.84,0 26.88,12.04 26.88,26.88 0,14.85 -12.04,26.88 -26.88,26.88 -14.85,0 -26.89,-12.03 -26.89,-26.88 0,-14.84 12.04,-26.88 26.89,-26.88"
         style="fill:#e3534e;fill-opacity:1;fill-rule:nonzero;stroke:none"
         id="path2566"
         inkscape:connector-curvature="0" /><path
         d="m 5726.98,10032.1 c 14.84,0 26.88,12.04 26.88,26.88 0,14.85 -12.04,26.88 -26.88,26.88 -14.85,0 -26.88,-12.03 -26.88,-26.88 0,-14.84 12.03,-26.88 26.88,-26.88"
         style="fill:#e3534e;fill-opacity:1;fill-rule:nonzero;stroke:none"
         id="path2568"
         inkscape:connector-curvature="0" /><path
         d="m 5798.66,10032.1 c 14.85,0 26.88,12.04 26.88,26.88 0,14.85 -12.03,26.88 -26.88,26.88 -14.85,0 -26.88,-12.03 -26.88,-26.88 0,-14.84 12.03,-26.88 26.88,-26.88"
         style="fill:#b4de45;fill-opacity:1;fill-rule:nonzero;stroke:none"
         id="path2570"
         inkscape:connector-curvature="0" /><path
         d="m 5583.61,9888.73 c 0,14.85 -12.04,26.88 -26.88,26.88 -14.85,0 -26.89,-12.03 -26.89,-26.88 0,-14.84 12.04,-26.88 26.89,-26.88 14.84,0 26.88,12.04 26.88,26.88"
         style="fill:#e3534e;fill-opacity:1;fill-rule:nonzero;stroke:none"
         id="path2572"
         inkscape:connector-curvature="0" /><path
         d="m 5583.61,10229.23 c 0,14.85 -12.04,26.89 -26.88,26.89 -14.85,0 -26.89,-12.04 -26.89,-26.89 0,-14.84 12.04,-26.88 26.89,-26.88 14.84,0 26.88,12.04 26.88,26.88"
         style="fill:#e3534e;fill-opacity:1;fill-rule:nonzero;stroke:none"
         id="path2574"
         inkscape:connector-curvature="0" /><path
         d="m 5405.52,10058.98 h 309.14"
         style="fill:none;stroke:#1c2948;stroke-width:30;stroke-linecap:round;stroke-linejoin:round;stroke-miterlimit:10;stroke-dasharray:none;stroke-opacity:1"
         id="path2576"
         inkscape:connector-curvature="0" /><path
         d="m 5560.09,9904.41 v 309.14"
         style="fill:none;stroke:#1c2948;stroke-width:30;stroke-linecap:round;stroke-linejoin:round;stroke-miterlimit:10;stroke-dasharray:none;stroke-opacity:1"
         id="path2578"
         inkscape:connector-curvature="0" /><path
         d="m 5870.03,10014.21 c -24.59,0.17 -44.49,20.14 -44.49,44.77 0,24.64 19.9,44.6 44.49,44.77 v -89.54"
         style="fill:#1c2948;fill-opacity:1;fill-rule:nonzero;stroke:none"
         id="path2580"
         inkscape:connector-curvature="0" /><path
         d="m 5885.58,10082.22 -23.24,-23.24 23.24,-23.23 23.23,23.23 -23.23,23.24"
         style="fill:#1c2948;fill-opacity:1;fill-rule:nonzero;stroke:none"
         id="path2582"
         inkscape:connector-curvature="0" /><path
         d="m 7135.79,10056 185.84,185.84 185.84,-185.84 -185.84,-185.84 z"
         style="fill:none;stroke:#1c2948;stroke-width:40;stroke-linecap:butt;stroke-linejoin:round;stroke-miterlimit:10;stroke-dasharray:none;stroke-opacity:1"
         id="path2584"
         inkscape:connector-curvature="0" /><path
         d="m 7430.12,10056 64.94,64.94 64.95,-64.94 -64.95,-64.95 -64.94,64.95"
         style="fill:#b4de45;fill-opacity:1;fill-rule:nonzero;stroke:none"
         id="path2586"
         inkscape:connector-curvature="0" /><path
         d="m 7089.62,10056 64.94,64.94 64.95,-64.94 -64.95,-64.95 -64.94,64.95"
         style="fill:#b4de45;fill-opacity:1;fill-rule:nonzero;stroke:none"
         id="path2588"
         inkscape:connector-curvature="0" /><path
         d="m 7324.81,9950.69 64.95,-64.94 -64.95,-64.95 -64.94,64.95 64.94,64.94"
         style="fill:#b4de45;fill-opacity:1;fill-rule:nonzero;stroke:none"
         id="path2590"
         inkscape:connector-curvature="0" /><path
         d="m 7324.81,10291.19 64.95,-64.94 -64.95,-64.95 -64.94,64.95 64.94,64.94"
         style="fill:#b4de45;fill-opacity:1;fill-rule:nonzero;stroke:none"
         id="path2592"
         inkscape:connector-curvature="0" /><path
         d="m 7495.06,10029.12 c -14.84,0 -26.88,12.03 -26.88,26.88 0,14.84 12.04,26.88 26.88,26.88 14.85,0 26.89,-12.04 26.89,-26.88 0,-14.85 -12.04,-26.88 -26.89,-26.88"
         style="fill:#e3534e;fill-opacity:1;fill-rule:nonzero;stroke:none"
         id="path2594"
         inkscape:connector-curvature="0" /><path
         d="m 7154.56,10029.12 c -14.84,0 -26.88,12.03 -26.88,26.88 0,14.84 12.04,26.88 26.88,26.88 14.85,0 26.88,-12.04 26.88,-26.88 0,-14.85 -12.03,-26.88 -26.88,-26.88"
         style="fill:#e3534e;fill-opacity:1;fill-rule:nonzero;stroke:none"
         id="path2596"
         inkscape:connector-curvature="0" /><path
         d="m 7082.88,10029.12 c -14.85,0 -26.88,12.03 -26.88,26.88 0,14.84 12.03,26.88 26.88,26.88 14.85,0 26.88,-12.04 26.88,-26.88 0,-14.85 -12.03,-26.88 -26.88,-26.88"
         style="fill:#b4de45;fill-opacity:1;fill-rule:nonzero;stroke:none"
         id="path2598"
         inkscape:connector-curvature="0" /><path
         d="m 7297.93,9885.75 c 0,14.84 12.04,26.88 26.88,26.88 14.85,0 26.89,-12.04 26.89,-26.88 0,-14.85 -12.04,-26.89 -26.89,-26.89 -14.84,0 -26.88,12.04 -26.88,26.89"
         style="fill:#e3534e;fill-opacity:1;fill-rule:nonzero;stroke:none"
         id="path2600"
         inkscape:connector-curvature="0" /><path
         d="m 7297.93,10226.25 c 0,14.84 12.04,26.88 26.88,26.88 14.85,0 26.89,-12.04 26.89,-26.88 0,-14.85 -12.04,-26.88 -26.89,-26.88 -14.84,0 -26.88,12.03 -26.88,26.88"
         style="fill:#e3534e;fill-opacity:1;fill-rule:nonzero;stroke:none"
         id="path2602"
         inkscape:connector-curvature="0" /><path
         d="M 7476.02,10056 H 7166.88"
         style="fill:none;stroke:#1c2948;stroke-width:30;stroke-linecap:round;stroke-linejoin:round;stroke-miterlimit:10;stroke-dasharray:none;stroke-opacity:1"
         id="path2604"
         inkscape:connector-curvature="0" /><path
         d="m 7321.45,9901.43 v 309.14"
         style="fill:none;stroke:#1c2948;stroke-width:30;stroke-linecap:round;stroke-linejoin:round;stroke-miterlimit:10;stroke-dasharray:none;stroke-opacity:1"
         id="path2606"
         inkscape:connector-curvature="0" /><path
         d="m 7011.51,10011.23 c 24.59,0.17 44.49,20.13 44.49,44.77 0,24.63 -19.9,44.6 -44.49,44.77 v -89.54"
         style="fill:#1c2948;fill-opacity:1;fill-rule:nonzero;stroke:none"
         id="path2608"
         inkscape:connector-curvature="0" /><path
         d="m 6995.96,10079.23 23.24,-23.23 -23.24,-23.24 -23.23,23.24 23.23,23.23"
         style="fill:#1c2948;fill-opacity:1;fill-rule:nonzero;stroke:none"
         id="path2610"
         inkscape:connector-curvature="0" /><path
         d="m 6436.43,10138.23 c 41.6,0 75.32,33.73 75.32,75.32 h -150.64 c 0,-41.59 33.72,-75.32 75.32,-75.32"
         style="fill:#b4de45;fill-opacity:1;fill-rule:nonzero;stroke:none"
         id="path2612"
         inkscape:connector-curvature="0" /><path
         d="m 6436.43,10200.51 -55.61,55.61 55.61,55.6 55.61,-55.6 -55.61,-55.61"
         style="fill:#ba9e5c;fill-opacity:1;fill-rule:nonzero;stroke:none"
         id="path2614"
         inkscape:connector-curvature="0" /><path
         d="m 6436.43,10263.23 -55.61,55.61 55.61,55.61 55.61,-55.61 -55.61,-55.61"
         style="fill:#e3534e;fill-opacity:1;fill-rule:nonzero;stroke:none"
         id="path2616"
         inkscape:connector-curvature="0" /><path
         d="m 6436.43,9982.98 c 41.6,0 75.32,-33.72 75.32,-75.31 h -150.64 c 0,41.59 33.72,75.31 75.32,75.31"
         style="fill:#b4de45;fill-opacity:1;fill-rule:nonzero;stroke:none"
         id="path2618"
         inkscape:connector-curvature="0" /><path
         d="m 6436.43,9920.71 -55.61,-55.61 55.61,-55.61 55.61,55.61 -55.61,55.61"
         style="fill:#ba9e5c;fill-opacity:1;fill-rule:nonzero;stroke:none"
         id="path2620"
         inkscape:connector-curvature="0" /><path
         d="m 6436.43,9857.99 -55.61,-55.61 55.61,-55.61 55.61,55.61 -55.61,55.61"
         style="fill:#e3534e;fill-opacity:1;fill-rule:nonzero;stroke:none"
         id="path2622"
         inkscape:connector-curvature="0" /><path
         d="m 6491.32,10115.5 c 29.41,-29.42 77.1,-29.42 106.51,0 l -106.51,106.51 c -29.42,-29.41 -29.42,-77.1 0,-106.51"
         style="fill:#b4de45;fill-opacity:1;fill-rule:nonzero;stroke:none"
         id="path2624"
         inkscape:connector-curvature="0" /><path
         d="m 6535.35,10159.53 v 78.64 h 78.64 v -78.64 h -78.64"
         style="fill:#ba9e5c;fill-opacity:1;fill-rule:nonzero;stroke:none"
         id="path2626"
         inkscape:connector-curvature="0" /><path
         d="m 6579.7,10203.88 v 78.65 h 78.65 v -78.65 h -78.65"
         style="fill:#e3534e;fill-opacity:1;fill-rule:nonzero;stroke:none"
         id="path2628"
         inkscape:connector-curvature="0" /><path
         d="m 6381.54,10005.72 c 29.41,-29.41 29.41,-77.1 0,-106.52 l -106.52,106.52 c 29.42,29.41 77.11,29.41 106.52,0"
         style="fill:#b4de45;fill-opacity:1;fill-rule:nonzero;stroke:none"
         id="path2630"
         inkscape:connector-curvature="0" /><path
         d="m 6337.51,9961.69 h -78.65 v -78.65 h 78.65 v 78.65"
         style="fill:#ba9e5c;fill-opacity:1;fill-rule:nonzero;stroke:none"
         id="path2632"
         inkscape:connector-curvature="0" /><path
         d="m 6293.15,9917.33 h -78.64 v -78.64 h 78.64 v 78.64"
         style="fill:#e3534e;fill-opacity:1;fill-rule:nonzero;stroke:none"
         id="path2634"
         inkscape:connector-curvature="0" /><path
         d="m 6514.05,10060.61 c 0,-41.6 33.73,-75.32 75.32,-75.32 v 150.64 c -41.59,0 -75.32,-33.72 -75.32,-75.32"
         style="fill:#b4de45;fill-opacity:1;fill-rule:nonzero;stroke:none"
         id="path2636"
         inkscape:connector-curvature="0" /><path
         d="m 6576.33,10060.61 55.6,55.61 55.61,-55.61 -55.61,-55.61 -55.6,55.61"
         style="fill:#ba9e5c;fill-opacity:1;fill-rule:nonzero;stroke:none"
         id="path2638"
         inkscape:connector-curvature="0" /><path
         d="m 6639.05,10060.61 55.61,55.61 55.61,-55.61 -55.61,-55.61 -55.61,55.61"
         style="fill:#e3534e;fill-opacity:1;fill-rule:nonzero;stroke:none"
         id="path2640"
         inkscape:connector-curvature="0" /><path
         d="m 6358.8,10060.61 c 0,-41.6 -33.72,-75.32 -75.32,-75.32 v 150.64 c 41.6,0 75.32,-33.72 75.32,-75.32"
         style="fill:#b4de45;fill-opacity:1;fill-rule:nonzero;stroke:none"
         id="path2642"
         inkscape:connector-curvature="0" /><path
         d="m 6296.53,10060.61 -55.61,55.61 -55.61,-55.61 55.61,-55.61 55.61,55.61"
         style="fill:#ba9e5c;fill-opacity:1;fill-rule:nonzero;stroke:none"
         id="path2644"
         inkscape:connector-curvature="0" /><path
         d="m 6233.81,10060.61 -55.61,55.61 -55.61,-55.61 55.61,-55.61 55.61,55.61"
         style="fill:#e3534e;fill-opacity:1;fill-rule:nonzero;stroke:none"
         id="path2646"
         inkscape:connector-curvature="0" /><path
         d="m 6491.32,10005.72 c -29.42,-29.41 -29.42,-77.1 0,-106.52 l 106.51,106.52 c -29.41,29.41 -77.1,29.41 -106.51,0"
         style="fill:#b4de45;fill-opacity:1;fill-rule:nonzero;stroke:none"
         id="path2648"
         inkscape:connector-curvature="0" /><path
         d="m 6535.35,9961.69 h 78.64 v -78.65 h -78.64 v 78.65"
         style="fill:#ba9e5c;fill-opacity:1;fill-rule:nonzero;stroke:none"
         id="path2650"
         inkscape:connector-curvature="0" /><path
         d="m 6579.7,9917.33 h 78.65 v -78.64 h -78.65 v 78.64"
         style="fill:#e3534e;fill-opacity:1;fill-rule:nonzero;stroke:none"
         id="path2652"
         inkscape:connector-curvature="0" /><path
         d="m 6381.54,10115.5 c -29.41,-29.42 -77.1,-29.42 -106.52,0 l 106.52,106.51 c 29.41,-29.41 29.41,-77.1 0,-106.51"
         style="fill:#b4de45;fill-opacity:1;fill-rule:nonzero;stroke:none"
         id="path2654"
         inkscape:connector-curvature="0" /><path
         d="m 6337.51,10159.53 v 78.64 h -78.65 v -78.64 h 78.65"
         style="fill:#ba9e5c;fill-opacity:1;fill-rule:nonzero;stroke:none"
         id="path2656"
         inkscape:connector-curvature="0" /><path
         d="m 6293.15,10203.88 v 78.65 h -78.64 v -78.65 h 78.64"
         style="fill:#e3534e;fill-opacity:1;fill-rule:nonzero;stroke:none"
         id="path2658"
         inkscape:connector-curvature="0" /><path
         d="m 6436.43,9962.32 -96.67,96.66 96.67,96.67 96.66,-96.67 -96.66,-96.66"
         style="fill:#1c2948;fill-opacity:1;fill-rule:nonzero;stroke:none"
         id="path2660"
         inkscape:connector-curvature="0" /><path
         d="m 3924.35,214.191 c -0.02,0.039 -0.02,0.098 -0.02,0.18 0,-0.082 0,-0.141 0.02,-0.18"
         style="fill:#aaa9b0;fill-opacity:1;fill-rule:nonzero;stroke:none"
         id="path2798"
         inkscape:connector-curvature="0" /><path
         d="m 3925.66,205.891 c 0.02,0 0.02,0 0.03,0 -0.5,2.371 -0.88,4.711 -1.19,7.039 0.31,-2.348 0.69,-4.692 1.16,-7.039"
         style="fill:#aaa9b0;fill-opacity:1;fill-rule:nonzero;stroke:none"
         id="path2800"
         inkscape:connector-curvature="0" /><path
         d="m 3934.25,181.832 c -0.06,0.098 -0.11,0.219 -0.17,0.328 0.06,-0.109 0.11,-0.23 0.17,-0.328"
         style="fill:#aaa9b0;fill-opacity:1;fill-rule:nonzero;stroke:none"
         id="path2802"
         inkscape:connector-curvature="0" /><path
         d="m 3933.42,183.43 c -0.22,0.449 -0.43,0.902 -0.65,1.351 0.22,-0.468 0.43,-0.902 0.65,-1.351"
         style="fill:#aaa9b0;fill-opacity:1;fill-rule:nonzero;stroke:none"
         id="path2804"
         inkscape:connector-curvature="0" /><path
         d="m 3928.07,196.641 c 1.27,-4.012 2.8,-7.891 4.57,-11.59 -1.8,3.769 -3.3,7.66 -4.53,11.59 -0.01,0 -0.03,0 -0.04,0"
         style="fill:#aaa9b0;fill-opacity:1;fill-rule:nonzero;stroke:none"
         id="path2806"
         inkscape:connector-curvature="0" /></g></g></svg>