<?xml version="1.0" encoding="UTF-8" standalone="no"?>
<!-- Created with Inkscape (http://www.inkscape.org/) -->

<svg
   xmlns:dc="http://purl.org/dc/elements/1.1/"
   xmlns:cc="http://creativecommons.org/ns#"
   xmlns:rdf="http://www.w3.org/1999/02/22-rdf-syntax-ns#"
   xmlns:svg="http://www.w3.org/2000/svg"
   xmlns="http://www.w3.org/2000/svg"
   xmlns:sodipodi="http://sodipodi.sourceforge.net/DTD/sodipodi-0.dtd"
   xmlns:inkscape="http://www.inkscape.org/namespaces/inkscape"
   width="602.07556mm"
   height="301.77026mm"
   viewBox="0 0 2133.3386 1069.2647"
   id="svg5365"
   version="1.1"
   inkscape:version="0.92.1 r"
   sodipodi:docname="front_mask.svg">
  <defs
     id="defs5367">
    <clipPath
       clipPathUnits="userSpaceOnUse"
       id="clipPath256">
      <path
         d="m 5262.04,3145.2 c 114.75,-107.54 241.73,-95.5 336.41,8.21 -108.13,102.75 -230.86,99.44 -336.41,-8.21 m -423.63,-274.21 c 145.42,-22.78 255.5,52.7 273.97,204.3 -150.55,21.76 -251.66,-54.9 -273.97,-204.3 m 897.84,158.95 c -26.91,7.84 -51.84,18.18 -77.77,22.13 -85.98,13.07 -153.87,-27.49 -192.45,-112.23 -20.6,-45.32 -40.82,-90.84 -62.3,-135.74 -2.91,-6.06 -12.92,-13.66 -18.46,-12.81 -114.65,17.32 -195.82,-31.07 -252.28,-127.6 -30,-51.3 -45.73,-107.76 -55.37,-166 -0.96,-5.83 -0.14,-11.91 -0.14,-16.62 39.61,38.05 78.26,78.04 120.02,114.47 42.29,36.92 89.47,66.64 144.58,74.96 -33.75,-114.95 -67.37,-229.53 -102.58,-349.44 -37.15,15.4 -78.88,29.69 -117.89,49.37 -108.11,54.5 -194.28,135.77 -268.95,229.68 -125.55,157.83 -209.97,337.65 -279.08,525.56 -12.95,35.18 -27.14,69.91 -40.78,104.85 -18.86,48.17 -13.05,68.06 31.13,93.47 111.14,63.98 221.2,130.04 334.65,189.58 106.07,55.67 222.95,80.28 340.4,99.32 92.25,14.96 184.95,27.2 277.47,40.59 5.39,0.78 10.86,1.1 16.32,1.53 42.48,3.21 59.84,-7.65 72.99,-48.63 18.32,-57.14 35.85,-114.51 53.01,-172.01 37.93,-127.1 65.1,-256.43 77.41,-388.67 0.51,-5.38 0.07,-10.82 0.07,-15.76"
         id="path254-36"
         inkscape:connector-curvature="0"
         style="clip-rule:evenodd" />
    </clipPath>
    <clipPath
       clipPathUnits="userSpaceOnUse"
       id="clipPath284">
      <path
         d="m 5552.87,2485.35 c 56.96,-136.93 173.13,-187.41 302.83,-147.67 -53.93,137.82 -175.22,186.47 -302.83,147.67 m 406.31,-199.77 c 57.73,-140.37 175.64,-188.92 306.47,-150 -54.78,137.25 -171.75,188.79 -306.47,150 m -446.78,-88.12 c -3,-89.48 3.52,-174.44 41.76,-253.81 50.98,-105.82 144.06,-149.6 258.63,-123.79 59.56,13.4 112.27,41.56 162.05,75.63 19.82,13.55 38.43,28.91 59.26,44.7 -54.28,-2.56 -104.59,-7.42 -154.82,-6.78 -69.51,0.91 -138.64,9.78 -195.04,55.42 -31.05,25.13 -60.11,53.86 -85.23,84.87 -30.74,37.92 -56.35,79.98 -86.61,123.76 m -163.75,-97.07 c -1.33,140.76 26.57,276.9 71.86,409.18 28.87,84.41 63.96,166.72 97.59,249.43 17.49,42.9 37.85,84.63 56.89,126.92 18.84,41.8 38.7,54.28 80.12,41.89 129.93,-38.83 260.45,-76.2 388.51,-120.55 127.45,-44.14 238.72,-119.65 347.46,-198.04 58.18,-41.93 115.7,-84.75 173.01,-127.81 36.37,-27.36 42.52,-50.67 20.45,-90.11 -61.29,-109.52 -120.29,-220.56 -187.04,-326.68 -84.11,-133.76 -187.06,-252.17 -315.52,-346.47 -84.73,-62.18 -177.38,-107.08 -281.24,-126.57 -56.11,-10.54 -112.46,-10.84 -169.12,-2.5 -70.28,10.34 -118.01,54.08 -159.28,106.45 -81.57,103.48 -115.66,224.16 -123.55,353.64 -1.05,17.01 -0.14,34.13 -0.14,51.22"
         id="path282-7"
         inkscape:connector-curvature="0"
         style="clip-rule:evenodd" />
    </clipPath>
  </defs>
  <sodipodi:namedview
     id="base"
     pagecolor="#ffffff"
     bordercolor="#666666"
     borderopacity="1.0"
     inkscape:pageopacity="0.0"
     inkscape:pageshadow="2"
     inkscape:zoom="0.175"
     inkscape:cx="419.24765"
     inkscape:cy="500.38216"
     inkscape:document-units="px"
     inkscape:current-layer="layer1"
     showgrid="false"
     fit-margin-top="0"
     fit-margin-left="0"
     fit-margin-right="0"
     fit-margin-bottom="0"
     inkscape:window-width="1366"
     inkscape:window-height="723"
     inkscape:window-x="0"
     inkscape:window-y="21"
     inkscape:window-maximized="1" />
  <metadata
     id="metadata5370">
    <rdf:RDF>
      <cc:Work
         rdf:about="">
        <dc:format>image/svg+xml</dc:format>
        <dc:type
           rdf:resource="http://purl.org/dc/dcmitype/StillImage" />
        <dc:title />
      </cc:Work>
    </rdf:RDF>
  </metadata>
  <g
     inkscape:label="Layer 1"
     inkscape:groupmode="layer"
     id="layer1"
     transform="translate(623.81216,-289.15843)">
    <path
       sodipodi:nodetypes="ccccc"
       inkscape:connector-curvature="0"
       id="path13094"
       d="m -623.80711,289.15839 2133.33351,0 0,1068.66671 -2133.33351,0 z"
       style="fill:#000000;fill-opacity:0.00392157;fill-rule:evenodd;stroke:none;stroke-width:0.75px;stroke-linecap:butt;stroke-linejoin:miter;stroke-opacity:1" />
    <path
       inkscape:connector-curvature="0"
       inkscape:label="#path152"
       style="fill:#000000;fill-opacity:0.00392157;fill-rule:nonzero;stroke:none"
       d="m 199.12534,1079.6818 c -12.46534,0 -22.66602,10.1993 -22.66602,22.666 l 0,61.5274 c -11.18812,3.0852 -18.66546,7.1191 -20.45312,11.5879 0.024,-0.06 0.0423,-0.12 0.0684,-0.1797 -0.66267,0.9906 -0.47954,3.0019 -0.49024,3.0019 l 0,38.0684 3.60938,0 0,55.1484 4.91797,0 0,5.2344 0,20.002 558.83007,0 0,-25.2364 4.918,0 0,-55.1484 3.6074,0 0,-38.0684 0.012,0 c 0,0 0,-0.3219 -0.012,-0.7383 0,-0.2907 -0.036,-0.5794 -0.084,-0.8671 0.011,0.066 0.033,0.1311 0.041,0.1972 -0.061,-0.6533 -0.1865,-1.3518 -0.4492,-1.6465 l -0.022,0 c 0.024,0.053 0.037,0.1056 0.059,0.1582 -1.8404,-4.4391 -9.2939,-8.4455 -20.4199,-11.5136 l 0,-61.5274 c 0,-12.4667 -10.2007,-22.666 -22.666,-22.666 l -488.8008,0 z m -43.17578,95.9277 c -0.10895,0.2934 -0.19641,0.5899 -0.25586,0.8868 0.0593,-0.2971 0.14669,-0.5933 0.25586,-0.8868 z m 575.19138,0.129 c 0.07,0.2009 0.1274,0.4028 0.1739,0.6054 -0.046,-0.2023 -0.1043,-0.4048 -0.1739,-0.6054 z m -575.46677,0.8691 c -0.0556,0.3108 -0.0897,0.6232 -0.0898,0.9375 0,-0.3149 0.0343,-0.6263 0.0898,-0.9375 z"
       id="bed" />
    <path
       inkscape:connector-curvature="0"
       inkscape:label="#path270"
       style="fill:#000000;fill-opacity:0.00392157;fill-rule:nonzero;stroke:none"
       d="m 537.28744,736.56853 -7.0703,0.88672 0.9707,7.74609 -16.9297,2.12109 -0.2422,-1.92773 -13.7851,1.72461 10.5566,84.26758 -26.8516,0 0,-9.10352 0.8731,0 0,-10.68555 -95.0215,0 0,10.68555 10.4199,0 0,9.10547 40.2344,0 0,11.16015 83.7266,0 0,-1.58007 1.4043,-0.17578 0.2422,1.92773 17.3183,-2.16797 0.25,1.99805 6.9492,-0.86914 0.055,0.43945 23.6309,-2.96094 0.4258,3.39258 7.0703,-0.88281 -8.3242,-66.45703 51.4023,67.33984 5.668,-4.32422 -51.4297,-67.37109 -5.6446,4.3125 -1.2949,-10.33008 -6.9687,0.87305 -1.9278,-15.39258 -23.6132,2.95898 -2.0938,-16.71093 z m 125.8047,8.57031 0,97.41211 5.7227,0 66.1269,0 0,-97.41211 -66.1269,0 -5.7227,0 z m -260,27.41211 c -0.5172,0 -0.9801,0.43357 -1.3066,1.11133 l -5.6524,0 0,21.31445 -14.3359,0 0,7.35742 30.1894,0 0,9.26172 95.0196,0 0,-9.26172 -22.6133,0 0,-7.35742 2.6992,0 6.9121,0 0,-15.34766 -6.9121,0 0,-5.96679 -4.9902,0 c -0.3261,-0.67776 -0.7883,-1.11133 -1.3047,-1.11133 -0.5179,0 -0.9819,0.43357 -1.3086,1.11133 l -21.5488,0 c -0.3265,-0.67776 -0.7883,-1.11133 -1.3047,-1.11133 -0.5172,0 -0.9804,0.43357 -1.3067,1.11133 l -24.666,0 c -0.3266,-0.67776 -0.7889,-1.11133 -1.3047,-1.11133 -0.5172,0 -0.9804,0.43348 -1.3066,1.11133 l -23.6543,0 c -0.3264,-0.67776 -0.7883,-1.11133 -1.3047,-1.11133 z m -173.26368,22.49219 0,22.02539 -18.4414,0 0,24.78906 126.60547,0 0,-24.66406 4.96484,0 0,-22.15039 -113.12891,0 z"
       id="textbooks" />
    <path
       inkscape:connector-curvature="0"
       inkscape:label="#path876"
       style="display:inline;fill:#000000;fill-opacity:0.00392157;fill-rule:nonzero;stroke:none;stroke-width:0.04666665"
       d="m -223.13833,796.86345 c -0.9804,0 -2.1209,0.2375 -3.26172,0.99804 -3.0422,2.02815 -6.08398,2.08399 -6.08399,2.08399 l -6.54687,0 0,9.80469 c -0.26292,-1.06932 -0.7108,-1.93651 -1.35352,-2.28907 l -3.85742,0 c -3.5133,1.19325 -3.5571,8.21299 0,9.40625 l 3.85742,0 c 0.64299,-0.3527 1.09065,-1.21911 1.35352,-2.28906 l 0,10.78711 c -0.26287,-1.06985 -0.71053,-1.93831 -1.35352,-2.29101 l -3.85742,0 c -3.5133,1.19325 -3.5571,8.213 0,9.40625 l 3.85742,0 c 0.64299,-0.35271 1.09065,-1.21922 1.35352,-2.28907 l 0,10.78711 c -0.26287,-1.06981 -0.71053,-1.93659 -1.35352,-2.28906 l -3.85742,0 c -3.5133,1.19247 -3.5571,8.21183 0,9.4043 l 3.85742,0 c 0.64299,-0.35248 1.09065,-1.21926 1.35352,-2.28907 l 0,10.93164 c 7.6619,2.70419 5.85937,10.92774 5.85937,10.92774 l -4.0625,187.44727 c -0.56195,-0.056 -0.89062,-0.062 -0.89062,-0.062 0,0 -22.08572,-2.7038 -35.60742,10.3672 -13.5209,13.0702 -8.1126,37.408 0,49.1269 8.1125,11.7181 4.5076,23.8886 -3.1543,29.2969 -7.6618,5.4084 -32.00003,31.9989 -28.39453,67.6055 3.6056,35.6059 33.3531,60.3949 78.875,62.6484 45.522,2.2542 84.28136,-13.0697 88.78906,-60.3945 0,0 6.76143,-33.802 -27.49219,-69.8594 0,0 -14.42442,-9.0149 -5.86132,-23.8887 8.5641,-14.873 10.81832,-26.1412 9.01562,-37.8593 -1.8028,-11.7189 -13.52148,-2.2539 -13.52148,-2.2539 0,0 -14.94328,17.1126 -30.50586,-2.8516 l -3.29688,-209.32227 c 0,0 -0.45096,-8.22355 7.21094,-10.92774 l 0,-10.64257 c 0.27044,0.93424 0.69159,1.67996 1.27539,2 l 3.85742,0 c 3.5571,-1.19247 3.5133,-8.21183 0,-9.4043 l -3.85742,0 c -0.5838,0.32003 -1.00495,1.06576 -1.27539,2 l 0,-10.20898 c 0.27044,0.93429 0.69159,1.67975 1.27539,2 l 3.85742,0 c 3.5571,-1.19325 3.5133,-8.213 0,-9.40625 l -3.85742,0 c -0.5838,0.32024 -1.00495,1.06766 -1.27539,2.00195 l 0,-10.20899 c 0.27044,0.93438 0.69159,1.67976 1.27539,2 l 3.85742,0 c 3.5571,-1.19326 3.5133,-8.213 0,-9.40625 l -3.85742,0 c -0.5837,0.32019 -1.00494,1.06588 -1.27539,2 l 0,-9.51562 c 0,0 -8.10645,0.78909 -10.81055,-1.74609 -2.7041,-2.53517 -7.4375,-0.67579 -7.4375,-0.67579 0,0 -1.18827,-0.66015 -2.82226,-0.66015 z M -446.3688,1062.2248 c -3.0781,0 -5.57227,1.5275 -5.57227,3.4101 l 0,48.6993 c 0,1.8826 2.49417,3.4101 5.57227,3.4101 l 11.58789,0 0.68555,3.1113 c 0.1605,0.7266 1.00909,1.293 1.90039,1.293 l 10.62304,0 c 0.8913,0 1.73784,-0.5664 1.89844,-1.293 l 0.6875,-3.1113 56.29492,0 0.6875,3.1113 c 0.1601,0.7266 1.00664,1.293 1.89844,1.293 l 10.625,0 c 0.8914,0 1.73794,-0.5664 1.89844,-1.293 l 0.68555,-3.1113 12.52929,0 c 3.0781,0 5.57422,-1.5275 5.57422,-3.4101 l 0,-48.6993 c 0,-1.8826 -2.49612,-3.4101 -5.57422,-3.4101 l -112.00195,0 z m -17.49609,59.9668 c -4.0381,0 -7.31055,2.003 -7.31055,4.4726 l 0,139.4551 c 0,2.4696 3.27245,4.4727 7.31055,4.4727 l 146.91015,0 c 4.0371,0 7.3086,-2.0031 7.3086,-4.4727 l 0,-139.4551 c 0,-2.4696 -3.2715,-4.4726 -7.3086,-4.4726 l -146.91015,0 z"
       id="guitar" />
    <path
       inkscape:connector-curvature="0"
       inkscape:label="#path12732"
       style="fill:#000000;fill-opacity:0.00392157;fill-rule:nonzero;stroke:none;stroke-width:1.33333325"
       d="m 1079.1273,401.15642 0,225.11133 299.4746,0 0,-225.11133 -299.4746,0 z m -1621.84766,99.17187 0,428.80078 205.91406,0 0,-428.80078 -205.91406,0 z m 1717.43156,242.60547 0,204.3418 204.6368,0 0,-204.3418 -204.6368,0 z"
       id="photoframe" />
    <path
       inkscape:connector-curvature="0"
       inkscape:label="#path5896"
       style="fill:#000000;fill-opacity:0.00392157;fill-rule:evenodd;stroke:none;stroke-width:0.13333333"
       d="m 1011.428,1090.1545 c -8.8694,0.03 -13.98886,0.8845 -17.37886,5.1875 -2.1495,2.7273 -4.2984,5.8713 -6.0195,9.4589 -3.125,0.2147 -6.2598,0.4083 -9.4043,0.5352 -1.6679,-1.1899 -3.2476,-2.2866 -4.3398,-3.0234 -4.7386,-3.1967 -7.2474,-2.5306 -18.9551,-2.2637 -11.7078,0.2669 -17.981,0.932 -21.7442,6.127 -3.3872,4.6751 -6.7686,10.4347 -8.123,17.4628 -0.3509,1.2078 -0.5726,2.0888 -0.6094,2.3516 0,0.036 -0.061,0.309 -0.1543,0.7402 -0.7065,3.2685 -3.6677,16.4058 -6.4531,29.4453 -1.3931,6.5194 -2.7433,13.0146 -3.7441,18.2422 -1.0009,5.2341 -1.6538,9.1756 -1.6563,10.6661 0,0.1447 0.01,0.2686 0.021,0.375 0.2938,2.1383 2.109,6.1525 3.8711,9.7617 0.8812,1.8004 1.7492,3.4901 2.4043,4.7715 0.3278,0.6412 0.6026,1.1805 0.7988,1.5781 0.098,0.1978 0.1754,0.3611 0.2305,0.4824 l 0.064,0.1484 0.016,0.045 0,0.012 c 0.023,0.1054 0.091,0.1687 0.1445,0.2051 0.029,0.019 0.064,0.022 0.094,0.035 0.3953,17.524 2.5973,43.4753 6.7715,54.2793 5.8387,15.1129 23.0959,23.8969 27.3946,25.8887 2.8211,6.4285 9.1757,10.1759 14.1503,11.5625 6.6892,1.8648 74.98576,2.6644 85.57816,-6.3926 10.5924,-9.0571 12.2636,-22.1111 12.2636,-29.5703 0,-7.4592 5.0171,-95.3719 0.5567,-118.8144 -3.4873,-18.3311 -11.6118,-27.8039 -22.5918,-32.4454 1.737,-0.07 3.1319,-0.1798 3.5937,-0.3789 2.2148,-0.9548 -9.8991,-10.2469 -14.3828,-13.5351 -4.4837,-3.2872 -6.9542,-2.7337 -18.3633,-2.9082 -1.426,-0.022 -2.77,-0.034 -4.0371,-0.029 z m -9.4824,6.5351 c 5.3631,0.1026 11.097,3.0755 16.5899,6.291 -9.2428,0.067 -19.19686,1.0197 -29.34566,1.7383 3.693,-6.0044 8.0793,-8.1187 12.75576,-8.0293 z m -47.33786,14.1153 c 3.5916,1.707 7.1502,3.7445 10.5293,5.5429 -2.3006,3.7742 -4.7851,8.9445 -7.4765,16.1778 -8.9199,23.9754 2.5095,94.569 2.2304,108.6875 -0.2657,13.447 -5.828,21.8275 -6.5996,32.2597 -23.0382,-9.507 -22.951,-44.7369 -21.834,-71.2929 9e-4,-1e-4 0.057,-0 0.057,-0 l 0.1367,-0.012 0.057,-0.125 c 7e-4,0 5.5729,-12.5146 6.5547,-15.0625 0.076,-0.2006 0.1436,-0.5449 0.2285,-1.0704 0.617,-3.9004 1.8302,-17.2889 3.7715,-31.4961 1.9386,-14.1997 4.6182,-29.2251 8.1192,-36.2773 1.523,-3.0733 2.9345,-5.4514 4.2265,-7.3281 z"
       id="bag" />
    <path
       inkscape:connector-curvature="0"
       inkscape:label="#path248-3"
       style="fill:#000000;fill-opacity:0.00392157;fill-rule:nonzero;stroke:none"
       d="m 1157.4808,1049.6134 0,25.3125 0,74.4473 c -6.2487,3.0351 -11.9113,7.0831 -16.7598,11.9356 -11.1987,11.1898 -18.1413,26.707 -18.1387,43.791 0,3.7064 0.3345,7.3378 0.961,10.8711 -6.8433,5.5007 -11.2266,13.9376 -11.2266,23.4004 0,0.093 0.01,0.1843 0.01,0.2773 l 0,0 c 0.1426,15.6707 12.292,28.4653 27.6973,29.6367 0.4367,1.8604 2.1125,3.1953 4.1269,3.1953 l 3.8086,0 c 2.3464,0 4.2461,-1.8047 4.2461,-4.1503 l 0,-57.9356 c 0,-2.3463 -1.8997,-4.3457 -4.2461,-4.3457 l -3.8086,0 c -2.0248,0 -3.7106,1.4923 -4.1367,3.4082 -2.2323,0.1702 -4.3977,0.577 -6.4668,1.209 -0.1971,-1.8279 -0.3043,-3.6833 -0.3047,-5.5664 0,-14.1734 5.7302,-26.9575 15.0157,-36.252 2.7785,-2.7761 5.8746,-5.2265 9.2207,-7.3086 l 0,61.211 0,23.2871 57.0566,0 0,22.293 c 0,2.3455 1.9017,4.1503 4.2481,4.1503 l 3.8066,0 c 2.3464,0 4.248,-1.8048 4.248,-4.1503 l 0,-22.293 0.7715,0 0,23.3047 c 13.5873,-0.6946 24.7795,-10.4293 27.7012,-23.3047 l 179.5918,0 0,-23.2871 0,-147.8243 0,-25.3125 -277.4238,0 z"
       id="musicbox" />
    <path
       style="fill:#000000;fill-opacity:0.00392157;fill-rule:evenodd;stroke:none;stroke-width:0.11232502"
       d="M 1141.5156 119.78125 C 1141.0028 119.77341 1140.45 119.79282 1139.8535 119.83789 C 1139.2391 119.88619 1138.6258 119.92219 1138.0215 120.00977 C 1127.628 121.5138 1117.2155 122.88993 1106.8535 124.57031 C 1093.6609 126.70898 1080.5335 129.47342 1068.6191 135.72656 C 1055.8759 142.41439 1043.5131 149.83298 1031.0293 157.01953 C 1026.0668 159.87371 1025.4159 162.10883 1027.5332 167.51953 C 1029.0664 171.44417 1030.6587 175.34528 1032.1133 179.29688 C 1039.8761 200.40385 1049.3585 220.60182 1063.4609 238.33008 C 1071.8482 248.87852 1081.5265 258.00719 1093.6699 264.12891 C 1098.0528 266.33947 1102.7392 267.94485 1106.9121 269.67578 C 1110.8671 256.20576 1114.6446 243.33558 1118.4355 230.42383 C 1112.2453 231.35837 1106.9455 234.69671 1102.1953 238.84375 C 1097.5046 242.93575 1093.1621 247.4272 1088.7129 251.70117 C 1088.7129 251.17212 1088.6207 250.48772 1088.7285 249.83398 C 1089.8113 243.29218 1091.5795 236.95173 1094.9492 231.18945 C 1101.2911 220.34672 1110.4091 214.91001 1123.2871 216.85547 C 1123.9094 216.95095 1125.0325 216.09671 1125.3594 215.41602 C 1127.7721 210.37374 1130.0444 205.26049 1132.3594 200.16992 C 1136.6917 190.6515 1144.3169 186.09637 1153.9746 187.56445 C 1156.8866 188.00806 1159.687 189.16826 1162.709 190.04883 C 1162.709 189.49394 1162.7604 188.8836 1162.7031 188.2793 C 1161.3204 173.42543 1158.2683 158.89648 1154.0078 144.62109 C 1152.0803 138.16241 1150.1105 131.71903 1148.0527 125.30078 C 1146.7603 121.27308 1145.1056 119.83612 1141.5156 119.78125 z M 1170.4141 139.28711 C 1165.2842 139.29351 1160.8266 140.35952 1160.7109 140.38086 C 1159.2406 140.72794 1158.3307 142.19959 1158.6777 143.66992 C 1159.0237 145.14026 1160.4965 146.05217 1161.9668 145.70508 L 1161.9688 145.70508 C 1162.1113 145.66689 1166.1828 144.75107 1170.4141 144.75781 C 1171.7384 144.75675 1173.0743 144.84744 1174.2852 145.05859 C 1176.1116 145.36861 1177.5985 145.97833 1178.4668 146.75 C 1178.9082 147.13865 1179.2259 147.55352 1179.4629 148.08594 C 1179.6977 148.61948 1179.8563 149.29261 1179.8574 150.22266 C 1179.866 151.95583 1179.2399 154.59222 1177.4629 158.14844 C 1175.6927 161.70577 1172.8063 166.16855 1168.4941 171.62305 C 1167.5585 172.80808 1167.7583 174.52805 1168.9434 175.46484 C 1170.1284 176.40051 1171.8484 176.1987 1172.7852 175.01367 C 1177.2568 169.35249 1180.3476 164.62066 1182.3594 160.58594 C 1184.3621 156.55123 1185.3191 153.1959 1185.3281 150.22266 C 1185.3345 148.11882 1184.8038 146.1974 1183.8086 144.64844 C 1183.0684 143.48475 1182.093 142.55115 1181.0293 141.83789 C 1179.4275 140.76631 1177.6354 140.15612 1175.8281 139.7832 C 1174.0174 139.41478 1172.1731 139.28823 1170.4141 139.28711 z M 1217.8301 151.59766 C 1216.3193 151.57184 1215.0747 152.77551 1215.0488 154.28516 C 1215.023 155.79593 1216.2256 157.04057 1217.7363 157.06641 C 1231.3153 157.29555 1243.7459 159.19088 1252.5938 161.84961 C 1257.0114 163.17055 1260.5369 164.70184 1262.7598 166.16992 C 1263.8718 166.89666 1264.6433 167.60531 1265.0566 168.15234 C 1265.2667 168.42529 1265.3891 168.65129 1265.4531 168.81641 C 1265.5171 168.9849 1265.5281 169.08817 1265.5293 169.17578 C 1265.5229 169.31507 1265.5103 169.48104 1265.2441 169.87305 C 1265.0116 170.20666 1264.5679 170.66612 1263.8535 171.17383 C 1262.6078 172.06793 1260.5607 173.08338 1257.6953 174.05273 C 1253.3933 175.51521 1247.2638 176.90194 1239.127 178.05664 C 1230.9879 179.21359 1220.8357 180.14789 1208.4316 180.75781 C 1200.4431 181.15544 1194.781 181.83233 1190.8496 182.87695 C 1188.8783 183.41162 1187.3224 184.01478 1186.0273 184.93359 C 1185.3848 185.3975 1184.7975 185.96271 1184.3516 186.68945 C 1183.9023 187.41058 1183.6358 188.30862 1183.6426 189.17578 C 1183.6415 189.96879 1183.8414 190.70462 1184.1289 191.34375 C 1184.7006 192.58494 1185.5598 193.54445 1186.5977 194.49023 C 1188.5499 196.24025 1191.257 197.93048 1194.6582 199.77148 C 1200.5979 202.97275 1208.6378 206.538 1217.7598 210.45703 C 1231.4365 216.32713 1247.525 222.97249 1262.252 230.11523 C 1269.6137 233.68605 1276.6343 237.3794 1282.8223 241.14453 C 1289.0091 244.9063 1294.363 248.74804 1298.3809 252.54688 C 1306.0706 259.80868 1311.2863 265.98549 1314.5156 271.0918 C 1316.1331 273.64382 1317.2516 275.92445 1317.957 277.92383 C 1318.6636 279.92434 1318.957 281.63558 1318.957 283.08008 C 1318.9474 285.07497 1318.4355 286.57027 1317.5312 287.88672 C 1316.8484 288.87069 1315.9106 289.75337 1314.7109 290.53516 C 1312.916 291.70896 1310.5331 292.62621 1307.7969 293.22266 C 1305.0629 293.82247 1301.9861 294.1105 1298.832 294.10938 C 1294.4109 294.11043 1289.8366 293.54666 1285.8086 292.57617 C 1280.7686 291.36643 1275.132 289.30114 1270.8008 287.54102 C 1268.6329 286.66151 1266.7879 285.85806 1265.4883 285.27734 C 1264.839 284.98642 1264.3239 284.75159 1263.9746 284.58984 C 1263.8005 284.51006 1263.6688 284.44782 1263.5801 284.40625 L 1263.4512 284.3457 C 1262.0876 283.69647 1260.4559 284.27509 1259.8066 285.63867 C 1259.1563 287.0023 1259.736 288.63397 1261.0996 289.2832 C 1261.1333 289.30006 1264.2669 290.79196 1268.7441 292.60938 C 1273.227 294.42678 1279.0377 296.57134 1284.5293 297.89453 C 1288.9987 298.96836 1293.9515 299.57701 1298.832 299.57812 C 1305.0223 299.56693 1311.0912 298.62667 1315.9414 296.13867 C 1318.3598 294.8885 1320.491 293.21305 1322.0254 291.00586 C 1323.5631 288.80541 1324.4348 286.0814 1324.4258 283.08008 C 1324.4258 280.89984 1323.9891 278.57608 1323.1152 276.10156 C 1321.8022 272.38922 1319.5094 268.32123 1316.0801 263.76758 C 1312.6497 259.21504 1308.0731 254.17871 1302.1367 248.57031 C 1294.6929 241.55225 1283.864 234.97569 1271.7441 228.73828 C 1253.5756 219.40182 1232.4979 210.90539 1216.0176 203.74805 C 1207.7864 200.17498 1200.6948 196.9273 1195.8008 194.15625 C 1193.3588 192.77914 1191.4649 191.50454 1190.3281 190.49023 C 1189.7884 190.0145 1189.4421 189.60868 1189.2656 189.34375 C 1189.5936 189.11124 1190.269 188.77437 1191.2676 188.45312 C 1192.7649 187.96565 1194.9723 187.50075 1197.8691 187.12109 C 1200.7694 186.73918 1204.3657 186.433 1208.6992 186.2207 C 1230.5296 185.14351 1245.5851 183.08632 1255.4102 180.45117 C 1260.3289 179.12237 1263.9434 177.67366 1266.5527 175.95508 C 1267.8557 175.09018 1268.9204 174.14586 1269.7168 173.02148 C 1270.5098 171.90835 1271.0067 170.55626 1271 169.17578 C 1271.0011 168.36255 1270.835 167.56493 1270.5508 166.83594 C 1270.0116 165.46333 1269.1042 164.32875 1268 163.31445 C 1266.0557 161.54982 1263.43 160.08286 1260.1895 158.73047 C 1255.3325 156.7176 1249.0788 155.02806 1241.8574 153.78125 C 1234.6394 152.5367 1226.4622 151.74592 1217.8301 151.59766 z M 1128.2285 167.7793 C 1134.6751 167.61769 1141.1596 170.41094 1147.2324 176.18164 C 1136.5975 187.83087 1122.3346 189.18212 1109.4453 177.10156 C 1115.3733 171.05623 1121.7819 167.9409 1128.2285 167.7793 z M 1086.5586 184.55078 C 1088.4924 184.51647 1090.5209 184.64955 1092.6348 184.95508 C 1090.5601 201.98355 1078.1937 210.46306 1061.8594 207.9043 C 1064.0521 193.22061 1073.0218 184.79096 1086.5586 184.55078 z M 1026.3613 186.58203 C 1026.0068 186.59137 1025.6459 186.67056 1025.3027 186.82617 C 1025.2308 186.86075 1013.1691 192.33332 1000.9863 200.13281 C 994.89049 204.0406 988.76321 208.51769 984.0332 213.30273 C 981.66989 215.70087 979.647 218.17707 978.16992 220.76953 C 976.69959 223.35638 975.75532 226.1009 975.75195 228.95508 C 975.74875 230.83203 976.17899 232.73195 977.07422 234.50781 C 978.41987 237.18115 980.73516 239.52898 983.97461 241.58789 C 987.22193 243.65018 991.42828 245.45938 996.80078 247.05664 C 1012.897 251.83494 1027.1927 253.79742 1037.3828 255.06445 C 1042.4678 255.6946 1046.5497 256.16103 1049.168 256.67773 C 1049.43 256.72765 1049.6029 256.77995 1049.834 256.83203 C 1048.8017 257.53197 1047.3206 258.40987 1045.3906 259.44336 C 1041.6581 261.44723 1036.2794 264.05213 1029.0996 267.42188 C 1021.9164 270.79387 1012.9269 274.93442 1001.9258 280.04297 C 994.18544 283.63962 988.89975 286.43709 985.41992 288.68359 C 983.67664 289.81358 982.38436 290.79391 981.40039 291.78125 C 980.90953 292.27997 980.48854 292.78247 980.14258 293.37891 C 979.80336 293.97086 979.51621 294.69661 979.51172 295.58398 C 979.50852 296.14673 979.65039 296.75177 979.91211 297.26172 C 980.13789 297.7099 980.4397 298.07964 980.75195 298.36719 C 981.30459 298.87152 981.87095 299.15099 982.41797 299.36328 C 983.24356 299.67443 984.07264 299.828 984.97461 299.93359 C 985.87545 300.03578 986.84352 300.077 987.88477 300.07812 C 990.48173 300.076 993.53996 299.82048 996.71875 299.44531 C 1006.2316 298.32094 1016.7885 296.10552 1016.8301 296.09766 C 1018.3083 295.78764 1019.2553 294.33953 1018.9453 292.86133 C 1018.6353 291.38313 1017.1872 290.43412 1015.709 290.74414 C 1015.7079 290.74414 1015.6418 290.75906 1015.5059 290.78711 C 1014.4837 290.99716 1009.7377 291.95878 1004.1484 292.86523 C 1001.3549 293.31791 998.35076 293.7577 995.50781 294.08008 C 992.66824 294.40357 989.98076 294.60854 987.88477 294.60742 C 987.38291 294.60742 986.98703 294.5775 986.56445 294.55469 C 987.78838 293.62375 989.6488 292.42596 992.27344 290.97461 C 995.26578 289.3167 999.20536 287.33689 1004.2285 285.00391 C 1022.5263 276.50764 1035.2614 270.68371 1043.5117 266.5625 C 1047.643 264.49685 1050.643 262.87062 1052.7559 261.46094 C 1053.8151 260.7488 1054.6562 260.10214 1055.3594 259.35742 C 1055.7098 258.98113 1056.032 258.57441 1056.3027 258.06445 C 1056.5689 257.56011 1056.7871 256.91849 1056.7871 256.18164 C 1056.7892 255.70313 1056.6892 255.2034 1056.5039 254.76758 C 1056.3264 254.34298 1056.0787 253.98233 1055.8203 253.69141 C 1055.3104 253.1264 1054.7735 252.79136 1054.2422 252.51953 C 1053.2436 252.02418 1052.1858 251.73477 1050.9199 251.45508 C 1048.7206 250.97882 1045.9092 250.60764 1042.4766 250.17969 C 1032.2112 248.90705 1016.4305 247.17714 998.35742 241.8125 C 991.64264 239.82547 987.19871 237.5277 984.61523 235.28906 C 983.31789 234.1703 982.48183 233.08388 981.96289 232.05273 C 981.4462 231.01598 981.22603 230.02554 981.22266 228.95508 C 981.21946 227.34434 981.77137 225.49759 982.92383 223.47461 C 984.92209 219.93413 988.72207 216.01781 993.31055 212.31445 C 1000.1905 206.73976 1008.7938 201.57323 1015.6445 197.8418 C 1019.0716 195.97383 1022.0629 194.46063 1024.1914 193.41602 C 1025.2562 192.8937 1026.104 192.48779 1026.6836 192.21484 C 1026.9734 192.07893 1027.1983 191.97477 1027.3477 191.90625 L 1027.5137 191.82812 L 1027.5645 191.80469 C 1028.9404 191.18016 1029.5503 189.56041 1028.9258 188.18555 C 1028.4574 187.15356 1027.4268 186.55397 1026.3613 186.58203 z M 1150.5254 201.00781 C 1147.836 201.03487 1146.1829 202.70517 1144.5957 206.22656 C 1142.457 210.97679 1140.1705 215.66562 1138.207 220.48438 C 1134.4284 229.77363 1130.487 239.01978 1127.2441 248.5 C 1122.1569 263.35836 1119.0233 278.65007 1119.1738 294.46094 C 1119.1738 296.38057 1119.0715 298.30419 1119.1895 300.21484 C 1120.0757 314.75868 1123.9041 328.31523 1133.0664 339.9375 C 1137.7021 345.81996 1143.0628 350.73309 1150.957 351.89453 C 1157.3214 352.83132 1163.6506 352.79719 1169.9531 351.61328 C 1181.6192 349.42407 1192.0276 344.38169 1201.5449 337.39844 C 1215.9742 326.80507 1227.5367 313.50311 1236.9844 298.47852 C 1244.4821 286.55859 1251.1097 274.08699 1257.9941 261.78516 C 1260.4731 257.35505 1259.7825 254.73728 1255.6973 251.66406 C 1249.2599 246.82735 1242.7987 242.01643 1236.2637 237.30664 C 1224.0495 228.50149 1211.5522 220.02053 1197.2363 215.0625 C 1182.852 210.08088 1168.1901 205.88418 1153.5957 201.52148 C 1152.4326 201.17328 1151.4218 200.99879 1150.5254 201.00781 z M 1151.3457 249.77344 C 1162.045 249.73322 1171.3944 255.71435 1176.127 267.80859 C 1161.5584 272.27239 1148.5094 266.60138 1142.1113 251.2207 C 1145.2468 250.26735 1148.3499 249.7847 1151.3457 249.77344 z M 1197.3438 272.25195 C 1208.2978 272.29656 1217.3686 278.46359 1222.1758 290.50781 C 1207.4803 294.8795 1194.2345 289.42722 1187.75 273.66016 C 1191.0602 272.70704 1194.2766 272.23946 1197.3438 272.25195 z M 1137.5664 283.55859 C 1140.9654 288.47618 1143.842 293.19962 1147.2949 297.45898 C 1150.1165 300.94218 1153.3795 304.16947 1156.8672 306.99219 C 1163.2023 312.11871 1170.9688 313.11461 1178.7754 313.2168 C 1184.4175 313.28868 1190.069 312.74263 1196.166 312.45508 C 1193.8263 314.2287 1191.736 315.95457 1189.5098 317.47656 C 1183.9182 321.30349 1177.9967 324.4675 1171.3066 325.97266 C 1158.4376 328.87176 1147.9822 323.95264 1142.2559 312.06641 C 1137.9606 303.15117 1137.2294 293.60944 1137.5664 283.55859 z "
       transform="matrix(0.93749995,0,0,0.93749995,-623.81216,289.15843)"
       id="drama"
       inkscape:label="#path248-5" />
    <g
       id="g252"
       clip-path="url(#clipPath256)"
       transform="matrix(0.1053047,0,0,-0.1053047,-137.82563,786.39676)" />
    <g
       id="g280"
       clip-path="url(#clipPath284)"
       transform="matrix(0.1053047,0,0,-0.1053047,-137.82563,786.39676)" />
  </g>
</svg>
