<?xml version="1.0" encoding="UTF-8" standalone="no"?>
<!-- Created with Inkscape (http://www.inkscape.org/) -->

<svg
   xmlns:dc="http://purl.org/dc/elements/1.1/"
   xmlns:cc="http://creativecommons.org/ns#"
   xmlns:rdf="http://www.w3.org/1999/02/22-rdf-syntax-ns#"
   xmlns:svg="http://www.w3.org/2000/svg"
   xmlns="http://www.w3.org/2000/svg"
   xmlns:sodipodi="http://sodipodi.sourceforge.net/DTD/sodipodi-0.dtd"
   xmlns:inkscape="http://www.inkscape.org/namespaces/inkscape"
   width="603.6319mm"
   height="301.31927mm"
   viewBox="0 0 2138.8532 1067.6667"
   id="svg2"
   version="1.1"
   inkscape:version="0.92.1 r"
   sodipodi:docname="left_mask.svg">
  <defs
     id="defs4" />
  <sodipodi:namedview
     id="base"
     pagecolor="#ffffff"
     bordercolor="#666666"
     borderopacity="1.0"
     inkscape:pageopacity="0.0"
     inkscape:pageshadow="2"
     inkscape:zoom="0.7"
     inkscape:cx="701.34954"
     inkscape:cy="178.81472"
     inkscape:document-units="px"
     inkscape:current-layer="layer1"
     showgrid="false"
     fit-margin-top="0"
     fit-margin-left="0"
     fit-margin-right="0"
     fit-margin-bottom="0"
     inkscape:window-width="1366"
     inkscape:window-height="723"
     inkscape:window-x="0"
     inkscape:window-y="21"
     inkscape:window-maximized="1" />
  <metadata
     id="metadata7">
    <rdf:RDF>
      <cc:Work
         rdf:about="">
        <dc:format>image/svg+xml</dc:format>
        <dc:type
           rdf:resource="http://purl.org/dc/dcmitype/StillImage" />
        <dc:title />
      </cc:Work>
    </rdf:RDF>
  </metadata>
  <g
     inkscape:label="Layer 1"
     inkscape:groupmode="layer"
     id="layer1"
     transform="translate(435.05084,-195.28004)">
    <path
       inkscape:connector-curvature="0"
       id="path10024"
       d="m -434.55084,195.78009 2137.85324,0 0,1066.66671 -2137.85324,0 z"
       style="fill:#000000;fill-opacity:0.00392157;fill-rule:evenodd;stroke:#000000;stroke-width:1px;stroke-linecap:butt;stroke-linejoin:miter;stroke-opacity:1" />
    <path
       style="fill:#000000;fill-opacity:0.00392157;fill-rule:nonzero;stroke:none"
       d="m 1362.5898,82.359375 c -40.16,0 -72.7148,32.554845 -72.7148,72.714845 0,40.16 32.5548,72.71484 72.7148,72.71484 40.1574,0 72.7149,-32.55484 72.7149,-72.71484 0,-40.16 -32.5575,-72.714845 -72.7149,-72.714845 z"
       transform="translate(-435.05084,195.28004)"
       id="clock"
       inkscape:connector-curvature="0" />
    <path
       style="fill:#000000;fill-opacity:0.00392157;fill-rule:nonzero;stroke:none"
       d="m 1607.7188,373.21289 c -24.752,-0.084 -40.3564,14.66986 -46.7071,28.50586 -0.4505,0.98039 -0.5079,2.03133 -0.2695,3.00391 -0,0.008 -0.01,0.0157 -0.012,0.0234 0.038,0.1509 0.084,0.29911 0.1367,0.44532 0.012,0.0323 0.025,0.0636 0.037,0.0957 0.084,0.21833 0.1884,0.42916 0.3047,0.63281 0.031,0.0541 0.059,0.1092 0.092,0.16211 0.093,0.14889 0.1944,0.29359 0.3047,0.43164 -0.9569,3.62888 -4.3875,19.40558 1.541,40.90821 -0.5127,1.01883 -0.6366,2.23367 -0.252,3.40234 l 4.1426,12.54297 c 0.7693,2.33734 3.2916,3.60731 5.6289,2.83398 l 0.6973,-0.23047 c 1.3153,3.83408 5.4708,5.90943 9.3301,4.63672 l 3.4589,-1.14453 c 1.2323,2.11332 3.8141,3.15215 6.2286,2.35352 l 1.1718,-0.38672 c 2.7746,-0.916 4.2826,-3.90894 3.3653,-6.6836 l -10.8418,-32.82421 c -0.9174,-2.77468 -3.907,-4.28186 -6.6817,-3.36719 l -1.1718,0.38867 c -2.415,0.79839 -3.8673,3.16831 -3.5997,5.59961 l -3.4609,1.14258 c -3.8593,1.27276 -5.9635,5.41602 -4.7344,9.27929 l -0.6972,0.23047 c -10e-5,-1.5e-4 -0,1.6e-4 -0,0 -4.7634,-18.50681 -2.3643,-32.54791 -1.3437,-37.03711 0.2619,0.0466 0.5256,0.077 0.7871,0.0781 1.748,0.007 3.418,-0.98964 4.1953,-2.68164 5.1574,-11.23333 17.931,-23.21386 38.3203,-23.14453 22.7027,0.0787 34.4248,15.60472 38.4102,22.27539 0.7466,1.24948 1.9952,1.99618 3.3339,2.17773 0.137,0.465 4.66,16.39754 -1.2246,38.61328 0,0 -0,0 -0,0 l -0.6992,-0.23633 c 1.2567,-3.8537 -0.8199,-8.00957 -4.668,-9.30859 l -3.4551,-1.16797 c 0.2846,-2.42989 -1.1508,-4.80936 -3.5605,-5.62305 l -1.17,-0.39648 c -2.768,-0.93466 -5.7703,0.55097 -6.705,3.32031 l -11.0645,32.75 c -0.9333,2.76933 0.5491,5.77041 3.3184,6.70508 l 1.1679,0.39649 c 2.4122,0.81372 4.9994,-0.20762 6.2461,-2.3125 l 3.4532,1.16601 c 3.8491,1.30025 8.018,-0.74403 9.3593,-4.56836 l 0.6953,0.23438 c 2.336,0.788 4.8611,-0.46293 5.6504,-2.79493 L 1651,451.125 c 0.3948,-1.16907 0.278,-2.38668 -0.2305,-3.41016 6.5222,-23.03759 2.2173,-39.55082 1.6719,-41.46875 0.2201,-0.13499 0.4254,-0.28653 0.6113,-0.45312 1.6536,-1.43208 2.101,-3.88233 0.9395,-5.82617 -10.12,-16.936 -26.9842,-26.68861 -46.2734,-26.75391 z"
       transform="translate(-435.05084,195.28004)"
       id="headphones"
       inkscape:connector-curvature="0" />
    <path
       style="fill:#000000;fill-opacity:0.00392157;fill-rule:nonzero;stroke:none"
       d="m 839.92578,52.34375 0,618.37305 376.97652,0 0,-618.37305 -376.97652,0 z"
       transform="translate(-435.05084,195.28004)"
       id="window"
       inkscape:connector-curvature="0" />
    <path
       style="fill:#000000;fill-opacity:0.00392157;fill-rule:nonzero;stroke:none"
       d="m 1196.9336,505.69727 c -4.2587,0 -7.6914,3.44474 -7.6914,7.6914 l 0,186.94727 0,22.08203 c 0,4.24934 3.4327,7.68945 7.6914,7.68945 l 293.6543,0 c 4.244,0 7.6934,-3.44011 7.6933,-7.68945 l 0,-22.08203 0,-186.94727 c 0,-4.24666 -3.4493,-7.6914 -7.6933,-7.6914 l -293.6543,0 z"
       transform="translate(-435.05084,195.28004)"
       id="computer"
       inkscape:connector-curvature="0" />
    <path
       style="fill:#000000;fill-opacity:0.00392157;fill-rule:nonzero;stroke:none"
       d="m 940.39844,578.65039 c -2.244,1.83866 -4.43463,3.80225 -6.5293,5.90625 -34.0372,34.03466 -34.03534,89.221 0.006,123.26367 14.7837,14.78312 33.55551,23.1416 52.85156,25.08399 l 0,18.01562 -21.17187,0 c -6.736,0 -12.21142,5.32747 -12.46875,11.99414 l 85.69136,0 c -0.2653,-6.66667 -5.7348,-11.99414 -12.4668,-11.99414 l -22.0195,0 0,-18.01562 c 19.2949,-1.94319 38.0666,-10.30195 52.8516,-25.08399 0.3641,-0.36392 0.718,-0.73279 1.0742,-1.10156 l 0.5664,0.56836 c -0.055,0.34751 -0.09,0.70148 -0.09,1.06445 0,3.728 3.0173,6.75586 6.7519,6.75586 3.7334,0 6.7617,-3.02786 6.7617,-6.75586 0,-3.73467 -3.0283,-6.76367 -6.7617,-6.76367 -0.5663,0 -1.1133,0.0778 -1.6387,0.20899 l -15.8808,-15.88477 c 19.6625,-25.65557 17.7861,-62.6304 -5.6875,-86.10156 -25.532,-25.53334 -67.08182,-25.53325 -92.61916,-0.004 -25.53133,25.53999 -25.53124,67.09619 -0.004,92.63086 25.54134,25.54 67.08567,25.52152 92.62307,-0.008 0.2843,-0.28432 0.5482,-0.5809 0.8262,-0.86914 l 7.5058,7.50976 c -0.355,0.3698 -0.7097,0.73971 -1.0742,1.10352 -29.8133,29.82267 -78.15923,29.82276 -107.97657,-0.004 -29.8236,-29.81066 -29.8236,-78.16004 0,-107.9707 2.096,-2.11067 4.30551,-4.04152 6.57617,-5.85352 l -7.69726,-7.69531 z"
       transform="translate(-435.05084,195.28004)"
       id="globe"
       inkscape:connector-curvature="0" />
    <path
       style="fill:#000000;fill-opacity:0.00392157;fill-rule:nonzero;stroke:none"
       d="m 1683.7148,807.41406 c -1.8813,0 -3.4101,1.52616 -3.4101,3.41016 l 0,4.76758 c -4.9461,0.17425 -9.8813,0.77114 -14.7461,1.80664 -2.1931,0.46679 -4.3718,1.02229 -6.5313,1.66406 -0.7199,0.21398 -1.4388,0.43648 -2.1543,0.66992 -2.8613,0.93362 -5.6857,2.02479 -8.4589,3.26953 -0.1795,0.0807 -0.3415,0.18296 -0.4883,0.30469 -0.1461,0.12112 -0.2762,0.26067 -0.3887,0.41602 -3e-4,3.9e-4 3e-4,0.002 0,0.002 -0.1124,0.15538 -0.2094,0.32657 -0.2871,0.50977 -2e-4,5.3e-4 2e-4,0.001 0,0.002 -0.078,0.18324 -0.1379,0.37737 -0.1797,0.58203 -10e-5,6.3e-4 10e-5,0.001 0,0.002 -0.1669,0.82077 -0.042,1.7886 0.4141,2.69727 0.063,0.1387 0.1312,0.27462 0.1992,0.41992 0.4967,0.99626 1.247,1.72572 2.0352,2.09961 l 0,4.52344 c -1.8746,0.94089 -3.1747,2.84759 -3.2481,5.06445 l -67.2461,0 c -3.0402,0 -5.6396,1.84816 -6.748,4.48047 -0.371,0.87526 -0.5748,1.8376 -0.5723,2.8457 l 0,4.46094 0,45.13672 0,6.09375 0,73.69726 0,5.59571 c 0,4.0427 3.2696,7.32226 7.3203,7.32226 l 208.1758,0 c 3.5338,0 6.4852,-2.51149 7.168,-5.84765 0.097,-0.4766 0.1504,-0.96928 0.1504,-1.47461 l 0,-5.59571 0,-73.69726 0,-6.09375 0,-45.13672 0,-4.46094 c 0,-0.36197 -0.037,-0.71634 -0.088,-1.06445 -0.02,-0.13518 -0.034,-0.27162 -0.061,-0.4043 -5e-4,-0.003 -0,-0.005 -0,-0.008 -0.6828,-3.33847 -3.6342,-5.84961 -7.168,-5.84961 l -67.25,0 c -0.073,-2.2138 -1.3709,-4.11827 -3.2422,-5.06055 l 0,-4.5332 c 0.7833,-0.37545 1.5307,-1.10183 2.0273,-2.09375 0.065,-0.1453 0.1323,-0.28122 0.1993,-0.41992 0.2273,-0.45468 0.372,-0.9245 0.4394,-1.38281 0.2022,-1.37495 -0.2951,-2.64982 -1.3691,-3.13282 -0.6939,-0.3115 -1.3899,-0.61423 -2.0899,-0.90625 -0.6991,-0.29156 -1.4006,-0.57356 -2.1054,-0.8457 -6e-4,-2.2e-4 -0,2.2e-4 -0,0 -1.4109,-0.54489 -2.8322,-1.05057 -4.2637,-1.51758 -2.1467,-0.70031 -4.3143,-1.31265 -6.498,-1.83789 -0.7285,-0.1752 -1.4577,-0.34038 -2.1895,-0.49609 -0.7299,-0.15536 -1.4604,-0.30153 -2.1933,-0.4375 -0,-2.4e-4 -0,2.3e-4 -0,0 -0.7323,-0.13582 -1.4664,-0.26244 -2.2012,-0.37891 -0,-3e-4 -0,3e-4 -0.01,0 -0.7354,-0.11652 -1.4714,-0.22513 -2.2089,-0.32226 -0,-1.7e-4 -0,1.6e-4 -0,0 -0.7376,-0.0971 -1.4756,-0.18401 -2.2149,-0.26172 -0,-1.4e-4 -0,1.3e-4 -0,0 -0.7393,-0.0777 -1.48,-0.14679 -2.2207,-0.20508 -0,-10e-5 -0,10e-5 -0,0 -0.74,-0.0582 -1.4817,-0.10568 -2.2227,-0.14453 -0,-1e-4 -0,10e-5 -0.01,0 -0.2142,-0.0112 -0.4283,-0.0158 -0.6426,-0.0254 l 0,-4.79883 c 0,-1.884 -1.5275,-3.41016 -3.4102,-3.41016 z m -3.4101,16.01563 0,4.70117 c 0,1.884 1.5288,3.41211 3.4101,3.41211 1.8827,0 3.4102,-1.52811 3.4102,-3.41211 l 0,-4.66992 c 8.3293,0.41145 16.6063,2.17363 24.498,5.28125 l 0,5.81836 c -1.8739,0.94118 -3.1709,2.8482 -3.2441,5.06445 l -39.3008,0 -10.8301,0 c -0.073,-2.21532 -1.372,-4.12091 -3.248,-5.0625 l 0,-5.82031 c 8.1455,-3.20804 16.7029,-4.97805 25.3047,-5.3125 z"
       transform="translate(-435.05084,195.28004)"
       id="officebag"
       inkscape:connector-curvature="0" />
    <path
       style="fill:#000000;fill-opacity:0.00392157;fill-rule:nonzero;stroke:none"
       d="m 876.82227,833.53711 -22.32032,7.61914 17.5625,51.45703 -16.13281,0 3.92578,21.76563 -0.002,0 1.12695,6.24218 26.45117,146.67581 79.22657,0 25.20312,-139.7637 2.375,-13.15429 -0.004,0 3.92578,-21.76563 -16.23438,0 -28.29297,-28.29297 -10.41015,10.41211 -17.92383,-17.92383 -30.22071,30.22071 -18.25585,-53.49219 z"
       transform="translate(-435.05084,195.28004)"
       id="dustbin"
       inkscape:connector-curvature="0" />
    <path
       style="fill:#000000;fill-opacity:0.00392157;fill-rule:nonzero;stroke:none"
       d="m 1559.7441,524.37695 0,102.50196 102.502,0 0,-102.50196 -102.502,0 z"
       transform="translate(-435.05084,195.28004)"
       id="certificate"
       inkscape:connector-curvature="0" />
    <path
       style="fill:#000000;fill-opacity:0.00392157;fill-rule:nonzero;stroke:none"
       d="m 1268.6172,689.10742 -45.2051,8.43164 8.4297,45.20313 45.2051,-8.42969 -8.4297,-45.20508 z m -98.1602,0.27735 -7.7558,45.32617 45.3242,7.7539 7.7558,-45.32422 -45.3242,-7.75585 z"
       transform="translate(-435.05084,195.28004)"
       id="notes"
       inkscape:connector-curvature="0" />
    <path
       style="fill:#000000;fill-opacity:0.00392157;fill-rule:nonzero;stroke:none;stroke-width:0.1203333"
       d="m 1909.2793,206.51367 c -5.3162,0 -9.627,4.31063 -9.627,9.62695 l 0,3.98438 -23.3574,0 c -6.7435,0 -12.209,5.46548 -12.209,12.20898 l 0,143.94532 0,0.002 0,0 31.7715,31.77148 0,0.002 0,0 4.8125,0 0,4.8125 197.4297,0 0,-151.4043 -4.8144,0 0,-29.12891 c 0,-6.7435 -5.4667,-12.20898 -12.209,-12.20898 l -23.3555,0 0,-3.98438 c 0,-5.31632 -4.3106,-9.62695 -9.6269,-9.62695 -5.3164,0 -9.627,4.31063 -9.627,9.62695 l 0,3.98438 -119.5664,0 0,-3.98438 c 0,-5.31632 -4.3086,-9.62695 -9.625,-9.62695 z"
       transform="translate(-435.05084,195.28004)"
       id="calendar"
       inkscape:connector-curvature="0" />
    <path
       style="fill:#000000;fill-opacity:0.00392157;fill-rule:nonzero;stroke:none;stroke-width:0.90249997"
       d="m 733.62305,176.81836 0,0.002 0,12.69141 0,42.65234 -25.875,0 0,-0.11718 0,-26.80665 -17.61328,0 -17.61719,0 0,4.29883 0,4.0625 0,18.44532 0,119.20312 0,18.44531 0,12.71289 17.61719,0 17.61328,0 26.48242,0 13.00391,0 13.61328,0 0,-12.6914 0,-180.20508 0,-12.69141 0,-0.002 -27.22461,0 z m -61.10547,32.7207 -34.37696,-7.71289 -38.78906,172.86914 34.37696,7.71289 38.78906,-172.86914 z m -176.24805,-22.74218 0,49.09374 0,146.51758 35.23047,0 0,-195.61132 -35.23047,0 z m 0,49.09374 -22.69922,-5.09374 -32.87695,146.51757 22.69922,5.09375 32.87695,-146.51758 z m -392.84375,-30.65039 0,12.9043 0,113.54102 0,12.90429 0,5.72266 0,12.90234 0,6.39649 0,12.79687 0,0.10547 35.23047,0 0,-0.10547 26.91992,0 0,-150.24414 -26.91992,0 0,-14.01953 0,-12.9043 -17.61523,0 -17.61524,0 z m 438.90234,9.60938 0,0.12891 0,15.81836 0,119.71679 0,31.89453 23.69922,0 23.69922,0 0,-167.42968 0,-0.12891 -47.39844,0 z m -332.59179,117.15234 0,11.63672 0,13.75 17.6914,0 0,12.32813 0,12.6914 18.47657,0 0.002,0 158.68555,0 0,-25.38476 -18.47852,0 -15.06055,0 0,-13.38477 0,-11.63672 -161.3164,0 z m -47.42383,192.50586 0,40.17774 0,124.41211 -27.91602,0 27.91602,-124.41211 -22.50781,-5.05078 -28.16211,125.5039 17.64453,3.95899 -42.767579,0 c -8.03231,0 -14.541708,6.51114 -14.542969,14.54101 l 0,25.34375 c 0.001,8.0324 6.510659,14.54164 14.542969,14.54297 l 4.345703,0 0,15.9707 13.605466,12.4043 13.61133,-12.4043 0,-15.9707 150.15625,0 0,-1.89844 0,-0.85547 0,-1.04101 -2.07812,0 c -3.6061,-2.22581 -6.01758,-6.19944 -6.01758,-10.74805 l 0,-25.34375 c 0,-4.54991 2.41428,-8.52321 6.02344,-10.74805 l 2.07226,0 0,-1.03906 0,-0.85742 0,-1.89648 -47.51953,0 0,-139.41211 -25.45898,0 0,-25.17774 -32.94727,0 z m 446.74609,61.25391 0,2.40625 0,1.16601 c 6.73259,3.49934 11.33789,10.52378 11.33789,18.63672 0,8.1116 -4.6053,15.13437 -11.33789,18.63477 l 0,1.16601 0,1.20313 0,1.10351 -15.05859,0 0,1.92774 0,0.7207 c 4.788,2.48986 8.0625,7.48391 8.0625,13.25391 0,5.7688 -3.2745,10.76101 -8.0625,13.25195 l 0,0.71875 0,0.96485 0,0.56445 -13.15234,0 c -8.91543,0 -16.1395,7.22711 -16.14063,16.14258 0,8.9132 7.2252,16.13942 16.14063,16.14062 l 7.08789,0 0,18.45899 8.33593,-6.55664 0.002,0 6.28711,4.94726 c 0.85617,2.41739 1.33007,5.01627 1.33007,7.72852 10e-6,8.96106 -5.08879,16.71922 -12.52539,20.58789 l 0,1.11719 0,1.49804 0,1.5 127.64844,0 0,14.11133 12.94336,-10.18359 0,0.004 0.004,-0.008 12.94922,10.1875 0,-11.57422 0,-2.53711 11.01172,0 c 13.64454,-0.001 24.6999,-11.06099 24.70117,-24.70312 -0.001,-13.64227 -11.05663,-24.69985 -24.70117,-24.70118 l -7.69727,0 0,-1.08203 0,-1.20312 0,-0.48047 c -4.78813,-2.49094 -8.0625,-7.48315 -8.0625,-13.25195 0,-5.76987 3.27437,-10.76418 8.0625,-13.25391 l 0,-1.68555 0,-1.20312 -3.72656,0 c 7.09545,-1.59663 12.39843,-7.92284 12.39843,-15.5 0,-8.78307 -7.11733,-15.90235 -15.90039,-15.90235 l -11.71093,0 c 11.29738,-1.04241 20.14138,-10.53993 20.14257,-22.10742 -10e-4,-12.26574 -9.94221,-22.20778 -22.20898,-22.20898 l -118.16016,0 z"
       transform="translate(-435.05084,195.28004)"
       id="novels"
       inkscape:connector-curvature="0" />
    <path
       style="fill:#000000;fill-opacity:0.00392157;fill-rule:nonzero;stroke:none;stroke-width:0.90249997"
       d="m 348.12891,517.55469 0,8.61523 -17.9043,-2.88672 0,10.33985 -11.62305,-0.54688 0,4.81445 -9.46289,0 0,172.96094 73.65235,0 16.61132,0 c 0.001,0.001 0.003,0.002 0.004,0.004 l -0.004,0 c 0.004,0.005 0.01,0.0103 0.0137,0.0156 0.10708,0.13841 0.2347,0.27283 0.35937,0.40821 0.0945,0.10285 0.18859,0.20563 0.29297,0.30664 0.13259,0.12806 0.27379,0.25397 0.42187,0.3789 0.12293,0.10395 0.25339,0.20692 0.38672,0.3086 0.15354,0.11681 0.30572,0.23203 0.47266,0.3457 0.19552,0.13345 0.40774,0.26367 0.62109,0.39258 0.19377,0.11677 0.38972,0.23287 0.59766,0.3457 0.28287,0.15392 0.57468,0.30497 0.88281,0.45117 0.14816,0.0701 0.30521,0.13683 0.45899,0.20508 0.28031,0.12476 0.56682,0.2469 0.86523,0.36524 0.16257,0.0643 0.32641,0.12711 0.49414,0.18945 0.34707,0.12929 0.70582,0.25451 1.07422,0.375 0.12384,0.0404 0.24298,0.0817 0.36914,0.12109 0.52071,0.16294 1.05883,0.31822 1.61719,0.46289 0.54946,0.14237 1.12019,0.27296 1.70312,0.39649 0.12362,0.0261 0.24997,0.049 0.375,0.0742 0.50795,0.10284 1.02636,0.19921 1.55664,0.28711 0.0888,0.0147 0.17628,0.0307 0.26563,0.0449 0.63384,0.10131 1.27943,0.19254 1.94141,0.27148 1.37888,0.16443 2.81706,0.27676 4.29687,0.33594 0.0487,0.002 0.0977,0.004 0.14648,0.006 0.33621,0.0126 0.66933,0.0283 1.00977,0.0352 l 0.006,0 c 0.0181,0 0.0366,0.002 0.0547,0.002 l 0.004,0 c 0.0542,0.002 0.10595,0.002 0.16016,0.002 l 0.0156,0 0.041,0 0.0234,0 c 0.0132,10e-4 0.0277,0.002 0.041,0.002 l 0.0254,0 0.0371,0 0.0312,0 0.0312,0 c 0.0181,9.9e-4 0.0359,0 0.0527,0 l 0.041,0 0.0332,0 0.0332,0 0.0352,0 0.0273,0 0.041,0 c 0.01,9.9e-4 0.0185,0.002 0.0273,0.002 l 0.0469,0 0.0176,0 0.0645,0 0.0254,0 0.043,0 0.0254,0 0.041,0 0.0254,0 0.0469,0 0.0215,0 0.0664,0 -0.002,0.004 0.0762,0 0.0215,0 0.0547,0 0.0254,0 0.0508,0 0.0234,0 0.0547,0 0.0215,0 0.0586,0 0.0137,0 c 0.0228,0 0.0447,-9.5e-4 0.0664,-0.002 l 0.008,0 c 0.44055,-0.003 0.86894,-0.0239 1.30274,-0.0371 0.21734,-0.007 0.43679,-0.009 0.65234,-0.0176 0.50712,-0.0211 1.00381,-0.0539 1.5,-0.0879 0.28166,-0.0192 0.5639,-0.0374 0.8418,-0.0605 0.43433,-0.0365 0.85882,-0.0809 1.2832,-0.12696 0.30406,-0.0327 0.60761,-0.0641 0.90625,-0.10156 0.39389,-0.0498 0.78026,-0.10426 1.16406,-0.16211 0.34816,-0.0521 0.69187,-0.10747 1.03125,-0.16601 0.29752,-0.0516 0.59049,-0.1057 0.88086,-0.16211 0.4121,-0.0796 0.81595,-0.16304 1.21289,-0.25196 0.21782,-0.049 0.43348,-0.0986 0.64649,-0.15039 0.45038,-0.10889 0.8866,-0.22512 1.31445,-0.3457 0.15584,-0.0441 0.31214,-0.0872 0.46485,-0.13281 0.47814,-0.14222 0.93684,-0.29289 1.38281,-0.44922 0.0856,-0.0301 0.17347,-0.0593 0.25781,-0.0898 0.49311,-0.17832 0.96308,-0.36582 1.41211,-0.56054 0.0272,-0.0118 0.0589,-0.0213 0.0859,-0.0332 l 0,-0.002 c 2.08906,-0.91633 3.67718,-2.00158 4.5957,-3.19922 l 90.26172,0 0,-172.96094 -9.46094,0 0,-4.81445 -11.62695,0.54688 0,-10.33985 -17.9043,2.88672 0,-8.61523 -72.67773,20.33593 -72.68164,-20.33593 z"
       transform="translate(-435.05084,195.28004)"
       id="spl_book"
       inkscape:connector-curvature="0" />
    <path
       style="fill:#000000;fill-opacity:0.00392157;fill-rule:nonzero;stroke:none"
       d="m 1858.0137,792.55273 c -10.2191,0 -18.5039,8.28476 -18.5039,18.50391 l 0,158.83203 c 0,10.2112 8.2848,18.49219 18.5039,18.49219 l 2.4355,0 5.0059,15.72464 23.1582,0 4.7305,-15.72464 88.164,0 4.7305,15.72464 23.1562,0 5.0059,-15.72464 2.4375,0 c 7.8514,0 14.5445,-4.89651 17.2324,-11.79297 l 61.4199,23.64651 c 0.6463,0.1787 1.2689,0.2491 1.8575,0.2285 l 0,0.01 11.7812,0 0.027,-0.043 c 2.4406,-0.2758 4.1797,-2.22855 4.1797,-5.08981 l 0,-149.99023 c 0,-3.6882 -2.8851,-7.47785 -6.4433,-8.46485 l -71.666,-27.86133 c -1.0141,-9.26095 -8.8579,-16.46875 -18.3887,-16.46875 l -158.8242,0 z"
       transform="translate(-435.05084,195.28004)"
       id="safe"
       inkscape:connector-curvature="0" />
    <path
       style="fill:#000000;fill-opacity:0.00392157;fill-rule:nonzero;stroke:none;stroke-width:0.0470961"
       d="M 494.19531 911.875 C 492.33525 911.89483 489.89521 912.3145 489.5957 913.63867 C 489.5735 913.63942 489.5515 913.64181 489.5293 913.64258 C 489.48319 913.52571 489.42363 913.40983 489.32812 913.30859 C 488.15236 912.06176 484.33309 912.76927 482.37305 913.16992 C 480.55179 913.1572 478.54166 913.78652 476.90039 914.23047 C 475.78526 914.53197 474.65791 914.86199 473.53125 915.21289 C 473.11639 915.32198 472.71542 915.41281 472.29492 915.52734 C 470.21762 916.09365 455.50914 921.22054 456.8125 924.43555 C 456.73175 924.48646 456.64895 924.53484 456.56836 924.58594 C 452.73507 924.14647 447.19256 929.75561 445.31836 932.0293 C 443.61048 934.10165 433.62056 945.23441 436.25 948.10352 C 436.17842 948.2368 436.11138 948.37198 436.04102 948.50586 C 434.52003 948.75976 433.34786 951.35678 432.80469 952.60547 C 430.65208 957.55463 429.58886 963.09204 428.73242 968.49023 C 426.2152 966.73181 423.58973 965.1596 420.86914 963.7832 C 419.59693 963.14054 418.30442 962.53742 416.99414 961.97656 C 403.49714 956.18563 388.15926 954.71095 373.50195 956.92578 C 372.37972 957.09239 371.25599 957.28017 370.14258 957.49414 C 369.7312 957.57169 369.32126 957.65721 368.91406 957.73828 C 359.09556 959.80476 350.65001 963.94172 343.61523 969.52344 C 343.26361 968.67922 342.89705 967.84221 342.50586 967.01562 C 341.88602 965.70587 341.21521 964.41961 340.48828 963.15625 C 337.29579 957.53577 333.1436 952.31033 328.25 947.48633 C 323.47286 942.77433 318.06982 938.97986 312.25781 936.03906 C 310.98111 935.39106 309.6814 934.78571 308.36719 934.22656 C 302.67667 931.78447 296.65724 930.10781 290.50586 929.15234 C 282.00473 927.81944 273.24268 927.86136 264.70898 929.15234 C 264.60683 929.16621 264.50496 929.1834 264.40234 929.19727 C 263.37684 929.35129 262.35153 929.52429 261.33984 929.72461 C 260.92531 929.79917 260.51063 929.88786 260.10547 929.9668 C 243.4156 933.48061 230.63985 942.91416 222.08789 955.35352 C 221.27213 956.53293 220.49412 957.7447 219.75781 958.98438 C 217.09634 963.46789 214.98972 968.13746 213.42383 972.91016 C 212.28923 976.36122 211.43548 979.86547 210.85547 983.39062 C 210.85526 983.39189 210.85568 983.39327 210.85547 983.39453 C 210.73972 984.09829 210.63503 984.80264 210.54102 985.50781 C 210.54076 985.50972 210.54127 985.51176 210.54102 985.51367 C 210.44715 986.2182 210.3633 986.92348 210.29102 987.62891 C 210.29088 987.63019 210.29115 987.63153 210.29102 987.63281 C 210.21871 988.33887 210.15627 989.0455 210.10547 989.75195 C 210.10538 989.75325 210.10556 989.75457 210.10547 989.75586 C 210.05471 990.4623 210.01376 991.16868 209.98438 991.875 C 209.98432 991.8763 209.98443 991.87761 209.98438 991.87891 C 209.92564 993.29283 209.90932 994.70491 209.93555 996.11523 C 209.93558 996.11719 209.93551 996.11914 209.93555 996.12109 C 209.9487 996.82495 209.97368 997.52828 210.00781 998.23047 C 210.00791 998.23242 210.00772 998.23438 210.00781 998.23633 C 210.042 998.93851 210.08557 999.63983 210.14062 1000.3398 C 210.14078 1000.3418 210.14047 1000.3438 210.14062 1000.3457 C 210.19574 1001.0457 210.26203 1001.7441 210.33789 1002.4414 C 210.3381 1002.4433 210.33768 1002.4453 210.33789 1002.4473 C 210.41381 1003.1446 210.50111 1003.841 210.59766 1004.5352 C 210.59792 1004.5371 210.59739 1004.5391 210.59766 1004.541 C 210.69425 1005.2351 210.80282 1005.9268 210.91992 1006.6172 C 210.92024 1006.6191 210.9196 1006.6211 210.91992 1006.623 C 211.03708 1007.3134 211.16519 1008.0033 211.30273 1008.6895 C 211.30299 1008.6907 211.30248 1008.6921 211.30273 1008.6934 C 211.44045 1009.3801 211.58808 1010.0641 211.74609 1010.7461 C 213.96213 1020.3134 218.16877 1029.3897 224.20312 1037.2656 C 224.20584 1037.2673 224.21017 1037.2698 224.21289 1037.2715 C 229.62721 1044.3363 236.51215 1050.4399 244.75195 1055.0664 C 250.81565 1058.4716 257.2051 1060.8253 263.70703 1062.1973 C 263.70703 1062.1973 263.70898 1062.1973 263.70898 1062.1973 C 263.70924 1062.1985 263.70873 1062.2 263.70898 1062.2012 C 274.20487 1064.4368 284.99815 1064.1322 295.22852 1061.5957 C 295.22885 1061.5939 295.23013 1061.5916 295.23047 1061.5898 C 304.84885 1059.2101 313.971 1054.8618 321.88086 1048.8125 C 322.58005 1051.0499 323.38091 1053.2571 324.29102 1055.4238 C 324.68057 1056.3534 325.0878 1057.2696 325.51172 1058.1602 C 326.13296 1059.4838 326.78707 1060.7693 327.47656 1062.0117 C 334.04282 1073.9063 343.38082 1082.0698 354.07617 1086.959 C 355.39109 1087.5626 356.72466 1088.1156 358.07812 1088.6172 C 367.39866 1092.0856 377.55733 1093.2464 387.70898 1092.3828 C 389.15252 1092.2668 390.59189 1092.099 392.03125 1091.8945 C 412.36576 1089.0288 432.15001 1078.1552 444.44727 1061.543 C 444.70009 1064.8521 445.45406 1068.1361 446.75195 1071.2168 C 446.9102 1071.5924 447.07478 1071.9638 447.24805 1072.3242 C 447.49849 1072.8594 447.76618 1073.3775 448.04492 1073.8809 C 450.70779 1078.6918 454.49515 1081.9931 458.83398 1083.9688 C 459.36699 1084.2131 459.90699 1084.4367 460.45508 1084.6406 C 464.23669 1086.0428 468.35603 1086.5125 472.47266 1086.1641 C 473.05835 1086.1173 473.64278 1086.05 474.22656 1085.9668 C 484.93068 1084.4628 495.2639 1077.5085 499.0625 1067.0977 C 499.26028 1066.5569 499.4416 1066.0029 499.60156 1065.4414 C 500.2136 1063.3271 500.55777 1061.0814 500.58984 1058.7227 C 500.637 1055.4532 500.18548 1052.1609 499.13477 1049.0605 C 498.85605 1048.2325 498.52118 1047.4233 498.14453 1046.6328 C 498.06936 1046.4737 497.99109 1046.3136 497.91211 1046.1562 C 497.91211 1046.1562 497.91211 1046.1543 497.91211 1046.1543 C 497.72963 1045.792 497.53533 1045.4348 497.33203 1045.0781 C 497.17207 1044.7981 497.00517 1044.5201 496.83203 1044.2441 C 496.83203 1044.2441 496.83203 1044.2422 496.83203 1044.2422 C 495.61922 1042.2948 494.11932 1040.4649 492.38477 1038.7637 C 491.72848 1038.1188 491.03331 1037.5317 490.32227 1036.9707 C 490.83052 1036.8024 491.21002 1036.5511 491.37891 1036.1914 C 491.38349 1036.1919 491.388 1036.1929 491.39258 1036.1934 C 491.47994 1036.2023 491.5669 1036.2141 491.6543 1036.2227 C 491.62416 1036.9556 492.30177 1037.5261 493.35547 1037.7676 C 496.36067 1038.4557 499.66198 1037.4372 502.68555 1037.2539 C 508.61353 1036.8951 513.08828 1035.5231 518.46289 1032.9766 C 521.28677 1031.6386 524.06549 1030.3323 526.78906 1028.8145 C 528.95927 1027.6021 531.73951 1026.9338 532.01953 1024.3672 C 532.0717 1024.328 532.12569 1024.2913 532.17773 1024.252 C 532.16934 1024.4173 532.18586 1024.5657 532.25195 1024.6777 C 534.73863 1024.1672 536.06305 1022.3701 537.77734 1020.5898 C 539.69887 1018.5991 541.63889 1016.5866 543.42383 1014.4805 C 545.19464 1012.3862 546.4472 1009.9399 547.95898 1007.6816 C 549.01869 1006.0992 551.25231 1003.5908 550.66211 1001.5957 C 550.69252 1001.5308 550.72569 1001.4673 550.75586 1001.4023 C 550.77503 1001.3611 550.79147 1001.3186 550.81055 1001.2773 C 554.24948 1000.1639 556.53042 984.80657 556.85938 982.70117 C 557.67885 977.41893 557.38323 971.91937 557.12891 966.56641 C 557.01775 964.19738 556.83552 959.73381 554.25586 958.52148 C 554.21605 958.3551 554.17966 958.18754 554.13867 958.02148 C 555.71664 955.01893 552.36799 948.73677 551.00977 945.94922 C 548.68322 941.16042 545.37356 935.92748 541.93555 931.81836 C 541.8042 931.66139 541.55198 931.36203 541.33008 931.09766 C 540.07212 929.49041 538.61588 927.9439 537.31055 926.60352 C 536.39725 925.66439 534.87992 924.22126 533.33008 923.52539 C 531.80164 922.62618 530.39308 922.30012 529.41992 923.12891 C 529.32106 923.06523 529.2243 922.99857 529.125 922.93555 C 529.27464 921.53854 528.29667 920.92878 526.95312 920.32422 C 525.67023 919.74822 524.39862 918.85663 523.0625 918.23828 C 520.53297 917.06793 517.71214 916.07106 515.07617 915.0957 C 512.45433 914.12504 509.3379 914.20746 506.58984 913.66016 C 504.56801 913.25749 502.8273 913.04406 500.77344 913.01953 C 498.97813 912.99884 497.58017 912.32563 495.89648 911.99219 C 495.511 911.91579 494.89576 911.86753 494.19531 911.875 z M 457.08203 1024.4062 C 457.11881 1024.4319 457.15458 1024.4588 457.19141 1024.4844 C 457.29008 1024.553 457.39313 1024.6155 457.49219 1024.6836 L 457.0293 1024.5332 C 457.66274 1026.0699 457.68903 1026.7806 459.24414 1027.7578 C 460.48983 1028.5406 461.7823 1029.2119 463.13867 1029.7949 C 464.3759 1030.3268 465.61033 1030.8413 466.8457 1031.3613 C 466.80093 1031.3679 466.75565 1031.3722 466.71094 1031.3789 C 466.25696 1031.4464 465.80147 1031.523 465.34961 1031.6094 C 465.1837 1031.6392 465.01552 1031.675 464.84961 1031.707 C 461.47779 1032.415 458.50267 1033.719 455.9375 1035.4727 C 456.60173 1031.9503 456.97831 1028.3017 457.0293 1024.5332 C 457.02986 1024.4942 457.02879 1024.4551 457.0293 1024.416 C 457.04712 1024.4134 457.0644 1024.4092 457.08203 1024.4062 z "
       transform="matrix(0.93750001,0,0,0.93750001,-435.05084,195.28004)"
       id="balls"
       inkscape:label="#path46-3" />
    <path
       style="fill:#000000;fill-opacity:0.00392157;fill-rule:evenodd;stroke:none;stroke-width:0.09354608"
       d="M 1237.875 716.99609 C 1235.6364 717.06033 1234.098 717.50681 1233.9883 718.47852 L 1233.8789 719.46094 C 1233.0236 719.5434 1232.2323 719.65677 1231.582 719.82422 C 1229.8748 720.26295 1224.3441 723.97366 1222.1289 724.92969 C 1220.1878 725.7688 1207.7363 726.08898 1204.4023 726.1582 C 1201.0702 726.1357 1188.6144 725.99081 1186.6621 725.18164 C 1184.4329 724.25553 1178.8515 720.61949 1177.1387 720.20508 C 1176.3732 720.01932 1175.4379 719.90129 1174.3984 719.83594 L 1174.3027 719.06836 C 1173.8135 715.1862 1150.578 720.01485 1151.0859 723.88672 C 1151.132 724.23692 1151.2252 724.62657 1151.3379 725.02344 C 1150.5361 725.61944 1149.9163 726.25885 1149.5352 726.9375 C 1149.5352 726.9375 1140.3598 746.66143 1136.5684 767.02734 C 1136.3535 768.18362 1136.1581 769.31206 1135.9746 770.42383 C 1135.909 770.8212 1135.8508 771.20795 1135.7891 771.59961 C 1135.6739 772.33052 1135.5629 773.0547 1135.4609 773.76562 C 1135.3982 774.20256 1135.3391 774.63314 1135.2812 775.0625 C 1135.1951 775.70232 1135.1148 776.33215 1135.0391 776.95508 C 1134.9879 777.37595 1134.9371 777.79781 1134.8906 778.21094 C 1134.8084 778.94123 1134.7342 779.65338 1134.666 780.35938 C 1134.6419 780.60885 1134.6122 780.86686 1134.5898 781.11328 C 1134.5021 782.07904 1134.4298 783.02264 1134.3672 783.94141 C 1134.351 784.17936 1134.3388 784.40585 1134.3242 784.64062 C 1134.2813 785.33222 1134.2442 786.01372 1134.2148 786.67773 C 1134.2032 786.94237 1134.1931 787.20071 1134.1836 787.46094 C 1134.1709 787.80451 1134.1536 788.15825 1134.1445 788.49414 C 1134.1465 788.53794 1134.1503 788.57749 1134.1523 788.62109 C 1133.9359 797.16402 1134.8484 803.21188 1136.0762 806.51758 C 1138.1697 812.14251 1140.492 814.43391 1144 814.75195 C 1147.5042 815.07095 1151.5999 813.93114 1159.3418 808.83008 C 1167.0818 803.73462 1170.8831 797.47108 1180.6035 793.8125 C 1187.6934 791.14456 1199.1736 790.80942 1204.8574 790.82812 C 1210.5441 790.72893 1222.0233 790.90376 1229.1543 793.4707 C 1238.9224 796.99365 1242.8092 803.20353 1250.625 808.19141 C 1258.4352 813.17929 1262.5445 814.26132 1266.0469 813.89648 C 1269.5502 813.52792 1271.8405 811.20369 1273.8555 805.54883 C 1275.0359 802.22376 1275.8647 796.15643 1275.5254 787.60547 C 1275.5265 787.56925 1275.5282 787.53635 1275.5293 787.5 C 1275.5172 787.20541 1275.4974 786.89425 1275.4824 786.59375 C 1275.4665 786.27124 1275.4509 785.95038 1275.4316 785.62109 C 1275.4 785.08336 1275.3611 784.53036 1275.3203 783.97461 C 1275.2932 783.60403 1275.2696 783.24183 1275.2383 782.86328 C 1275.1645 781.97392 1275.0804 781.06008 1274.9824 780.12695 C 1274.9603 779.91589 1274.9316 779.69571 1274.9082 779.48242 C 1274.8243 778.71923 1274.7336 777.9459 1274.6328 777.1543 C 1274.5886 776.8069 1274.5398 776.45244 1274.4922 776.09961 C 1274.3985 775.40469 1274.2985 774.70032 1274.1914 773.98438 C 1274.1346 773.60516 1274.0762 773.22492 1274.0156 772.83984 C 1273.8947 772.07112 1273.7637 771.28811 1273.627 770.49609 C 1273.5717 770.17648 1273.5208 769.86245 1273.4629 769.53906 C 1273.2597 768.40298 1273.0454 767.25079 1272.8086 766.06836 C 1268.7319 745.75764 1259.2734 726.16602 1259.2734 726.16602 C 1258.8266 725.39518 1258.0437 724.68735 1257.0566 724.0332 C 1257.154 723.66203 1257.235 723.29664 1257.2734 722.96875 C 1257.6109 720.05993 1244.5909 716.80337 1237.875 716.99609 z "
       transform="matrix(0.93750001,0,0,0.93750001,-435.05084,195.28004)"
       id="controller"
       inkscape:label="#path40" />
  </g>
</svg>
