<?xml version="1.0" encoding="UTF-8" standalone="no"?>
<!-- Created with Inkscape (http://www.inkscape.org/) -->
<svg height="650" id="svg8" viewBox="0 0 575.23639 287.09015" width="1300">
    <defs id="defs2"/>
    <g id="layer1" inkscape:groupmode="layer" inkscape:label="Layer 1" transform="translate(284.43423,-19.871578)">
        <path d="m -282.35087,214.96679 c 2.93836,-3.19259 6.04364,-6.21723 9.15173,-9.24342 3.53245,-3.59999 7.04366,-7.22386 10.46335,-10.93155 2.56339,-2.81674 4.98002,-5.75706 7.53208,-8.58323 2.409,-2.89093 4.48669,-6.04477 6.35331,-9.30746 1.7218,-3.15167 3.59944,-6.2139 5.55564,-9.22444 1.99532,-2.91197 3.83629,-5.90276 5.44946,-9.04203 1.39284,-3.17583 2.23898,-6.56398 3.26038,-9.87381 1.04692,-3.39001 1.25181,-6.94983 1.60026,-10.4592 0.34507,-3.36474 0.78593,-6.71641 1.06825,-10.08784 0.19433,-2.41447 0.10628,-4.84014 0.39881,-7.24478 0.63074,-2.88208 0.90472,-5.81549 1.26148,-8.73776 0.35963,-2.27348 0.6108,-4.55687 0.74793,-6.85391 0.0752,-2.09207 0.0808,-4.18634 0.0712,-6.279563 0.003,-1.899462 -0.0202,-3.799088 -0.009,-5.698537 0.061,-2.385584 0.0228,-4.771457 0.0232,-7.157347 0.0117,-2.274083 0.002,-4.548132 -0.0186,-6.822136 -0.28481,-4.510138 -3.0053,0.27972 9.90267,-5.572892 0.1323,-0.05999 -0.23433,0.193156 -0.28579,0.328999 -0.092,0.242879 -0.38736,2.104749 -0.40159,2.189853 -0.54037,2.770891 -1.19902,5.517015 -1.75502,8.284257 -0.93189,3.200818 -1.97153,6.367174 -2.87329,9.579219 -0.87366,3.640656 -1.51719,7.337257 -2.19973,11.019947 -0.58016,4.05303 -1.42848,8.05943 -2.15342,12.08723 -0.41032,3.73577 -1.54599,7.32397 -2.38341,10.97132 -0.62037,2.73419 -0.784,5.53506 -0.87947,8.32769 -0.096,3.49057 -0.11045,6.9828 -0.10365,10.47453 0.0966,3.60526 -0.13864,7.20154 -0.37475,10.79654 -0.13518,2.3534 -0.23041,4.70916 -0.25153,7.06638 5.3e-4,2.36894 0.80348,4.63903 1.78867,6.7646 1.50499,2.33457 2.81869,4.77661 4.21257,7.17691 1.2458,2.09827 3.27535,3.14482 5.52712,3.85551 2.19787,0.54087 4.36113,1.21326 6.53017,1.86354 2.33118,0.75663 4.74128,1.15341 7.12548,1.68399 2.31769,0.59351 4.73453,0.51346 7.04981,1.05974 2.77317,0.60217 5.52024,1.30305 8.33304,1.69765 2.44199,0.29539 4.90289,0.35386 7.35986,0.36859 1.93404,0.0103 3.86803,-0.0147 5.80205,-0.0106 2.03793,0.13639 3.99763,-0.31265 5.94604,-0.8529 2.98293,-1.4432 5.96592,-2.91271 8.93855,-4.38943 4.95452,-2.87564 -2.23485,1.30234 -6.32943,3.59315 -0.43588,0.24386 0.84824,-0.52761 1.27038,-0.79456 1.25612,-0.79435 2.48659,-1.61668 3.70534,-2.4671 3.1708,-2.29956 5.99971,-5.02312 8.80793,-7.74182 3.45753,-3.28043 6.44244,-7.01583 9.49417,-10.66622 3.01658,-3.4329 5.24182,-7.42371 7.44471,-11.39875 1.43013,-2.53 2.37207,-5.23816 2.81045,-8.10196 0.23247,-1.98119 0.31655,-3.98525 -0.0361,-5.95287 -0.55384,-2.32467 -2.11233,-3.946 -3.98775,-5.3083 -2.51835,-1.43233 -5.17066,-2.66275 -7.92157,-3.57529 -2.09883,-0.65995 -4.28496,-0.81516 -6.46865,-0.87387 -2.15265,-0.11027 -4.19259,0.70484 -6.21342,1.3353 -1.70186,0.80435 -0.48216,0.19297 -2.15381,1.1259 -0.34838,0.19442 -1.39734,0.77062 -1.05207,0.57071 15.30498,-8.8614 9.66075,-5.78282 6.5091,-3.56941 -2.38586,1.91218 -4.34905,4.2559 -6.04005,6.78774 -1.63961,2.68248 -2.46124,5.72487 -3.35321,8.70877 -0.87338,3.31133 -1.49607,6.68421 -2.20953,10.03502 -0.71622,3.49794 -0.8753,7.07209 -0.96543,10.6311 -0.0808,3.62463 -0.0814,7.24997 -0.0293,10.87496 0.008,2.55269 -0.0678,5.10452 0.46527,7.61282 0.64788,1.9423 2.07325,3.37038 3.84312,4.32068 2.06521,1.10421 4.38988,1.36252 6.68617,1.53579 2.09501,0.11631 4.19411,0.10151 6.29135,0.0848 2.37906,-0.13752 4.49597,-1.25216 6.61469,-2.23665 2.36093,-1.07092 4.64929,-2.28117 7.01055,-3.35414 4.33604,-1.53999 13.46675,-6.97714 -3.49649,2.68171 1.64741,-1.09811 3.09298,-2.48749 4.55084,-3.82319 1.89934,-1.69305 3.21162,-3.77649 4.1647,-6.1112 0.69329,-2.60207 1.96701,-4.97883 2.87935,-7.503 0.89938,-2.73339 1.05178,-5.61347 1.17746,-8.46457 0.0795,-2.85852 0.63423,-5.66559 1.04082,-8.48766 0.27391,-2.06829 0.37039,-4.15349 0.40509,-6.2377 0.13301,-2.04656 -0.0732,-4.07398 -0.26925,-6.10723 -0.40214,-2.33826 -1.2101,-4.58823 -2.3104,-6.68467 -0.72624,-1.55735 -1.54873,-2.8882 -3.24198,-3.41235 -2.19063,-0.49928 -4.43805,-0.26307 -6.62393,0.12709 -0.88948,0.17564 -1.64791,0.28207 -2.49524,0.61355 -0.39168,0.15322 -1.49822,0.76353 -1.13418,0.55289 15.62992,-9.04387 9.60407,-6.00887 6.89883,-3.61332 -1.1611,1.33369 -1.29703,3.03984 -1.38361,4.72867 -0.14773,2.32536 0.14953,3.49948 1.78243,5.14776 2.13024,1.81289 4.73828,2.34209 7.42599,2.74514 3.24043,0.31775 6.49315,0.36889 9.73922,0.62507 2.93632,0.25151 5.87998,0.36319 8.82555,0.41845 3.66296,0.0499 7.29867,-0.5064 10.94278,-0.81321 3.009621,-0.29788 6.059815,-0.30446 9.044757,-0.83666 1.607783,-0.28666 3.032299,-0.71562 4.605162,-1.14628 3.0625,-0.85192 6.046349,-1.91764 8.82794,-3.46709 0.725466,-0.40412 2.871687,-1.66905 2.145572,-1.2661 -2.305825,1.27959 -4.590153,2.59754 -6.885228,3.89632 6.1698,-4.11935 12.654634,-7.6995 19.044576,-11.46157 2.412404,-1.42029 -4.855716,2.78744 -7.283575,4.18116 5.86114,-3.36889 11.658415,-7.05002 17.917732,-9.69085 2.169305,-0.88358 4.497797,-1.19713 6.820879,-1.30693 2.312992,0.0351 4.023447,1.1102 5.490908,2.80159 1.697932,2.14666 2.649699,4.74862 3.725047,7.23751 0.95453,2.41544 2.383489,4.5795 3.317076,7.00482 0.857491,2.60602 2.227096,5.00003 3.298095,7.51827 1.111586,2.57573 1.815962,5.3003 2.162456,8.07886 0.242146,2.1558 0.198501,4.32768 0.20906,6.49304 -0.04253,2.23152 -0.05865,4.46184 -0.0066,6.69302 -3.368555,1.57919 -6.601745,3.48715 -10.105667,4.73756 -0.335092,0.11958 -0.203475,-0.68194 -0.297484,-1.02508 -0.572479,-2.08964 -1.056699,-4.19775 -1.484175,-6.32119 -0.639715,-3.30287 -1.650156,-6.48525 -2.940595,-9.58542 -1.133139,-2.85248 -2.570745,-5.52197 -4.391838,-7.98836 -1.795594,-2.11776 -4.245424,-3.57611 -6.679281,-4.85564 -2.211671,-1.09342 -4.564338,-1.70555 -6.99628,-2.03673 -1.975355,-0.20552 -3.964696,-0.19557 -5.948269,-0.19375 -0.612535,0.092 -1.245788,-0.0785 -1.858566,0.0128 -2.1609,0.32181 -16.218921,8.87229 5.740096,-3.5986 -2.472357,1.66954 -4.458751,3.91215 -6.395101,6.15355 -2.067631,2.19676 -3.41531,4.86926 -4.841031,7.49218 -1.544619,2.70456 -2.663637,5.61402 -3.781544,8.5121 -1.15075,2.4557 -1.798087,5.07416 -2.452084,7.69155 -0.815517,3.20611 -1.054423,6.50661 -1.213078,9.79804 0.08851,0.3401 -0.500232,4.89118 0.709883,3.79866 1.152027,-0.65731 2.615004,-0.73897 3.918296,-0.84018 1.540034,-0.12995 3.084195,-0.1483 4.628232,-0.17679 1.393473,-1.9e-4 2.786906,0.0173 4.180425,0.0102 1.582893,-0.14682 2.903212,0.10287 4.294404,0.86097 2.070044,1.03865 4.317045,1.62607 6.479468,2.43394 1.994133,0.90194 3.89594,1.98165 5.8355,2.99054 1.703951,0.95139 3.229969,2.79969 5.310198,2.7345 2.490877,-3.38897 0.273301,-0.21124 -8.624033,4.57859 -0.196162,0.1056 0.323858,-0.31508 0.432377,-0.50965 0.542462,-0.97261 0.590817,-2.26051 0.760949,-3.32992 0.531138,-2.4593 0.929574,-4.94398 1.477698,-7.39928 0.439595,-1.9083 0.630465,-3.85466 0.718074,-5.80674 0.07593,-1.87163 0.04799,-3.74461 0.05993,-5.61708 0.0099,-1.94179 -0.06776,-3.88463 0.07014,-5.82254 0.135396,-2.57088 1.016106,-4.92193 2.165252,-7.19099 3.580977,-6.22614 6.317898,-6.37213 13.823956,-10.75988 0.255293,0.14098 0.572547,0.2046 0.765881,0.42295 1.252225,1.41421 1.157213,4.58378 1.260237,6.35962 0.08076,2.74241 0.06841,5.48551 0.05618,8.22863 -0.03624,2.61469 -0.02005,5.23012 0.0044,7.84491 -0.111664,2.17101 0.297831,4.22898 1.027565,6.25606 0.598943,1.9219 1.456296,3.73924 2.35503,5.53492 0.943428,1.80921 2.35662,3.29636 4.013922,4.46391 1.74648,1.23675 3.794626,1.93382 5.70948,2.85962 2.430002,1.1347 5.007309,1.68473 7.651394,2.00503 2.946758,0.29438 5.911028,0.25823 8.8682431,0.29121 4.01318673,0.0309 8.0261763,0.0586 12.0395181,0.0467 4.1288188,0.0556 8.2477258,0.009 12.3473838,-0.51122 1.686987,-0.42293 3.434492,-0.59915 5.088655,-1.15688 1.552151,-0.52334 3.029757,-1.33954 4.507888,-2.03535 0.49838,-0.26051 0.99817,-0.51834 1.495134,-0.78153 0.491371,-0.26024 0.983592,-0.51904 1.469824,-0.78875 0.514541,-0.28542 2.042838,-1.16886 1.532224,-0.87648 -14.401214,8.2463 -8.206693,4.90978 -5.135656,2.63001 2.278174,-1.8392 4.277691,-3.97965 6.068389,-6.28848 2.241311,-3.17868 3.519693,-6.87157 4.95409,-10.45103 1.352864,-2.80138 2.223209,-5.79071 3.330955,-8.68824 1.193965,-2.80312 1.660795,-5.79508 1.91915,-8.80751 0.199203,-2.62069 0.186476,-5.25232 0.160227,-7.87876 0.05411,-2.70872 -0.127439,-3.73636 -2.016244,-5.68177 -2.34568,-1.92929 -4.976805,-3.46854 -7.529928,-5.10079 -2.149777,-1.38053 -4.421553,-2.44691 -6.801638,-3.34986 -2.416369,-0.61393 -4.732507,-1.51864 -7.16047,-2.09872 -2.992668,-0.57582 -6.138466,0.16695 -9.006213,1.04042 -1.302835,0.5265 -1.877098,0.72667 -3.1268051,1.35661 -0.4728665,0.23836 -1.8534419,1.02522 -1.39398,0.76195 14.4333281,-8.27026 8.5322821,-5.15709 5.4493641,-2.63615 -1.988765,1.81792 -3.5545516,3.95909 -4.5760478,6.44652 -1.0526458,2.79528 -1.4040633,5.77792 -2.0148097,8.68768 -0.6800258,3.70794 -1.0744843,7.46601 -1.4713241,11.21378 -0.3669297,3.21186 -0.4340439,6.44388 -0.5008581,9.67234 -0.015843,2.89658 -0.00379,5.79317 0.026912,8.68959 0.016034,2.22749 -0.049855,4.45201 0.2235716,6.66571 0.2723478,1.90886 1.4007599,3.39946 2.6069361,4.83003 1.3241409,1.41578 3.00895,2.15821 4.876411,2.52662 1.224545,0.21058 2.422063,1.05548 3.714977,0.75724 0.544367,-0.12557 1.697229,-0.7825 2.146672,-1.02093 -15.081696,8.71882 -8.6493596,5.52009 -5.937291,2.60641 1.043245,-1.1208 1.886639,-2.40813 2.754016,-3.66332 1.903829,-2.58632 3.561828,-5.32868 5.191031,-8.09186 2.39643,-3.75792 4.226655,-7.81237 6.095793,-11.84508 1.837341,-3.91397 3.121501,-8.04223 4.25672,-12.20424 0.984088,-4.34674 2.076471,-8.66858 3.043848,-13.01918 0.872718,-4.04624 1.102739,-8.18441 1.539701,-12.28988 0.437012,-4.12891 0.524581,-8.28234 0.621138,-12.42975 0.08165,-4.77455 0.08812,-9.54994 0.05453,-14.32495 0.359381,-4.61712 0.896454,-9.215068 1.196261,-13.837947 0.121211,-3.755015 0.281363,-7.501734 0.548015,-11.249232 0.311068,-2.405335 0.4425,-4.868621 1.464189,-7.097442 1.365565,-1.879687 2.215449,-3.298767 2.820257,-5.578285 0.429403,-2.624232 0.791512,-5.26574 1.082185,-7.910337 0.04732,-2.703642 0.499579,-5.336969 0.978213,-7.989123 0.55372,-2.952401 0.730562,-5.952842 0.804608,-8.949944 0.06273,-2.453579 0.04521,-4.908177 0.02846,-7.362216 -0.141327,-1.930064 0.154726,-3.834548 0.361511,-5.745918 -0.730591,-3.826075 -0.455795,-1.835179 10.02938,-4.371576 0.550659,-0.133206 -0.15164,1.123224 -0.250981,1.680987 -0.145201,0.815278 -0.326345,1.623765 -0.482444,2.437027 -0.608467,3.170089 -0.480226,2.543008 -1.015449,5.896181 -0.803498,7.072037 -1.633948,14.135933 -2.516233,21.198885 -0.579041,4.835493 -0.815205,9.698429 -0.957395,14.562981 -0.03813,4.11607 -0.35093,8.223353 -0.524647,12.335203 -0.154824,3.224157 -0.152744,6.452304 -0.179769,9.679099 0.150953,2.707322 -0.340757,5.3624 -0.814498,8.011268 -0.252683,2.409759 -0.834226,4.753129 -1.538441,7.066329 -0.796023,2.30249 -1.452894,4.64327 -2.022695,7.01088 -0.59404,2.68313 -0.74958,5.42577 -0.863423,8.16222 -0.07928,2.8645 -0.05465,5.73082 -0.03697,8.59602 -0.03352,2.56299 0.346808,5.10496 0.549309,7.65573 0.124275,2.7306 0.86205,5.377 1.273665,8.07254 0.404074,2.63098 1.026856,5.21655 1.561875,7.8224 0.592195,2.68698 0.77298,5.43303 1.153673,8.1497 0.316357,2.09736 1.316191,3.95418 2.053135,5.90996 0.814409,2.27631 2.287323,4.22705 3.614531,6.22217 2.068378,2.73926 3.529833,5.86066 5.190194,8.85158 1.569606,2.67721 2.930583,5.46454 4.438605,8.17544 1.256286,2.25077 2.420937,4.57916 4.342786,6.33365 1.726959,1.54741 3.903321,1.71046 6.111729,1.85688 3.105444,0.0577 6.198505,-0.73319 9.150644,-1.64612 2.347007,-1.05695 4.801954,-1.90797 7.058707,-3.15821 0.544499,-0.30164 2.140733,-1.27111 1.598311,-0.96574 -2.563334,1.44311 -5.107768,2.91952 -7.661653,4.37927 2.30161,-1.51904 4.722394,-3.02532 6.475171,-5.20157 0.415235,-0.51556 0.771293,-1.0761 1.156939,-1.61415 2.665859,-4.0753 4.306511,-8.63946 5.623956,-13.2921 1.131438,-3.86971 1.93103,-7.82864 2.527354,-11.81327 0.49306,-3.8051 0.58745,-7.64614 0.59575,-11.47834 -0.0216,-2.39551 -0.047,-4.79094 -0.0799,-7.18633 -0.0213,-1.88871 -0.008,-3.77762 -0.008,-5.66642 -0.17569,-1.59188 -0.44892,-3.39605 -1.359131,-4.75172 -0.108025,-0.0695 -0.22247,-0.287 -0.324067,-0.20843 -0.14877,0.11506 -0.287539,0.63576 -0.119436,0.55143 3.121304,-1.56589 6.075924,-3.44573 9.158684,-5.0862 0.23504,-0.12508 -0.41916,0.33246 -0.59732,0.53032 -0.62975,0.69936 -0.73293,1.0721 -1.17611,1.95076 -1.3977,3.50194 -1.59993,7.3072 -1.79979,11.02931 -0.17311,4.00984 -0.11372,8.02553 -0.11368,12.03808 0.029,3.35295 0.0497,6.70593 0.0547,10.059 0.0604,2.60697 -0.0548,5.22633 0.13631,7.8282 0.42032,2.35137 1.22487,4.605 2.24378,6.7577 1.42316,2.22803 2.6187,4.88513 4.84274,6.42386 0.2685,0.12916 0.51369,0.32728 0.80549,0.38749 0.77334,0.15958 1.81648,-0.29638 2.4432,-0.67459 0.34054,-0.2055 1.33241,-0.86701 0.98472,-0.67387 -2.7482,1.52662 -5.46011,3.11765 -8.19017,4.67647 2.5046,-1.66433 4.71634,-3.71779 7.23502,-5.35962 6.04631,-3.68824 21.60767,-12.31948 3.7289,-2.17421 -0.39658,0.22504 0.78273,-0.46876 1.16143,-0.72274 1.01096,-0.67803 1.17452,-0.85761 2.09732,-1.63348 2.18424,-1.98381 4.59518,-3.68008 6.77216,-5.67145 2.61331,-2.32831 4.54121,-5.20094 6.30553,-8.18866 2.08599,-3.35731 2.99749,-7.22362 4.19294,-10.94749 1.26187,-3.82741 1.91531,-7.7948 2.23334,-11.80047 0.0531,-2.68668 0.35146,-5.35347 0.58648,-8.0277 0.58481,-7.51131 -1.40133,-3.69208 10.61813,-8.7014 0.17488,0.56448 0.37757,1.12107 0.52464,1.69342 0.83536,3.25081 0.29089,1.85905 1.09612,5.485 0.79086,3.56127 1.97063,7.02253 3.03139,10.50834 1.63753,6.26896 3.3788,12.5204 4.77492,18.84916 0.79707,3.49084 1.20527,7.04525 1.39959,10.615 0.1984,2.08044 -0.11743,4.1273 -0.36826,6.18364 -0.22911,1.84641 -1.10334,3.49802 -1.86275,5.1686 -2.22421,5.27428 -0.72548,3.95397 -10.86902,8.11846 -0.53515,0.21971 -0.6347,-1.57725 -0.77755,-2.90798 -0.28593,-4.86501 -0.24429,-9.74188 -0.28379,-14.61331 0.0169,-5.0207 -0.12634,-10.04255 0.0612,-15.06073 0.27221,-4.37207 1.19064,-8.70417 2.48466,-12.88296 0.96928,-2.93574 2.32264,-5.68766 3.94458,-8.3096 1.63605,-2.26833 3.5522,-4.31906 5.45474,-6.36341 3.91564,-4.38422 9.21871,-7.07238 14.55528,-9.49821 1.25182,-0.37811 2.67852,-0.93076 4.01626,-0.89399 0.14442,0.004 2.47897,0.41095 2.55719,0.4244 2.59726,0.51164 4.73121,1.90318 5.98147,4.23377 0.7346,1.91002 0.98208,3.96356 1.3707,5.9631 0.30262,2.56249 1.32674,4.93239 2.1365,7.35987 0.83621,2.62526 1.25653,5.3521 2.03379,7.99369 0.95862,2.11421 1.43932,4.37219 1.99543,6.61173 0.54956,2.37485 0.73124,4.81132 1.15655,7.21029 0.56525,2.64191 0.86081,5.32147 1.06599,8.01158 -0.0915,2.43941 0.31709,4.78493 0.8822,7.14153 0.69176,2.02211 0.97009,4.14467 1.39757,6.22843 0.45903,1.71475 0.69334,3.46054 0.80984,5.22733 0.0916,1.60824 0.75213,2.97933 1.84529,4.12883 0.88873,0.97465 1.91089,1.46137 3.18419,1.70632 1.7373,0.20178 3.50058,0.28161 5.23871,0.0782 2.26814,-0.15195 4.35296,-0.82272 6.32241,-1.93503 4.5324,-2.67054 -2.47663,1.46635 -6.89294,3.92119 -0.40669,0.22606 0.78339,-0.50315 1.16057,-0.77561 1.09769,-0.79293 2.05745,-1.71699 3.02223,-2.66126 1.66941,-1.53138 2.96392,-3.3982 4.51257,-5.0365 1.56076,-1.28875 3.31853,-2.31171 4.773,-3.73192 0.93103,-0.9091 1.45589,-1.58775 2.28784,-2.58292 2.19853,-2.4774 3.76582,-5.38452 5.30464,-8.29282 1.27914,-2.59353 2.22434,-5.33564 3.27065,-8.02848 1.25771,-3.46431 2.15152,-7.03692 3.00605,-10.61663 1.16503,-3.69664 2.22386,-7.39787 2.76803,-11.23928 0.31985,-2.74431 0.37074,-5.51012 0.37201,-8.27006 0.0264,-2.3455 -0.0343,-4.69056 -0.0391,-7.03588 0.0581,-1.97742 -0.0484,-3.9264 -0.69218,-5.80551 -0.62026,-1.60563 -0.99369,-3.31612 -2.19077,-4.61084 -0.99667,-1.0596 -2.36237,-1.18111 -3.73092,-1.2982 -1.60237,0.0292 -3.10883,0.48311 -4.50602,1.25332 -0.40058,0.22082 -1.57218,0.9356 -1.17361,0.71115 2.74816,-1.54763 5.48195,-3.12065 8.22293,-4.68097 -3.56024,2.03525 -7.12048,4.0705 -10.68072,6.10574 -0.45233,0.223 -1.79355,0.92142 -1.35697,0.66899 2.66316,-1.53987 5.32384,-3.08668 8.03911,-4.53268 0.44361,-0.23624 -0.82657,0.57433 -1.21197,0.89692 -1.0763,0.90089 -1.26743,1.22413 -2.17418,2.30038 -1.79903,2.3138 -3.42404,4.7322 -4.59259,7.42375 -1.13329,2.70423 -2.50204,5.3 -3.62265,8.00944 -0.97272,2.31981 -1.29352,4.79759 -1.45022,7.28545 -0.069,2.28101 -0.10109,4.5641 -0.0999,6.84621 0.0239,2.22906 0.036,4.45815 0.0593,6.68723 -0.17696,2.15443 0.42199,4.05113 1.50061,5.88176 1.06238,1.35733 2.43252,1.95954 4.0895,2.18999 1.5044,0.0653 3.00294,-0.35089 4.50047,-0.53271 1.52506,-0.47493 3.07512,-0.43456 4.37881,-1.40366 -16.18875,9.84011 -8.74403,5.24201 -5.37964,2.42911 4.39468,-3.13985 8.92883,-6.58993 14.25744,-7.74564 0.28597,-0.12249 0.57399,-0.24031 0.85792,-0.36748 0.65709,-0.29429 2.52362,-1.38757 1.89558,-1.0355 -14.21625,7.96947 -9.63717,6.22832 -6.77399,3.29785 1.8274,-2.4407 2.38192,-5.45634 3.11275,-8.34179 0.94314,-3.13097 1.39436,-6.35389 1.65197,-9.60296 0.15468,-4.09822 0.48281,-8.18609 0.66469,-12.28318 0.2109,-6.25148 -1.18816,-5.25874 10.28202,-7.9469 0.63234,-0.1482 0.24994,1.27569 0.33135,1.92005 0.12108,0.95834 0.1838,1.92315 0.2757,2.88472 1.13819,9.05887 1.65528,18.16949 2.08259,27.28425 0.31638,8.00109 0.89523,16.00943 1.78282,23.96861 0.86338,6.29591 1.36938,12.62692 1.63434,18.9736 0.3724,5.76874 -0.27414,11.50988 -1.16138,17.1993 -0.33083,4.72409 -2.32082,8.70568 -4.37221,12.87119 -2.39861,5.01838 -3.97704,10.34905 -5.72898,15.60862 -1.3116,4.62479 -4.14184,8.47034 -6.88515,12.32607 -2.23432,3.20552 -4.51703,6.37524 -6.98523,9.40532 -2.43309,2.66645 -4.37025,5.71583 -6.65485,8.50036 -2.94296,3.81944 -6.54551,6.9251 -10.31473,9.88454 -3.82466,2.74193 -7.80683,5.2501 -11.77955,7.76888 -4.74881,2.79352 -9.43306,6.03848 -14.70549,7.8549 -2.05639,0.70845 -4.16699,1.31969 -6.25034,1.94537 -3.80853,1.19743 -7.64706,2.31878 -11.42842,3.59881 -2.23472,0.78367 -4.36515,1.92315 -6.66072,2.5377 -0.83878,0.22453 -2.10774,0.39973 -2.96705,0.53388 -2.35861,0.31257 -4.92585,0.24725 -6.68589,-1.60634 -0.33919,-0.35719 -0.59219,-0.78732 -0.88829,-1.18097 -1.97803,-3.43329 -2.47956,-7.34004 -3.05103,-11.1855 -0.59934,-4.2546 -0.8125,-8.54435 -0.99314,-12.83234 -0.13425,-3.71192 -0.0754,-7.4258 -0.068,-11.13901 0.0666,-5.31718 1.67811,-10.42262 3.49435,-15.36723 1.76093,-4.60383 4.08461,-8.6782 7.18004,-12.49945 3.00901,-3.3246 6.01499,-6.65956 9.12128,-9.89441 2.52697,-2.31083 5.12153,-4.56229 7.87419,-6.60115 2.89417,-2.06287 5.92683,-3.91783 8.91189,-5.84324 2.69799,-1.90286 5.31413,-3.9151 8.02726,-5.79849 3.13065,-2.17934 6.33501,-4.24943 9.49288,-6.38841 2.71192,-1.8972 5.2937,-3.9651 7.87855,-6.02848 2.29533,-1.6402 4.53631,-3.34204 6.67417,-5.18336 2.00674,-1.96416 4.02371,-3.90976 6.14122,-5.75469 2.15672,-1.7695 4.35898,-3.47831 6.46865,-5.30472 2.31474,-2.27276 4.81473,-4.32381 7.37318,-6.31299 2.52292,-2.081 5.20763,-3.92751 7.901,-5.77388 2.36031,-1.81774 4.64013,-3.72589 7.06744,-5.45644 1.81176,-1.42978 3.86921,-2.48967 5.73148,-3.84301 1.06212,-0.78825 2.01709,-1.70721 2.95308,-2.63828 1.15084,-1.29368 2.026,-2.80799 2.97363,-4.25216 1.18316,-2.10191 2.01964,-4.36556 3.15079,-6.49391 1.38827,-2.24164 2.1246,-4.74889 2.78712,-7.2747 0.56052,-2.61745 1.32908,-5.18271 2.12453,-7.73657 0.728,-2.05719 1.00385,-4.22099 1.39075,-6.35689 0.34862,-1.97243 0.8387,-3.91192 1.13829,-5.89371 0.22313,-1.869 0.26051,-3.7537 0.27379,-5.63389 0.006,-1.92368 0.0109,-3.84735 0.008,-5.77104 0,-2.41347 0.0411,-4.82662 0.0399,-7.24009 0.12549,-3.414935 -0.59037,-6.765375 -1.30162,-10.08442 -1.02164,-3.709339 -1.90111,-7.452939 -2.82858,-11.186088 -1.0219,-3.633356 -1.83018,-7.317991 -2.73646,-10.982195 -0.64296,-3.289401 -2.03729,-6.349434 -3.24723,-9.45469 -1.17882,-2.739694 -2.75233,-5.276709 -4.55303,-7.645545 -0.92113,-1.061411 -1.82358,-2.229935 -2.94711,-3.095292 -1.24824,-0.961424 -2.78547,-1.676058 -4.17364,-2.400506 -3.39253,-1.861058 -7.14166,-2.828033 -10.8063,-3.987485 -3.17125,-1.143931 -6.45434,-1.879058 -9.73549,-2.616859 -3.84481,-1.009642 -7.73625,-1.799759 -11.65009,-2.488848 -3.26058,-0.691237 -6.562,-1.13897 -9.84409,-1.707163 -2.64243,-0.22497 -5.1275,-1.134835 -7.72965,-1.597485 -2.72077,-0.43207 -5.47763,-0.497145 -8.22616,-0.544291 -2.65511,-0.02305 -5.31032,-0.0019 -7.96542,-0.01135 -2.8237,0.0019 -5.64742,0.0058 -8.47115,0.0042 -3.01727,0.07355 -6.05125,0.303903 -9.04931,0.674312 -3.9516,0.547709 -7.77667,1.695064 -11.60997,2.769272 -3.83762,0.998821 -7.55005,2.396638 -11.32942,3.580572 -3.20218,0.903655 -6.28878,2.042879 -9.29099,3.47522 -0.47836,0.26062 -0.94602,0.541914 -1.43508,0.781859 -1.49508,0.733523 -3.0124,1.391883 -4.48434,2.179746 -2.20016,1.177645 -11.80363,6.739676 6.12271,-3.544715 -2.75602,1.640295 -5.22074,3.694589 -7.58032,5.852154 -1.88451,1.618975 -3.34469,3.623268 -4.85614,5.573266 -1.8727,2.433923 -3.81162,4.809762 -5.54263,7.348281 -1.48254,2.094798 -2.79836,4.280831 -3.99383,6.548807 -1.21558,2.503088 -2.73197,4.833382 -4.23724,7.166909 -1.17117,1.622846 -2.58841,2.977386 -3.5797,4.727379 -1.51184,2.394948 -2.51176,5.020593 -3.35519,7.709633 -0.72264,2.637332 -1.82364,5.144019 -2.62793,7.753429 -0.42632,1.70837 -0.80601,3.418623 -1.38804,5.082983 -0.46815,1.91506 -1.37615,3.64712 -2.23527,5.40493 -2.34893,3.95495 -1.12208,2.1612 -10.391724,6.69548 -0.325776,0.15935 -0.607573,-0.4029 -0.870357,-0.65284 -0.941203,-0.89518 -1.695998,-2.07181 -2.438101,-3.12702 -1.349299,-2.14411 -2.010905,-4.52162 -2.281447,-7.01333 -0.372287,-3.11866 0.583962,-5.998897 1.887471,-8.780112 1.021255,-2.250557 2.744918,-3.808442 4.725871,-5.193782 4.975432,-3.654517 9.209287,-6.542132 15.005537,-7.017345 1.69967,-0.04286 3.49054,-0.300516 5.03854,0.536054 1.24432,1.470758 1.15146,3.515116 1.21644,5.339511 0.0772,2.103742 0.0193,4.194887 -0.21234,6.285894 -0.61441,2.654123 -1.41517,5.26108 -2.07002,7.90578 -0.56508,2.11834 -1.33971,4.19303 -2.42687,6.09931 -3.17343,4.35573 -8.50672,6.7413 -13.535431,8.48786 -1.79047,0.44117 -3.633152,0.50226 -5.466543,0.54489 -2.466872,0.13971 -4.39239,-0.69832 -6.103794,-2.43892 -1.812259,-2.26149 -2.784981,-4.91947 -3.477498,-7.6961 -0.502701,-2.49641 -0.90383,-5.06 -0.539496,-7.59738 0.329274,-2.30203 1.729599,-3.86109 3.390452,-5.357346 5.085742,-4.109627 10.999735,-7.145925 16.99599,-9.711968 2.19443,-1.070501 4.26203,-2.340292 6.66827,-2.865725 2.04206,-0.436994 3.88912,0.07383 5.59845,1.186889 1.94987,1.457915 3.63666,3.293096 5.00886,5.300863 1.06344,1.927654 1.43226,3.974589 1.16449,6.1385 -0.39196,2.518971 -1.36381,4.876223 -2.53186,7.123927 -1.35344,2.34451 -3.09405,4.46063 -5.04619,6.32942 -4.59348,3.64003 -9.57145,7.17113 -15.143145,9.06219 -1.878685,0.51092 -3.847571,0.5449 -5.782916,0.55616 -2.255396,0.113 -3.899281,-0.6094 -5.447575,-2.20474 -1.810168,-1.96275 -2.991792,-4.38012 -4.023231,-6.81595 -1.122222,-2.38856 -2.21231,-4.78417 -3.022711,-7.29815 5.561568,-6.801416 2.171116,-1.44407 9.627032,-5.286949 0.789175,2.484864 1.807948,4.877529 2.932808,7.228419 0.993135,2.28543 2.090614,4.59444 3.876294,6.37757 1.46811,1.2307 3.075334,1.6479 4.994864,1.47651 1.87332,-0.071 3.77412,-0.14939 5.5383,-0.85503 3.91723,-1.73376 1.00271,-0.48427 -7.564475,4.54873 -0.32544,0.19119 0.67215,-0.34662 0.98775,-0.55365 0.649705,-0.42618 1.242185,-0.93388 1.869995,-1.3917 0.32718,-0.23859 0.65463,-0.4768 0.98195,-0.7152 2.09393,-1.62724 3.74839,-3.78473 5.21971,-5.9766 1.20594,-2.09669 2.19919,-4.35501 2.62502,-6.748392 0.36652,-1.885609 0.13331,-3.696954 -0.77697,-5.415285 -1.24025,-1.90681 -2.82916,-3.628234 -4.75022,-4.863685 -1.6476,-0.813194 -3.31721,-1.017812 -5.104545,-0.471371 -2.253451,0.739177 -4.283038,1.956036 -6.451889,2.900505 -0.999273,0.443511 -1.783262,0.775891 -2.758665,1.271093 -0.475559,0.241435 -1.868545,1.028658 -1.409853,0.756539 14.778772,-8.767447 8.917905,-5.446495 5.887884,-3.216833 -1.547199,1.327285 -3.175341,2.558566 -3.610285,4.669083 -0.627874,2.379308 -0.200768,4.852286 0.183703,7.246076 0.596035,2.58427 1.574009,5.03173 3.283927,7.09661 1.59114,1.47201 3.506123,1.85769 5.640223,1.67493 1.78384,-0.0853 3.59673,-0.20818 5.27515,-0.87183 3.56999,-1.57765 7.8649,-4.46389 -7.354172,4.48195 -0.237916,0.13985 0.493289,-0.25113 0.720691,-0.4075 0.651891,-0.44826 0.774573,-0.66212 1.301611,-1.25707 1.29126,-1.71845 1.95353,-3.78497 2.65068,-5.79755 0.66185,-2.59741 1.40349,-5.17553 2.10543,-7.761721 0.24233,-2.037668 0.30656,-4.072255 0.24273,-6.124668 -0.0276,-1.295305 0.17025,-3.146628 -0.69196,-4.196887 -1.49639,-0.455189 -3.0883,-0.228917 -4.62085,-0.117443 -0.907771,0.121052 -1.806281,0.249648 -2.676405,0.551651 -0.301355,0.104592 -1.158489,0.528156 -0.885187,0.363651 6.109062,-3.677163 11.841592,-6.758323 7.721142,-4.534577 -1.96517,1.290534 -3.92634,2.566493 -5.047105,4.722582 -1.370597,2.546594 -2.468652,5.224666 -2.074108,8.17817 0.223083,2.305002 0.68857,4.558872 1.958766,6.542672 0.58189,0.80324 0.874827,1.28534 1.592587,1.97271 0.20903,0.20018 0.4162,0.42922 0.68729,0.53059 0.10791,0.0404 0.40541,-0.21865 0.30697,-0.1588 -9.294093,5.65114 -11.502707,7.83519 -8.380791,4.86308 0.857769,-1.69618 1.834277,-3.37573 2.226681,-5.25285 0.597953,-1.67339 1.134895,-3.35044 1.498322,-5.09453 0.852519,-2.621531 1.920372,-5.155485 2.729301,-7.791084 0.813087,-2.694075 1.627757,-5.424522 3.136987,-7.826303 0.96593,-2.038763 2.00006,-3.258543 3.57693,-4.853927 1.54145,-2.274724 3.13104,-4.538483 4.28919,-7.04042 1.10865,-2.384808 2.52445,-4.582453 4.04639,-6.724189 1.66832,-2.571684 3.58178,-4.94315 5.4267,-7.387005 1.54498,-1.974676 2.92382,-4.099677 4.83473,-5.756998 2.37208,-2.222701 4.83262,-4.355171 7.58385,-6.10481 6.06576,-3.506174 12.01665,-7.149193 18.39268,-10.054815 3.04223,-1.356103 6.16314,-2.446676 9.36603,-3.362227 3.74125,-1.204849 7.46113,-2.478125 11.26475,-3.479202 3.9084,-1.065858 7.80122,-2.24277 11.83675,-2.729926 3.04192,-0.321826 6.10221,-0.605213 9.16276,-0.60388 2.82687,-0.004 5.65373,-0.004 8.48058,-0.01273 2.66073,-0.01831 5.32229,-0.02236 7.98266,0.02912 2.78063,0.06744 5.56828,0.187825 8.30881,0.70187 2.59224,0.492268 5.11768,1.284063 7.74832,1.580293 3.23251,0.609719 6.48139,1.12785 9.70077,1.809015 3.93516,0.739896 7.84697,1.573924 11.74944,2.467535 3.30732,0.710777 6.5694,1.611178 9.76362,2.729223 3.68419,1.248298 7.47215,2.245063 10.90315,4.133693 3.06086,1.578174 5.39608,2.996989 7.45176,5.85156 1.88425,2.444025 3.42582,5.106733 4.67373,7.931795 1.2219,3.154416 2.65401,6.268646 3.23411,9.623139 0.88667,3.660831 1.76418,7.32346 2.76719,10.953867 0.97571,3.735353 1.64677,7.550443 2.79951,11.244431 0.7444,3.353091 1.62758,6.750897 1.5707,10.206858 0,2.398027 0.0403,4.795687 0.0479,7.193677 0.003,1.92447 0.0212,3.84898 0.0116,5.77343 -0.0183,1.92166 -0.0183,3.84649 -0.22431,5.75987 -0.22476,2.01906 -0.75478,3.9694 -1.13533,5.96071 -0.42312,2.17366 -0.6191,4.3932 -1.36107,6.49311 -0.83015,2.53925 -1.70934,5.07506 -2.20374,7.70575 -0.65468,2.57869 -1.23928,5.22156 -2.64927,7.51835 -1.211,2.08258 -2.03711,4.32516 -3.06179,6.50125 -0.85936,1.52713 -1.90227,2.93998 -2.78005,4.45646 -0.94912,0.95825 -1.8768,1.94073 -2.92222,2.79733 -1.89394,1.46312 -4.00905,2.53293 -5.93156,3.95637 -2.43972,1.70546 -4.76723,3.5345 -7.04952,5.44657 -2.64718,1.94276 -5.50685,3.59356 -7.99113,5.7656 -2.54608,1.93033 -5.0482,3.92333 -7.30224,6.19474 -2.05704,1.91427 -4.27787,3.6285 -6.50819,5.33528 -2.08908,1.83696 -4.17581,3.68325 -6.06816,5.72725 -2.12598,1.87596 -4.3168,3.67787 -6.68235,5.24774 -2.65068,2.04438 -5.23014,4.18115 -7.95341,6.13226 -3.13286,2.18281 -6.38743,4.18622 -9.50486,6.3929 -2.71899,1.84943 -5.33751,3.83506 -7.96863,5.80586 -2.98116,1.95005 -6.04024,3.77691 -8.96593,5.81194 -2.80751,1.93899 -5.31977,4.25706 -7.9414,6.43552 -3.25731,3.144 -6.20238,6.59851 -9.32744,9.87127 -1.11236,1.32121 -1.95879,2.25002 -2.91711,3.68116 -1.77999,2.65819 -3.14958,5.59981 -4.43717,8.51602 -1.88425,4.78599 -3.57217,9.73107 -3.50808,14.94259 0.002,3.70135 0.0358,7.40282 0.066,11.10394 0.0686,4.25977 0.26342,8.52562 0.87973,12.74588 0.55157,3.63834 0.99773,7.37301 2.96478,10.57703 2.15539,2.47764 3.76524,2.29643 6.89738,1.83772 3.26622,-0.63021 6.3074,-1.91987 9.40449,-3.10536 3.78187,-1.24656 7.60304,-2.37898 11.40972,-3.5483 2.07534,-0.64183 4.17854,-1.26013 6.20989,-2.03369 3.50801,-1.33589 10.96903,-5.68053 -3.74928,2.67665 4.01502,-2.51698 8.02116,-5.04454 11.93725,-7.71477 3.71794,-2.89708 7.40403,-5.80514 10.2514,-9.61734 2.34716,-2.72846 4.1544,-5.84981 6.6227,-8.4782 2.53112,-3.01062 4.85055,-6.1808 7.12554,-9.3882 2.76119,-3.77143 5.67976,-7.53955 7.0778,-12.06882 1.86119,-5.26039 3.44884,-10.61984 5.70936,-15.7366 1.90372,-4.06181 4.02462,-8.06361 4.50687,-12.59603 0.92622,-5.64217 1.74691,-11.32069 1.34488,-17.0582 -0.23332,-6.34228 -0.65878,-12.67435 -1.48664,-18.97018 -0.83837,-8.03598 -1.18356,-16.1342 -1.47109,-24.20501 -0.34019,-9.01523 -0.85517,-18.05218 -2.55006,-26.93222 -0.16169,-0.88896 -0.28756,-1.78519 -0.48506,-2.66688 -0.11976,-0.53463 -0.89015,-1.23028 -0.46542,-1.57636 2.89763,-2.36104 6.38048,-3.89521 9.57072,-5.84282 -0.10641,0.11345 -0.28017,0.1898 -0.31924,0.34036 -0.26373,1.01652 0.0235,2.12974 -0.24365,3.1411 -0.27851,4.08106 -0.5239,8.16242 -0.57797,12.25319 -0.1859,3.31211 -0.58277,6.60984 -1.57724,9.78967 -0.77708,2.959 -1.22752,6.01334 -2.73451,8.73448 -3.6824,4.61453 -9.50022,7.09569 -14.94387,9.14222 -0.712,0.22642 -0.90759,0.26392 -1.59318,0.58364 -0.27222,0.12695 -1.05882,0.56711 -0.79999,0.4147 15.35919,-9.04402 10.38505,-6.29923 7.27034,-4.11467 -0.71889,0.48309 -1.23065,1.10027 -1.90046,1.62394 -3.14786,2.46107 -12.66958,5.0529 -11.70255,7.01624 -1.4923,0.5506 -3.08201,0.80184 -4.64093,1.10078 -1.56018,0.22245 -3.14641,0.58669 -4.71493,0.2351 -1.86731,-0.48206 -3.35596,-1.44963 -4.50929,-3.0271 -1.15181,-1.96681 -1.94141,-4.05915 -1.80615,-6.38148 0.0169,-2.24259 0.0178,-4.48514 0.0241,-6.72778 -0.0126,-2.29814 -0.0998,-4.59819 0.0391,-6.8946 0.15502,-2.59063 0.38278,-5.20484 1.36345,-7.63727 1.08306,-2.73094 2.41783,-5.3362 3.62766,-8.00986 1.06072,-2.83619 2.66216,-5.33089 4.50882,-7.72607 3.89898,-5.27545 6.7557,-5.64115 13.86253,-9.75935 2.24958,-1.30356 13.24029,-5.83419 -6.68147,4.0246 3.49893,-2.05876 6.98439,-4.1406 10.49681,-6.17627 1.88657,-1.09339 4.01196,-1.64241 6.19184,-1.50093 1.64524,0.22104 3.13647,0.65893 4.25669,1.96982 1.14306,1.48654 1.69125,3.249 2.31154,4.99679 0.71823,1.98112 0.95251,4.04071 0.84476,6.14529 0.01,2.35594 -0.0237,4.71197 -0.002,7.06795 -0.031,2.82462 -0.0578,5.65575 -0.43261,8.46111 -0.5276,3.90584 -1.53807,7.66491 -2.83275,11.38749 -0.8547,3.56469 -1.56463,7.17585 -2.75821,10.64862 -1.00296,2.76239 -2.0655,5.5189 -3.2957,8.18644 -1.5268,2.95513 -2.98463,5.98421 -5.21028,8.49366 -1.98247,2.4694 -4.0114,4.85081 -6.85346,6.37691 -1.74011,1.46568 -2.85316,3.51701 -4.56846,5.0281 -0.9559,0.97589 -1.90445,1.9993 -2.97345,2.85496 -3.93495,3.1497 -8.61639,5.24601 -13.00378,7.70892 -2.11661,0.961 -4.30666,1.54306 -6.64079,1.63933 -1.84505,0.0828 -3.73095,0.0982 -5.54123,-0.31125 -1.38664,-0.43245 -2.56929,-1.13959 -3.52422,-2.25518 -1.1994,-1.35375 -1.96979,-2.99932 -2.17315,-4.81035 -0.098,-1.71781 -0.29789,-3.42506 -0.71472,-5.09834 -0.4357,-2.07784 -0.60952,-4.21587 -1.36206,-6.22235 -0.52606,-2.41991 -1.039,-4.81947 -0.9353,-7.31643 -0.12552,-2.65822 -0.38674,-5.30824 -0.95685,-7.91249 -0.47981,-2.3668 -0.73125,-4.76413 -1.18549,-7.13391 -0.52276,-2.2317 -1.04498,-4.46506 -1.96144,-6.5763 -0.74198,-2.64197 -1.10686,-5.37635 -1.99259,-7.97915 -0.75882,-2.48241 -1.91118,-4.8353 -2.25662,-7.42345 -0.42421,-1.89109 -0.62772,-3.83899 -1.23488,-5.68522 -1.07975,-2.08294 -3.04577,-3.08989 -5.33802,-3.40812 -2.19059,-0.22947 -4.27703,0.0182 -6.26482,1.04249 -3.73519,1.88703 -2.27196,1.17148 7.67858,-4.58866 0.29068,-0.16827 -0.568,0.35999 -0.83613,0.56228 -0.9517,0.718 -1.83435,1.54507 -2.64822,2.41314 -1.90749,1.99493 -3.76253,4.03525 -5.51493,6.16867 -1.71026,2.56067 -3.18234,5.25227 -4.26151,8.14526 -1.3829,4.09561 -2.29008,8.37202 -2.72528,12.67241 -0.18465,5.00996 -0.0876,10.02661 -0.11829,15.03927 0.0121,4.77696 0.006,9.57135 0.52452,14.3257 0.83685,4.60622 -0.93357,2.12403 -9.17452,6.8705 -0.18437,0.10619 0.3311,-0.28483 0.42617,-0.47517 0.30207,-0.60474 0.27202,-1.34175 0.6465,-1.92216 0.77571,-1.56859 1.57121,-3.15266 1.99458,-4.85383 0.30085,-2.01233 0.6777,-4.01985 0.54154,-6.06465 -0.0335,-3.57333 -0.28311,-7.14262 -0.90976,-10.66573 -1.19614,-6.35922 -3.01102,-12.5836 -4.56407,-18.86127 -1.01043,-3.51994 -2.20156,-6.99336 -3.18875,-10.51769 -0.68997,-2.46326 -0.55725,-2.90365 -1.36523,-5.15399 -0.17595,-0.49007 -0.43004,-0.94846 -0.64506,-1.42268 3.18413,-1.92012 6.3894,-3.8056 9.55237,-5.76036 0.09,-0.0556 -0.25863,-0.0401 -0.3132,0.0504 -0.59154,0.98187 -0.0126,2.86757 -0.38359,3.96034 -0.28138,2.69238 -0.62935,5.37744 -0.72111,8.08555 -0.39969,4.0917 -1.0112,8.16834 -2.3057,12.08667 -0.41303,1.40638 -0.87702,2.7976 -1.28143,4.20648 -0.68699,2.39336 -1.26468,4.77947 -2.65602,6.89924 -1.76811,3.02746 -3.54311,6.04953 -6.15606,8.45267 -2.08488,2.07475 -4.45555,3.75633 -6.67175,5.67812 -4.1029,3.77196 -8.76231,5.753 -13.7961,8.69089 -2.68773,1.56865 5.38649,-3.11834 8.08156,-4.67434 0.40377,-0.23312 -0.80509,0.47045 -1.20764,0.70567 -2.65762,1.43831 -4.82985,3.5511 -7.26313,5.32153 -3.51405,2.0708 -7.01142,4.17016 -10.54215,6.21239 -1.66722,0.96435 -3.4364,1.13026 -5.01475,-0.0837 -2.15972,-1.87639 -3.534399,-4.47999 -5.002654,-6.90133 -1.138483,-2.2387 -2.082289,-4.58266 -2.542487,-7.06316 -0.238085,-2.64965 0.02315,-5.31478 -0.05066,-7.97176 -0.0021,-3.36578 0.0051,-6.73151 0.02016,-10.09725 -0.0079,-4.0371 0.03453,-8.07338 0.137774,-12.10927 0.159821,-3.79118 0.331525,-7.62981 1.429184,-11.28875 0.171219,-0.46009 0.623937,-1.74888 0.895672,-2.23007 0.133768,-0.23687 0.26057,-0.50837 0.492258,-0.65094 2.390213,-1.47078 8.133673,-8.74793 11.263923,-5.02204 0.92113,1.60511 1.34882,3.50171 1.58715,5.32257 0.002,1.88772 0.0183,3.77546 0.009,5.66316 -0.0189,2.43261 -0.0252,4.86551 -0.0977,7.29731 -0.0986,3.88274 -0.16266,7.77283 -0.60438,11.63592 -0.54143,4.05139 -1.36369,8.06939 -2.55168,11.98316 -1.30589,4.70454 -2.95024,9.30787 -5.40213,13.55431 -0.3434,0.57076 -0.65076,1.16481 -1.0302,1.71227 -1.629282,2.35071 -4.047873,3.96164 -6.386213,5.52448 -6.409592,3.74711 -12.574505,7.85362 -19.633885,10.25116 -3.086732,0.88483 -6.309352,1.64191 -9.540568,1.42879 -2.425417,-0.24572 -4.725281,-0.66912 -6.501955,-2.48972 -1.927138,-1.90417 -3.224146,-4.2534 -4.525513,-6.61331 -1.499589,-2.71999 -2.654649,-5.60817 -4.260463,-8.27199 -1.667349,-2.95218 -3.224451,-5.98952 -5.2977,-8.68597 -1.396322,-2.04936 -2.933453,-4.06731 -3.820742,-6.40173 -0.754917,-2.03598 -1.789684,-3.96863 -2.135505,-6.14217 -0.36632,-2.69867 -0.401724,-5.44646 -1.061706,-8.1052 -0.589804,-2.61699 -1.156161,-5.24041 -1.603608,-7.88577 -0.369067,-2.72538 -1.131512,-5.38666 -1.333876,-8.12632 -0.178866,-2.57989 -0.57405,-5.14885 -0.565674,-7.7372 0.0098,-2.88172 0.01741,-5.7633 0.05727,-8.64491 0.05202,-2.7929 0.174863,-5.59069 0.756044,-8.33268 0.464844,-2.40509 1.118915,-4.75756 1.894988,-7.0807 0.812517,-2.24714 1.409965,-4.56006 1.648995,-6.93984 0.449757,-2.611074 1.081151,-5.211256 0.971589,-7.883204 0.0046,-3.250509 0.06152,-6.50145 0.206764,-9.748892 0.246126,-4.123907 0.647129,-8.242298 0.670444,-12.376023 0.09112,-4.952151 0.417679,-9.892745 1.174634,-14.792772 0.914273,-7.055456 1.977596,-14.087888 2.469747,-21.192834 0.335754,-2.700507 0.839309,-5.392756 1.116891,-8.09898 0.05105,-0.497658 -0.33487,-1.213589 0.07608,-1.498879 3.166965,-2.19859 6.766814,-3.696868 10.12807,-5.585103 0.07128,-0.04004 -0.162105,0.0214 -0.243157,0.0321 -0.368028,1.85786 -0.59689,3.744742 -0.531781,5.641272 -0.0114,2.477503 -0.01905,4.955302 -0.08253,7.43217 -0.127776,3.04306 -0.241237,6.097738 -0.759217,9.105222 -0.476861,2.62396 -0.918813,5.216591 -0.969375,7.89032 -0.253765,2.690521 -0.722958,5.351891 -1.027835,8.036586 -0.429503,2.163598 -0.997381,4.18025 -2.581291,5.80273 -1.333378,2.022801 -1.469276,4.423897 -1.843855,6.768542 -0.367702,3.761695 -0.570147,7.523041 -0.695245,11.300357 -0.307462,4.609544 -0.87417,9.192064 -1.266608,13.794208 -0.0292,4.77549 -0.0073,9.551 -0.02138,14.32651 -0.0271,4.16452 -0.142561,8.33015 -0.513848,12.48014 -0.406006,4.1645 -0.764143,8.34135 -1.589757,12.44973 -0.933262,4.35521 -2.021154,8.67601 -2.947135,13.03278 -1.144818,4.22512 -2.391905,8.43641 -4.263178,12.40573 -1.856293,4.01641 -3.564538,8.12027 -5.93344,11.87368 -1.548194,2.78727 -3.121025,5.5726 -5.039663,8.12672 -0.8879,1.27998 -1.724068,2.64286 -2.714577,3.84672 -3.326455,4.04295 -7.918958,5.83824 -12.7059838,8.38396 -2.8454511,1.07018 -3.6296383,0.48527 -6.3710671,-0.2611 -2.0118348,-0.56499 -3.84055106,-1.54054 -5.2455954,-3.12479 -1.3355644,-1.59545 -2.5689402,-3.27768 -2.9183191,-5.38435 -0.2816283,-2.26958 -0.263507,-4.53339 -0.2196822,-6.81885 0.023141,-2.91804 0.021876,-5.83627 0.063588,-8.75415 0.022722,-3.26275 0.092877,-6.53373 0.4643758,-9.77817 0.4786503,-3.76813 0.8792725,-7.54516 1.4487815,-11.30015 0.2075257,-1.10049 0.46639,-2.19148 0.6490978,-3.29636 0.3055414,-1.84768 0.4477045,-3.7237 1.1434344,-5.4891 0.9535624,-2.67886 2.4338481,-4.97792 4.4733385,-6.98112 4.9783446,-4.67582 11.3339056,-7.84989 17.7219986,-10.1702 3.071082,-0.76339 6.358958,-1.52379 9.489132,-0.6861 2.424811,0.67805 4.810292,1.49151 7.223728,2.20603 2.416511,0.93949 4.691084,2.15416 6.856061,3.5842 2.617626,1.70349 5.309108,3.31266 7.750632,5.2687 1.947329,2.07836 2.548777,3.52089 2.435829,6.40772 -0.02692,2.67108 -0.05363,5.34256 -0.208188,8.01016 -0.275177,3.07637 -0.604842,6.18818 -1.783302,9.07404 -1.09977,2.94707 -2.054291,5.96234 -3.458604,8.78283 -1.514954,3.57659 -2.664008,7.32993 -4.739264,10.64263 -1.69508,2.43767 -3.703987,4.62284 -5.954959,6.56279 -5.369663,4.43391 -11.816233,7.38866 -17.959416,10.61534 -3.122106,1.44646 -6.305211,2.54716 -9.760972,2.87572 -4.1091103,0.40574 -8.2254789,0.4262 -12.3520735,0.36648 -4.0705013,-0.003 -8.1404252,0.0454 -12.2107435,0.0693 -2.991339,0.002 -5.988176,-0.0775 -8.964378,-0.39696 -2.730372,-0.41102 -5.402953,-1.05119 -7.917558,-2.22835 -1.993291,-0.91266 -4.074271,-1.70311 -5.840481,-3.03259 -1.743271,-1.34365 -3.257952,-2.923 -4.273457,-4.89984 -0.958578,-1.8175 -1.824707,-3.6935 -2.437522,-5.65842 -0.745273,-2.13383 -1.304105,-4.31733 -1.17929,-6.60258 0.03087,-2.62473 0.05896,-5.24986 0.04624,-7.87473 0.01244,-2.72556 0.05592,-5.45251 -0.02726,-8.17716 -0.0232,-0.57214 -0.261681,-4.89653 -0.732922,-5.027 -0.09794,-0.0271 -0.168844,0.11315 -0.253267,0.16972 15.055865,-9.00983 7.972766,-5.77304 4.887539,-0.68482 -1.190715,2.1055 -2.193888,4.29919 -2.295596,6.75973 -0.197967,1.90119 -0.05406,3.81681 -0.09481,5.72609 0.01696,1.88603 0.0078,3.7732 -0.03388,5.65872 -0.08279,2.01604 -0.207949,4.03201 -0.678725,6.00249 -0.53648,2.44898 -1.045181,4.9016 -1.566135,7.35527 -0.81946,6.04282 -0.846902,10.32306 -11.503871,10.5019 -2.040586,-0.60542 -3.596482,-2.09166 -5.450494,-3.08296 -1.901028,-0.97747 -3.720594,-2.11475 -5.711856,-2.90862 -2.215423,-0.80583 -4.4932,-1.45032 -6.633488,-2.4495 -1.31149,-0.51705 -2.644339,-0.4751 -4.039071,-0.44124 -1.395542,-0.0116 -2.791074,-0.004 -4.186555,0.0124 -1.504633,0.007 -3.011861,0.0617 -4.507846,0.22932 -1.394053,0.21084 -2.789918,0.72049 -4.187339,0.66388 -0.217352,-0.12605 -0.463634,-0.21194 -0.652055,-0.37816 -1.323162,-1.16725 -0.565234,-3.48042 -0.640902,-4.96046 0.183276,-3.34511 0.468632,-6.69684 1.134366,-9.98463 0.61831,-2.65729 1.103368,-5.3733 2.372339,-7.81789 1.154954,-2.91654 2.234388,-5.87835 3.736745,-8.63953 1.435121,-2.66533 2.704745,-5.44908 4.773112,-7.70328 1.875324,-2.29912 3.852124,-4.54182 6.174714,-6.4025 0.03878,-0.0227 8.431061,-6.05723 12.434352,-6.81511 0.952829,-0.18039 1.918203,-0.086 2.879069,-0.10368 2.013575,0.0148 4.033592,0.0421 6.02815,0.35302 2.475204,0.47426 4.895356,1.19367 7.122674,2.40004 2.526437,1.43705 5.116491,2.95978 6.954588,5.25864 1.810925,2.57396 3.26308,5.32916 4.417968,8.25934 1.334262,3.16152 2.427877,6.38982 3.040015,9.7771 0.32976,1.65278 0.709522,3.25626 1.207756,4.86695 0.125537,0.40583 0.240901,0.81535 0.387184,1.21417 0.110215,0.3005 0.643194,0.69713 0.381373,0.88123 -3.061433,2.1527 -6.4619,3.77754 -9.692849,5.66631 0.692362,-1.74211 -0.0029,-4.66999 0.216434,-6.59269 0.01757,-2.13172 0.01545,-4.26631 -0.127008,-6.3943 -0.268631,-2.69099 -0.7831,-5.35486 -1.899398,-7.83785 -1.169887,-2.49322 -2.500051,-4.92783 -3.399724,-7.53619 -0.896181,-2.43362 -2.360115,-4.55499 -3.305588,-6.96605 -0.96647,-2.38741 -1.858375,-4.90539 -3.563157,-6.87638 -1.418442,-1.38074 -2.913269,-2.17512 -4.96538,-1.97719 -2.234779,0.20457 -4.446193,0.58711 -6.501862,1.53684 -3.808876,1.71899 -15.019221,7.76732 0.657555,-0.94723 -30.040407,17.44112 -3.860326,2.24104 -3.814627,2.21516 0.657778,-0.37263 -1.287889,0.79215 -1.928368,1.19379 -2.050513,1.28585 -4.089525,2.59047 -6.131121,3.89039 -3.202321,1.8832 -10.827596,6.83089 -15.670509,8.91136 -2.184386,0.93838 -4.484102,1.57576 -6.760551,2.24079 -1.932784,0.48841 -2.740371,0.73983 -4.709226,1.04933 -2.99974,0.47155 -6.04269,0.50963 -9.05964,0.8047 -3.73571,0.38647 -7.4759,0.98509 -11.24143,0.87459 -2.92948,-0.0841 -5.85656,-0.22995 -8.77315,-0.5264 -3.28117,-0.24141 -6.58266,-0.18543 -9.84202,-0.67308 -2.88764,-0.53859 -5.6907,-1.24147 -7.94525,-3.24784 -1.61064,-1.7454 -2.38261,-3.49322 -2.23205,-5.91339 0.0564,-1.86958 0.0934,-3.76926 1.07125,-5.43018 0.54886,-0.74428 0.61715,-0.99034 1.44659,-1.47791 5.24094,-3.08077 8.70382,-6.15135 14.24024,-6.9252 2.36349,-0.29512 4.81229,-0.56174 7.10515,0.25864 1.76965,0.86731 2.80731,2.32359 3.58835,4.11489 1.14419,2.22974 1.91078,4.62013 2.47623,7.05929 0.24912,2.06673 0.54439,4.11123 0.39176,6.20175 -0.046,2.13848 -0.11152,4.2784 -0.42658,6.39812 -0.39041,2.80698 -1.03775,5.57931 -1.173,8.41919 -0.0505,2.93892 -0.16763,5.89614 -0.99185,8.73974 -0.83955,2.55542 -2.16389,4.90302 -2.81332,7.51772 -0.89528,2.43419 -2.03421,4.73144 -3.95593,6.53309 -1.37588,1.43265 -2.93589,2.68074 -4.38856,4.03428 -3.42482,1.96689 -6.83243,3.96403 -10.27444,5.90066 -1.62797,0.91597 -3.53626,1.31579 -5.1634,2.24256 -2.34668,1.1104 -4.66016,2.28906 -7.0274,3.35579 -2.2208,0.98297 -4.47954,1.91992 -6.95651,1.90798 -2.09683,-0.0119 -4.19757,-0.0144 -6.28692,-0.21455 -2.4299,-0.26412 -4.85038,-0.67085 -7.00324,-1.90702 -1.94904,-1.24207 -3.50016,-2.90139 -4.3066,-5.10619 -0.56799,-2.60102 -0.45762,-5.24736 -0.42291,-7.89573 0.0404,-3.64132 0.0141,-7.28243 0.0593,-10.92364 0.096,-3.61083 0.20432,-7.23026 0.84389,-10.79525 0.7283,-3.37039 1.41085,-6.74439 2.16203,-10.10593 0.90688,-3.06631 1.65852,-6.20066 3.2608,-9.00535 1.62353,-2.60501 3.46092,-5.01174 5.74543,-7.08252 4.67745,-3.75971 10.11466,-6.59655 15.62663,-8.92927 2.10587,-0.64095 4.24665,-1.26928 6.47602,-1.05872 2.23174,0.13705 4.44623,0.41921 6.55519,1.21039 2.793,1.04904 5.55958,2.27091 8.09858,3.84265 2.08365,1.54386 3.78627,3.39316 4.46694,5.96547 0.47025,2.08657 0.45717,4.16791 0.21876,6.29313 -0.44938,3.02851 -1.3817,5.91094 -2.9188,8.57654 -2.19938,4.04289 -4.45717,8.10645 -7.4499,11.62693 -3.04219,3.64431 -5.98624,7.39885 -9.37029,10.73547 -2.77783,2.70038 -5.51996,5.46387 -8.59806,7.82729 -5.39433,4.01006 -11.40768,7.13544 -17.23887,10.43654 -3.03682,1.47309 -6.00341,3.14766 -9.17604,4.30041 -2.03807,0.51178 -4.08004,0.81101 -6.18896,0.68291 -1.93121,0.0131 -3.86298,0.009 -5.79395,-0.0216 -2.4554,-0.0684 -4.91088,-0.18944 -7.34317,-0.55583 -2.82839,-0.43909 -5.59291,-1.18454 -8.40758,-1.70274 -2.35909,-0.34568 -4.74887,-0.49611 -7.07439,-1.06826 -2.42011,-0.48724 -4.81697,-1.04706 -7.18807,-1.73944 -2.19072,-0.61553 -4.35435,-1.30762 -6.5447,-1.92428 -2.42621,-0.92282 -4.62457,-2.18683 -5.91003,-4.54232 -1.37668,-2.45064 -2.72058,-4.90716 -4.30774,-7.23182 -1.04354,-2.26916 -1.88837,-4.67649 -2.03853,-7.18801 0.0432,-2.39617 0.0777,-4.79232 0.32729,-7.17867 0.29501,-3.58602 0.68073,-7.16858 0.51233,-10.77412 -0.005,-3.47792 -0.0611,-6.95533 -0.0503,-10.43321 0.0659,-2.86961 0.2288,-5.74406 0.84834,-8.55654 0.86712,-3.65994 2.11387,-7.23805 2.55857,-10.98717 0.6711,-4.02341 1.5344,-8.01389 2.06705,-12.0599 0.69202,-3.70361 1.35434,-7.40953 2.12747,-11.094489 0.89674,-3.161409 1.77095,-6.327368 2.81043,-9.446038 0.50629,-2.757863 1.24116,-5.466315 1.74206,-8.226615 0.13942,-1.075997 0.18811,-1.160664 0.19022,-2.18421 5.3e-4,-0.258011 -0.25599,-0.646017 -0.0316,-0.773385 5.38722,-3.057982 10.65888,-8.899744 10.33312,-3.847372 -0.0209,2.280306 -0.0305,4.560654 -0.0186,6.841035 8e-4,2.37708 -0.0375,4.754173 0.0267,7.130888 0.015,1.900674 -0.002,3.801616 0.005,5.702308 -0.0117,2.11691 -0.007,4.234122 -0.095,6.349788 -0.0835,2.34203 -0.30266,4.67175 -0.76541,6.97273 -0.4496,2.90394 -0.59498,5.8556 -1.23753,8.73261 -0.40031,2.37617 -0.118,4.81055 -0.45305,7.20425 -0.31211,3.3939 -0.86464,6.76002 -1.15584,10.15606 -0.41732,3.55316 -0.48114,7.16932 -1.45851,10.63057 -1.0889,3.34556 -1.97584,6.76026 -3.2253,10.04486 -1.55874,3.20426 -3.37629,6.24176 -5.4114,9.16764 -1.9994,2.97557 -3.82458,6.05978 -5.61297,9.16548 -1.83877,3.32197 -3.89975,6.50842 -6.2274,9.5121 -2.57013,2.86738 -5.07906,5.78285 -7.65567,8.6455 -3.43493,3.77655 -7.0571,7.38176 -10.60146,11.05502 -2.94475,2.86407 -5.99974,5.67869 -8.49389,8.95543 l -10.37523,4.29756 z" id="loading-text" inkscape:connector-curvature="0" inkscape:label="#path4493" sodipodi:nodetypes="ccccccccccccccccccccccccccccccccccccccccccccccccccccccccccccccccccccccccccccccccccccccscccccccccccccccccccccccccccccccccccccccsccccccccccccccccccccccccccccccccccccscccccccccccscccccccccccccccccsccccccccccccccccccccccccccccccccccccccccccccccccccccccccccccccccccccccccccccccccccccccccccccccsccccccccccccccccsccccccccccccccccccccccccccccccccccccccccccccccccccccccccccccccccccccccccccccccccccccccssccccccccccccccccccccccccccccccccccccccccccccccccccccccccccccccccccccccccccccccsccccccccccccccccccccccccccccccccccccccccccccccccccccccccccccccccscccccccccccccccccccccccccccccccccccccccccccccccccccccccccccccccccccccccccccsccccccccccccccccccscccccccccccccccccccccccccccccccccccccccccccccccccccccccccccccccsccccccccscccccccccccccccccccccccccccccccccccccccccccccccccccccccccccccccccccccccccscccccccccccccccccccscccccccccccccccccccccccccccccccccccccccccccccccccccccccccccccccc" style="opacity:1;fill:#c63a38;stroke:#c63a38;stroke-width:1.7285229;stroke-linejoin:miter;stroke-miterlimit:4;stroke-opacity:1"/>
    </g>
</svg>