<?xml version="1.0" encoding="UTF-8" standalone="no"?>
<!-- Created with Inkscape (http://www.inkscape.org/) -->

<svg
   xmlns:dc="http://purl.org/dc/elements/1.1/"
   xmlns:cc="http://creativecommons.org/ns#"
   xmlns:rdf="http://www.w3.org/1999/02/22-rdf-syntax-ns#"
   xmlns:svg="http://www.w3.org/2000/svg"
   xmlns="http://www.w3.org/2000/svg"
   xmlns:sodipodi="http://sodipodi.sourceforge.net/DTD/sodipodi-0.dtd"
   xmlns:inkscape="http://www.inkscape.org/namespaces/inkscape"
   width="602.26233mm"
   height="301.03705mm"
   viewBox="0 0 2134.0004 1066.6667"
   id="svg2"
   version="1.1"
   inkscape:version="0.92.1 r"
   sodipodi:docname="right_mask.svg">
  <defs
     id="defs4" />
  <sodipodi:namedview
     id="base"
     pagecolor="#ffffff"
     bordercolor="#666666"
     borderopacity="1.0"
     inkscape:pageopacity="0.0"
     inkscape:pageshadow="2"
     inkscape:zoom="0.24748737"
     inkscape:cx="1197.5206"
     inkscape:cy="705.44571"
     inkscape:document-units="px"
     inkscape:current-layer="layer1"
     showgrid="false"
     fit-margin-top="0"
     fit-margin-left="0"
     fit-margin-right="0"
     fit-margin-bottom="0"
     inkscape:window-width="1366"
     inkscape:window-height="723"
     inkscape:window-x="0"
     inkscape:window-y="21"
     inkscape:window-maximized="1" />
  <metadata
     id="metadata7">
    <rdf:RDF>
      <cc:Work
         rdf:about="">
        <dc:format>image/svg+xml</dc:format>
        <dc:type
           rdf:resource="http://purl.org/dc/dcmitype/StillImage" />
        <dc:title />
      </cc:Work>
    </rdf:RDF>
  </metadata>
  <g
     inkscape:label="Layer 1"
     inkscape:groupmode="layer"
     id="layer1"
     transform="translate(1172.4288,0.97120667)">
    <path
       sodipodi:nodetypes="ccccc"
       d="M -1172.4288,1065.6955 H 957.05195 L 961.57168,-0.97120667 H -1172.4288 Z"
       style="fill:none;fill-opacity:1;fill-rule:nonzero;stroke:none;stroke-width:0.1"
       id="path14"
       inkscape:connector-curvature="0" />
    <path
       style="fill:#000000;fill-opacity:0.00392157;fill-rule:nonzero;stroke:none"
       d="m 580.00977,125.97656 c -5.99648,0.21343 -11.21855,4.60984 -12.25,10.75782 l -16.53321,97.66601 h -28.08398 v 24.70899 5.76562 h -47.30664 v 292.2832 h -2.61719 -2.70313 v 4.95899 l -4.63671,6.42187 v 11.1211 11.33203 11.26172 h -1.78516 v 6.50781 h 9.125 2.61719 v 0.25976 H 453.4707 v 5.76563 18.94336 h 29.99414 l -1.35742,8.11914 h 0.14453 l -55.53711,328.08008 h 25.62696 l 45.02734,-264.96875 h 96.01367 v 264.96875 h 25.79883 V 704.96094 h 95.76563 l 44.91015,264.96875 h 25.62696 L 730.08984,641.84961 h 0.38868 l -1.35743,-8.11914 h 29.97266 V 609.02148 H 736.53516 V 598.43945 264.875 h -47.5 v -5.76562 -24.70899 h -27.74024 l -16.49023,-97.66601 c -1.1788,-7.02627 -7.83249,-11.76468 -14.85742,-10.58594 -7.02626,1.18 -11.76594,7.83117 -10.58594,14.85742 l 14.86328,87.69141 h -0.16211 l 0.95898,5.70312 h -15.83984 v -92.37305 c 0,-7.12376 -5.77666,-12.90039 -12.90039,-12.90039 -7.12308,0 -12.89737,5.77754 -12.89844,12.90039 v 92.37305 h -15.85742 l 0.95703,-5.70312 h -0.18359 l 14.90234,-87.69141 c 1.18,-7.02625 -3.55891,-13.67742 -10.58398,-14.85742 -0.87829,-0.14734 -1.75078,-0.20237 -2.60742,-0.17188 z M 148.49219,474.82812 c -2.57875,0 -5.15266,1.14211 -6.87891,3.41211 -1.14125,1.50375 -1.75976,3.3375 -1.75976,5.21875 v 38.40235 c 0,3.45875 -1.40352,6.59719 -3.66602,8.86719 -2.27,2.27 -5.40094,3.67382 -8.86719,3.67382 -2.39,0 -4.33008,1.93297 -4.33008,4.32422 v 6.86328 h 0.002 v 4.81641 15.37305 4.8164 23.32032 h 50.99219 v -23.32032 -0.002 -4.81445 -15.37305 -0.002 -4.81446 h 0.002 v -6.86328 c 0,-1.19625 -0.48328,-2.2775 -1.26953,-3.0625 -0.785,-0.77875 -1.86625,-1.26172 -3.0625,-1.26172 -6.92375,0 -12.53321,-5.61601 -12.53321,-12.54101 v -38.40235 c 0,-0.94125 -0.15297,-1.86804 -0.44921,-2.74804 -0.295,-0.88625 -0.7386,-1.71821 -1.3086,-2.47071 -1.72625,-2.27 -4.29859,-3.4121 -6.87109,-3.41211 z m 62.96484,0 c -2.1175,0 -4.22898,0.93704 -5.64648,2.80079 -0.9375,1.235 -1.44336,2.7414 -1.44336,4.28515 v 31.52735 c 0,2.84 -1.15422,5.41359 -3.01172,7.27734 -1.86375,1.86375 -4.43109,3.01563 -7.27735,3.01563 -1.9625,0 -3.55664,1.58828 -3.55664,3.55078 v 5.63476 h 0.002 v 3.95313 12.62109 3.95508 19.14453 h 41.86133 v -19.14453 -0.002 -3.95313 -12.62109 -0.002 -3.95117 h 0.002 v -5.63476 c 0,-0.98125 -0.39602,-1.86868 -1.04102,-2.51368 -0.645,-0.64 -1.53242,-1.0371 -2.51367,-1.0371 -5.685,0 -10.28906,-4.60797 -10.28906,-10.29297 v -31.52735 c 0,-0.77125 -0.12859,-1.53336 -0.37109,-2.25586 -0.24251,-0.7275 -0.60547,-1.41179 -1.07422,-2.02929 -1.41625,-1.86375 -3.52938,-2.80079 -5.64063,-2.80079 z m 52.04297,0 c -1.7025,0 -3.40031,0.75321 -4.53906,2.25196 -0.75375,0.99375 -1.16406,2.20406 -1.16406,3.44531 v 25.35352 c 0,2.28375 -0.92618,4.35476 -2.41993,5.85351 -1.49875,1.49875 -3.56406,2.42383 -5.85156,2.42383 -1.57875,0 -2.86133,1.27867 -2.86133,2.85742 v 4.53125 h 0.002 v 3.17774 10.15039 3.17968 15.39454 h 33.66406 v -15.39454 -0.002 -3.17773 -10.15039 -3.17774 h 0.002 v -4.53125 c 0,-0.79 -0.31914,-1.50469 -0.83789,-2.02344 -0.51875,-0.51375 -1.23344,-0.83398 -2.02344,-0.83398 -4.57125,0 -8.27343,-3.70609 -8.27343,-8.27734 v -25.35352 c 0,-0.62 -0.10188,-1.2325 -0.29688,-1.8125 -0.19625,-0.58625 -0.48703,-1.13531 -0.86328,-1.63281 -1.14,-1.49875 -2.83836,-2.25196 -4.53711,-2.25196 z m -0.0234,6 H 263.5 c 1.32672,0.0109 2.43353,0.95574 2.68945,2.21094 0.0366,0.17932 0.0547,0.36453 0.0547,0.55469 0,1.33109 -0.94045,2.44195 -2.19141,2.70703 -0.1787,0.0379 -0.3632,0.059 -0.55273,0.0606 h -0.0234 c -1.52875,0 -2.76953,-1.23758 -2.76953,-2.76758 0,-1.53 1.24078,-2.76562 2.76953,-2.76563 z m -52.04687,1.46094 h 0.0273 c 1.64938,0.0153 3.02561,1.18944 3.34375,2.75 0.0454,0.22294 0.0684,0.45305 0.0684,0.68946 0,1.65484 -1.16943,3.03516 -2.72461,3.36523 -0.22217,0.0471 -0.45187,0.0741 -0.6875,0.0762 h -0.0273 c -1.9025,0 -3.44531,-1.5389 -3.44531,-3.4414 0,-1.9025 1.54281,-3.43946 3.44531,-3.43946 z m -62.97266,1.62696 h 0.0352 c 2.01031,0.0175 3.68484,1.44855 4.07226,3.3496 0.0554,0.27158 0.084,0.55383 0.084,0.8418 0,2.01578 -1.4232,3.69555 -3.31836,4.09766 -0.27074,0.0574 -0.55071,0.0893 -0.83789,0.0918 h -0.0352 c -2.3175,0 -4.19726,-1.87321 -4.19726,-4.18946 0,-2.3175 1.87976,-4.1914 4.19726,-4.1914 z M 509.4727,633.73047 h 83.91015 v 46.52344 h -91.8164 z m 109.70898,0 h 83.69336 l 7.88477,46.52344 h -91.57813 z m -315.68359,162.11523 -4.16016,8.35742 c -2.44125,4.90375 -1.82125,10.77875 1.59375,15.0625 l -0.0117,2.50391 -2.57422,23.66992 0.86133,63.23047 h -4.66601 l -8.81836,-50.13476 -2.70704,-15.40625 -4.83789,0.84961 v 0.002 l -3.98632,0.69922 -0.84961,0.15039 2.70703,15.40625 8.51758,48.43359 h -5.57618 v 7.91992 h 3.25782 v 7.09375 50.49219 h 53.29101 v -57.58594 h 3.25782 v -7.91992 h -10.69336 l 11.4121,-58.38867 1.69141,-23.75 0.43555,-2.46484 -2.41992,-0.42774 -2.41993,-0.42773 -0.4375,2.46484 -6.54492,22.89258 -7.67578,48.63476 0.75,-32.84765 -1.66211,-16.73047 0.008,-1.76758 c 2.43875,-3.0025 2.91516,-7.14625 1.22266,-10.625 l -2.88281,-5.92773 -2.9375,5.90234 c -0.0398,0.0798 -0.0719,0.16164 -0.10938,0.24219 l -1.27148,-4.70899 c -0.1875,-0.69125 -0.80719,-1.17515 -1.52344,-1.1914 l -1.41406,-0.0312 c -0.715,-0.0163 -1.35602,0.4425 -1.57227,1.125 l -3.07422,9.67383 -1.84375,-18.52344 0.0137,-2.50391 c 3.4525,-4.25375 4.12867,-10.12133 1.73242,-15.04883 l -4.08203,-8.39453 z m -29.30664,48.83399 3.98632,-0.70117 3.98438,-0.70118 c 4.52625,-5.5375 4.61609,-12.00015 0.30859,-16.78515 -0.37875,-0.42 -0.76414,-0.83414 -1.11914,-1.27539 l -8.2832,-10.28711 -4.27539,12.49609 c -0.18375,0.53625 -0.40469,1.05633 -0.61719,1.58008 -2.41625,5.9675 -0.12812,12.01383 6.01563,15.67383 z m 63.01953,-45.86914 c -3.53451,0.11472 -7.07774,0.84414 -10.47071,2.21289 l 10.06055,22.18359 2.42383,0.42774 2.41797,0.42773 17.04883,-17.39648 c -4.34875,-3.91625 -9.61711,-6.42555 -15.16211,-7.4043 -2.07938,-0.3675 -4.19766,-0.52001 -6.31836,-0.45117 z m -71.73438,41.28906 -1.375,2.90039 -4.39258,9.27344 h -0.002 l -3.34375,31.68164 -5.95703,24.34765 v -36.07812 l 0.002,-0.004 v -0.90429 h -0.002 l -4.45703,-12.71289 -1.06055,3.02734 -3.39648,9.68555 h -0.002 v 0.90429 36.67383 h -2.95898 v -53.9082 l 0.002,-0.004 v -0.90234 h -0.002 l -4.45703,-12.71289 -1.0625,3.02734 -3.39453,9.68555 h -0.002 v 0.90234 53.91211 h -1.28125 l -1.51562,-7.99023 -6.5,-34.28907 v -0.002 l 0.002,-0.002 -0.16992,-0.88672 -5.14062,-8.88281 -1.60743,-2.77735 -0.47851,3.17383 -1.53321,10.14649 0.16797,0.88867 7.70118,40.62109 h -5.72852 v 7.91992 h 3.25781 v 7.09375 50.49414 h 53.29102 v -57.58789 h 3.25781 v -7.91992 h -10.64062 l 2.46875,-23.4043 2.96289,-12.10742 0.002,-0.002 0.21484,-0.87891 h -0.002 l -0.86719,-8.89257 1.00196,-9.49805 0.002,-0.002 0.0957,-0.9004 h -0.002 l -2.35938,-9.98632 -0.73828,-3.12305 z m 42.45313,16.86328 1.46679,2.26172 -0.38671,17.57422 -0.26368,12.00781 -1.54492,-0.0332 0.35156,-15.33399 z m 8.75586,0.5332 -0.74219,6.82618 0.33594,24.65039 -1.56641,-0.0352 0.26367,-12.00781 0.38477,-17.57422 1.32422,-1.85938 z M 72.46879,879.03906 V 892.125 h 3 v 2.80078 h -5.724609 v 6.74219 1.9082 9.81641 1.9082 7.44531 l 2.453125,3.73243 h 0.271484 v 13.08593 h 3 v 2.80078 h -5.724609 v 6.74024 1.91015 9.81446 1.9082 7.44727 l 2.453125,3.73047 h 38.052734 l 2.45508,-3.73047 v -7.44727 -1.9082 -9.81446 -1.91015 -6.74024 h -5.72461 v -2.80078 h 2.99805 v -13.08593 h 0.27148 l 2.45508,-3.73243 v -7.44531 -1.9082 -9.81641 -1.9082 -6.74219 h -5.72461 V 892.125 h 2.99805 v -13.08594 z m 47.92578,0 V 892.125 h 2.99805 v 2.80078 h -5.72461 v 27.82031 l 2.45312,3.73243 h 0.27344 v 13.08593 h 2.99805 v 2.80078 h -5.72461 v 27.82032 l 2.45312,3.73047 h 38.05469 l 2.45313,-3.73047 v -27.82032 h -5.72461 v -2.80078 h 3 v -13.08593 h 0.27148 l 2.45313,-3.73243 v -27.82031 h -5.72461 V 892.125 h 3 v -13.08594 z m 47.92383,0 V 892.125 h 2.99805 v 2.80078 h -5.72461 v 27.82031 l 2.45508,3.73243 h 0.27148 v 13.08593 h 2.99805 v 2.80078 h -5.72461 v 27.82032 l 2.45508,3.73047 h 38.05468 l 2.45313,-3.73047 v -27.82032 h -5.72657 v -2.80078 h 3 v -13.08593 h 0.27344 l 2.45313,-3.73243 v -27.82031 h -5.72657 V 892.125 h 3 v -13.08594 z"
       id="canvas"
       inkscape:connector-curvature="0" />
    <path
       style="fill:#000000;fill-opacity:0.00392157;fill-rule:nonzero;stroke:none;stroke-width:0.13333333"
       d="m -495.06836,506.56445 c -2.58933,0 -4.6875,2.0995 -4.6875,4.6875 v 12.64649 h -42.05664 c -7.94533,0 -14.38477,6.43881 -14.38477,14.38281 V 588.625 c 0,3.34324 1.14908,6.41292 3.0625,8.85547 h -59.25195 v 26.43945 h 17.76758 v 71.68555 h -9.45313 v 24.29687 h -8.31445 v 26.44141 h 17.76758 v 235.37891 h -6.25195 l -7.87696,9.84961 h 43.47266 l -10.51367,-9.84961 h -5.61133 V 776.20312 h 42.71484 c -0.042,0.32021 -0.0854,0.64219 -0.14257,0.97071 0,0 -4.16622,1.75847 -8.89454,3.96289 -0.16358,-0.91833 -0.16406,-1.53906 -0.16406,-1.53906 l -18.07031,10.03906 c 0,0 -4.04781,15.88273 -5.23047,22.66406 -0.55842,3.20655 -0.96417,5.29516 -1.25195,6.69336 -0.009,0.0426 -0.0169,0.0839 -0.0254,0.125 -0.0319,0.15438 -0.0457,0.22029 -0.0742,0.35547 -0.002,0.009 -0.004,0.0221 -0.006,0.0312 -0.24344,1.14812 -0.39258,1.75391 -0.39258,1.75391 l 10.31445,-0.28907 c 0,0 -2.33334,8.33269 -1,13.66602 1.33333,5.33333 -2.83398,27.5 -2.83398,27.5 0,0 24.50064,7.66601 37.33398,6.16601 7.87999,-0.92103 10.27404,-1.08448 10.96289,-1.07617 0.0492,4.8e-4 0.0782,0.002 0.11133,0.004 0.04,0.003 0.0696,0.005 0.0898,0.01 -10e-4,-0.0665 -0.23972,-10.97932 -0.4375,-21.60742 -0.0933,-5.00832 -0.17423,-9.81614 -0.21485,-13.39648 -0.0312,-2.76357 -0.0447,-4.9723 -0.0117,-5.59961 0.16666,-3.16666 2.16666,-0.66732 2.5,0.66601 0.16584,0.66335 3.88013,-1.23149 7.57032,-3.30273 -0.56037,2.91261 -1.13614,7.34218 -0.3125,10.63672 1.33333,5.33333 -2.83399,27.5 -2.83399,27.5 0,0 24.50065,7.66601 37.33399,6.16601 7.88458,-0.92157 10.27564,-1.08469 10.96289,-1.07617 0.0477,4.9e-4 0.0767,0.002 0.10937,0.004 0.0406,0.003 0.0714,0.005 0.0918,0.01 l 0.002,0.0625 c 0,0 0.0278,-0.009 0.0488,-0.0215 0.0179,-0.01 0.0263,-0.0188 0.01,-0.0293 -0.003,-0.003 -0.0162,-0.005 -0.0234,-0.008 -0.0111,-0.003 -0.0163,-0.007 -0.0371,-0.01 -0.003,-0.11704 -0.63871,-28.78289 -0.6836,-37.98829 -0.006,-1.2997 -9.4e-4,-2.21874 0.0195,-2.60937 0.16666,-3.16666 2.16666,-0.66732 2.5,0.66601 0.16579,0.66321 3.87895,-1.23005 7.56835,-3.30078 -0.56026,2.91264 -1.13597,7.34089 -0.3125,10.63477 1.33333,5.33333 -2.83398,27.5 -2.83398,27.5 0,0 24.50065,7.66601 37.33398,6.16601 7.88459,-0.92157 10.27565,-1.08469 10.9629,-1.07617 0.048,4.7e-4 0.0763,0.002 0.10937,0.004 0.0406,0.003 0.0714,0.005 0.0918,0.01 l 0.002,0.0625 c 0,0 0.002,0 0.002,0 0.002,-6e-4 0.0266,-0.009 0.0469,-0.0215 0.0187,-0.01 0.0269,-0.0184 0.01,-0.0293 -0.003,-0.003 -0.0161,-0.005 -0.0234,-0.008 -0.0111,-0.003 -0.0162,-0.007 -0.0371,-0.01 -0.0214,-0.98292 -0.37106,-17.07681 -0.56055,-28.78711 -0.0583,-3.60715 -0.1127,-7.08032 -0.12305,-9.20118 -0.006,-1.2997 -9.5e-4,-2.21874 0.0195,-2.60937 0.16666,-3.16666 2.16667,-0.66732 2.5,0.66601 0.1658,0.66321 3.87896,-1.23005 7.56836,-3.30078 -0.56026,2.91264 -1.13596,7.34089 -0.3125,10.63477 1.33333,5.33333 -2.83398,27.5 -2.83398,27.5 0,0 24.50198,7.66601 37.33398,6.16601 7.88037,-0.92098 10.27376,-1.08446 10.9629,-1.07617 0.0449,4.3e-4 0.0701,0.002 0.10156,0.004 0.048,0.003 0.0791,0.007 0.10156,0.0117 l 0.002,0.0605 c 0,0 0.0279,-0.009 0.0488,-0.0215 0.018,-0.01 0.0245,-0.0188 0.008,-0.0293 -0.003,-0.003 -0.0131,-0.003 -0.0195,-0.006 -0.0113,-0.004 -0.0163,-0.009 -0.0391,-0.0117 -0.003,-0.13346 -0.83239,-37.43665 -0.66602,-40.59766 0.16666,-3.16666 2.16666,-0.66732 2.5,0.66601 0.1658,0.66321 3.87896,-1.23005 7.56836,-3.30078 -0.56026,2.91264 -1.13597,7.34089 -0.3125,10.63477 1.33333,5.33333 -2.83203,27.5 -2.83203,27.5 0,0 24.49869,7.66601 37.33203,6.16601 7.88459,-0.92157 10.2776,-1.08469 10.96485,-1.07617 0.0377,3.7e-4 0.0576,6.2e-4 0.0859,0.002 -0.0206,-10e-4 -0.0369,-0.003 -0.0625,-0.004 0.0277,4.7e-4 0.0405,0.003 0.0625,0.004 0.005,2.1e-4 0.009,0.002 0.0137,0.002 0.048,0.003 0.0791,0.007 0.10156,0.0117 -0.003,-0.11826 -0.83242,-37.44381 -0.66602,-40.60547 0.16666,-3.16666 2.16666,-0.66732 2.5,0.66601 0.1658,0.66321 3.87896,-1.23005 7.56836,-3.30078 -0.56026,2.91264 -1.13402,7.34089 -0.31054,10.63477 1.33333,5.33333 -2.83399,27.5 -2.83399,27.5 0,0 24.50065,7.66601 37.33399,6.16601 7.88458,-0.92157 10.27564,-1.08469 10.96289,-1.07617 0.038,3.7e-4 0.0577,6.2e-4 0.0859,0.002 -0.0205,-0.001 -0.0369,-0.003 -0.0625,-0.004 0.0277,4.7e-4 0.0405,0.003 0.0625,0.004 0.005,2.1e-4 0.009,0.002 0.0137,0.002 0.048,0.003 0.0791,0.007 0.10156,0.0117 -0.002,-0.10372 -0.6387,-28.78855 -0.6836,-37.9961 -0.006,-1.2997 -9.4e-4,-2.21874 0.0195,-2.60937 0.16666,-3.16666 2.16666,-0.66732 2.5,0.66601 0.16583,0.66335 3.87817,-1.23149 7.56836,-3.30273 -0.56037,2.91261 -1.13614,7.34218 -0.3125,10.63672 1.33333,5.33333 -2.83204,27.5 -2.83204,27.5 0,0 24.4987,7.66601 37.33204,6.16601 6.23463,-0.72872 8.96905,-0.97556 10.21289,-1.04687 0.20998,-0.012 0.38607,-0.0206 0.51562,-0.0234 -0.12692,0.003 -0.3,0.01 -0.50391,0.0215 0.2041,-0.0117 0.37659,-0.0186 0.50391,-0.0215 0.075,-0.002 0.18144,-0.006 0.23438,-0.006 0.0449,4.3e-4 0.0701,0.002 0.10156,0.004 0.048,0.003 0.0791,0.007 0.10156,0.0117 l 0.002,0.0605 c 0,0 0.0259,-0.009 0.0469,-0.0215 0.0189,-0.01 0.0272,-0.0184 0.01,-0.0293 -0.003,-0.002 -0.0116,-0.004 -0.0176,-0.006 -0.0108,-0.004 -0.0169,-0.009 -0.0391,-0.0117 -0.0258,-1.13529 -0.5025,-22.7663 -0.64453,-34.03516 -0.0415,-3.30152 -0.0604,-5.85946 -0.0234,-6.5625 0.1667,-3.16666 2.1667,-0.66732 2.5,0.66601 0.16578,0.66321 3.87895,-1.23005 7.56836,-3.30078 -0.56026,2.91264 -1.13596,7.34089 -0.3125,10.63477 1.3333,5.33333 -2.83204,27.5 -2.83204,27.5 0,0 24.49873,7.66601 37.33204,6.16601 7.88463,-0.92157 10.2776,-1.08469 10.96484,-1.07617 0.0377,3.7e-4 0.0576,6.2e-4 0.0859,0.002 -0.0206,-10e-4 -0.0369,-0.003 -0.0625,-0.004 0.0277,4.7e-4 0.0405,0.003 0.0625,0.004 0.005,2.1e-4 0.009,0.002 0.0137,0.002 0.048,0.003 0.0791,0.007 0.10156,0.0117 -0.003,-0.11826 -0.83235,-37.44381 -0.66601,-40.60547 0.16669,-3.16666 2.16669,-0.66732 2.5,0.66601 0.19417,0.77656 5.10998,-1.89043 9.29882,-4.30468 v 158.72461 h -6.25195 l -7.87695,9.84961 h 43.472653 l -10.511723,-9.84961 h -5.61132 V 746.34366 h 19.197262 v -26.44141 h -9.687502 v -24.29687 h -9.50976 v -71.68555 h 19.197262 v -26.43945 h -70.884762 c 0.047,-0.30259 0.0801,-0.61003 0.0801,-0.92578 0,-3.00508 -2.21256,-5.48661 -5.0957,-5.92383 2.88314,-0.43722 5.0957,-2.9207 5.0957,-5.92578 0,-3.00508 -2.21256,-5.48661 -5.0957,-5.92383 2.88314,-0.43703 5.0957,-2.91754 5.0957,-5.92383 0,-3.31334 -2.6867,-6 -6,-6 3.3133,0 6,-2.68534 6,-6 0,-3.00376 -2.21052,-5.48694 -5.09179,-5.92578 2.8812,-0.4389 5.09179,-2.92013 5.09179,-5.92383 0,-3.31467 -2.6867,-6 -6,-6 h -73.59179 c -3.31333,0 -6,2.68533 -6,6 0,3.0037 2.21058,5.48493 5.09179,5.92383 -2.88128,0.43884 -5.09179,2.92202 -5.09179,5.92578 0,3.31466 2.68667,6 6,6 -3.31333,0 -6,2.68666 -6,6 0,3.00629 2.21255,5.4868 5.0957,5.92383 -2.88315,0.43722 -5.0957,2.91875 -5.0957,5.92383 0,3.00508 2.21255,5.48856 5.0957,5.92578 -2.88315,0.43722 -5.0957,2.91875 -5.0957,5.92383 0,0.31575 0.0331,0.62319 0.0801,0.92578 h -17.27149 c 0.047,-0.30254 0.0781,-0.61008 0.0781,-0.92578 0,-3.00508 -2.21177,-5.48661 -5.09571,-5.92383 2.88394,-0.43722 5.09571,-2.9207 5.09571,-5.92578 0,-3.00508 -2.21177,-5.48661 -5.09571,-5.92383 2.88394,-0.43703 5.09571,-2.91754 5.09571,-5.92383 0,-3.31334 -2.68534,-6 -6,-6 h -73.58985 c -3.31333,0 -6,2.68666 -6,6 0,3.00629 2.21255,5.4868 5.09571,5.92383 -2.88316,0.43722 -5.09571,2.91875 -5.09571,5.92383 0,3.00508 2.21255,5.48856 5.09571,5.92578 -2.88316,0.43722 -5.09571,2.91875 -5.09571,5.92383 0,0.31575 0.0331,0.62319 0.0801,0.92578 h -41.68359 c 1.9132,-2.44251 3.0625,-5.51234 3.0625,-8.85547 v -50.34375 c 0,-7.944 -6.43882,-14.38281 -14.38282,-14.38281 h -42.05859 v -12.64649 c 0,-2.588 -2.0995,-4.6875 -4.6875,-4.6875 h -45.1875 z m 360.40625,360.67774 c 0,1.8e-4 0.002,0.0605 0.002,0.0605 0,0 0.0278,-0.009 0.0488,-0.0215 0.0192,-0.0101 0.0265,-0.0184 0.008,-0.0293 -0.003,-0.002 -0.0101,-0.004 -0.0156,-0.006 -0.0113,-0.004 -0.0172,-0.009 -0.041,-0.0117 v 0.008 c 0,0 -0.002,0 -0.002,0 z m -109.51367,0 c 0,1.8e-4 0.002,0.0605 0.002,0.0605 0,0 0.0278,-0.009 0.0488,-0.0215 0.0192,-0.0101 0.0265,-0.0184 0.008,-0.0293 -0.003,-0.002 -0.0101,-0.004 -0.0156,-0.006 -0.0113,-0.004 -0.0172,-0.009 -0.041,-0.0117 v 0.008 c 0,0 -0.002,0 -0.002,0 z m -54.75586,0 c 0,1.8e-4 0.002,0.0605 0.002,0.0605 0,0 0.0278,-0.009 0.0488,-0.0215 0.0192,-0.0101 0.0265,-0.0184 0.008,-0.0293 -0.003,-0.002 -0.0101,-0.004 -0.0156,-0.006 -0.0113,-0.004 -0.0172,-0.009 -0.041,-0.0117 v 0.008 c 0,0 -0.002,0 -0.002,0 z m -219.02734,-0.002 c 0,2e-4 0.002,0.0625 0.002,0.0625 0,0 0.002,0 0.002,0 0.002,-6e-4 0.0266,-0.009 0.0469,-0.0215 0.009,-0.005 2.2e-4,-0.006 0.004,-0.0117 0.008,-0.01 -0.008,-0.0188 -0.041,-0.0273 -0.01,-0.002 0.003,-0.006 -0.0117,-0.008 v 0.006 c 0,0 -0.002,0 -0.002,0 z m 27.9121,-354.89453 h 12.22266 12.69727 12.22265 c 0.047,0 0.0904,0.0112 0.13672,0.0137 0.17745,0.01 0.34944,0.0365 0.51563,0.0801 0.0542,0.0142 0.10738,0.0312 0.16015,0.0488 0.17506,0.0595 0.34424,0.13243 0.5,0.22656 0.011,0.007 0.0223,0.0128 0.0332,0.0195 0.37186,0.23247 0.68231,0.55506 0.89843,0.93945 0,0 0.002,0.002 0.002,0.002 0.20878,0.37315 0.33789,0.79771 0.33789,1.25586 v 8.9668 h -42.31055 v -8.9668 c 0,-0.45815 0.1291,-0.88271 0.33789,-1.25586 0,0 0.002,-0.002 0.002,-0.002 0.21477,-0.38313 0.52219,-0.70518 0.89258,-0.9375 0.0156,-0.01 0.0331,-0.0161 0.0488,-0.0254 0.15291,-0.0914 0.31889,-0.16448 0.49023,-0.22266 0.0528,-0.0176 0.10593,-0.0346 0.16016,-0.0488 0.16633,-0.0436 0.33794,-0.0705 0.51563,-0.0801 0.0463,-0.002 0.0897,-0.0137 0.13671,-0.0137 z m -91.35351,111.57422 h 457.87109 v 71.68555 h -13.12304 c -1.62422,-12.72725 -3.20508,-24.12109 -3.20508,-24.12109 h -10.25196 c -0.0138,0.26176 -0.0357,0.51128 -0.0566,0.76367 h -31.2207 c -0.021,-0.25241 -0.0447,-0.50189 -0.0586,-0.76367 h -10.24805 c 0,0 -1.58023,11.39389 -3.20508,24.12109 h -17.05273 c -1.62485,-12.72725 -3.20703,-24.12109 -3.20703,-24.12109 h -10.24805 c -0.0139,0.26178 -0.0376,0.51126 -0.0586,0.76367 h -31.22266 c -0.021,-0.25239 -0.0428,-0.50191 -0.0566,-0.76367 h -10.25 c 0,0 -1.58058,11.39384 -3.20508,24.12109 h -17.05273 c -1.6245,-12.72725 -3.20703,-24.12109 -3.20703,-24.12109 h -10.24805 c -0.0138,0.26178 -0.0376,0.51126 -0.0586,0.76367 h -31.22266 c -0.021,-0.25241 -0.0448,-0.50189 -0.0586,-0.76367 h -10.25 c 0,0 -1.58109,11.39384 -3.20507,24.12109 h -17.05078 c -1.62433,-12.72725 -3.20508,-24.12109 -3.20508,-24.12109 h -10.25196 c -0.0138,0.26176 -0.0357,0.51128 -0.0566,0.76367 h -31.2207 c -0.021,-0.25241 -0.0448,-0.50189 -0.0586,-0.76367 h -10.24805 c 0,0 -1.58224,11.39384 -3.20703,24.12109 h -17.05078 c -1.62421,-12.72725 -3.20508,-24.12109 -3.20508,-24.12109 h -10.25391 c -0.0137,0.26176 -0.0358,0.51128 -0.0566,0.76367 h -31.21875 c -0.0209,-0.25239 -0.0429,-0.50191 -0.0566,-0.76367 h -10.25195 c 0,0 -1.58069,11.39384 -3.20508,24.12109 h -17.05273 c -1.62427,-12.7272 -3.20508,-24.12109 -3.20508,-24.12109 h -10.25 c -0.0138,0.26178 -0.0376,0.51126 -0.0586,0.76367 h -31.2207 c -0.0209,-0.25239 -0.0429,-0.50191 -0.0566,-0.76367 h -10.25 c 0,0 -1.58023,11.39389 -3.20508,24.12109 h -10.00195 v -71.68555 z m -515.55081,47.56446 c 0,0 -1.5802,11.39389 -3.205,24.12109 h -32.6739 v 24.29687 h -8.3144 v 26.44141 h 17.7675 v 235.37891 h -6.2519 l -7.8789,9.84961 h 43.4746 l -10.5137,-9.84961 h -5.6113 V 776.20308 h 28.082 c -0.042,0.32026 -0.085,0.64212 -0.1426,0.97071 0,0 -4.0117,1.68919 -8.6308,3.83594 -2.7577,-1.96005 -6.6016,2.46093 -6.6016,2.46093 l -0.1,0.81836 c -4.8694,2.54547 -8.525,4.95121 -6.4394,5.59766 0,0 2.8645,0.88385 5.5547,1.70898 l -10.6973,88.22657 c 7.8568,16.31733 49.0664,10.24609 49.0664,10.24609 0,0 0.013,-0.42271 0.014,-0.44141 14.607,3.18628 33.2949,0.44141 33.2949,0.44141 0,0 0.032,-1.11259 0.037,-1.26172 14.9055,4.43764 36.50586,1.26172 36.50586,1.26172 0,0 0.0741,-2.65456 0.11914,-4.08984 13.91309,8.39959 43.16015,4.08984 43.16015,4.08984 0,0 0,-0.004 0,-0.004 v -0.004 c 0,-5e-5 0.002,-0.0659 0.002,-0.0664 v -0.002 c 0.009,-0.23926 1.88928,-51.17087 -1.89649,-58.36328 -2.3105,-4.38972 -1.52605,-18.72803 -0.73047,-30.28711 5.42119,1.1524 9.56342,1.70725 10.77539,1.06445 2.13183,-1.12861 -3.45431,-6.16086 -10.10937,-11.28125 0.13166,-2.4248 0.20202,-4.42882 0.0645,-5.22266 -0.64694,-3.71706 -5.98759,-1.22438 -7.63867,-0.36523 -0.24041,-0.17083 -0.49608,-0.35837 -0.73242,-0.52539 l -0.002,-0.002 -9.00196,-8.50782 c 0.004,-0.0768 0.006,-0.21076 0.01,-0.29883 h 48.1582 c -0.0419,0.32026 -0.0856,0.64212 -0.14258,0.97071 0,0 -4.01165,1.68919 -8.63086,3.83594 -2.75806,-1.96005 -6.60156,2.46093 -6.60156,2.46093 l -0.0996,0.81836 c -4.86955,2.54547 -8.52673,4.95121 -6.4414,5.59766 0,0 2.86489,0.88338 5.55664,1.70898 l -10.69727,88.22657 c 7.15649,14.85936 41.62691,11.19135 47.79102,10.41015 13.99746,2.21225 30.11718,-0.16406 30.11718,-0.16406 0,0 0,-0.004 0,-0.004 v -0.004 c 0,-10e-6 0,-0.004 0,-0.004 0,-0.003 0,-0.008 0,-0.0117 10e-6,-2.9e-4 0.004,-0.1251 0.004,-0.12695 6.8e-4,-0.0174 0.003,-0.083 0.004,-0.10352 10e-4,-0.0276 0.0281,-0.98319 0.0332,-1.1289 14.91615,4.61279 36.89648,1.38281 36.89648,1.38281 0,0 0.44293,-12.22152 0.46485,-25.54492 -0.005,2.78219 -0.0207,5.51643 -0.0547,8.09961 0.0348,-2.63942 0.0528,-5.43632 0.0566,-8.28125 0.003,-2.04487 -6.5e-4,-4.08665 -0.0215,-6.14258 -0.004,-0.34838 -0.0113,-0.68194 -0.0156,-1.0293 -0.0234,-1.88628 -0.0619,-3.73524 -0.11133,-5.55469 -0.023,-0.84744 -0.0448,-1.69058 -0.0742,-2.51367 -0.29547,-8.25939 -0.92336,-15.15342 -2.14453,-17.47265 -2.30888,-4.38972 -1.52196,-18.72803 -0.72656,-30.28711 5.42143,1.1524 9.56467,1.70725 10.77734,1.06445 2.13191,-1.12866 -3.4559,-6.16065 -10.11132,-11.28125 0.13117,-2.4248 0.19908,-4.42882 0.0605,-5.22266 -0.64368,-3.7179 -5.98516,-1.22378 -7.63476,-0.36523 -0.24032,-0.17077 -0.49617,-0.35843 -0.73242,-0.52539 l -0.002,-0.002 -9.00195,-8.50782 c 0.004,-0.0768 0.006,-0.21076 0.01,-0.29883 h 54.33399 c -0.0421,0.32028 -0.0873,0.64211 -0.14453,0.97071 0,0 -4.0101,1.68954 -8.62891,3.83594 -2.75931,-1.95891 -6.60156,2.46093 -6.60156,2.46093 l -0.0996,0.81836 c -4.87033,2.54577 -8.52866,4.95114 -6.44141,5.59766 0,0 2.86498,0.88338 5.55664,1.70898 l -10.69726,88.22657 c 7.20886,14.97318 42.12296,11.13722 47.88867,10.39648 14.01392,2.23158 30.1875,-0.15039 30.1875,-0.15039 0,0 0,-0.004 0,-0.004 v -0.004 c 0,-4e-5 0.002,-0.0466 0.002,-0.0469 v -0.002 c 0,-3e-5 0,-0.006 0,-0.006 v -0.004 c 10e-6,-1.6e-4 -1e-5,-0.0252 0,-0.0254 v -0.004 c 10e-6,-2e-4 0.002,-0.0212 0.002,-0.0215 v -0.002 c 0,-1.6e-4 -10e-6,-0.0135 0,-0.0137 v -0.002 c 3e-5,-8.6e-4 0.002,-0.0651 0.002,-0.0664 v -0.002 c 6e-5,-0.002 0.004,-0.0779 0.004,-0.0801 v -0.0156 c 10e-6,-2.8e-4 -2e-5,-0.009 0,-0.01 v -0.002 c 6e-5,-0.002 0.002,-0.0584 0.002,-0.0605 v -0.004 c 0.008,-0.21324 0.0897,-2.95013 0.17187,-5.91406 12.13391,11.29411 46.10743,6.28906 46.10743,6.28906 0,0 0.002,-0.0718 0.002,-0.0723 2.1e-4,-0.002 -1.9e-4,-0.006 0,-0.008 2e-5,-5.6e-4 0.004,-0.0712 0.004,-0.0723 10e-4,-0.004 0,-0.008 0,-0.0117 5.1e-4,-0.0138 0.0224,-0.78284 0.0254,-0.86719 14.86542,4.09309 35.69726,1.03125 35.69726,1.03125 0,0 0,-0.004 0,-0.004 v -0.004 c 0,-10e-6 0,-0.004 0,-0.004 0.001,-0.004 0,-0.009 0,-0.0156 0.003,-0.0861 1.89366,-51.20885 -1.89648,-58.41211 -2.3097,-4.38972 -1.52401,-18.72803 -0.72852,-30.28711 5.42111,1.1524 9.56307,1.70725 10.77539,1.06445 2.13277,-1.12861 -3.454,-6.16086 -10.10937,-11.28125 0.13141,-2.4248 0.20054,-4.42882 0.0625,-5.22266 -0.64595,-3.7179 -5.98736,-1.22378 -7.63672,-0.36523 -0.24033,-0.17077 -0.49616,-0.35842 -0.73242,-0.52539 l -9.00391,-8.50977 c 0.004,-0.0768 0.006,-0.21076 0.01,-0.29883 h 29.10937 v 205.51954 h -6.25195 l -7.87696,9.84961 h 43.47266 l -10.51172,-9.84961 h -5.61328 V 746.34152 h 19.19727 v -26.44141 h -9.6875 v -24.29687 h -35.85157 c -1.62438,-12.72725 -3.20507,-24.12109 -3.20507,-24.12109 h -10.25 c -0.0138,0.26178 -0.0376,0.51126 -0.0586,0.76367 h -31.22265 c -0.021,-0.25239 -0.0428,-0.50191 -0.0566,-0.76367 h -10.24805 c 0,0 -1.58229,11.39384 -3.20703,24.12109 h -17.05274 c -1.62485,-12.72725 -3.20508,-24.12109 -3.20508,-24.12109 h -10.24804 c -0.0139,0.26178 -0.0376,0.51126 -0.0586,0.76367 h -31.22265 c -0.021,-0.25239 -0.0428,-0.50191 -0.0566,-0.76367 h -10.25 c 0,0 -1.58265,11.39384 -3.20703,24.12109 h -17.05079 c -1.6245,-12.72725 -3.20507,-24.12109 -3.20507,-24.12109 h -10.25 c -0.0138,0.26178 -0.0376,0.51126 -0.0586,0.76367 h -31.22265 c -0.021,-0.25239 -0.0428,-0.50191 -0.0566,-0.76367 h -10.25196 c 0,0 -1.5808,11.39384 -3.20508,24.12109 h -17.05078 c -1.6245,-12.72725 -3.20703,-24.12109 -3.20703,-24.12109 h -10.24804 c -0.0138,0.26178 -0.0376,0.51126 -0.0586,0.76367 h -31.2207 c -0.021,-0.25241 -0.0448,-0.50189 -0.0586,-0.76367 h -10.25 c 0,0 -1.58057,11.39384 -3.20507,24.12109 h -17.05079 c -1.62432,-12.72725 -3.20703,-24.12109 -3.20703,-24.12109 h -10.25195 c -0.0137,0.26176 -0.0357,0.51128 -0.0566,0.76367 h -31.21883 c -0.021,-0.25241 -0.045,-0.50189 -0.058,-0.76367 h -10.25 c 0,0 -1.5807,11.39384 -3.2051,24.12109 h -17.0528 c -1.6244,-12.72725 -3.205,-24.12109 -3.205,-24.12109 h -10.25 c -0.014,0.26178 -0.038,0.51126 -0.059,0.76367 h -31.2207 c -0.021,-0.25239 -0.043,-0.50191 -0.057,-0.76367 h -10.25 z m -13.207,74.85937 h 457.87109 v 21.16797 h -29.91992 c -0.55968,-1.5295 -1.46618,-2.45038 -2.9375,-1.86524 0,0 0.27178,0.68372 0.55664,1.86524 h -33.3457 c -0.55944,-1.5295 -1.46765,-2.45038 -2.93946,-1.86524 0,0 0.27195,0.68372 0.55664,1.86524 h -43.9082 c -0.55962,-1.52958 -1.46712,-2.4504 -2.93945,-1.86524 0,0 0.27185,0.68372 0.55664,1.86524 h -26.62696 c -0.55923,-1.5295 -1.46617,-2.45038 -2.9375,-1.86524 0,0 0.27209,0.68372 0.55665,1.86524 h -54.70313 c -0.5596,-1.5295 -1.46668,-2.45038 -2.93945,-1.86524 0,0 0.27194,0.68372 0.55664,1.86524 h -34.55274 c -0.55962,-1.5295 -1.46813,-2.45038 -2.93945,-1.86524 0,0 0.27208,0.68374 0.55664,1.86524 h -26.45898 c -0.55943,-1.5295 -1.4657,-2.45038 -2.9375,-1.86524 0,0 0.27015,0.68374 0.55468,1.86524 h -48.52539 c -0.55946,-1.5295 -1.46716,-2.45038 -2.93945,-1.86524 0,0 0.27185,0.68372 0.55664,1.86524 h -40.89648 c -0.5595,-1.5295 -1.4681,-2.45038 -2.9395,-1.86524 0,0 0.2721,0.68374 0.5567,1.86524 h -34.1621 c -0.5596,-1.5295 -1.4673,-2.45038 -2.9395,-1.86524 0,0 0.2717,0.68374 0.5567,1.86524 h -30.9239 c -0.5596,-1.5295 -1.4672,-2.45038 -2.9394,-1.86524 0,0 0.2737,0.68372 0.5586,1.86524 h -27.6426 z m 528.75781,0 h 457.87109 v 21.16797 h -29.91797 c -0.5596,-1.5295 -1.46813,-2.45038 -2.93945,-1.86524 0,0 0.27196,0.68364 0.55664,1.86524 h -52.375 c -0.55946,-1.5295 -1.46618,-2.45038 -2.9375,-1.86524 0,0 0.27203,0.68363 0.55664,1.86524 h -52.375 c -0.55962,-1.5295 -1.46813,-2.45038 -2.93945,-1.86524 0,0 0.27375,0.68363 0.55859,1.86524 h -52.375 c -0.55946,-1.5295 -1.46813,-2.45038 -2.93945,-1.86524 0,0 0.27196,0.68364 0.55664,1.86524 h -52.375 c -0.5594,-1.5295 -1.46618,-2.45038 -2.9375,-1.86524 0,0 0.27203,0.68364 0.55664,1.86524 h -52.375 c -0.55962,-1.5295 -1.46618,-2.45038 -2.9375,-1.86524 0,0 0.27196,0.68363 0.55664,1.86524 h -52.375 c -0.55946,-1.5295 -1.46618,-2.45038 -2.9375,-1.86524 0,0 0.27007,0.68364 0.55469,1.86524 h -52.375 c -0.55962,-1.5295 -1.46618,-2.45038 -2.9375,-1.86524 0,0 0.27179,0.68363 0.55664,1.86524 h -42.27539 z m -497.92581,29.85937 h 30.5567 c -0.042,0.32026 -0.085,0.64212 -0.1426,0.97071 0,0 -4.0014,1.68518 -8.6133,3.82812 0,-10e-4 0,-0.003 0,-0.004 -0.051,-0.0368 -0.106,-0.0574 -0.1582,-0.0899 -0.075,-0.0464 -0.1487,-0.0911 -0.2246,-0.1289 -0.033,-0.0163 -0.064,-0.042 -0.098,-0.0566 -0.055,-0.0247 -0.1121,-0.0343 -0.1679,-0.0547 -0.099,-0.0362 -0.1969,-0.0721 -0.2969,-0.0957 -0.079,-0.0184 -0.1585,-0.028 -0.2383,-0.0391 -0.1156,-0.0164 -0.231,-0.0311 -0.3476,-0.0332 -0.014,-2.1e-4 -0.029,-0.004 -0.043,-0.004 -0.048,0 -0.097,0.008 -0.1445,0.01 -2.4094,0.10478 -4.8965,2.96484 -4.8965,2.96484 l -0.061,0.5 c -1.9542,-0.11587 -4.3432,1.02013 -5.3926,1.56641 -0.2403,-0.17077 -0.4961,-0.35842 -0.7324,-0.52539 l -9.0058,-8.50977 c 0,-0.0768 0.01,-0.21076 0.01,-0.29883 z m 33.3067,0 h 33.7929 c -0.042,0.32026 -0.085,0.64212 -0.1425,0.97071 0,0 -4.0003,1.68371 -8.6114,3.82617 0,-8.2e-4 0,-10e-4 0,-0.002 -0.059,-0.0423 -0.1214,-0.0708 -0.1816,-0.10743 -0.054,-0.0328 -0.1075,-0.0674 -0.1621,-0.0957 -0.029,-0.0151 -0.057,-0.0369 -0.086,-0.0508 -0.064,-0.0301 -0.1305,-0.0402 -0.1953,-0.0644 -0.1023,-0.0388 -0.2046,-0.0784 -0.3086,-0.10352 -0.073,-0.0172 -0.1455,-0.0261 -0.2187,-0.0371 -0.1268,-0.0196 -0.2529,-0.0368 -0.3809,-0.0391 -0.014,-2.1e-4 -0.029,-0.004 -0.043,-0.004 -0.048,0 -0.096,0.007 -0.1446,0.01 -2.4093,0.10557 -4.8965,2.96484 -4.8965,2.96484 l -0.1,0.81836 c -0.4415,0.23082 -0.871,0.46023 -1.289,0.6875 -1.3901,-2.28606 -5.8184,-0.21223 -7.3028,0.56055 -0.2404,-0.17083 -0.496,-0.35837 -0.7324,-0.52539 v -0.002 l -9.002,-8.50782 c 0,-0.0768 0.01,-0.21076 0.01,-0.29883 z m 36.5449,0 h 40.52733 c -0.0421,0.32026 -0.0854,0.64212 -0.14257,0.97071 0,0 -4.01173,1.68919 -8.63086,3.83594 -2.75926,-1.95774 -6.60157,2.46093 -6.60157,2.46093 l -0.0996,0.81836 c -4.86936,2.54547 -8.52534,4.95121 -6.43945,5.59766 0,0 2.86442,0.88385 5.55469,1.70898 l -0.57031,4.69532 c -1.77595,-1.60346 -3.97314,-3.37811 -6.29688,-5.16602 0.13142,-2.4248 0.20055,-4.42882 0.0625,-5.22266 -0.64694,-3.71706 -5.98621,-1.22438 -7.63672,-0.36523 -0.24032,-0.17077 -0.49616,-0.35842 -0.73246,-0.52539 l -9.0039,-8.50977 c 0,-0.0768 0.01,-0.21076 0.01,-0.29883 z m 94.18749,0 h 26.08984 c -0.0421,0.32028 -0.0873,0.64211 -0.14453,0.97071 0,0 -3.9986,1.68374 -8.60937,3.82617 -10e-4,-8e-4 -0.003,-10e-4 -0.004,-0.002 -0.0633,-0.045 -0.12926,-0.0766 -0.19336,-0.11524 -0.0456,-0.0275 -0.0906,-0.0578 -0.13672,-0.082 -0.0217,-0.0114 -0.0426,-0.0284 -0.0644,-0.0391 -0.0629,-0.0307 -0.12778,-0.0414 -0.19141,-0.0664 -0.11186,-0.0444 -0.22404,-0.0892 -0.33789,-0.11719 -0.0714,-0.0172 -0.14289,-0.0259 -0.21484,-0.0371 -0.12736,-0.0204 -0.2542,-0.0382 -0.38281,-0.041 -0.0177,-3.1e-4 -0.035,-0.006 -0.0527,-0.006 -0.0585,0 -0.11722,0.0104 -0.17578,0.0137 -2.39982,0.12749 -4.86719,2.96289 -4.86719,2.96289 l -0.0996,0.81836 c -0.51653,0.27003 -1.02423,0.5398 -1.50781,0.80469 -0.0368,-0.026 -0.0766,-0.0561 -0.11328,-0.082 l -0.002,-0.002 -9.00196,-8.50782 c 0.004,-0.0768 0.006,-0.21076 0.01,-0.29883 z m 28.8418,0 h 34.18359 c -0.042,0.32026 -0.0855,0.64212 -0.14258,0.97071 0,0 -3.9995,1.68518 -8.61132,3.82812 -10e-4,-10e-4 -0.002,-0.003 -0.004,-0.004 -0.0676,-0.0481 -0.138,-0.084 -0.20703,-0.125 -0.0366,-0.0218 -0.0724,-0.0467 -0.10938,-0.0664 -0.0172,-0.009 -0.0336,-0.0225 -0.0508,-0.0312 -0.0557,-0.0279 -0.11361,-0.0371 -0.16992,-0.0606 -0.12753,-0.0536 -0.25459,-0.10667 -0.38477,-0.13867 -0.0575,-0.014 -0.11592,-0.0173 -0.17382,-0.0273 -0.14591,-0.0257 -0.29188,-0.0464 -0.43946,-0.0488 -0.0131,-1.7e-4 -0.0259,-0.004 -0.0391,-0.004 -0.0479,0 -0.0964,0.007 -0.14453,0.01 -2.40937,0.10478 -4.89649,2.96484 -4.89649,2.96484 l -0.0996,0.81836 c -0.54548,0.28514 -1.08338,0.56836 -1.59179,0.84766 -1.26612,-2.54843 -5.87675,-0.38988 -7.39453,0.40039 -0.24035,-0.17077 -0.49614,-0.35843 -0.73242,-0.52539 l -0.002,-0.002 -9,-8.50782 c 0.004,-0.0768 0.006,-0.21076 0.01,-0.29883 z m 94.01953,0 h 26.25781 c -0.0421,0.32026 -0.0854,0.64212 -0.14258,0.97071 0,0 -4.00064,1.68374 -8.61133,3.82617 -10e-4,-8.2e-4 -0.003,-10e-4 -0.004,-0.002 -0.0908,-0.0658 -0.18388,-0.12429 -0.27734,-0.17578 0,0 -0.002,-0.002 -0.002,-0.002 0,0 -0.002,0 -0.002,0 -0.005,-0.002 -0.009,-0.003 -0.0137,-0.006 -0.19642,-0.10693 -0.39788,-0.18016 -0.60157,-0.23242 -0.0435,-0.011 -0.0871,-0.0147 -0.13085,-0.0234 -0.16491,-0.0335 -0.33084,-0.0553 -0.49805,-0.0586 -0.0164,-2.7e-4 -0.0324,-0.006 -0.0488,-0.006 -0.0592,0 -0.1186,0.0103 -0.17773,0.0137 -2.39844,0.12951 -4.86524,2.96289 -4.86524,2.96289 l -0.0996,0.81836 c -0.54926,0.28715 -1.09192,0.57427 -1.60351,0.85547 -0.0634,-0.0449 -0.13225,-0.096 -0.19532,-0.14062 l -8.99414,-8.50196 c 0.004,-0.0768 0.006,-0.21076 0.01,-0.29883 z m 29.00976,0 h 43.54102 c -0.042,0.32026 -0.0855,0.64212 -0.14258,0.97071 0,0 -4.01329,1.68916 -8.63281,3.83594 -2.75797,-1.95774 -6.59961,2.46093 -6.59961,2.46093 l -0.0996,0.81836 c -4.87061,2.54577 -8.52891,4.95114 -6.44336,5.59766 0,0 2.86435,0.88519 5.55664,1.71094 l -0.89062,7.34765 c -1.88726,-2.13749 -5.27991,-4.96697 -8.98828,-7.82031 0.13157,-2.4248 0.20225,-4.42882 0.0644,-5.22266 -0.64719,-3.71847 -5.99053,-1.22338 -7.63867,-0.36523 -0.24041,-0.17083 -0.49608,-0.35837 -0.73243,-0.52539 l -0.002,-0.002 -9.00195,-8.50782 c 0.004,-0.0768 0.006,-0.21076 0.01,-0.29883 z m 46.29102,0 h 32.97852 c -0.042,0.32028 -0.0874,0.64211 -0.14454,0.97071 0,0 -4.00113,1.68514 -8.61328,3.82812 -10e-4,-10e-4 -0.002,-0.003 -0.004,-0.004 -0.0542,-0.0385 -0.11107,-0.0617 -0.16602,-0.0957 -0.0669,-0.0413 -0.1332,-0.0828 -0.20117,-0.11718 -0.033,-0.0166 -0.0643,-0.0418 -0.0977,-0.0566 -0.0595,-0.0272 -0.12136,-0.0365 -0.18164,-0.0586 -0.0974,-0.0358 -0.19416,-0.0721 -0.29297,-0.0957 -0.0778,-0.0182 -0.15589,-0.028 -0.23437,-0.0391 -0.11833,-0.0173 -0.23611,-0.033 -0.35547,-0.0352 -0.0144,-2e-4 -0.0286,-0.004 -0.043,-0.004 -0.0477,0 -0.0949,0.008 -0.14258,0.01 -2.40962,0.10263 -4.89843,2.96484 -4.89843,2.96484 l -0.0996,0.81836 c -0.24139,0.12618 -0.47027,0.24972 -0.70508,0.375 -1.61773,-1.7599 -5.66208,0.1389 -7.07227,0.87305 -0.24041,-0.17083 -0.49608,-0.35837 -0.73242,-0.52539 l -0.002,-0.002 -9.00196,-8.50782 c 0.004,-0.0768 0.006,-0.21076 0.01,-0.29883 z m 181.18945,0 h 52.00782 c -0.042,0.32023 -0.0874,0.64217 -0.14454,0.97071 0,0 -4.16529,1.75698 -8.89257,3.96094 -0.16327,-0.91734 -0.16407,-1.53711 -0.16407,-1.53711 l -18.07031,10.03906 c 0,0 -0.46265,1.88074 -0.59766,2.41601 l -16.16015,-10.91601 c 0,0 -0.0881,1.03798 -0.57617,2.36914 l -7.41211,-7.00391 c 0.004,-0.0768 0.006,-0.21076 0.01,-0.29883 z m 54.75782,0 h 52.00585 c -0.0419,0.32021 -0.0855,0.64219 -0.14257,0.97071 0,0 -4.16622,1.75847 -8.89453,3.96289 -0.16359,-0.91833 -0.16407,-1.53906 -0.16407,-1.53906 l -18.07031,10.03906 c 0,0 -0.46284,1.87956 -0.59766,2.41406 l -16.1582,-10.91406 c 0,0 -0.0881,1.03798 -0.57617,2.36914 l -7.41211,-7.00391 c 0.004,-0.0768 0.006,-0.21076 0.01,-0.29883 z m 54.75585,0 h 52.00586 c -0.042,0.32021 -0.0854,0.64219 -0.14257,0.97071 0,0 -4.16622,1.75847 -8.89453,3.96289 -0.16373,-0.91833 -0.16407,-1.53906 -0.16407,-1.53906 l -18.06836,10.03906 c 0,0 -0.46262,1.8808 -0.59765,2.41601 l -16.16016,-10.91601 c 0,0 -0.0881,1.03798 -0.57617,2.36914 l -7.41211,-7.00391 c 0.004,-0.0768 0.006,-0.21076 0.01,-0.29883 z m 54.75586,0 h 52.00782 c -0.042,0.32021 -0.0855,0.64219 -0.14258,0.97071 0,0 -4.16622,1.75847 -8.89453,3.96289 -0.16359,-0.91833 -0.16407,-1.53906 -0.16407,-1.53906 l -18.07031,10.03906 c 0,0 -0.46284,1.87956 -0.59765,2.41406 l -16.15821,-10.91406 c 0,0 -0.09,1.03784 -0.57812,2.36914 l -7.41211,-7.00391 c 0.004,-0.0768 0.006,-0.21076 0.01,-0.29883 z m 54.75782,0 h 52.00586 c -0.042,0.32021 -0.0854,0.64219 -0.14258,0.97071 0,0 -4.16622,1.75847 -8.89453,3.96289 -0.16359,-0.91833 -0.16407,-1.53906 -0.16407,-1.53906 l -18.07031,10.03906 c 0,0 -0.46284,1.87956 -0.59765,2.41406 l -16.15821,-10.91406 c 0,0 -0.0881,1.03798 -0.57617,2.36914 l -7.41211,-7.00391 c 0.004,-0.0768 0.006,-0.21076 0.01,-0.29883 z m 54.75586,0 h 52.00586 c -0.042,0.32021 -0.0854,0.64219 -0.14258,0.97071 0,0 -4.16622,1.75847 -8.89453,3.96289 -0.16372,-0.91833 -0.16407,-1.53906 -0.16407,-1.53906 l -18.06836,10.03906 c 0,0 -0.46265,1.88074 -0.59765,2.41601 l -16.16016,-10.91601 c 0,0 -0.0881,1.03798 -0.57617,2.36914 l -7.41211,-7.00391 c 0.004,-0.0768 0.006,-0.21076 0.01,-0.29883 z m 54.75781,0 h 52.00586 c -0.042,0.32021 -0.0855,0.64219 -0.14258,0.97071 0,0 -4.16622,1.75847 -8.89453,3.96289 -0.1636,-0.91836 -0.16406,-1.53906 -0.16406,-1.53906 l -18.07032,10.03906 c 0,0 -0.46284,1.87956 -0.59765,2.41406 l -16.15821,-10.91406 c 0,0 -0.0882,1.03814 -0.57617,2.36914 l -7.41211,-7.00391 c 0.004,-0.0768 0.006,-0.21076 0.01,-0.29883 z m 54.75586,0 h 29.10937 v 23.70313 c -1.19534,-3.38391 -2.13086,-5.93555 -2.13086,-5.93555 l -19,-12.83398 c 0,0 -0.0882,1.03814 -0.57617,2.36914 l -7.41211,-7.00391 c 0.004,-0.0768 0.006,-0.21076 0.01,-0.29883 z m -928.53903,2.25 h 1.0937 l 2.0918,1.40626 c 1.5895,1.20982 4.5305,3.46541 7.7734,5.99609 -0.01,0.003 -0.092,0.0469 -0.092,0.0469 0,0 0.1028,0.72329 0.2324,1.92383 -1.219,0.98008 -1.6363,1.74164 -0.6074,2.06055 0,0 0.7525,0.23194 0.8222,0.2539 0.1598,1.90862 0.2994,4.33479 0.3399,7.05274 -7.6672,-1.66096 -16.5873,-3.80297 -23.0586,-5.59375 0.6435,-4.053 1.2621,-7.05698 1.6406,-8.77539 4.9316,-2.28903 9.7637,-4.3711 9.7637,-4.3711 z m 33.3047,0 h 1.0957 l 2.0898,1.40626 c 1.5898,1.20982 4.5323,3.46541 7.7754,5.99609 -0.01,0.003 -0.092,0.0469 -0.092,0.0469 0,0 0.6921,4.89644 0.7871,11.29102 -7.6641,-1.66029 -16.5798,-3.80144 -23.0508,-5.5918 0.1637,-1.02898 0.3271,-2.07527 0.4903,-2.99218 0.071,-0.39782 0.1359,-0.71866 0.205,-1.0918 0.1625,-0.87636 0.3241,-1.72981 0.4688,-2.44922 0.058,-0.28619 0.1087,-0.53297 0.1621,-0.79102 0.1661,-0.7964 0.2135,-0.9943 0.3184,-1.46093 4.9263,-2.2864 9.75,-4.36329 9.75,-4.36329 z m 36.5449,0 h 1.0918 l 2.0937,1.40626 c 1.5896,1.20982 4.5305,3.46541 7.7735,5.99609 -0.01,0.003 -0.092,0.0469 -0.092,0.0469 0,0 0.69169,4.89645 0.78707,11.29102 -7.66657,-1.66087 -16.58517,-3.80303 -23.05667,-5.59375 0,-0.0145 0.01,-0.0285 0.01,-0.043 0.1105,-0.69442 0.221,-1.36051 0.3321,-2.00586 0.5039,-2.92618 0.9867,-5.28133 1.3027,-6.72851 4.9301,-2.2883 9.7598,-4.36915 9.7598,-4.36915 z m 43.28122,0 h 1.0918 l 2.0918,1.40626 c 1.58949,1.20973 4.53071,3.46563 7.77344,5.99609 -0.005,0.003 -0.0918,0.0469 -0.0918,0.0469 0,0 0.69188,4.89644 0.78711,11.29102 -7.66673,-1.6609 -16.58591,-3.80312 -23.05664,-5.59375 0.64366,-4.053 1.26211,-7.05698 1.64062,-8.77539 4.93169,-2.28903 9.76368,-4.3711 9.76367,-4.3711 z m 50.90821,0 h 1.09375 l 2.08984,1.40626 c 1.49697,1.13931 4.19358,3.20603 7.20703,5.55273 -3.7457,2.09871 -6.13927,3.92466 -4.36523,4.47461 0,0 2.8418,0.87714 5.39844,1.66211 0.0201,0.28769 0.0399,0.56305 0.0586,0.86719 l -0.56055,4.61914 c -7.49859,-1.63757 -16.06495,-3.70307 -22.32617,-5.43555 0.64353,-4.053 1.26217,-7.05698 1.64063,-8.77539 4.93168,-2.28903 9.76367,-4.3711 9.76367,-4.3711 z m 28.83984,0 h 1.09375 l 2.0918,1.40626 c 1.59022,1.20967 4.53087,3.4658 7.77344,5.99609 -0.005,0.003 -0.0918,0.0469 -0.0918,0.0469 0,0 0.69173,4.89645 0.78711,11.29102 -6.33725,-1.3729 -13.51686,-3.0718 -19.49805,-4.63672 -0.59783,-0.47413 -1.22138,-0.9528 -1.84375,-1.43164 0.13133,-2.4248 0.20079,-4.42882 0.0625,-5.22266 -0.0891,-0.51481 -0.27771,-0.90376 -0.5332,-1.19726 0.0325,-0.15948 0.0647,-0.31118 0.0957,-0.46094 0.1583,-0.75792 0.20598,-0.96863 0.3086,-1.42578 4.92791,-2.28713 9.7539,-4.36524 9.7539,-4.36524 z m 36.9375,0 h 1.0918 l 2.0918,1.40626 c 1.58941,1.20967 4.53092,3.4658 7.77343,5.99609 -0.005,0.003 -0.0918,0.0469 -0.0918,0.0469 0,0 0.69166,4.89645 0.78711,11.29102 -7.66658,-1.66081 -16.58559,-3.80318 -23.05664,-5.59375 0.11453,-0.72113 0.23053,-1.4117 0.3457,-2.08008 0.22492,-1.30346 0.44918,-2.54183 0.6543,-3.5918 0.0297,-0.15201 0.059,-0.30527 0.0879,-0.45117 0.21316,-1.07428 0.39765,-1.94739 0.54882,-2.64062 10e-4,-0.006 6.5e-4,-0.006 0.002,-0.0117 4.93224,-2.28932 9.76562,-4.3711 9.76562,-4.3711 z m 57.08399,0 h 1.09179 l 2.0918,1.40626 c 1.50896,1.14814 4.23504,3.23963 7.27734,5.60937 -3.68651,2.07457 -6.02402,3.87302 -4.26562,4.41797 0,0 2.81332,0.86743 5.2207,1.60742 0.0425,0.60229 0.0781,1.24764 0.11328,1.91992 l -0.44336,3.65821 c -7.53497,-1.6428 -16.18527,-3.72795 -22.49023,-5.47266 0.64394,-4.05289 1.26197,-7.05694 1.64062,-8.77539 4.93169,-2.28903 9.76368,-4.3711 9.76368,-4.3711 z m 29.00781,0 h 1.09375 l 2.0918,1.40626 c 1.5899,1.20973 4.53069,3.46563 7.77343,5.99609 -0.005,0.003 -0.0898,0.0469 -0.0898,0.0469 0,0 0.69206,4.89742 0.78711,11.29297 -6.42864,-1.39261 -13.72554,-3.12195 -19.75586,-4.70508 -0.57061,-0.45185 -1.16325,-0.90728 -1.75586,-1.36328 0.13159,-2.42581 0.2023,-4.43055 0.0644,-5.22461 -0.0734,-0.42148 -0.21272,-0.76071 -0.40039,-1.03125 0.0233,-0.11517 0.0438,-0.21577 0.0664,-0.32617 0.19606,-0.95234 0.25515,-1.19547 0.375,-1.72851 4.92686,-2.2864 9.75,-4.36329 9.75,-4.36329 z m 46.29101,0 h 1.0918 l 2.09375,1.40626 c 1.59002,1.20982 4.53237,3.46541 7.77539,5.99609 -0.005,0.003 -0.0918,0.0469 -0.0918,0.0469 0,0 0.69015,4.89645 0.78516,11.29102 -7.66643,-1.66081 -16.58553,-3.80318 -23.05664,-5.59375 0.64371,-4.05286 1.26012,-7.05695 1.63867,-8.77539 4.93135,-2.28903 9.76367,-4.3711 9.76367,-4.3711 z m 35.73047,0 h 1.09375 l 2.08985,1.40626 c 1.5899,1.20973 4.53086,3.46563 7.77343,5.99609 -0.005,0.003 -0.0918,0.0469 -0.0918,0.0469 0,0 0.69194,4.89645 0.78711,11.29102 -7.66735,-1.66103 -16.58706,-3.80293 -23.0586,-5.59375 0.13432,-0.84577 0.27154,-1.66733 0.40625,-2.43945 0.24262,-1.38912 0.48214,-2.67918 0.69727,-3.76172 0.0489,-0.24606 0.0885,-0.42689 0.13476,-0.6543 0.15244,-0.74775 0.28864,-1.39937 0.40235,-1.91992 4.93225,-2.28932 9.76562,-4.3711 9.76562,-4.3711 z m 145.46094,0 h 1.0957 l 2.08985,1.40626 c 1.24307,0.94584 3.36523,2.56994 5.74804,4.41601 -1.13599,2.46679 -3.6905,5.42369 -9.4375,5.02734 -5.8798,-0.4055 -8.14744,-3.90366 -9.02929,-6.58593 4.84398,-2.24316 9.5332,-4.26368 9.5332,-4.26368 z m 54.75781,0 h 1.09375 l 2.08985,1.40626 c 1.24354,0.94619 3.36591,2.57098 5.75,4.41796 -1.13637,2.46647 -3.69176,5.42165 -9.4375,5.02539 -5.8798,-0.4055 -8.14745,-3.90366 -9.0293,-6.58593 4.84396,-2.24315 9.5332,-4.26368 9.5332,-4.26368 z m 54.75586,0 h 1.09375 l 2.0918,1.40626 c 1.24308,0.94584 3.36523,2.56994 5.74805,4.41601 -1.136,2.46679 -3.69051,5.42369 -9.4375,5.02734 -5.87981,-0.4055 -8.14745,-3.90366 -9.0293,-6.58593 4.84396,-2.24315 9.5332,-4.26368 9.5332,-4.26368 z m 54.75586,0 h 1.0957 l 2.08985,1.40626 c 1.24355,0.94619 3.36593,2.57098 5.75,4.41796 -1.13629,2.46654 -3.69147,5.42167 -9.4375,5.02539 -5.87854,-0.40541 -8.1486,-3.90193 -9.03125,-6.58398 4.84505,-2.24363 9.5332,-4.26563 9.5332,-4.26563 z m 54.75586,0 h 1.0957 l 2.08985,1.40626 c 1.24323,0.94619 3.3661,2.57098 5.75,4.41796 -1.13628,2.46654 -3.69147,5.42167 -9.4375,5.02539 -5.87823,-0.40539 -8.14694,-3.90198 -9.0293,-6.58398 4.84425,-2.2433 9.53125,-4.26563 9.53125,-4.26563 z m 54.75781,0 h 1.09571 l 2.08789,1.40626 c 1.24354,0.94619 3.36603,2.57098 5.75,4.41796 -1.13637,2.46647 -3.69176,5.42165 -9.4375,5.02539 -5.87981,-0.4055 -8.14745,-3.90366 -9.0293,-6.58593 4.84396,-2.24315 9.5332,-4.26368 9.5332,-4.26368 z m 54.75586,0 h 1.09571 l 2.08789,1.40626 c 1.24356,0.9462 3.36783,2.57096 5.75195,4.41796 -1.13628,2.46654 -3.69147,5.42167 -9.4375,5.02539 -5.87855,-0.40541 -8.14861,-3.90193 -9.03125,-6.58398 4.84489,-2.24363 9.5332,-4.26563 9.5332,-4.26563 z m 54.75586,0 h 1.09571 l 2.08984,1.40626 c 1.24324,0.94619 3.36609,2.57098 5.75,4.41796 -1.1363,2.46654 -3.69145,5.42167 -9.4375,5.02539 -5.87819,-0.40539 -8.14692,-3.90198 -9.0293,-6.58398 4.84426,-2.2433 9.53125,-4.26563 9.53125,-4.26563 z m -779.24609,7.69922 -0.45313,3.75196 c -1.99671,-0.67365 -3.21385,-1.21051 -3.05859,-1.49024 0.2363,-0.42421 1.59923,-1.25571 3.51172,-2.26172 z m 65.77734,0 -0.45508,3.75196 c -0.22652,-0.0764 -0.44689,-0.15219 -0.65039,-0.22461 0.051,-1.20101 0.0742,-2.24803 0.043,-2.94922 0.33431,-0.1855 0.67933,-0.37657 1.0625,-0.57813 z m 57.08399,0 -0.45313,3.75196 c -1.99641,-0.67365 -3.21233,-1.21051 -3.05664,-1.49024 0.23564,-0.42421 1.59753,-1.25571 3.50977,-2.26172 z m 75.30078,0 -0.45508,3.75196 c -1.99595,-0.67347 -3.21187,-1.21056 -3.05664,-1.49024 0.2363,-0.42421 1.59934,-1.2557 3.51172,-2.26172 z m -362.20113,0.002 -0.4532,3.75 c -1.9959,-0.67354 -3.2124,-1.21054 -3.0566,-1.49024 0.2355,-0.42403 1.5989,-1.25436 3.5098,-2.25976 z m 69.8515,0 -0.4551,3.75 c -0.092,-0.0312 -0.1768,-0.0612 -0.2656,-0.0918 0.061,-1.38814 0.085,-2.55706 0.037,-3.28711 0.2266,-0.1231 0.4376,-0.24164 0.6836,-0.37109 z m 43.27736,0 -0.45312,3.75 c -1.99522,-0.67335 -3.21034,-1.2106 -3.05469,-1.49024 0.23553,-0.42403 1.5969,-1.25436 3.50781,-2.25976 z m 78.49414,0.68164 c 0.0791,0.6228 0.16855,1.38289 0.30078,2.89453 -1.67857,-0.58957 -2.69629,-1.06127 -2.55468,-1.31641 0.18008,-0.32374 1.01832,-0.88417 2.2539,-1.57812 z m 122.86914,0.0918 c 0.0792,0.63378 0.16177,1.34168 0.28516,2.74415 -1.57404,-0.56146 -2.51601,-1.01115 -2.37891,-1.25782 0.17174,-0.30874 0.95125,-0.83663 2.09375,-1.48633 z m -48.99023,5.4043 c 4.59349,3.75798 8.25022,6.98162 7.8125,7.41992 -0.29001,0.28934 -3.56441,-0.20095 -8.22852,-1.10742 0.16553,-2.34726 0.30215,-4.43951 0.41602,-6.3125 z m -196.50981,0.002 c 0.034,0.0275 0.066,0.0546 0.1,0.082 l -0.1934,1.58593 c 0.043,-0.64071 0.058,-1.08198 0.094,-1.66797 z m 36.54497,0 c 2.52212,2.0635 4.77927,3.97522 6.19726,5.33399 l -0.24805,2.04883 c -1.44936,-0.16944 -3.63251,-0.53879 -6.36718,-1.07032 0.16557,-2.34717 0.30393,-4.43944 0.41797,-6.3125 z m 43.27929,0 c 4.59246,3.75722 8.25015,6.97973 7.8125,7.41797 -0.28997,0.2893 -3.56562,-0.19924 -8.22851,-1.10547 0.16562,-2.34716 0.30183,-4.43945 0.41601,-6.3125 z m 79.74805,0 c 0.15448,0.1264 0.30687,0.24998 0.45898,0.375 l -0.72461,5.9668 c -0.0447,-0.009 -0.10542,-0.0225 -0.15039,-0.0312 0.16552,-2.34637 0.30197,-4.43804 0.41602,-6.31055 z m 123.03125,0 c 4.59228,3.75722 8.2482,6.97973 7.81055,7.41797 -0.28998,0.2893 -3.56368,-0.19925 -8.22657,-1.10547 0.16563,-2.34716 0.30188,-4.43945 0.41602,-6.3125 z m 82.01953,0 c 4.59199,3.75722 8.2482,6.97973 7.81055,7.41797 -0.28964,0.2893 -3.56386,-0.19925 -8.22656,-1.10547 0.16557,-2.34716 0.30197,-4.43945 0.41601,-6.3125 z m -428.67189,0.94727 c 6.808,2.02811 15.4813,4.52399 23.3086,6.4707 -0.1471,11.53273 -2.5635,26.26091 -13.8769,27.52735 -12.632,1.41394 -11.5149,-19.87783 -9.4317,-33.99805 z m 69.8496,0 c 6.8082,2.02807 15.4817,4.52408 23.30862,6.4707 -0.1468,11.53273 -2.56262,26.26091 -13.87692,27.52735 -10.1074,1.13135 -11.4111,-12.2926 -10.4629,-24.9375 2.6912,0.39749 4.6384,0.47164 5.4062,0.0644 1.5078,-0.79827 -0.8313,-3.54735 -4.6855,-6.90039 0.1002,-0.75954 0.2035,-1.49904 0.3105,-2.22461 z m 43.28128,0 c 6.80762,2.0279 15.48025,4.52421 23.30664,6.4707 -0.14706,11.53273 -2.56341,26.26091 -13.87696,27.52735 -12.63046,1.41394 -11.51322,-19.87783 -9.42968,-33.99805 z m 50.9082,0 c 6.50565,1.93799 14.71325,4.30839 22.2793,6.21875 l -2.3418,19.3125 c -2.0942,4.54856 -5.38542,7.89366 -10.50586,8.4668 -12.63136,1.41394 -11.51469,-19.87783 -9.43164,-33.99805 z m 65.77734,0 c 6.8085,2.02819 15.48125,4.52411 23.3086,6.4707 -0.14667,11.53274 -2.5634,26.26091 -13.87696,27.52735 -10.0926,1.1296 -11.41034,-12.25124 -10.4707,-24.87891 2.49646,0.34918 4.28794,0.39399 5.01953,0.006 1.46035,-0.77278 -0.70088,-3.37858 -4.33594,-6.58594 0.11295,-0.87174 0.23326,-1.71084 0.35547,-2.53906 z m 57.08399,0 c 6.55282,1.95209 14.83533,4.34314 22.44336,6.25977 l -2.27735,18.77929 c -2.08013,4.80312 -5.4302,8.36502 -10.73633,8.95899 -12.63225,1.41394 -11.51422,-19.87783 -9.42968,-33.99805 z m 75.29882,0 c 6.8081,2.02803 15.48168,4.52416 23.3086,6.4707 -0.14744,11.53273 -2.56341,26.26091 -13.87695,27.52735 -12.63219,1.41394 -11.51537,-19.87783 -9.43165,-33.99805 z m 35.72852,0 c 6.80752,2.02798 15.48175,4.52404 23.30859,6.4707 -0.14717,11.53273 -2.5626,26.26091 -13.87695,27.52735 -10.14024,1.13509 -11.41921,-12.38116 -10.45312,-25.0625 3.11275,0.50545 5.36991,0.63641 6.21289,0.18945 1.59577,-0.84482 -1.16045,-3.8896 -5.41797,-7.50781 0.0744,-0.54607 0.14872,-1.08967 0.22656,-1.61719 z m -364.23245,0.11523 c 6.7563,2.0091 15.242,4.44594 22.9199,6.35547 -0.1474,11.53273 -2.5654,26.26091 -13.8789,27.52735 -10.2572,1.14823 -11.4468,-12.69551 -10.4179,-25.50196 4.3122,0.83197 7.5601,1.18103 8.6015,0.62891 1.8131,-0.95975 -1.9694,-4.75121 -7.2246,-9.00977 z m 283.86917,0.37696 c 0.96279,0.28459 1.78999,0.53413 2.8125,0.83203 3.18665,2.69941 5.42354,4.80061 5.07812,5.14648 -0.28967,0.28934 -3.56462,-0.20095 -8.22851,-1.10742 0.12003,-1.70152 0.24062,-3.40089 0.33789,-4.87109 z m -122.86524,0.0488 c 0.98503,0.29092 1.85452,0.55113 2.90039,0.85546 3.13776,2.66203 5.33631,4.7316 4.99415,5.07422 -0.28968,0.28934 -3.56458,-0.20095 -8.22852,-1.10742 0.11849,-1.67962 0.23758,-3.36745 0.33398,-4.82226 z m -161.53903,0.50585 c 3.3769,2.84414 5.7529,5.06541 5.3945,5.42383 -0.2392,0.23904 -2.5652,-0.0674 -5.9727,-0.68554 0.1707,-1.63492 0.364,-3.21257 0.5782,-4.73829 z m 289.75583,1 c 5.30842,1.52655 11.00193,3.1055 16.30274,4.42383 -0.14718,11.53273 -2.56456,26.26091 -13.87891,27.52735 -4.72713,0.52915 -7.52528,-2.13001 -9.07227,-6.40039 -0.0891,-5.94946 0.3354,-13.14305 0.77539,-19.53711 5.42111,1.1524 9.56307,1.70725 10.7754,1.06445 1.53361,-0.81191 -0.93025,-3.64721 -4.90235,-7.07813 z m -122.77148,0.0723 c 5.23865,1.50436 10.8272,3.05435 16.04297,4.35156 -0.1468,11.53273 -2.56261,26.26091 -13.87696,27.52735 -4.56495,0.51099 -7.32449,-1.9615 -8.90234,-5.97657 -0.11645,-6.02522 0.32301,-13.41669 0.77344,-19.96093 5.42139,1.15244 9.56499,1.70726 10.77734,1.06445 1.52309,-0.80634 -0.89062,-3.60671 -4.81445,-7.00586 z m 197.375,0.79688 c 2.13149,1.88582 3.50951,3.28114 3.23633,3.55468 -0.17762,0.17721 -1.55573,0.0403 -3.59766,-0.28125 0.11167,-1.106 0.2265,-2.20917 0.36133,-3.27343 z m -328.15235,0.64648 c 1.7279,1.56825 2.7377,2.6646 2.4941,2.9082 -0.154,0.15393 -1.1971,0.0759 -2.7929,-0.15429 0.093,-0.92887 0.1889,-1.85261 0.2988,-2.75391 z m 159.92969,0.33398 c 1.48998,1.37877 2.36135,2.34929 2.13672,2.57422 -0.14296,0.14279 -1.00816,0.0973 -2.40625,-0.0937 0.0832,-0.83703 0.17219,-1.66506 0.26953,-2.48047 z m -129.30469,4.16407 c 2.36098,0.5019 4.48556,0.89441 6.21875,1.11718 l -4.20703,34.69336 c -0.33089,-2.5227 -0.74291,-4.50067 -1.28125,-5.52343 -2.30969,-4.38972 -1.52596,-18.72804 -0.73047,-30.28711 z m 123.0293,0 c 0.004,7.9e-4 0.008,10e-4 0.0117,0.002 l -0.0234,0.19141 c 0.004,-0.0629 0.007,-0.13059 0.0117,-0.19336 z m 123.03125,0 c 3.97825,0.84568 7.2631,1.36893 9.20313,1.33008 l -5.09376,42.00976 -1.10156,9.08398 -0.004,0.0273 c -0.21225,-10.26445 -0.82702,-19.41608 -2.27344,-22.16406 -2.31051,-4.38972 -1.52614,-18.72803 -0.73047,-30.28711 z m 556.73047,32.80468 c 0.0261,1.91678 0.0742,4.42218 0.11328,6.70508 -0.0393,-2.28979 -0.0871,-4.78383 -0.11328,-6.70508 z m -639.94727,15.14063 c 0.0244,0.69511 0.0427,1.40282 0.0625,2.11523 -0.0198,-0.71015 -0.0382,-1.42229 -0.0625,-2.11523 z m 0.1875,8.36914 c 0.001,0.13005 0.005,0.25458 0.006,0.38477 -0.001,-0.12946 -0.004,-0.25545 -0.006,-0.38477 z m 311.67383,9.56836 c 0.0332,5.5e-4 0.0471,0.003 0.0723,0.004 -0.0231,-10e-4 -0.0425,-0.003 -0.0723,-0.004 z m 54.75781,0 c 0.0325,5.5e-4 0.0456,0.003 0.0703,0.004 -0.0225,-10e-4 -0.0417,-0.003 -0.0703,-0.004 z m 54.75586,0 c 0.0324,5.5e-4 0.0456,0.003 0.0703,0.004 -0.0224,-10e-4 -0.0415,-0.003 -0.0703,-0.004 z m 54.75586,0 c 0.0295,4.9e-4 0.0433,0.003 0.0664,0.004 -0.0217,-10e-4 -0.039,-0.003 -0.0664,-0.004 z m 164.26953,0 c 0.0295,4.9e-4 0.0433,0.003 0.0664,0.004 -0.0214,-10e-4 -0.0394,-0.003 -0.0664,-0.004 z m -870.44724,22.41211 c -0.01,0.19867 -0.012,0.33125 -0.014,0.39258 0,-0.0613 0.01,-0.19391 0.014,-0.39258 z m -0.014,0.39648 c 0,0.003 0,0.003 0,0.004 5e-4,-10e-4 0,-0.003 0,-0.004 z m 0,0.008 c 0,0.007 0,0.0116 0,0.0156 0,-0.004 0,-0.009 0,-0.0156 z m 0,0.0195 v 0.004 z m -16.7403,1.11328 h 0.018 z m 113.12307,0 h 0.0254 z m 50.91601,0 h 0.0176 z m 28.83984,0 h 0.0176 z m 36.92969,0 h 0.0254 z m 57.08399,0 h 0.0254 z m 29.01758,0 h 0.0156 z m 46.28906,0 h 0.0195 z m 35.72851,0 h 0.0195 z"
       id="clothes"
       inkscape:connector-curvature="0" />
    <path
       style="fill:#000000;fill-opacity:0.00392157;fill-rule:nonzero;stroke:none;stroke-width:1.77958155"
       d="m 295.83008,117.94727 v 272.73242 h 273.125 V 117.94727 Z"
       transform="matrix(0.93749999,0,0,0.93749999,-1172.4288,-0.97120667)"
       id="manga"
       inkscape:connector-curvature="0"
       sodipodi:nodetypes="ccccc"
       inkscape:label="#path12732" />
    <path
       style="fill:#000000;fill-opacity:0.00392157;fill-rule:nonzero;stroke:none;stroke-width:2.03969097"
       d="m 931.17969,161.46094 v 312.5957 h 313.04491 v -312.5957 z"
       transform="matrix(0.93749999,0,0,0.93749999,-1172.4288,-0.97120667)"
       id="psychus"
       inkscape:connector-curvature="0"
       inkscape:label="#path12638-6" />
  </g>
</svg>
